ISO-10303-21;
HEADER;
/* Generated by software containing ST-Developer
 * from STEP Tools, Inc. (www.steptools.com) 
 */

FILE_DESCRIPTION(
/* description */ (''),
/* implementation_level */ '2;1');

FILE_NAME(
/* name */ 'DD17.2 Front Rail.step',
/* time_stamp */ '2023-12-14T18:24:39-06:00',
/* author */ (''),
/* organization */ (''),
/* preprocessor_version */ 'ST-DEVELOPER v20',
/* originating_system */ 'Autodesk Translation Framework v12.14.0.127',

/* authorisation */ '');

FILE_SCHEMA (('AUTOMOTIVE_DESIGN { 1 0 10303 214 3 1 1 }'));
ENDSEC;

DATA;
#10=MECHANICAL_DESIGN_GEOMETRIC_PRESENTATION_REPRESENTATION('',(#13),#685);
#11=SHAPE_REPRESENTATION_RELATIONSHIP('SRR','None',#692,#12);
#12=ADVANCED_BREP_SHAPE_REPRESENTATION('',(#14),#684);
#13=STYLED_ITEM('',(#702),#14);
#14=MANIFOLD_SOLID_BREP('Body1',#407);
#15=B_SPLINE_CURVE_WITH_KNOTS('',3,(#626,#627,#628,#629,#630,#631,#632,
#633,#634,#635,#636,#637,#638,#639,#640,#641,#642,#643),.UNSPECIFIED.,.F.,
 .F.,(4,2,2,2,2,2,2,2,4),(0.720259043972056,0.81030342763931,0.900347811306563,
0.990368188632324,1.08038856595808,1.17040894328384,1.26042932060961,1.35047370427686,
1.44051808794411),.UNSPECIFIED.);
#16=CYLINDRICAL_SURFACE('',#432,2.375);
#17=CYLINDRICAL_SURFACE('',#434,1.49999999999999);
#18=CYLINDRICAL_SURFACE('',#442,8.12999999999999);
#19=FACE_BOUND('',#51,.T.);
#20=FACE_BOUND('',#67,.T.);
#21=CIRCLE('',#424,1.49999999999999);
#22=CIRCLE('',#430,8.12999999999999);
#23=CIRCLE('',#433,2.375);
#24=CIRCLE('',#435,1.49999999999999);
#25=CIRCLE('',#437,8.12999999999999);
#26=CIRCLE('',#443,8.12999999999999);
#27=FACE_OUTER_BOUND('',#48,.T.);
#28=FACE_OUTER_BOUND('',#49,.T.);
#29=FACE_OUTER_BOUND('',#50,.T.);
#30=FACE_OUTER_BOUND('',#52,.T.);
#31=FACE_OUTER_BOUND('',#53,.T.);
#32=FACE_OUTER_BOUND('',#54,.T.);
#33=FACE_OUTER_BOUND('',#55,.T.);
#34=FACE_OUTER_BOUND('',#56,.T.);
#35=FACE_OUTER_BOUND('',#57,.T.);
#36=FACE_OUTER_BOUND('',#58,.T.);
#37=FACE_OUTER_BOUND('',#59,.T.);
#38=FACE_OUTER_BOUND('',#60,.T.);
#39=FACE_OUTER_BOUND('',#61,.T.);
#40=FACE_OUTER_BOUND('',#62,.T.);
#41=FACE_OUTER_BOUND('',#63,.T.);
#42=FACE_OUTER_BOUND('',#64,.T.);
#43=FACE_OUTER_BOUND('',#65,.T.);
#44=FACE_OUTER_BOUND('',#66,.T.);
#45=FACE_OUTER_BOUND('',#68,.T.);
#46=FACE_OUTER_BOUND('',#69,.T.);
#47=FACE_OUTER_BOUND('',#70,.T.);
#48=EDGE_LOOP('',(#258,#259,#260,#261));
#49=EDGE_LOOP('',(#262,#263,#264,#265));
#50=EDGE_LOOP('',(#266,#267,#268,#269));
#51=EDGE_LOOP('',(#270));
#52=EDGE_LOOP('',(#271,#272,#273,#274,#275));
#53=EDGE_LOOP('',(#276,#277,#278,#279));
#54=EDGE_LOOP('',(#280,#281,#282,#283));
#55=EDGE_LOOP('',(#284,#285,#286,#287));
#56=EDGE_LOOP('',(#288,#289,#290,#291,#292,#293,#294,#295));
#57=EDGE_LOOP('',(#296,#297,#298,#299));
#58=EDGE_LOOP('',(#300,#301,#302,#303));
#59=EDGE_LOOP('',(#304,#305,#306,#307));
#60=EDGE_LOOP('',(#308,#309,#310,#311,#312,#313,#314,#315));
#61=EDGE_LOOP('',(#316,#317,#318,#319,#320));
#62=EDGE_LOOP('',(#321,#322,#323,#324));
#63=EDGE_LOOP('',(#325,#326,#327,#328,#329,#330,#331,#332));
#64=EDGE_LOOP('',(#333,#334,#335,#336));
#65=EDGE_LOOP('',(#337,#338,#339,#340,#341,#342,#343,#344));
#66=EDGE_LOOP('',(#345,#346,#347,#348));
#67=EDGE_LOOP('',(#349));
#68=EDGE_LOOP('',(#350,#351,#352,#353,#354,#355,#356,#357,#358,#359));
#69=EDGE_LOOP('',(#360,#361,#362,#363));
#70=EDGE_LOOP('',(#364,#365,#366,#367));
#71=LINE('',#556,#119);
#72=LINE('',#558,#120);
#73=LINE('',#560,#121);
#74=LINE('',#561,#122);
#75=LINE('',#564,#123);
#76=LINE('',#566,#124);
#77=LINE('',#567,#125);
#78=LINE('',#570,#126);
#79=LINE('',#572,#127);
#80=LINE('',#573,#128);
#81=LINE('',#579,#129);
#82=LINE('',#581,#130);
#83=LINE('',#583,#131);
#84=LINE('',#585,#132);
#85=LINE('',#586,#133);
#86=LINE('',#589,#134);
#87=LINE('',#591,#135);
#88=LINE('',#592,#136);
#89=LINE('',#595,#137);
#90=LINE('',#597,#138);
#91=LINE('',#598,#139);
#92=LINE('',#602,#140);
#93=LINE('',#604,#141);
#94=LINE('',#606,#142);
#95=LINE('',#607,#143);
#96=LINE('',#613,#144);
#97=LINE('',#614,#145);
#98=LINE('',#616,#146);
#99=LINE('',#617,#147);
#100=LINE('',#620,#148);
#101=LINE('',#622,#149);
#102=LINE('',#623,#150);
#103=LINE('',#647,#151);
#104=LINE('',#651,#152);
#105=LINE('',#652,#153);
#106=LINE('',#654,#154);
#107=LINE('',#657,#155);
#108=LINE('',#659,#156);
#109=LINE('',#660,#157);
#110=LINE('',#663,#158);
#111=LINE('',#664,#159);
#112=LINE('',#667,#160);
#113=LINE('',#668,#161);
#114=LINE('',#670,#162);
#115=LINE('',#675,#163);
#116=LINE('',#676,#164);
#117=LINE('',#678,#165);
#118=LINE('',#680,#166);
#119=VECTOR('',#452,10.);
#120=VECTOR('',#453,10.);
#121=VECTOR('',#454,10.);
#122=VECTOR('',#455,10.);
#123=VECTOR('',#458,10.);
#124=VECTOR('',#459,10.);
#125=VECTOR('',#460,10.);
#126=VECTOR('',#463,10.);
#127=VECTOR('',#464,10.);
#128=VECTOR('',#465,10.);
#129=VECTOR('',#470,10.);
#130=VECTOR('',#471,10.);
#131=VECTOR('',#472,10.);
#132=VECTOR('',#473,10.);
#133=VECTOR('',#474,10.);
#134=VECTOR('',#477,10.);
#135=VECTOR('',#478,10.);
#136=VECTOR('',#479,10.);
#137=VECTOR('',#482,10.);
#138=VECTOR('',#483,10.);
#139=VECTOR('',#484,10.);
#140=VECTOR('',#487,10.);
#141=VECTOR('',#488,10.);
#142=VECTOR('',#489,10.);
#143=VECTOR('',#490,10.);
#144=VECTOR('',#495,10.);
#145=VECTOR('',#496,10.);
#146=VECTOR('',#497,10.);
#147=VECTOR('',#498,10.);
#148=VECTOR('',#501,10.);
#149=VECTOR('',#502,10.);
#150=VECTOR('',#503,10.);
#151=VECTOR('',#512,1.49999999999999);
#152=VECTOR('',#515,10.);
#153=VECTOR('',#516,10.);
#154=VECTOR('',#519,10.);
#155=VECTOR('',#522,10.);
#156=VECTOR('',#523,10.);
#157=VECTOR('',#524,10.);
#158=VECTOR('',#527,10.);
#159=VECTOR('',#528,10.);
#160=VECTOR('',#531,10.);
#161=VECTOR('',#532,10.);
#162=VECTOR('',#535,10.);
#163=VECTOR('',#542,10.);
#164=VECTOR('',#543,10.);
#165=VECTOR('',#546,10.);
#166=VECTOR('',#549,10.);
#167=VERTEX_POINT('',#554);
#168=VERTEX_POINT('',#555);
#169=VERTEX_POINT('',#557);
#170=VERTEX_POINT('',#559);
#171=VERTEX_POINT('',#563);
#172=VERTEX_POINT('',#565);
#173=VERTEX_POINT('',#569);
#174=VERTEX_POINT('',#571);
#175=VERTEX_POINT('',#574);
#176=VERTEX_POINT('',#577);
#177=VERTEX_POINT('',#578);
#178=VERTEX_POINT('',#580);
#179=VERTEX_POINT('',#582);
#180=VERTEX_POINT('',#584);
#181=VERTEX_POINT('',#588);
#182=VERTEX_POINT('',#590);
#183=VERTEX_POINT('',#594);
#184=VERTEX_POINT('',#596);
#185=VERTEX_POINT('',#600);
#186=VERTEX_POINT('',#601);
#187=VERTEX_POINT('',#603);
#188=VERTEX_POINT('',#605);
#189=VERTEX_POINT('',#609);
#190=VERTEX_POINT('',#610);
#191=VERTEX_POINT('',#612);
#192=VERTEX_POINT('',#615);
#193=VERTEX_POINT('',#619);
#194=VERTEX_POINT('',#621);
#195=VERTEX_POINT('',#645);
#196=VERTEX_POINT('',#649);
#197=VERTEX_POINT('',#650);
#198=VERTEX_POINT('',#656);
#199=VERTEX_POINT('',#658);
#200=VERTEX_POINT('',#662);
#201=VERTEX_POINT('',#666);
#202=VERTEX_POINT('',#674);
#203=EDGE_CURVE('',#167,#168,#71,.T.);
#204=EDGE_CURVE('',#169,#168,#72,.T.);
#205=EDGE_CURVE('',#170,#169,#73,.T.);
#206=EDGE_CURVE('',#170,#167,#74,.T.);
#207=EDGE_CURVE('',#168,#171,#75,.T.);
#208=EDGE_CURVE('',#172,#171,#76,.T.);
#209=EDGE_CURVE('',#172,#169,#77,.T.);
#210=EDGE_CURVE('',#171,#173,#78,.T.);
#211=EDGE_CURVE('',#173,#174,#79,.T.);
#212=EDGE_CURVE('',#172,#174,#80,.T.);
#213=EDGE_CURVE('',#175,#175,#21,.T.);
#214=EDGE_CURVE('',#176,#177,#81,.T.);
#215=EDGE_CURVE('',#178,#177,#82,.T.);
#216=EDGE_CURVE('',#179,#178,#83,.T.);
#217=EDGE_CURVE('',#180,#179,#84,.T.);
#218=EDGE_CURVE('',#176,#180,#85,.T.);
#219=EDGE_CURVE('',#177,#181,#86,.T.);
#220=EDGE_CURVE('',#182,#181,#87,.T.);
#221=EDGE_CURVE('',#182,#178,#88,.T.);
#222=EDGE_CURVE('',#183,#176,#89,.T.);
#223=EDGE_CURVE('',#184,#180,#90,.T.);
#224=EDGE_CURVE('',#183,#184,#91,.T.);
#225=EDGE_CURVE('',#185,#186,#92,.T.);
#226=EDGE_CURVE('',#187,#185,#93,.T.);
#227=EDGE_CURVE('',#188,#187,#94,.F.);
#228=EDGE_CURVE('',#186,#188,#95,.T.);
#229=EDGE_CURVE('',#189,#190,#22,.T.);
#230=EDGE_CURVE('',#190,#191,#96,.T.);
#231=EDGE_CURVE('',#191,#173,#97,.T.);
#232=EDGE_CURVE('',#192,#167,#98,.T.);
#233=EDGE_CURVE('',#189,#192,#99,.T.);
#234=EDGE_CURVE('',#193,#190,#100,.F.);
#235=EDGE_CURVE('',#193,#194,#101,.T.);
#236=EDGE_CURVE('',#191,#194,#102,.T.);
#237=EDGE_CURVE('',#194,#185,#23,.T.);
#238=EDGE_CURVE('',#187,#193,#15,.F.);
#239=EDGE_CURVE('',#195,#195,#24,.T.);
#240=EDGE_CURVE('',#195,#175,#103,.T.);
#241=EDGE_CURVE('',#196,#197,#104,.T.);
#242=EDGE_CURVE('',#196,#186,#105,.T.);
#243=EDGE_CURVE('',#181,#188,#25,.T.);
#244=EDGE_CURVE('',#197,#183,#106,.T.);
#245=EDGE_CURVE('',#170,#198,#107,.T.);
#246=EDGE_CURVE('',#198,#199,#108,.T.);
#247=EDGE_CURVE('',#192,#199,#109,.T.);
#248=EDGE_CURVE('',#200,#199,#110,.T.);
#249=EDGE_CURVE('',#200,#189,#111,.T.);
#250=EDGE_CURVE('',#201,#196,#112,.T.);
#251=EDGE_CURVE('',#201,#174,#113,.T.);
#252=EDGE_CURVE('',#198,#172,#114,.T.);
#253=EDGE_CURVE('',#182,#200,#26,.T.);
#254=EDGE_CURVE('',#197,#202,#115,.T.);
#255=EDGE_CURVE('',#201,#202,#116,.T.);
#256=EDGE_CURVE('',#202,#179,#117,.T.);
#257=EDGE_CURVE('',#202,#184,#118,.T.);
#258=ORIENTED_EDGE('',*,*,#203,.T.);
#259=ORIENTED_EDGE('',*,*,#204,.F.);
#260=ORIENTED_EDGE('',*,*,#205,.F.);
#261=ORIENTED_EDGE('',*,*,#206,.T.);
#262=ORIENTED_EDGE('',*,*,#207,.T.);
#263=ORIENTED_EDGE('',*,*,#208,.F.);
#264=ORIENTED_EDGE('',*,*,#209,.T.);
#265=ORIENTED_EDGE('',*,*,#204,.T.);
#266=ORIENTED_EDGE('',*,*,#210,.T.);
#267=ORIENTED_EDGE('',*,*,#211,.T.);
#268=ORIENTED_EDGE('',*,*,#212,.F.);
#269=ORIENTED_EDGE('',*,*,#208,.T.);
#270=ORIENTED_EDGE('',*,*,#213,.T.);
#271=ORIENTED_EDGE('',*,*,#214,.T.);
#272=ORIENTED_EDGE('',*,*,#215,.F.);
#273=ORIENTED_EDGE('',*,*,#216,.F.);
#274=ORIENTED_EDGE('',*,*,#217,.F.);
#275=ORIENTED_EDGE('',*,*,#218,.F.);
#276=ORIENTED_EDGE('',*,*,#219,.T.);
#277=ORIENTED_EDGE('',*,*,#220,.F.);
#278=ORIENTED_EDGE('',*,*,#221,.T.);
#279=ORIENTED_EDGE('',*,*,#215,.T.);
#280=ORIENTED_EDGE('',*,*,#222,.T.);
#281=ORIENTED_EDGE('',*,*,#218,.T.);
#282=ORIENTED_EDGE('',*,*,#223,.F.);
#283=ORIENTED_EDGE('',*,*,#224,.F.);
#284=ORIENTED_EDGE('',*,*,#225,.F.);
#285=ORIENTED_EDGE('',*,*,#226,.F.);
#286=ORIENTED_EDGE('',*,*,#227,.F.);
#287=ORIENTED_EDGE('',*,*,#228,.F.);
#288=ORIENTED_EDGE('',*,*,#229,.T.);
#289=ORIENTED_EDGE('',*,*,#230,.T.);
#290=ORIENTED_EDGE('',*,*,#231,.T.);
#291=ORIENTED_EDGE('',*,*,#210,.F.);
#292=ORIENTED_EDGE('',*,*,#207,.F.);
#293=ORIENTED_EDGE('',*,*,#203,.F.);
#294=ORIENTED_EDGE('',*,*,#232,.F.);
#295=ORIENTED_EDGE('',*,*,#233,.F.);
#296=ORIENTED_EDGE('',*,*,#234,.F.);
#297=ORIENTED_EDGE('',*,*,#235,.T.);
#298=ORIENTED_EDGE('',*,*,#236,.F.);
#299=ORIENTED_EDGE('',*,*,#230,.F.);
#300=ORIENTED_EDGE('',*,*,#226,.T.);
#301=ORIENTED_EDGE('',*,*,#237,.F.);
#302=ORIENTED_EDGE('',*,*,#235,.F.);
#303=ORIENTED_EDGE('',*,*,#238,.F.);
#304=ORIENTED_EDGE('',*,*,#239,.F.);
#305=ORIENTED_EDGE('',*,*,#240,.T.);
#306=ORIENTED_EDGE('',*,*,#213,.F.);
#307=ORIENTED_EDGE('',*,*,#240,.F.);
#308=ORIENTED_EDGE('',*,*,#241,.F.);
#309=ORIENTED_EDGE('',*,*,#242,.T.);
#310=ORIENTED_EDGE('',*,*,#228,.T.);
#311=ORIENTED_EDGE('',*,*,#243,.F.);
#312=ORIENTED_EDGE('',*,*,#219,.F.);
#313=ORIENTED_EDGE('',*,*,#214,.F.);
#314=ORIENTED_EDGE('',*,*,#222,.F.);
#315=ORIENTED_EDGE('',*,*,#244,.F.);
#316=ORIENTED_EDGE('',*,*,#232,.T.);
#317=ORIENTED_EDGE('',*,*,#206,.F.);
#318=ORIENTED_EDGE('',*,*,#245,.T.);
#319=ORIENTED_EDGE('',*,*,#246,.T.);
#320=ORIENTED_EDGE('',*,*,#247,.F.);
#321=ORIENTED_EDGE('',*,*,#233,.T.);
#322=ORIENTED_EDGE('',*,*,#247,.T.);
#323=ORIENTED_EDGE('',*,*,#248,.F.);
#324=ORIENTED_EDGE('',*,*,#249,.T.);
#325=ORIENTED_EDGE('',*,*,#225,.T.);
#326=ORIENTED_EDGE('',*,*,#242,.F.);
#327=ORIENTED_EDGE('',*,*,#250,.F.);
#328=ORIENTED_EDGE('',*,*,#251,.T.);
#329=ORIENTED_EDGE('',*,*,#211,.F.);
#330=ORIENTED_EDGE('',*,*,#231,.F.);
#331=ORIENTED_EDGE('',*,*,#236,.T.);
#332=ORIENTED_EDGE('',*,*,#237,.T.);
#333=ORIENTED_EDGE('',*,*,#252,.F.);
#334=ORIENTED_EDGE('',*,*,#245,.F.);
#335=ORIENTED_EDGE('',*,*,#205,.T.);
#336=ORIENTED_EDGE('',*,*,#209,.F.);
#337=ORIENTED_EDGE('',*,*,#229,.F.);
#338=ORIENTED_EDGE('',*,*,#249,.F.);
#339=ORIENTED_EDGE('',*,*,#253,.F.);
#340=ORIENTED_EDGE('',*,*,#220,.T.);
#341=ORIENTED_EDGE('',*,*,#243,.T.);
#342=ORIENTED_EDGE('',*,*,#227,.T.);
#343=ORIENTED_EDGE('',*,*,#238,.T.);
#344=ORIENTED_EDGE('',*,*,#234,.T.);
#345=ORIENTED_EDGE('',*,*,#241,.T.);
#346=ORIENTED_EDGE('',*,*,#254,.T.);
#347=ORIENTED_EDGE('',*,*,#255,.F.);
#348=ORIENTED_EDGE('',*,*,#250,.T.);
#349=ORIENTED_EDGE('',*,*,#239,.T.);
#350=ORIENTED_EDGE('',*,*,#252,.T.);
#351=ORIENTED_EDGE('',*,*,#212,.T.);
#352=ORIENTED_EDGE('',*,*,#251,.F.);
#353=ORIENTED_EDGE('',*,*,#255,.T.);
#354=ORIENTED_EDGE('',*,*,#256,.T.);
#355=ORIENTED_EDGE('',*,*,#216,.T.);
#356=ORIENTED_EDGE('',*,*,#221,.F.);
#357=ORIENTED_EDGE('',*,*,#253,.T.);
#358=ORIENTED_EDGE('',*,*,#248,.T.);
#359=ORIENTED_EDGE('',*,*,#246,.F.);
#360=ORIENTED_EDGE('',*,*,#244,.T.);
#361=ORIENTED_EDGE('',*,*,#224,.T.);
#362=ORIENTED_EDGE('',*,*,#257,.F.);
#363=ORIENTED_EDGE('',*,*,#254,.F.);
#364=ORIENTED_EDGE('',*,*,#256,.F.);
#365=ORIENTED_EDGE('',*,*,#257,.T.);
#366=ORIENTED_EDGE('',*,*,#223,.T.);
#367=ORIENTED_EDGE('',*,*,#217,.T.);
#368=PLANE('',#421);
#369=PLANE('',#422);
#370=PLANE('',#423);
#371=PLANE('',#425);
#372=PLANE('',#426);
#373=PLANE('',#427);
#374=PLANE('',#428);
#375=PLANE('',#429);
#376=PLANE('',#431);
#377=PLANE('',#436);
#378=PLANE('',#438);
#379=PLANE('',#439);
#380=PLANE('',#440);
#381=PLANE('',#441);
#382=PLANE('',#444);
#383=PLANE('',#445);
#384=PLANE('',#446);
#385=PLANE('',#447);
#386=ADVANCED_FACE('',(#27),#368,.T.);
#387=ADVANCED_FACE('',(#28),#369,.T.);
#388=ADVANCED_FACE('',(#29,#19),#370,.T.);
#389=ADVANCED_FACE('',(#30),#371,.F.);
#390=ADVANCED_FACE('',(#31),#372,.F.);
#391=ADVANCED_FACE('',(#32),#373,.T.);
#392=ADVANCED_FACE('',(#33),#374,.F.);
#393=ADVANCED_FACE('',(#34),#375,.T.);
#394=ADVANCED_FACE('',(#35),#376,.F.);
#395=ADVANCED_FACE('',(#36),#16,.F.);
#396=ADVANCED_FACE('',(#37),#17,.F.);
#397=ADVANCED_FACE('',(#38),#377,.T.);
#398=ADVANCED_FACE('',(#39),#378,.F.);
#399=ADVANCED_FACE('',(#40),#379,.F.);
#400=ADVANCED_FACE('',(#41),#380,.T.);
#401=ADVANCED_FACE('',(#42),#381,.T.);
#402=ADVANCED_FACE('',(#43),#18,.F.);
#403=ADVANCED_FACE('',(#44,#20),#382,.T.);
#404=ADVANCED_FACE('',(#45),#383,.T.);
#405=ADVANCED_FACE('',(#46),#384,.T.);
#406=ADVANCED_FACE('',(#47),#385,.F.);
#407=CLOSED_SHELL('',(#386,#387,#388,#389,#390,#391,#392,#393,#394,#395,
#396,#397,#398,#399,#400,#401,#402,#403,#404,#405,#406));
#408=DERIVED_UNIT_ELEMENT(#410,1.);
#409=DERIVED_UNIT_ELEMENT(#687,-3.);
#410=(
MASS_UNIT()
NAMED_UNIT(*)
SI_UNIT(.KILO.,.GRAM.)
);
#411=DERIVED_UNIT((#408,#409));
#412=MEASURE_REPRESENTATION_ITEM('density measure',
POSITIVE_RATIO_MEASURE(7850.),#411);
#413=PROPERTY_DEFINITION_REPRESENTATION(#418,#415);
#414=PROPERTY_DEFINITION_REPRESENTATION(#419,#416);
#415=REPRESENTATION('material name',(#417),#684);
#416=REPRESENTATION('density',(#412),#684);
#417=DESCRIPTIVE_REPRESENTATION_ITEM('Steel','Steel');
#418=PROPERTY_DEFINITION('material property','material name',#694);
#419=PROPERTY_DEFINITION('material property','density of part',#694);
#420=AXIS2_PLACEMENT_3D('',#552,#448,#449);
#421=AXIS2_PLACEMENT_3D('',#553,#450,#451);
#422=AXIS2_PLACEMENT_3D('',#562,#456,#457);
#423=AXIS2_PLACEMENT_3D('',#568,#461,#462);
#424=AXIS2_PLACEMENT_3D('',#575,#466,#467);
#425=AXIS2_PLACEMENT_3D('',#576,#468,#469);
#426=AXIS2_PLACEMENT_3D('',#587,#475,#476);
#427=AXIS2_PLACEMENT_3D('',#593,#480,#481);
#428=AXIS2_PLACEMENT_3D('',#599,#485,#486);
#429=AXIS2_PLACEMENT_3D('',#608,#491,#492);
#430=AXIS2_PLACEMENT_3D('',#611,#493,#494);
#431=AXIS2_PLACEMENT_3D('',#618,#499,#500);
#432=AXIS2_PLACEMENT_3D('',#624,#504,#505);
#433=AXIS2_PLACEMENT_3D('',#625,#506,#507);
#434=AXIS2_PLACEMENT_3D('',#644,#508,#509);
#435=AXIS2_PLACEMENT_3D('',#646,#510,#511);
#436=AXIS2_PLACEMENT_3D('',#648,#513,#514);
#437=AXIS2_PLACEMENT_3D('',#653,#517,#518);
#438=AXIS2_PLACEMENT_3D('',#655,#520,#521);
#439=AXIS2_PLACEMENT_3D('',#661,#525,#526);
#440=AXIS2_PLACEMENT_3D('',#665,#529,#530);
#441=AXIS2_PLACEMENT_3D('',#669,#533,#534);
#442=AXIS2_PLACEMENT_3D('',#671,#536,#537);
#443=AXIS2_PLACEMENT_3D('',#672,#538,#539);
#444=AXIS2_PLACEMENT_3D('',#673,#540,#541);
#445=AXIS2_PLACEMENT_3D('',#677,#544,#545);
#446=AXIS2_PLACEMENT_3D('',#679,#547,#548);
#447=AXIS2_PLACEMENT_3D('',#681,#550,#551);
#448=DIRECTION('axis',(0.,0.,1.));
#449=DIRECTION('refdir',(1.,0.,0.));
#450=DIRECTION('center_axis',(1.,2.22044604925031E-16,1.22464679914735E-16));
#451=DIRECTION('ref_axis',(-1.22464679914735E-16,-6.12323399573676E-17,
1.));
#452=DIRECTION('',(1.22464679900469E-16,6.42508881134473E-11,-1.));
#453=DIRECTION('',(2.22044604925031E-16,-1.,-6.12323399573676E-17));
#454=DIRECTION('',(1.22464679914735E-16,6.12323399573676E-17,-1.));
#455=DIRECTION('',(2.22044604925031E-16,-1.,-6.12323399573676E-17));
#456=DIRECTION('center_axis',(1.22464679914735E-16,6.12323399573676E-17,
-1.));
#457=DIRECTION('ref_axis',(-1.,-2.22044604925031E-16,-1.22464679914735E-16));
#458=DIRECTION('',(-1.,-2.22044604925031E-16,-1.22464679914735E-16));
#459=DIRECTION('',(2.22044604925031E-16,-1.,-6.12323399573676E-17));
#460=DIRECTION('',(0.707106781186546,-0.707106781186549,8.6595605623549E-17));
#461=DIRECTION('center_axis',(1.,2.22044604925031E-16,1.22464679914735E-16));
#462=DIRECTION('ref_axis',(-1.22464679914735E-16,-6.12323399573676E-17,
1.));
#463=DIRECTION('',(1.22464679900469E-16,6.42508881134473E-11,-1.));
#464=DIRECTION('',(-2.22044604925031E-16,1.,6.12323399573676E-17));
#465=DIRECTION('',(1.22464679914735E-16,6.12323399573676E-17,-1.));
#466=DIRECTION('center_axis',(-1.,-2.22044604925031E-16,-1.22464679914735E-16));
#467=DIRECTION('ref_axis',(-2.22044604925031E-16,1.,6.12323399573676E-17));
#468=DIRECTION('center_axis',(1.22464679914735E-16,6.12323399573676E-17,
-1.));
#469=DIRECTION('ref_axis',(-1.,-2.22044604925031E-16,-1.22464679914735E-16));
#470=DIRECTION('',(1.,2.22044604925031E-16,1.22464679914735E-16));
#471=DIRECTION('',(2.22044604925031E-16,-1.,-6.12323399573676E-17));
#472=DIRECTION('',(1.,2.22044604925031E-16,1.22464679914735E-16));
#473=DIRECTION('',(0.707106781186546,0.707106781186549,8.65956056235493E-17));
#474=DIRECTION('',(-2.22044604925031E-16,1.,6.12323399573676E-17));
#475=DIRECTION('center_axis',(-1.,-2.22044604925031E-16,-1.22464679914735E-16));
#476=DIRECTION('ref_axis',(1.22464679914735E-16,6.12323399573676E-17,-1.));
#477=DIRECTION('',(1.22464679900469E-16,6.42508881134473E-11,-1.));
#478=DIRECTION('',(2.22044604925031E-16,-1.,-6.12323399573676E-17));
#479=DIRECTION('',(-6.12323399573679E-17,-6.12323399573676E-17,1.));
#480=DIRECTION('center_axis',(-1.,-2.22044604925014E-16,-2.75764051705567E-13));
#481=DIRECTION('ref_axis',(2.75764051705567E-13,6.12323399574288E-17,-1.));
#482=DIRECTION('',(-2.75764051705553E-13,-6.42508881134473E-11,1.));
#483=DIRECTION('',(-2.75764051705567E-13,-2.7570281936561E-13,1.));
#484=DIRECTION('',(-2.22044604925031E-16,1.,6.12323399573676E-17));
#485=DIRECTION('center_axis',(-1.,-2.22044604925031E-16,-1.22464679914735E-16));
#486=DIRECTION('ref_axis',(2.22044604925031E-16,-1.,-6.12323399573676E-17));
#487=DIRECTION('',(2.22044604925031E-16,-1.,-6.12323399573676E-17));
#488=DIRECTION('',(1.22464679914735E-16,6.12323399573676E-17,-1.));
#489=DIRECTION('',(2.22044604925031E-16,-1.,-6.12323399573676E-17));
#490=DIRECTION('',(-1.22464679900469E-16,-6.42508881134473E-11,1.));
#491=DIRECTION('center_axis',(2.220446049329E-16,-1.,-6.42508881134473E-11));
#492=DIRECTION('ref_axis',(1.22464679900469E-16,6.42508881134473E-11,-1.));
#493=DIRECTION('center_axis',(-2.220446049329E-16,1.,6.42508881134473E-11));
#494=DIRECTION('ref_axis',(1.,2.22044604920644E-16,1.90744078723171E-16));
#495=DIRECTION('',(1.22464679900469E-16,6.42508881134473E-11,-1.));
#496=DIRECTION('',(1.,2.22044604925031E-16,1.22464679914735E-16));
#497=DIRECTION('',(1.,2.22044604925031E-16,1.22464679914735E-16));
#498=DIRECTION('',(-1.22464679900469E-16,-6.42508881134473E-11,1.));
#499=DIRECTION('center_axis',(1.,2.22044604925031E-16,1.22464679914735E-16));
#500=DIRECTION('ref_axis',(-2.22044604925031E-16,1.,6.12323399573676E-17));
#501=DIRECTION('',(-2.22044604925031E-16,1.,6.12323399573676E-17));
#502=DIRECTION('',(1.22464679914735E-16,6.12323399573676E-17,-1.));
#503=DIRECTION('',(-2.22044604925031E-16,1.,6.12323399573676E-17));
#504=DIRECTION('center_axis',(-1.22464679914735E-16,-6.12323399573676E-17,
1.));
#505=DIRECTION('ref_axis',(-2.22044604925031E-16,1.,6.12323399573676E-17));
#506=DIRECTION('center_axis',(-1.22464679914735E-16,-6.12323399573676E-17,
1.));
#507=DIRECTION('ref_axis',(-2.22044604925031E-16,1.,6.12323399573676E-17));
#508=DIRECTION('center_axis',(1.,2.22044604925031E-16,1.22464679914735E-16));
#509=DIRECTION('ref_axis',(-2.22044604925031E-16,1.,6.12323399573676E-17));
#510=DIRECTION('center_axis',(1.,2.22044604925031E-16,1.22464679914735E-16));
#511=DIRECTION('ref_axis',(-2.22044604925031E-16,1.,6.12323399573676E-17));
#512=DIRECTION('',(1.,2.22044604925031E-16,1.22464679914735E-16));
#513=DIRECTION('center_axis',(2.220446049329E-16,-1.,-6.42508881134473E-11));
#514=DIRECTION('ref_axis',(1.22464679900469E-16,6.42508881134473E-11,-1.));
#515=DIRECTION('',(-1.22464679900469E-16,-6.42508881134473E-11,1.));
#516=DIRECTION('',(1.,2.22044604925031E-16,1.22464679914735E-16));
#517=DIRECTION('center_axis',(2.220446049329E-16,-1.,-6.42508881134473E-11));
#518=DIRECTION('ref_axis',(1.,2.22044604920644E-16,1.90744078723171E-16));
#519=DIRECTION('',(-1.,-2.22044604925031E-16,-1.22464679914735E-16));
#520=DIRECTION('center_axis',(1.22464679914735E-16,6.12323399573676E-17,
-1.));
#521=DIRECTION('ref_axis',(-1.,-2.22044604925031E-16,-1.22464679914735E-16));
#522=DIRECTION('',(-0.707106781186546,0.707106781186549,-8.6595605623549E-17));
#523=DIRECTION('',(-1.,-2.22044604925031E-16,-1.22464679914735E-16));
#524=DIRECTION('',(-2.22044604925031E-16,1.,6.12323399573676E-17));
#525=DIRECTION('center_axis',(1.,2.22044604925031E-16,1.22464679914735E-16));
#526=DIRECTION('ref_axis',(-1.22464679914735E-16,-6.12323399573676E-17,
1.));
#527=DIRECTION('',(-1.22464679914735E-16,-6.12323399573676E-17,1.));
#528=DIRECTION('',(2.22044604925031E-16,-1.,-6.12323399573676E-17));
#529=DIRECTION('center_axis',(1.22464679914735E-16,6.12323399573676E-17,
-1.));
#530=DIRECTION('ref_axis',(-2.22044604925031E-16,1.,6.12323399573676E-17));
#531=DIRECTION('',(2.22044604925031E-16,-1.,-6.12323399573676E-17));
#532=DIRECTION('',(1.,2.22044604925031E-16,1.22464679914735E-16));
#533=DIRECTION('center_axis',(0.707106781186549,0.707106781186546,1.29893408435324E-16));
#534=DIRECTION('ref_axis',(-1.83697019872103E-16,2.52342317122863E-31,1.));
#535=DIRECTION('',(1.22464679914735E-16,6.12323399573676E-17,-1.));
#536=DIRECTION('center_axis',(2.22044604925031E-16,-1.,-6.12323399573676E-17));
#537=DIRECTION('ref_axis',(1.,2.22044604925031E-16,1.90744078723171E-16));
#538=DIRECTION('center_axis',(2.22044604925031E-16,-1.,-6.12323399573676E-17));
#539=DIRECTION('ref_axis',(1.,2.22044604925031E-16,1.90744078723171E-16));
#540=DIRECTION('center_axis',(-1.,-2.22044604925031E-16,-1.22464679914735E-16));
#541=DIRECTION('ref_axis',(1.22464679914735E-16,6.12323399573676E-17,-1.));
#542=DIRECTION('',(-2.22044604925031E-16,1.,6.12323399573676E-17));
#543=DIRECTION('',(-1.22464679914735E-16,-6.12323399573676E-17,1.));
#544=DIRECTION('center_axis',(-2.22044604925031E-16,1.,6.12323399573676E-17));
#545=DIRECTION('ref_axis',(-1.22464679914735E-16,-6.12323399573676E-17,
1.));
#546=DIRECTION('',(-1.22464679914735E-16,-6.12323399573676E-17,1.));
#547=DIRECTION('center_axis',(1.22464679914735E-16,6.12323399573676E-17,
-1.));
#548=DIRECTION('ref_axis',(-1.,-2.22044604925031E-16,-1.22464679914735E-16));
#549=DIRECTION('',(-0.707106781186546,-0.707106781186549,-8.65956056235493E-17));
#550=DIRECTION('center_axis',(0.707106781186549,-0.707106781186546,4.3297802811775E-17));
#551=DIRECTION('ref_axis',(-6.12323399573679E-17,1.35876632296926E-31,1.));
#552=CARTESIAN_POINT('',(0.,0.,0.));
#553=CARTESIAN_POINT('Origin',(43.173976117911,12.1810238820891,-8.96200000000657));
#554=CARTESIAN_POINT('',(43.173976117911,-11.6739761181039,-8.54799992401066));
#555=CARTESIAN_POINT('',(43.173976117911,-11.673976118013,-9.96200002951076));
#556=CARTESIAN_POINT('',(43.173976117911,-11.6739761181085,-8.47686362442222));
#557=CARTESIAN_POINT('',(43.173976117911,10.4669899680511,-9.96200002951076));
#558=CARTESIAN_POINT('',(43.173976117911,12.1810238820891,-9.96200002951076));
#559=CARTESIAN_POINT('',(43.173976117911,10.4669899680511,-8.54799992401066));
#560=CARTESIAN_POINT('',(43.173976117911,10.4669899680511,-9.17199998838345));
#561=CARTESIAN_POINT('',(43.173976117911,12.1810238820891,-8.54799992401066));
#562=CARTESIAN_POINT('Origin',(41.4599422038729,12.1810238820891,-9.96200002951076));
#563=CARTESIAN_POINT('',(41.4599422038729,-11.673976118013,-9.96200002951076));
#564=CARTESIAN_POINT('',(32.6751655766027,-11.673976118013,-9.96200002951077));
#565=CARTESIAN_POINT('',(41.4599422038729,12.1810238820891,-9.96200002951076));
#566=CARTESIAN_POINT('',(41.4599422038729,12.1810238820891,-9.96200002951076));
#567=CARTESIAN_POINT('',(43.2731013917833,10.3678646941786,-9.96200002951076));
#568=CARTESIAN_POINT('Origin',(41.4599422038729,12.1810238820891,-11.3020000000063));
#569=CARTESIAN_POINT('',(41.4599420491113,-11.6739761174445,-26.0520000000032));
#570=CARTESIAN_POINT('',(41.4599422038729,-11.6739761180333,-9.64686362442212));
#571=CARTESIAN_POINT('',(41.459942049111,12.1810238820891,-26.0520000000032));
#572=CARTESIAN_POINT('',(41.4599418939288,12.1810238820891,-26.0520000000032));
#573=CARTESIAN_POINT('',(41.4599422038729,12.1810238820891,-8.96200000000657));
#574=CARTESIAN_POINT('',(41.4599418939288,4.93102388208894,-23.3020000000031));
#575=CARTESIAN_POINT('Origin',(41.4599418939288,6.43102388208903,-23.3020000000031));
#576=CARTESIAN_POINT('Origin',(23.5664762371202,12.1810238820891,-8.54799992401066));
#577=CARTESIAN_POINT('',(20.1739761179113,-11.6739761181039,-8.54799992401067));
#578=CARTESIAN_POINT('',(23.543976117911,-11.6739761181039,-8.54799992401067));
#579=CARTESIAN_POINT('',(23.7284325932264,-11.6739761181039,-8.54799992401067));
#580=CARTESIAN_POINT('',(23.543976117911,12.1810238820891,-8.54799992401066));
#581=CARTESIAN_POINT('',(23.543976117911,11.8595323605985,-8.54799992401066));
#582=CARTESIAN_POINT('',(21.8880100319489,12.1810238820891,-8.54799992401066));
#583=CARTESIAN_POINT('',(22.3020015534394,12.1810238820891,-8.54799992401066));
#584=CARTESIAN_POINT('',(20.1739761179112,10.4669899680513,-8.54799992401066));
#585=CARTESIAN_POINT('',(21.1625663822559,11.4555802323959,-8.54799992401066));
#586=CARTESIAN_POINT('',(20.1739761179113,12.1810238820891,-8.54799992401066));
#587=CARTESIAN_POINT('Origin',(23.5439761179109,12.1810238820891,-11.3020000000063));
#588=CARTESIAN_POINT('',(23.5439761179109,-11.6739761178171,-13.0120000000064));
#589=CARTESIAN_POINT('',(23.5439761179109,-11.6739761180333,-9.64686362442213));
#590=CARTESIAN_POINT('',(23.5439761179109,12.1810238820891,-13.0120000000064));
#591=CARTESIAN_POINT('',(23.5439761179109,12.1810238820891,-13.0120000000064));
#592=CARTESIAN_POINT('',(23.5439761179109,12.1810238820891,-12.1040000000064));
#593=CARTESIAN_POINT('Origin',(20.173976117911,12.1810238820891,-7.80200003576932));
#594=CARTESIAN_POINT('',(20.1739761179113,-11.6739761180131,-9.96200002951077));
#595=CARTESIAN_POINT('',(20.173976117911,-11.6739761181457,-7.89686364230413));
#596=CARTESIAN_POINT('',(20.1739761179115,10.4669899680516,-9.96200002951076));
#597=CARTESIAN_POINT('',(20.1739761179111,10.4669899680513,-8.59200000626534));
#598=CARTESIAN_POINT('',(20.1739761179113,12.1810238820891,-9.96200002951076));
#599=CARTESIAN_POINT('Origin',(29.298976117911,-0.250000000000058,-26.3020000000066));
#600=CARTESIAN_POINT('',(29.298976117911,-4.99045249569007E-14,-26.0520000000032));
#601=CARTESIAN_POINT('',(29.298976117911,-11.6739761179109,-26.0520000000032));
#602=CARTESIAN_POINT('',(29.298976117911,-5.9619880589555,-26.0520000000032));
#603=CARTESIAN_POINT('',(29.298976117911,-5.05492570008782E-14,-20.7873633355682));
#604=CARTESIAN_POINT('',(29.298976117911,-4.99045249569007E-14,-26.0520000000032));
#605=CARTESIAN_POINT('',(29.298976117911,-11.6739761176401,-20.7873633355682));
#606=CARTESIAN_POINT('',(29.298976117911,12.1810238820891,-20.7873633355683));
#607=CARTESIAN_POINT('',(29.298976117911,-11.6739761174451,-18.8020000011479));
#608=CARTESIAN_POINT('Origin',(31.673976117911,-11.673976117927,-11.3020000015552));
#609=CARTESIAN_POINT('',(39.8039761179109,-11.6739761178171,-13.0120000000064));
#610=CARTESIAN_POINT('',(34.048976117911,-11.6739761174274,-20.7873633355682));
#611=CARTESIAN_POINT('Origin',(31.673976117911,-11.673976117927,-13.0120000000064));
#612=CARTESIAN_POINT('',(34.048976117911,-11.6739761179109,-26.0520000000032));
#613=CARTESIAN_POINT('',(34.048976117911,-11.6739761174451,-18.8020000007729));
#614=CARTESIAN_POINT('',(31.673976117911,-11.6739761179109,-26.0520000000032));
#615=CARTESIAN_POINT('',(39.8039761179109,-11.6739761181039,-8.54799992401066));
#616=CARTESIAN_POINT('',(33.5321825336217,-11.6739761181039,-8.54799992401067));
#617=CARTESIAN_POINT('',(39.8039761179109,-11.6739761179784,-10.5018636244223));
#618=CARTESIAN_POINT('Origin',(34.048976117911,-11.923976117911,-26.3020000000066));
#619=CARTESIAN_POINT('',(34.048976117911,-4.84398332540904E-14,-20.7873633355682));
#620=CARTESIAN_POINT('',(34.048976117911,12.1810238820891,-20.7873633355682));
#621=CARTESIAN_POINT('',(34.048976117911,-4.7795101210113E-14,-26.0520000000032));
#622=CARTESIAN_POINT('',(34.048976117911,-4.7795101210113E-14,-26.0520000000032));
#623=CARTESIAN_POINT('',(34.048976117911,-11.7989761179109,-26.0520000000032));
#624=CARTESIAN_POINT('Origin',(31.6739761179109,-4.88498130835069E-14,-26.0520000000032));
#625=CARTESIAN_POINT('Origin',(31.6739761179109,-4.88498130835069E-14,-26.0520000000032));
#626=CARTESIAN_POINT('Ctrl Pts',(34.0489761179109,-4.83640905102334E-14,
-20.7873633355683));
#627=CARTESIAN_POINT('Ctrl Pts',(34.0489761179109,0.300147945557461,-20.7873633355683));
#628=CARTESIAN_POINT('Ctrl Pts',(33.9886315234111,0.619013389401184,-20.8065608097926));
#629=CARTESIAN_POINT('Ctrl Pts',(33.7457331550431,1.20359075937087,-20.8746096205095));
#630=CARTESIAN_POINT('Ctrl Pts',(33.5632652686748,1.46946805987219,-20.9223421453841));
#631=CARTESIAN_POINT('Ctrl Pts',(33.1435001411207,1.88923318742628,-21.0109624926577));
#632=CARTESIAN_POINT('Ctrl Pts',(32.8776000028079,2.07174446263963,-21.0577898149229));
#633=CARTESIAN_POINT('Ctrl Pts',(32.2929399690355,2.31467479964055,-21.1237401307376));
#634=CARTESIAN_POINT('Ctrl Pts',(31.9740440423301,2.37499999999995,-21.1420000000064));
#635=CARTESIAN_POINT('Ctrl Pts',(31.3739081934917,2.37499999999995,-21.1420000000064));
#636=CARTESIAN_POINT('Ctrl Pts',(31.0550122667863,2.31467479964055,-21.1237401307376));
#637=CARTESIAN_POINT('Ctrl Pts',(30.4703522330139,2.07174446263963,-21.0577898149229));
#638=CARTESIAN_POINT('Ctrl Pts',(30.2044520947011,1.88923318742627,-21.0109624926577));
#639=CARTESIAN_POINT('Ctrl Pts',(29.784686967147,1.46946805987218,-20.9223421453841));
#640=CARTESIAN_POINT('Ctrl Pts',(29.6022190807787,1.20359075937087,-20.8746096205095));
#641=CARTESIAN_POINT('Ctrl Pts',(29.3593207124107,0.619013389401191,-20.8065608097926));
#642=CARTESIAN_POINT('Ctrl Pts',(29.2989761179109,0.300147945557459,-20.7873633355682));
#643=CARTESIAN_POINT('Ctrl Pts',(29.2989761179109,-5.06539254985228E-14,
-20.7873633355682));
#644=CARTESIAN_POINT('Origin',(31.673976117911,6.43102388208903,-23.3020000000031));
#645=CARTESIAN_POINT('',(21.8880097458467,4.93102388208893,-23.3020000000031));
#646=CARTESIAN_POINT('Origin',(21.8880097458467,6.43102388208902,-23.3020000000031));
#647=CARTESIAN_POINT('',(31.673976117911,4.93102388208904,-23.3020000000031));
#648=CARTESIAN_POINT('Origin',(31.673976117911,-11.673976117927,-11.3020000015552));
#649=CARTESIAN_POINT('',(21.8880098890918,-11.6739761174445,-26.0520000000032));
#650=CARTESIAN_POINT('',(21.8880100319489,-11.6739761180131,-9.96200002951077));
#651=CARTESIAN_POINT('',(21.8880100319489,-11.6739761181085,-8.47686362442223));
#652=CARTESIAN_POINT('',(31.673976117911,-11.6739761179109,-26.0520000000032));
#653=CARTESIAN_POINT('Origin',(31.673976117911,-11.6739761181396,-13.0120000000064));
#654=CARTESIAN_POINT('',(22.0321825336219,-11.6739761180131,-9.96200002951077));
#655=CARTESIAN_POINT('Origin',(43.173976117911,12.1810238820891,-8.54799992401066));
#656=CARTESIAN_POINT('',(41.4599422038729,12.1810238820891,-8.54799992401066));
#657=CARTESIAN_POINT('',(42.185385853566,11.4555802323959,-8.54799992401066));
#658=CARTESIAN_POINT('',(39.8039761179109,12.1810238820891,-8.54799992401066));
#659=CARTESIAN_POINT('',(41.0459506823825,12.1810238820891,-8.54799992401066));
#660=CARTESIAN_POINT('',(39.8039761179109,12.1810238820891,-8.54799992401066));
#661=CARTESIAN_POINT('Origin',(39.8039761179109,12.1810238820891,-13.0120000000064));
#662=CARTESIAN_POINT('',(39.8039761179109,12.1810238820891,-13.0120000000064));
#663=CARTESIAN_POINT('',(39.8039761179109,12.1810238820891,-19.5320000000049));
#664=CARTESIAN_POINT('',(39.8039761179109,12.1810238820891,-13.0120000000064));
#665=CARTESIAN_POINT('Origin',(31.673976117911,-11.6739761179109,-26.0520000000032));
#666=CARTESIAN_POINT('',(21.8880098890918,12.1810238820891,-26.0520000000032));
#667=CARTESIAN_POINT('',(21.8880097458467,12.1810238820891,-26.0520000000032));
#668=CARTESIAN_POINT('',(31.673976117911,12.1810238820891,-26.0520000000032));
#669=CARTESIAN_POINT('Origin',(42.7292436226747,10.9117224632874,-9.38199997676058));
#670=CARTESIAN_POINT('',(41.4599422038729,12.1810238820891,-8.96200000000657));
#671=CARTESIAN_POINT('Origin',(31.673976117911,12.1810238820891,-13.0120000000064));
#672=CARTESIAN_POINT('Origin',(31.673976117911,12.1810238820891,-13.0120000000064));
#673=CARTESIAN_POINT('Origin',(21.8880100319489,12.1810238820891,-8.96200000000657));
#674=CARTESIAN_POINT('',(21.8880100319489,12.1810238820891,-9.96200002951076));
#675=CARTESIAN_POINT('',(21.8880100319489,12.1810238820891,-9.96200002951076));
#676=CARTESIAN_POINT('',(21.8880100319489,12.1810238820891,-11.3020000000071));
#677=CARTESIAN_POINT('Origin',(31.673976117911,12.1810238820891,-26.0520000000032));
#678=CARTESIAN_POINT('',(21.8880100319489,12.1810238820891,-11.3020000000071));
#679=CARTESIAN_POINT('Origin',(20.1739761179113,12.1810238820891,-9.96200002951076));
#680=CARTESIAN_POINT('',(20.0748508440386,10.3678646941785,-9.96200002951076));
#681=CARTESIAN_POINT('Origin',(20.6187086131472,10.9117224632873,-9.38199997676058));
#682=UNCERTAINTY_MEASURE_WITH_UNIT(LENGTH_MEASURE(0.01),#686,
'DISTANCE_ACCURACY_VALUE',
'Maximum model space distance between geometric entities at asserted c
onnectivities');
#683=UNCERTAINTY_MEASURE_WITH_UNIT(LENGTH_MEASURE(0.01),#686,
'DISTANCE_ACCURACY_VALUE',
'Maximum model space distance between geometric entities at asserted c
onnectivities');
#684=(
GEOMETRIC_REPRESENTATION_CONTEXT(3)
GLOBAL_UNCERTAINTY_ASSIGNED_CONTEXT((#682))
GLOBAL_UNIT_ASSIGNED_CONTEXT((#686,#688,#689))
REPRESENTATION_CONTEXT('','3D')
);
#685=(
GEOMETRIC_REPRESENTATION_CONTEXT(3)
GLOBAL_UNCERTAINTY_ASSIGNED_CONTEXT((#683))
GLOBAL_UNIT_ASSIGNED_CONTEXT((#686,#688,#689))
REPRESENTATION_CONTEXT('','3D')
);
#686=(
LENGTH_UNIT()
NAMED_UNIT(*)
SI_UNIT(.MILLI.,.METRE.)
);
#687=(
LENGTH_UNIT()
NAMED_UNIT(*)
SI_UNIT($,.METRE.)
);
#688=(
NAMED_UNIT(*)
PLANE_ANGLE_UNIT()
SI_UNIT($,.RADIAN.)
);
#689=(
NAMED_UNIT(*)
SI_UNIT($,.STERADIAN.)
SOLID_ANGLE_UNIT()
);
#690=SHAPE_DEFINITION_REPRESENTATION(#691,#692);
#691=PRODUCT_DEFINITION_SHAPE('',$,#694);
#692=SHAPE_REPRESENTATION('',(#420),#684);
#693=PRODUCT_DEFINITION_CONTEXT('part definition',#698,'design');
#694=PRODUCT_DEFINITION('DD17.2 Front Rail','DD17.2 Front Rail v3',#695,
#693);
#695=PRODUCT_DEFINITION_FORMATION('',$,#700);
#696=PRODUCT_RELATED_PRODUCT_CATEGORY('DD17.2 Front Rail v3',
'DD17.2 Front Rail v3',(#700));
#697=APPLICATION_PROTOCOL_DEFINITION('international standard',
'automotive_design',2009,#698);
#698=APPLICATION_CONTEXT(
'Core Data for Automotive Mechanical Design Process');
#699=PRODUCT_CONTEXT('part definition',#698,'mechanical');
#700=PRODUCT('DD17.2 Front Rail','DD17.2 Front Rail v3',$,(#699));
#701=PRESENTATION_STYLE_ASSIGNMENT((#703));
#702=PRESENTATION_STYLE_ASSIGNMENT((#704));
#703=SURFACE_STYLE_USAGE(.BOTH.,#705);
#704=SURFACE_STYLE_USAGE(.BOTH.,#706);
#705=SURFACE_SIDE_STYLE('',(#707));
#706=SURFACE_SIDE_STYLE('',(#708));
#707=SURFACE_STYLE_FILL_AREA(#709);
#708=SURFACE_STYLE_FILL_AREA(#710);
#709=FILL_AREA_STYLE('Steel - Satin',(#711));
#710=FILL_AREA_STYLE('Opaque(191,191,191)',(#712));
#711=FILL_AREA_STYLE_COLOUR('Steel - Satin',#713);
#712=FILL_AREA_STYLE_COLOUR('Opaque(191,191,191)',#714);
#713=COLOUR_RGB('Steel - Satin',0.627450980392157,0.627450980392157,0.627450980392157);
#714=COLOUR_RGB('Opaque(191,191,191)',0.749019607843137,0.749019607843137,
0.749019607843137);
ENDSEC;
END-ISO-10303-21;
