ISO-10303-21;
HEADER;
/* Generated by software containing ST-Developer
 * from STEP Tools, Inc. (www.steptools.com) 
 */

FILE_DESCRIPTION(
/* description */ (''),
/* implementation_level */ '2;1');

FILE_NAME(
/* name */ 'DD17.2 Locking Block.step',
/* time_stamp */ '2023-12-14T18:27:11-06:00',
/* author */ (''),
/* organization */ (''),
/* preprocessor_version */ 'ST-DEVELOPER v20',
/* originating_system */ 'Autodesk Translation Framework v12.14.0.127',

/* authorisation */ '');

FILE_SCHEMA (('AUTOMOTIVE_DESIGN { 1 0 10303 214 3 1 1 }'));
ENDSEC;

DATA;
#10=MECHANICAL_DESIGN_GEOMETRIC_PRESENTATION_REPRESENTATION('',(#13),#1677);
#11=SHAPE_REPRESENTATION_RELATIONSHIP('SRR','None',#1684,#12);
#12=ADVANCED_BREP_SHAPE_REPRESENTATION('',(#14),#1676);
#13=STYLED_ITEM('',(#1693),#14);
#14=MANIFOLD_SOLID_BREP('Body1',#1023);
#15=FACE_BOUND('',#116,.T.);
#16=FACE_BOUND('',#120,.T.);
#17=FACE_BOUND('',#138,.T.);
#18=FACE_BOUND('',#154,.T.);
#19=PLANE('',#1040);
#20=PLANE('',#1041);
#21=PLANE('',#1047);
#22=PLANE('',#1048);
#23=PLANE('',#1054);
#24=PLANE('',#1058);
#25=PLANE('',#1062);
#26=PLANE('',#1066);
#27=PLANE('',#1067);
#28=PLANE('',#1068);
#29=PLANE('',#1069);
#30=PLANE('',#1070);
#31=PLANE('',#1071);
#32=PLANE('',#1072);
#33=PLANE('',#1073);
#34=PLANE('',#1074);
#35=PLANE('',#1075);
#36=PLANE('',#1079);
#37=PLANE('',#1080);
#38=PLANE('',#1081);
#39=PLANE('',#1082);
#40=PLANE('',#1083);
#41=PLANE('',#1084);
#42=PLANE('',#1087);
#43=PLANE('',#1088);
#44=PLANE('',#1089);
#45=PLANE('',#1090);
#46=PLANE('',#1091);
#47=PLANE('',#1092);
#48=PLANE('',#1093);
#49=PLANE('',#1097);
#50=PLANE('',#1098);
#51=PLANE('',#1099);
#52=PLANE('',#1100);
#53=PLANE('',#1101);
#54=PLANE('',#1104);
#55=PLANE('',#1105);
#56=PLANE('',#1106);
#57=PLANE('',#1107);
#58=PLANE('',#1108);
#59=PLANE('',#1109);
#60=PLANE('',#1110);
#61=FACE_OUTER_BOUND('',#113,.T.);
#62=FACE_OUTER_BOUND('',#114,.T.);
#63=FACE_OUTER_BOUND('',#115,.T.);
#64=FACE_OUTER_BOUND('',#117,.T.);
#65=FACE_OUTER_BOUND('',#118,.T.);
#66=FACE_OUTER_BOUND('',#119,.T.);
#67=FACE_OUTER_BOUND('',#121,.T.);
#68=FACE_OUTER_BOUND('',#122,.T.);
#69=FACE_OUTER_BOUND('',#123,.T.);
#70=FACE_OUTER_BOUND('',#124,.T.);
#71=FACE_OUTER_BOUND('',#125,.T.);
#72=FACE_OUTER_BOUND('',#126,.T.);
#73=FACE_OUTER_BOUND('',#127,.T.);
#74=FACE_OUTER_BOUND('',#128,.T.);
#75=FACE_OUTER_BOUND('',#129,.T.);
#76=FACE_OUTER_BOUND('',#130,.T.);
#77=FACE_OUTER_BOUND('',#131,.T.);
#78=FACE_OUTER_BOUND('',#132,.T.);
#79=FACE_OUTER_BOUND('',#133,.T.);
#80=FACE_OUTER_BOUND('',#134,.T.);
#81=FACE_OUTER_BOUND('',#135,.T.);
#82=FACE_OUTER_BOUND('',#136,.T.);
#83=FACE_OUTER_BOUND('',#137,.T.);
#84=FACE_OUTER_BOUND('',#139,.T.);
#85=FACE_OUTER_BOUND('',#140,.T.);
#86=FACE_OUTER_BOUND('',#141,.T.);
#87=FACE_OUTER_BOUND('',#142,.T.);
#88=FACE_OUTER_BOUND('',#143,.T.);
#89=FACE_OUTER_BOUND('',#144,.T.);
#90=FACE_OUTER_BOUND('',#145,.T.);
#91=FACE_OUTER_BOUND('',#146,.T.);
#92=FACE_OUTER_BOUND('',#147,.T.);
#93=FACE_OUTER_BOUND('',#148,.T.);
#94=FACE_OUTER_BOUND('',#149,.T.);
#95=FACE_OUTER_BOUND('',#150,.T.);
#96=FACE_OUTER_BOUND('',#151,.T.);
#97=FACE_OUTER_BOUND('',#152,.T.);
#98=FACE_OUTER_BOUND('',#153,.T.);
#99=FACE_OUTER_BOUND('',#155,.T.);
#100=FACE_OUTER_BOUND('',#156,.T.);
#101=FACE_OUTER_BOUND('',#157,.T.);
#102=FACE_OUTER_BOUND('',#158,.T.);
#103=FACE_OUTER_BOUND('',#159,.T.);
#104=FACE_OUTER_BOUND('',#160,.T.);
#105=FACE_OUTER_BOUND('',#161,.T.);
#106=FACE_OUTER_BOUND('',#162,.T.);
#107=FACE_OUTER_BOUND('',#163,.T.);
#108=FACE_OUTER_BOUND('',#164,.T.);
#109=FACE_OUTER_BOUND('',#165,.T.);
#110=FACE_OUTER_BOUND('',#166,.T.);
#111=FACE_OUTER_BOUND('',#167,.T.);
#112=FACE_OUTER_BOUND('',#168,.T.);
#113=EDGE_LOOP('',(#673,#674,#675,#676));
#114=EDGE_LOOP('',(#677,#678,#679,#680));
#115=EDGE_LOOP('',(#681,#682,#683,#684,#685,#686,#687,#688,#689,#690,#691,
#692));
#116=EDGE_LOOP('',(#693));
#117=EDGE_LOOP('',(#694,#695,#696,#697));
#118=EDGE_LOOP('',(#698,#699,#700,#701));
#119=EDGE_LOOP('',(#702,#703,#704,#705,#706,#707,#708,#709,#710,#711,#712,
#713));
#120=EDGE_LOOP('',(#714));
#121=EDGE_LOOP('',(#715,#716,#717,#718));
#122=EDGE_LOOP('',(#719,#720,#721,#722));
#123=EDGE_LOOP('',(#723,#724,#725,#726));
#124=EDGE_LOOP('',(#727,#728,#729,#730,#731,#732));
#125=EDGE_LOOP('',(#733,#734,#735,#736));
#126=EDGE_LOOP('',(#737,#738,#739,#740));
#127=EDGE_LOOP('',(#741,#742,#743,#744));
#128=EDGE_LOOP('',(#745,#746,#747,#748));
#129=EDGE_LOOP('',(#749,#750,#751,#752));
#130=EDGE_LOOP('',(#753,#754,#755,#756));
#131=EDGE_LOOP('',(#757,#758,#759,#760));
#132=EDGE_LOOP('',(#761,#762,#763,#764));
#133=EDGE_LOOP('',(#765,#766,#767,#768,#769));
#134=EDGE_LOOP('',(#770,#771,#772,#773,#774,#775));
#135=EDGE_LOOP('',(#776,#777,#778,#779,#780));
#136=EDGE_LOOP('',(#781,#782,#783,#784,#785,#786,#787,#788));
#137=EDGE_LOOP('',(#789,#790,#791,#792,#793,#794,#795,#796,#797,#798,#799,
#800,#801,#802,#803,#804,#805,#806,#807,#808,#809,#810,#811));
#138=EDGE_LOOP('',(#812));
#139=EDGE_LOOP('',(#813,#814,#815,#816));
#140=EDGE_LOOP('',(#817,#818,#819,#820,#821));
#141=EDGE_LOOP('',(#822,#823,#824,#825));
#142=EDGE_LOOP('',(#826,#827,#828,#829,#830));
#143=EDGE_LOOP('',(#831,#832,#833,#834));
#144=EDGE_LOOP('',(#835,#836,#837,#838));
#145=EDGE_LOOP('',(#839,#840,#841,#842,#843));
#146=EDGE_LOOP('',(#844,#845,#846,#847));
#147=EDGE_LOOP('',(#848,#849,#850,#851));
#148=EDGE_LOOP('',(#852,#853,#854,#855));
#149=EDGE_LOOP('',(#856,#857,#858,#859));
#150=EDGE_LOOP('',(#860,#861,#862,#863));
#151=EDGE_LOOP('',(#864,#865,#866,#867,#868,#869,#870,#871));
#152=EDGE_LOOP('',(#872,#873,#874,#875));
#153=EDGE_LOOP('',(#876,#877,#878,#879,#880,#881,#882,#883,#884,#885,#886,
#887,#888,#889,#890,#891,#892,#893,#894,#895,#896,#897,#898));
#154=EDGE_LOOP('',(#899));
#155=EDGE_LOOP('',(#900,#901,#902,#903));
#156=EDGE_LOOP('',(#904,#905,#906,#907,#908,#909));
#157=EDGE_LOOP('',(#910,#911,#912,#913,#914));
#158=EDGE_LOOP('',(#915,#916,#917,#918));
#159=EDGE_LOOP('',(#919,#920,#921,#922));
#160=EDGE_LOOP('',(#923,#924,#925,#926,#927));
#161=EDGE_LOOP('',(#928,#929,#930,#931));
#162=EDGE_LOOP('',(#932,#933,#934,#935));
#163=EDGE_LOOP('',(#936,#937,#938,#939));
#164=EDGE_LOOP('',(#940,#941,#942,#943));
#165=EDGE_LOOP('',(#944,#945,#946,#947));
#166=EDGE_LOOP('',(#948,#949,#950,#951));
#167=EDGE_LOOP('',(#952,#953,#954,#955));
#168=EDGE_LOOP('',(#956,#957,#958,#959,#960));
#169=LINE('',#1389,#291);
#170=LINE('',#1392,#292);
#171=LINE('',#1395,#293);
#172=LINE('',#1397,#294);
#173=LINE('',#1398,#295);
#174=LINE('',#1401,#296);
#175=LINE('',#1403,#297);
#176=LINE('',#1407,#298);
#177=LINE('',#1409,#299);
#178=LINE('',#1411,#300);
#179=LINE('',#1413,#301);
#180=LINE('',#1415,#302);
#181=LINE('',#1417,#303);
#182=LINE('',#1418,#304);
#183=LINE('',#1426,#305);
#184=LINE('',#1429,#306);
#185=LINE('',#1432,#307);
#186=LINE('',#1434,#308);
#187=LINE('',#1435,#309);
#188=LINE('',#1438,#310);
#189=LINE('',#1440,#311);
#190=LINE('',#1442,#312);
#191=LINE('',#1444,#313);
#192=LINE('',#1446,#314);
#193=LINE('',#1448,#315);
#194=LINE('',#1450,#316);
#195=LINE('',#1452,#317);
#196=LINE('',#1455,#318);
#197=LINE('',#1463,#319);
#198=LINE('',#1466,#320);
#199=LINE('',#1469,#321);
#200=LINE('',#1471,#322);
#201=LINE('',#1472,#323);
#202=LINE('',#1477,#324);
#203=LINE('',#1481,#325);
#204=LINE('',#1483,#326);
#205=LINE('',#1485,#327);
#206=LINE('',#1487,#328);
#207=LINE('',#1488,#329);
#208=LINE('',#1493,#330);
#209=LINE('',#1497,#331);
#210=LINE('',#1499,#332);
#211=LINE('',#1500,#333);
#212=LINE('',#1505,#334);
#213=LINE('',#1508,#335);
#214=LINE('',#1509,#336);
#215=LINE('',#1513,#337);
#216=LINE('',#1515,#338);
#217=LINE('',#1517,#339);
#218=LINE('',#1518,#340);
#219=LINE('',#1522,#341);
#220=LINE('',#1524,#342);
#221=LINE('',#1526,#343);
#222=LINE('',#1527,#344);
#223=LINE('',#1530,#345);
#224=LINE('',#1532,#346);
#225=LINE('',#1533,#347);
#226=LINE('',#1536,#348);
#227=LINE('',#1538,#349);
#228=LINE('',#1539,#350);
#229=LINE('',#1542,#351);
#230=LINE('',#1544,#352);
#231=LINE('',#1546,#353);
#232=LINE('',#1547,#354);
#233=LINE('',#1550,#355);
#234=LINE('',#1552,#356);
#235=LINE('',#1553,#357);
#236=LINE('',#1556,#358);
#237=LINE('',#1558,#359);
#238=LINE('',#1560,#360);
#239=LINE('',#1561,#361);
#240=LINE('',#1564,#362);
#241=LINE('',#1565,#363);
#242=LINE('',#1567,#364);
#243=LINE('',#1568,#365);
#244=LINE('',#1571,#366);
#245=LINE('',#1576,#367);
#246=LINE('',#1578,#368);
#247=LINE('',#1579,#369);
#248=LINE('',#1581,#370);
#249=LINE('',#1583,#371);
#250=LINE('',#1585,#372);
#251=LINE('',#1586,#373);
#252=LINE('',#1591,#374);
#253=LINE('',#1592,#375);
#254=LINE('',#1594,#376);
#255=LINE('',#1596,#377);
#256=LINE('',#1597,#378);
#257=LINE('',#1599,#379);
#258=LINE('',#1601,#380);
#259=LINE('',#1603,#381);
#260=LINE('',#1605,#382);
#261=LINE('',#1608,#383);
#262=LINE('',#1610,#384);
#263=LINE('',#1612,#385);
#264=LINE('',#1614,#386);
#265=LINE('',#1617,#387);
#266=LINE('',#1618,#388);
#267=LINE('',#1620,#389);
#268=LINE('',#1624,#390);
#269=LINE('',#1625,#391);
#270=LINE('',#1627,#392);
#271=LINE('',#1629,#393);
#272=LINE('',#1631,#394);
#273=LINE('',#1633,#395);
#274=LINE('',#1638,#396);
#275=LINE('',#1639,#397);
#276=LINE('',#1645,#398);
#277=LINE('',#1646,#399);
#278=LINE('',#1647,#400);
#279=LINE('',#1649,#401);
#280=LINE('',#1651,#402);
#281=LINE('',#1652,#403);
#282=LINE('',#1654,#404);
#283=LINE('',#1655,#405);
#284=LINE('',#1657,#406);
#285=LINE('',#1660,#407);
#286=LINE('',#1663,#408);
#287=LINE('',#1664,#409);
#288=LINE('',#1666,#410);
#289=LINE('',#1668,#411);
#290=LINE('',#1672,#412);
#291=VECTOR('',#1117,10.);
#292=VECTOR('',#1120,10.);
#293=VECTOR('',#1123,10.);
#294=VECTOR('',#1124,10.);
#295=VECTOR('',#1125,10.);
#296=VECTOR('',#1128,10.);
#297=VECTOR('',#1129,10.);
#298=VECTOR('',#1132,10.);
#299=VECTOR('',#1133,10.);
#300=VECTOR('',#1134,10.);
#301=VECTOR('',#1135,10.);
#302=VECTOR('',#1136,10.);
#303=VECTOR('',#1137,10.);
#304=VECTOR('',#1138,10.);
#305=VECTOR('',#1145,10.);
#306=VECTOR('',#1148,10.);
#307=VECTOR('',#1151,10.);
#308=VECTOR('',#1152,10.);
#309=VECTOR('',#1153,10.);
#310=VECTOR('',#1156,10.);
#311=VECTOR('',#1157,10.);
#312=VECTOR('',#1158,10.);
#313=VECTOR('',#1159,10.);
#314=VECTOR('',#1160,10.);
#315=VECTOR('',#1161,10.);
#316=VECTOR('',#1162,10.);
#317=VECTOR('',#1163,10.);
#318=VECTOR('',#1166,10.);
#319=VECTOR('',#1173,10.);
#320=VECTOR('',#1176,10.);
#321=VECTOR('',#1179,10.);
#322=VECTOR('',#1180,10.);
#323=VECTOR('',#1181,10.);
#324=VECTOR('',#1186,10.);
#325=VECTOR('',#1191,10.);
#326=VECTOR('',#1192,10.);
#327=VECTOR('',#1193,10.);
#328=VECTOR('',#1194,10.);
#329=VECTOR('',#1195,10.);
#330=VECTOR('',#1200,10.);
#331=VECTOR('',#1205,10.);
#332=VECTOR('',#1206,10.);
#333=VECTOR('',#1207,10.);
#334=VECTOR('',#1212,10.);
#335=VECTOR('',#1217,10.);
#336=VECTOR('',#1218,10.);
#337=VECTOR('',#1221,10.);
#338=VECTOR('',#1222,10.);
#339=VECTOR('',#1223,10.);
#340=VECTOR('',#1224,10.);
#341=VECTOR('',#1227,10.);
#342=VECTOR('',#1228,10.);
#343=VECTOR('',#1229,10.);
#344=VECTOR('',#1230,10.);
#345=VECTOR('',#1233,10.);
#346=VECTOR('',#1234,10.);
#347=VECTOR('',#1235,10.);
#348=VECTOR('',#1238,10.);
#349=VECTOR('',#1239,10.);
#350=VECTOR('',#1240,10.);
#351=VECTOR('',#1243,10.);
#352=VECTOR('',#1244,10.);
#353=VECTOR('',#1245,10.);
#354=VECTOR('',#1246,10.);
#355=VECTOR('',#1249,10.);
#356=VECTOR('',#1250,10.);
#357=VECTOR('',#1251,10.);
#358=VECTOR('',#1254,10.);
#359=VECTOR('',#1255,10.);
#360=VECTOR('',#1256,10.);
#361=VECTOR('',#1257,10.);
#362=VECTOR('',#1260,10.);
#363=VECTOR('',#1261,10.);
#364=VECTOR('',#1262,10.);
#365=VECTOR('',#1263,10.);
#366=VECTOR('',#1266,10.);
#367=VECTOR('',#1271,10.);
#368=VECTOR('',#1272,10.);
#369=VECTOR('',#1273,10.);
#370=VECTOR('',#1274,10.);
#371=VECTOR('',#1275,10.);
#372=VECTOR('',#1276,10.);
#373=VECTOR('',#1277,10.);
#374=VECTOR('',#1282,10.);
#375=VECTOR('',#1283,10.);
#376=VECTOR('',#1286,10.);
#377=VECTOR('',#1287,10.);
#378=VECTOR('',#1288,10.);
#379=VECTOR('',#1291,10.);
#380=VECTOR('',#1294,10.);
#381=VECTOR('',#1297,10.);
#382=VECTOR('',#1300,10.);
#383=VECTOR('',#1305,2.);
#384=VECTOR('',#1308,10.);
#385=VECTOR('',#1311,10.);
#386=VECTOR('',#1314,10.);
#387=VECTOR('',#1317,10.);
#388=VECTOR('',#1318,10.);
#389=VECTOR('',#1321,10.);
#390=VECTOR('',#1326,10.);
#391=VECTOR('',#1327,10.);
#392=VECTOR('',#1328,10.);
#393=VECTOR('',#1329,10.);
#394=VECTOR('',#1330,10.);
#395=VECTOR('',#1331,10.);
#396=VECTOR('',#1336,10.);
#397=VECTOR('',#1337,10.);
#398=VECTOR('',#1342,10.);
#399=VECTOR('',#1343,10.);
#400=VECTOR('',#1344,10.);
#401=VECTOR('',#1347,10.);
#402=VECTOR('',#1350,10.);
#403=VECTOR('',#1351,10.);
#404=VECTOR('',#1354,10.);
#405=VECTOR('',#1355,10.);
#406=VECTOR('',#1358,10.);
#407=VECTOR('',#1363,2.);
#408=VECTOR('',#1366,10.);
#409=VECTOR('',#1367,10.);
#410=VECTOR('',#1370,10.);
#411=VECTOR('',#1373,10.);
#412=VECTOR('',#1380,10.);
#413=CIRCLE('',#1038,1.5);
#414=CIRCLE('',#1039,1.5);
#415=CIRCLE('',#1042,1.5);
#416=CIRCLE('',#1043,2.);
#417=CIRCLE('',#1045,1.5);
#418=CIRCLE('',#1046,1.5);
#419=CIRCLE('',#1049,1.5);
#420=CIRCLE('',#1050,2.);
#421=CIRCLE('',#1052,0.4);
#422=CIRCLE('',#1053,0.4);
#423=CIRCLE('',#1056,0.4);
#424=CIRCLE('',#1057,0.4);
#425=CIRCLE('',#1060,0.4);
#426=CIRCLE('',#1061,0.4);
#427=CIRCLE('',#1064,3.);
#428=CIRCLE('',#1065,3.);
#429=CIRCLE('',#1076,1.5);
#430=CIRCLE('',#1077,1.5);
#431=CIRCLE('',#1078,2.);
#432=CIRCLE('',#1094,1.5);
#433=CIRCLE('',#1095,1.5);
#434=CIRCLE('',#1096,2.);
#435=VERTEX_POINT('',#1385);
#436=VERTEX_POINT('',#1386);
#437=VERTEX_POINT('',#1388);
#438=VERTEX_POINT('',#1390);
#439=VERTEX_POINT('',#1394);
#440=VERTEX_POINT('',#1396);
#441=VERTEX_POINT('',#1400);
#442=VERTEX_POINT('',#1402);
#443=VERTEX_POINT('',#1404);
#444=VERTEX_POINT('',#1406);
#445=VERTEX_POINT('',#1408);
#446=VERTEX_POINT('',#1410);
#447=VERTEX_POINT('',#1412);
#448=VERTEX_POINT('',#1414);
#449=VERTEX_POINT('',#1416);
#450=VERTEX_POINT('',#1419);
#451=VERTEX_POINT('',#1422);
#452=VERTEX_POINT('',#1423);
#453=VERTEX_POINT('',#1425);
#454=VERTEX_POINT('',#1427);
#455=VERTEX_POINT('',#1431);
#456=VERTEX_POINT('',#1433);
#457=VERTEX_POINT('',#1437);
#458=VERTEX_POINT('',#1439);
#459=VERTEX_POINT('',#1441);
#460=VERTEX_POINT('',#1443);
#461=VERTEX_POINT('',#1445);
#462=VERTEX_POINT('',#1447);
#463=VERTEX_POINT('',#1449);
#464=VERTEX_POINT('',#1451);
#465=VERTEX_POINT('',#1453);
#466=VERTEX_POINT('',#1456);
#467=VERTEX_POINT('',#1459);
#468=VERTEX_POINT('',#1460);
#469=VERTEX_POINT('',#1462);
#470=VERTEX_POINT('',#1464);
#471=VERTEX_POINT('',#1468);
#472=VERTEX_POINT('',#1470);
#473=VERTEX_POINT('',#1474);
#474=VERTEX_POINT('',#1476);
#475=VERTEX_POINT('',#1480);
#476=VERTEX_POINT('',#1482);
#477=VERTEX_POINT('',#1484);
#478=VERTEX_POINT('',#1486);
#479=VERTEX_POINT('',#1490);
#480=VERTEX_POINT('',#1492);
#481=VERTEX_POINT('',#1496);
#482=VERTEX_POINT('',#1498);
#483=VERTEX_POINT('',#1502);
#484=VERTEX_POINT('',#1504);
#485=VERTEX_POINT('',#1511);
#486=VERTEX_POINT('',#1512);
#487=VERTEX_POINT('',#1514);
#488=VERTEX_POINT('',#1516);
#489=VERTEX_POINT('',#1520);
#490=VERTEX_POINT('',#1521);
#491=VERTEX_POINT('',#1523);
#492=VERTEX_POINT('',#1525);
#493=VERTEX_POINT('',#1529);
#494=VERTEX_POINT('',#1531);
#495=VERTEX_POINT('',#1535);
#496=VERTEX_POINT('',#1537);
#497=VERTEX_POINT('',#1541);
#498=VERTEX_POINT('',#1543);
#499=VERTEX_POINT('',#1545);
#500=VERTEX_POINT('',#1549);
#501=VERTEX_POINT('',#1551);
#502=VERTEX_POINT('',#1555);
#503=VERTEX_POINT('',#1557);
#504=VERTEX_POINT('',#1559);
#505=VERTEX_POINT('',#1563);
#506=VERTEX_POINT('',#1566);
#507=VERTEX_POINT('',#1570);
#508=VERTEX_POINT('',#1573);
#509=VERTEX_POINT('',#1575);
#510=VERTEX_POINT('',#1577);
#511=VERTEX_POINT('',#1580);
#512=VERTEX_POINT('',#1582);
#513=VERTEX_POINT('',#1584);
#514=VERTEX_POINT('',#1587);
#515=VERTEX_POINT('',#1590);
#516=VERTEX_POINT('',#1595);
#517=VERTEX_POINT('',#1616);
#518=VERTEX_POINT('',#1623);
#519=VERTEX_POINT('',#1626);
#520=VERTEX_POINT('',#1628);
#521=VERTEX_POINT('',#1630);
#522=VERTEX_POINT('',#1632);
#523=VERTEX_POINT('',#1635);
#524=VERTEX_POINT('',#1637);
#525=VERTEX_POINT('',#1640);
#526=VERTEX_POINT('',#1643);
#527=VERTEX_POINT('',#1644);
#528=VERTEX_POINT('',#1662);
#529=EDGE_CURVE('',#435,#436,#413,.T.);
#530=EDGE_CURVE('',#436,#437,#169,.T.);
#531=EDGE_CURVE('',#437,#438,#414,.T.);
#532=EDGE_CURVE('',#438,#435,#170,.T.);
#533=EDGE_CURVE('',#439,#438,#171,.T.);
#534=EDGE_CURVE('',#439,#440,#172,.T.);
#535=EDGE_CURVE('',#440,#435,#173,.T.);
#536=EDGE_CURVE('',#437,#441,#174,.T.);
#537=EDGE_CURVE('',#441,#442,#175,.T.);
#538=EDGE_CURVE('',#442,#443,#415,.T.);
#539=EDGE_CURVE('',#443,#444,#176,.T.);
#540=EDGE_CURVE('',#444,#445,#177,.T.);
#541=EDGE_CURVE('',#445,#446,#178,.T.);
#542=EDGE_CURVE('',#446,#447,#179,.T.);
#543=EDGE_CURVE('',#447,#448,#180,.T.);
#544=EDGE_CURVE('',#448,#449,#181,.T.);
#545=EDGE_CURVE('',#439,#449,#182,.T.);
#546=EDGE_CURVE('',#450,#450,#416,.T.);
#547=EDGE_CURVE('',#451,#452,#417,.T.);
#548=EDGE_CURVE('',#452,#453,#183,.T.);
#549=EDGE_CURVE('',#453,#454,#418,.T.);
#550=EDGE_CURVE('',#454,#451,#184,.T.);
#551=EDGE_CURVE('',#455,#452,#185,.T.);
#552=EDGE_CURVE('',#455,#456,#186,.T.);
#553=EDGE_CURVE('',#456,#453,#187,.T.);
#554=EDGE_CURVE('',#451,#457,#188,.T.);
#555=EDGE_CURVE('',#457,#458,#189,.T.);
#556=EDGE_CURVE('',#458,#459,#190,.T.);
#557=EDGE_CURVE('',#460,#459,#191,.T.);
#558=EDGE_CURVE('',#461,#460,#192,.T.);
#559=EDGE_CURVE('',#461,#462,#193,.T.);
#560=EDGE_CURVE('',#462,#463,#194,.T.);
#561=EDGE_CURVE('',#463,#464,#195,.T.);
#562=EDGE_CURVE('',#464,#465,#419,.T.);
#563=EDGE_CURVE('',#465,#455,#196,.T.);
#564=EDGE_CURVE('',#466,#466,#420,.T.);
#565=EDGE_CURVE('',#467,#468,#421,.F.);
#566=EDGE_CURVE('',#468,#469,#197,.T.);
#567=EDGE_CURVE('',#469,#470,#422,.F.);
#568=EDGE_CURVE('',#470,#467,#198,.T.);
#569=EDGE_CURVE('',#471,#468,#199,.T.);
#570=EDGE_CURVE('',#472,#471,#200,.T.);
#571=EDGE_CURVE('',#469,#472,#201,.T.);
#572=EDGE_CURVE('',#471,#473,#423,.F.);
#573=EDGE_CURVE('',#473,#474,#202,.T.);
#574=EDGE_CURVE('',#474,#472,#424,.F.);
#575=EDGE_CURVE('',#475,#473,#203,.T.);
#576=EDGE_CURVE('',#476,#475,#204,.T.);
#577=EDGE_CURVE('',#477,#476,#205,.T.);
#578=EDGE_CURVE('',#478,#477,#206,.T.);
#579=EDGE_CURVE('',#474,#478,#207,.T.);
#580=EDGE_CURVE('',#476,#479,#425,.F.);
#581=EDGE_CURVE('',#479,#480,#208,.T.);
#582=EDGE_CURVE('',#480,#477,#426,.F.);
#583=EDGE_CURVE('',#481,#479,#209,.T.);
#584=EDGE_CURVE('',#482,#481,#210,.T.);
#585=EDGE_CURVE('',#480,#482,#211,.T.);
#586=EDGE_CURVE('',#481,#483,#427,.F.);
#587=EDGE_CURVE('',#483,#484,#212,.T.);
#588=EDGE_CURVE('',#484,#482,#428,.F.);
#589=EDGE_CURVE('',#484,#470,#213,.T.);
#590=EDGE_CURVE('',#467,#483,#214,.T.);
#591=EDGE_CURVE('',#485,#486,#215,.T.);
#592=EDGE_CURVE('',#487,#485,#216,.T.);
#593=EDGE_CURVE('',#488,#487,#217,.T.);
#594=EDGE_CURVE('',#486,#488,#218,.T.);
#595=EDGE_CURVE('',#489,#490,#219,.T.);
#596=EDGE_CURVE('',#489,#491,#220,.T.);
#597=EDGE_CURVE('',#492,#491,#221,.T.);
#598=EDGE_CURVE('',#490,#492,#222,.T.);
#599=EDGE_CURVE('',#493,#489,#223,.T.);
#600=EDGE_CURVE('',#494,#493,#224,.T.);
#601=EDGE_CURVE('',#491,#494,#225,.T.);
#602=EDGE_CURVE('',#495,#485,#226,.T.);
#603=EDGE_CURVE('',#496,#495,#227,.T.);
#604=EDGE_CURVE('',#487,#496,#228,.T.);
#605=EDGE_CURVE('',#497,#488,#229,.T.);
#606=EDGE_CURVE('',#497,#498,#230,.T.);
#607=EDGE_CURVE('',#498,#499,#231,.T.);
#608=EDGE_CURVE('',#486,#499,#232,.T.);
#609=EDGE_CURVE('',#496,#500,#233,.T.);
#610=EDGE_CURVE('',#500,#501,#234,.T.);
#611=EDGE_CURVE('',#501,#497,#235,.T.);
#612=EDGE_CURVE('',#492,#502,#236,.T.);
#613=EDGE_CURVE('',#503,#502,#237,.T.);
#614=EDGE_CURVE('',#504,#503,#238,.T.);
#615=EDGE_CURVE('',#490,#504,#239,.T.);
#616=EDGE_CURVE('',#494,#505,#240,.T.);
#617=EDGE_CURVE('',#448,#505,#241,.T.);
#618=EDGE_CURVE('',#447,#506,#242,.T.);
#619=EDGE_CURVE('',#502,#506,#243,.T.);
#620=EDGE_CURVE('',#456,#507,#244,.T.);
#621=EDGE_CURVE('',#507,#475,#429,.T.);
#622=EDGE_CURVE('',#475,#508,#430,.T.);
#623=EDGE_CURVE('',#508,#509,#245,.T.);
#624=EDGE_CURVE('',#510,#509,#246,.T.);
#625=EDGE_CURVE('',#500,#510,#247,.T.);
#626=EDGE_CURVE('',#511,#495,#248,.T.);
#627=EDGE_CURVE('',#512,#511,#249,.T.);
#628=EDGE_CURVE('',#513,#512,#250,.T.);
#629=EDGE_CURVE('',#454,#513,#251,.T.);
#630=EDGE_CURVE('',#514,#514,#431,.T.);
#631=EDGE_CURVE('',#510,#515,#252,.T.);
#632=EDGE_CURVE('',#515,#501,#253,.T.);
#633=EDGE_CURVE('',#501,#461,#254,.T.);
#634=EDGE_CURVE('',#461,#516,#255,.T.);
#635=EDGE_CURVE('',#516,#498,#256,.T.);
#636=EDGE_CURVE('',#515,#462,#257,.T.);
#637=EDGE_CURVE('',#509,#463,#258,.T.);
#638=EDGE_CURVE('',#465,#507,#259,.T.);
#639=EDGE_CURVE('',#464,#508,#260,.T.);
#640=EDGE_CURVE('',#514,#466,#261,.T.);
#641=EDGE_CURVE('',#513,#457,#262,.T.);
#642=EDGE_CURVE('',#512,#458,#263,.T.);
#643=EDGE_CURVE('',#511,#459,#264,.T.);
#644=EDGE_CURVE('',#460,#517,#265,.T.);
#645=EDGE_CURVE('',#517,#516,#266,.T.);
#646=EDGE_CURVE('',#499,#517,#267,.T.);
#647=EDGE_CURVE('',#518,#440,#268,.T.);
#648=EDGE_CURVE('',#505,#518,#269,.T.);
#649=EDGE_CURVE('',#519,#493,#270,.T.);
#650=EDGE_CURVE('',#520,#519,#271,.T.);
#651=EDGE_CURVE('',#521,#520,#272,.T.);
#652=EDGE_CURVE('',#521,#522,#273,.T.);
#653=EDGE_CURVE('',#522,#478,#432,.T.);
#654=EDGE_CURVE('',#478,#523,#433,.T.);
#655=EDGE_CURVE('',#523,#524,#274,.T.);
#656=EDGE_CURVE('',#436,#524,#275,.T.);
#657=EDGE_CURVE('',#525,#525,#434,.T.);
#658=EDGE_CURVE('',#526,#527,#276,.T.);
#659=EDGE_CURVE('',#527,#520,#277,.T.);
#660=EDGE_CURVE('',#519,#526,#278,.T.);
#661=EDGE_CURVE('',#504,#526,#279,.T.);
#662=EDGE_CURVE('',#445,#527,#280,.T.);
#663=EDGE_CURVE('',#444,#521,#281,.T.);
#664=EDGE_CURVE('',#524,#441,#282,.T.);
#665=EDGE_CURVE('',#523,#442,#283,.T.);
#666=EDGE_CURVE('',#522,#443,#284,.T.);
#667=EDGE_CURVE('',#450,#525,#285,.T.);
#668=EDGE_CURVE('',#446,#528,#286,.T.);
#669=EDGE_CURVE('',#506,#528,#287,.T.);
#670=EDGE_CURVE('',#528,#503,#288,.T.);
#671=EDGE_CURVE('',#449,#518,#289,.T.);
#672=EDGE_CURVE('',#446,#526,#290,.T.);
#673=ORIENTED_EDGE('',*,*,#529,.T.);
#674=ORIENTED_EDGE('',*,*,#530,.T.);
#675=ORIENTED_EDGE('',*,*,#531,.T.);
#676=ORIENTED_EDGE('',*,*,#532,.T.);
#677=ORIENTED_EDGE('',*,*,#532,.F.);
#678=ORIENTED_EDGE('',*,*,#533,.F.);
#679=ORIENTED_EDGE('',*,*,#534,.T.);
#680=ORIENTED_EDGE('',*,*,#535,.T.);
#681=ORIENTED_EDGE('',*,*,#531,.F.);
#682=ORIENTED_EDGE('',*,*,#536,.T.);
#683=ORIENTED_EDGE('',*,*,#537,.T.);
#684=ORIENTED_EDGE('',*,*,#538,.T.);
#685=ORIENTED_EDGE('',*,*,#539,.T.);
#686=ORIENTED_EDGE('',*,*,#540,.T.);
#687=ORIENTED_EDGE('',*,*,#541,.T.);
#688=ORIENTED_EDGE('',*,*,#542,.T.);
#689=ORIENTED_EDGE('',*,*,#543,.T.);
#690=ORIENTED_EDGE('',*,*,#544,.T.);
#691=ORIENTED_EDGE('',*,*,#545,.F.);
#692=ORIENTED_EDGE('',*,*,#533,.T.);
#693=ORIENTED_EDGE('',*,*,#546,.T.);
#694=ORIENTED_EDGE('',*,*,#547,.T.);
#695=ORIENTED_EDGE('',*,*,#548,.T.);
#696=ORIENTED_EDGE('',*,*,#549,.T.);
#697=ORIENTED_EDGE('',*,*,#550,.T.);
#698=ORIENTED_EDGE('',*,*,#548,.F.);
#699=ORIENTED_EDGE('',*,*,#551,.F.);
#700=ORIENTED_EDGE('',*,*,#552,.T.);
#701=ORIENTED_EDGE('',*,*,#553,.T.);
#702=ORIENTED_EDGE('',*,*,#547,.F.);
#703=ORIENTED_EDGE('',*,*,#554,.T.);
#704=ORIENTED_EDGE('',*,*,#555,.T.);
#705=ORIENTED_EDGE('',*,*,#556,.T.);
#706=ORIENTED_EDGE('',*,*,#557,.F.);
#707=ORIENTED_EDGE('',*,*,#558,.F.);
#708=ORIENTED_EDGE('',*,*,#559,.T.);
#709=ORIENTED_EDGE('',*,*,#560,.T.);
#710=ORIENTED_EDGE('',*,*,#561,.T.);
#711=ORIENTED_EDGE('',*,*,#562,.T.);
#712=ORIENTED_EDGE('',*,*,#563,.T.);
#713=ORIENTED_EDGE('',*,*,#551,.T.);
#714=ORIENTED_EDGE('',*,*,#564,.T.);
#715=ORIENTED_EDGE('',*,*,#565,.T.);
#716=ORIENTED_EDGE('',*,*,#566,.T.);
#717=ORIENTED_EDGE('',*,*,#567,.T.);
#718=ORIENTED_EDGE('',*,*,#568,.T.);
#719=ORIENTED_EDGE('',*,*,#566,.F.);
#720=ORIENTED_EDGE('',*,*,#569,.F.);
#721=ORIENTED_EDGE('',*,*,#570,.F.);
#722=ORIENTED_EDGE('',*,*,#571,.F.);
#723=ORIENTED_EDGE('',*,*,#572,.T.);
#724=ORIENTED_EDGE('',*,*,#573,.T.);
#725=ORIENTED_EDGE('',*,*,#574,.T.);
#726=ORIENTED_EDGE('',*,*,#570,.T.);
#727=ORIENTED_EDGE('',*,*,#573,.F.);
#728=ORIENTED_EDGE('',*,*,#575,.F.);
#729=ORIENTED_EDGE('',*,*,#576,.F.);
#730=ORIENTED_EDGE('',*,*,#577,.F.);
#731=ORIENTED_EDGE('',*,*,#578,.F.);
#732=ORIENTED_EDGE('',*,*,#579,.F.);
#733=ORIENTED_EDGE('',*,*,#580,.T.);
#734=ORIENTED_EDGE('',*,*,#581,.T.);
#735=ORIENTED_EDGE('',*,*,#582,.T.);
#736=ORIENTED_EDGE('',*,*,#577,.T.);
#737=ORIENTED_EDGE('',*,*,#581,.F.);
#738=ORIENTED_EDGE('',*,*,#583,.F.);
#739=ORIENTED_EDGE('',*,*,#584,.F.);
#740=ORIENTED_EDGE('',*,*,#585,.F.);
#741=ORIENTED_EDGE('',*,*,#586,.T.);
#742=ORIENTED_EDGE('',*,*,#587,.T.);
#743=ORIENTED_EDGE('',*,*,#588,.T.);
#744=ORIENTED_EDGE('',*,*,#584,.T.);
#745=ORIENTED_EDGE('',*,*,#568,.F.);
#746=ORIENTED_EDGE('',*,*,#589,.F.);
#747=ORIENTED_EDGE('',*,*,#587,.F.);
#748=ORIENTED_EDGE('',*,*,#590,.F.);
#749=ORIENTED_EDGE('',*,*,#591,.F.);
#750=ORIENTED_EDGE('',*,*,#592,.F.);
#751=ORIENTED_EDGE('',*,*,#593,.F.);
#752=ORIENTED_EDGE('',*,*,#594,.F.);
#753=ORIENTED_EDGE('',*,*,#595,.F.);
#754=ORIENTED_EDGE('',*,*,#596,.T.);
#755=ORIENTED_EDGE('',*,*,#597,.F.);
#756=ORIENTED_EDGE('',*,*,#598,.F.);
#757=ORIENTED_EDGE('',*,*,#599,.F.);
#758=ORIENTED_EDGE('',*,*,#600,.F.);
#759=ORIENTED_EDGE('',*,*,#601,.F.);
#760=ORIENTED_EDGE('',*,*,#596,.F.);
#761=ORIENTED_EDGE('',*,*,#602,.F.);
#762=ORIENTED_EDGE('',*,*,#603,.F.);
#763=ORIENTED_EDGE('',*,*,#604,.F.);
#764=ORIENTED_EDGE('',*,*,#592,.T.);
#765=ORIENTED_EDGE('',*,*,#594,.T.);
#766=ORIENTED_EDGE('',*,*,#605,.F.);
#767=ORIENTED_EDGE('',*,*,#606,.T.);
#768=ORIENTED_EDGE('',*,*,#607,.T.);
#769=ORIENTED_EDGE('',*,*,#608,.F.);
#770=ORIENTED_EDGE('',*,*,#593,.T.);
#771=ORIENTED_EDGE('',*,*,#604,.T.);
#772=ORIENTED_EDGE('',*,*,#609,.T.);
#773=ORIENTED_EDGE('',*,*,#610,.T.);
#774=ORIENTED_EDGE('',*,*,#611,.T.);
#775=ORIENTED_EDGE('',*,*,#605,.T.);
#776=ORIENTED_EDGE('',*,*,#598,.T.);
#777=ORIENTED_EDGE('',*,*,#612,.T.);
#778=ORIENTED_EDGE('',*,*,#613,.F.);
#779=ORIENTED_EDGE('',*,*,#614,.F.);
#780=ORIENTED_EDGE('',*,*,#615,.F.);
#781=ORIENTED_EDGE('',*,*,#597,.T.);
#782=ORIENTED_EDGE('',*,*,#601,.T.);
#783=ORIENTED_EDGE('',*,*,#616,.T.);
#784=ORIENTED_EDGE('',*,*,#617,.F.);
#785=ORIENTED_EDGE('',*,*,#543,.F.);
#786=ORIENTED_EDGE('',*,*,#618,.T.);
#787=ORIENTED_EDGE('',*,*,#619,.F.);
#788=ORIENTED_EDGE('',*,*,#612,.F.);
#789=ORIENTED_EDGE('',*,*,#549,.F.);
#790=ORIENTED_EDGE('',*,*,#553,.F.);
#791=ORIENTED_EDGE('',*,*,#620,.T.);
#792=ORIENTED_EDGE('',*,*,#621,.T.);
#793=ORIENTED_EDGE('',*,*,#575,.T.);
#794=ORIENTED_EDGE('',*,*,#572,.F.);
#795=ORIENTED_EDGE('',*,*,#569,.T.);
#796=ORIENTED_EDGE('',*,*,#565,.F.);
#797=ORIENTED_EDGE('',*,*,#590,.T.);
#798=ORIENTED_EDGE('',*,*,#586,.F.);
#799=ORIENTED_EDGE('',*,*,#583,.T.);
#800=ORIENTED_EDGE('',*,*,#580,.F.);
#801=ORIENTED_EDGE('',*,*,#576,.T.);
#802=ORIENTED_EDGE('',*,*,#622,.T.);
#803=ORIENTED_EDGE('',*,*,#623,.T.);
#804=ORIENTED_EDGE('',*,*,#624,.F.);
#805=ORIENTED_EDGE('',*,*,#625,.F.);
#806=ORIENTED_EDGE('',*,*,#609,.F.);
#807=ORIENTED_EDGE('',*,*,#603,.T.);
#808=ORIENTED_EDGE('',*,*,#626,.F.);
#809=ORIENTED_EDGE('',*,*,#627,.F.);
#810=ORIENTED_EDGE('',*,*,#628,.F.);
#811=ORIENTED_EDGE('',*,*,#629,.F.);
#812=ORIENTED_EDGE('',*,*,#630,.T.);
#813=ORIENTED_EDGE('',*,*,#625,.T.);
#814=ORIENTED_EDGE('',*,*,#631,.T.);
#815=ORIENTED_EDGE('',*,*,#632,.T.);
#816=ORIENTED_EDGE('',*,*,#610,.F.);
#817=ORIENTED_EDGE('',*,*,#611,.F.);
#818=ORIENTED_EDGE('',*,*,#633,.T.);
#819=ORIENTED_EDGE('',*,*,#634,.T.);
#820=ORIENTED_EDGE('',*,*,#635,.T.);
#821=ORIENTED_EDGE('',*,*,#606,.F.);
#822=ORIENTED_EDGE('',*,*,#632,.F.);
#823=ORIENTED_EDGE('',*,*,#636,.T.);
#824=ORIENTED_EDGE('',*,*,#559,.F.);
#825=ORIENTED_EDGE('',*,*,#633,.F.);
#826=ORIENTED_EDGE('',*,*,#631,.F.);
#827=ORIENTED_EDGE('',*,*,#624,.T.);
#828=ORIENTED_EDGE('',*,*,#637,.T.);
#829=ORIENTED_EDGE('',*,*,#560,.F.);
#830=ORIENTED_EDGE('',*,*,#636,.F.);
#831=ORIENTED_EDGE('',*,*,#563,.F.);
#832=ORIENTED_EDGE('',*,*,#638,.T.);
#833=ORIENTED_EDGE('',*,*,#620,.F.);
#834=ORIENTED_EDGE('',*,*,#552,.F.);
#835=ORIENTED_EDGE('',*,*,#623,.F.);
#836=ORIENTED_EDGE('',*,*,#639,.F.);
#837=ORIENTED_EDGE('',*,*,#561,.F.);
#838=ORIENTED_EDGE('',*,*,#637,.F.);
#839=ORIENTED_EDGE('',*,*,#638,.F.);
#840=ORIENTED_EDGE('',*,*,#562,.F.);
#841=ORIENTED_EDGE('',*,*,#639,.T.);
#842=ORIENTED_EDGE('',*,*,#622,.F.);
#843=ORIENTED_EDGE('',*,*,#621,.F.);
#844=ORIENTED_EDGE('',*,*,#630,.F.);
#845=ORIENTED_EDGE('',*,*,#640,.T.);
#846=ORIENTED_EDGE('',*,*,#564,.F.);
#847=ORIENTED_EDGE('',*,*,#640,.F.);
#848=ORIENTED_EDGE('',*,*,#550,.F.);
#849=ORIENTED_EDGE('',*,*,#629,.T.);
#850=ORIENTED_EDGE('',*,*,#641,.T.);
#851=ORIENTED_EDGE('',*,*,#554,.F.);
#852=ORIENTED_EDGE('',*,*,#628,.T.);
#853=ORIENTED_EDGE('',*,*,#642,.T.);
#854=ORIENTED_EDGE('',*,*,#555,.F.);
#855=ORIENTED_EDGE('',*,*,#641,.F.);
#856=ORIENTED_EDGE('',*,*,#627,.T.);
#857=ORIENTED_EDGE('',*,*,#643,.T.);
#858=ORIENTED_EDGE('',*,*,#556,.F.);
#859=ORIENTED_EDGE('',*,*,#642,.F.);
#860=ORIENTED_EDGE('',*,*,#558,.T.);
#861=ORIENTED_EDGE('',*,*,#644,.T.);
#862=ORIENTED_EDGE('',*,*,#645,.T.);
#863=ORIENTED_EDGE('',*,*,#634,.F.);
#864=ORIENTED_EDGE('',*,*,#591,.T.);
#865=ORIENTED_EDGE('',*,*,#608,.T.);
#866=ORIENTED_EDGE('',*,*,#646,.T.);
#867=ORIENTED_EDGE('',*,*,#644,.F.);
#868=ORIENTED_EDGE('',*,*,#557,.T.);
#869=ORIENTED_EDGE('',*,*,#643,.F.);
#870=ORIENTED_EDGE('',*,*,#626,.T.);
#871=ORIENTED_EDGE('',*,*,#602,.T.);
#872=ORIENTED_EDGE('',*,*,#607,.F.);
#873=ORIENTED_EDGE('',*,*,#635,.F.);
#874=ORIENTED_EDGE('',*,*,#645,.F.);
#875=ORIENTED_EDGE('',*,*,#646,.F.);
#876=ORIENTED_EDGE('',*,*,#529,.F.);
#877=ORIENTED_EDGE('',*,*,#535,.F.);
#878=ORIENTED_EDGE('',*,*,#647,.F.);
#879=ORIENTED_EDGE('',*,*,#648,.F.);
#880=ORIENTED_EDGE('',*,*,#616,.F.);
#881=ORIENTED_EDGE('',*,*,#600,.T.);
#882=ORIENTED_EDGE('',*,*,#649,.F.);
#883=ORIENTED_EDGE('',*,*,#650,.F.);
#884=ORIENTED_EDGE('',*,*,#651,.F.);
#885=ORIENTED_EDGE('',*,*,#652,.T.);
#886=ORIENTED_EDGE('',*,*,#653,.T.);
#887=ORIENTED_EDGE('',*,*,#578,.T.);
#888=ORIENTED_EDGE('',*,*,#582,.F.);
#889=ORIENTED_EDGE('',*,*,#585,.T.);
#890=ORIENTED_EDGE('',*,*,#588,.F.);
#891=ORIENTED_EDGE('',*,*,#589,.T.);
#892=ORIENTED_EDGE('',*,*,#567,.F.);
#893=ORIENTED_EDGE('',*,*,#571,.T.);
#894=ORIENTED_EDGE('',*,*,#574,.F.);
#895=ORIENTED_EDGE('',*,*,#579,.T.);
#896=ORIENTED_EDGE('',*,*,#654,.T.);
#897=ORIENTED_EDGE('',*,*,#655,.T.);
#898=ORIENTED_EDGE('',*,*,#656,.F.);
#899=ORIENTED_EDGE('',*,*,#657,.T.);
#900=ORIENTED_EDGE('',*,*,#658,.T.);
#901=ORIENTED_EDGE('',*,*,#659,.T.);
#902=ORIENTED_EDGE('',*,*,#650,.T.);
#903=ORIENTED_EDGE('',*,*,#660,.T.);
#904=ORIENTED_EDGE('',*,*,#595,.T.);
#905=ORIENTED_EDGE('',*,*,#615,.T.);
#906=ORIENTED_EDGE('',*,*,#661,.T.);
#907=ORIENTED_EDGE('',*,*,#660,.F.);
#908=ORIENTED_EDGE('',*,*,#649,.T.);
#909=ORIENTED_EDGE('',*,*,#599,.T.);
#910=ORIENTED_EDGE('',*,*,#659,.F.);
#911=ORIENTED_EDGE('',*,*,#662,.F.);
#912=ORIENTED_EDGE('',*,*,#540,.F.);
#913=ORIENTED_EDGE('',*,*,#663,.T.);
#914=ORIENTED_EDGE('',*,*,#651,.T.);
#915=ORIENTED_EDGE('',*,*,#664,.F.);
#916=ORIENTED_EDGE('',*,*,#655,.F.);
#917=ORIENTED_EDGE('',*,*,#665,.T.);
#918=ORIENTED_EDGE('',*,*,#537,.F.);
#919=ORIENTED_EDGE('',*,*,#663,.F.);
#920=ORIENTED_EDGE('',*,*,#539,.F.);
#921=ORIENTED_EDGE('',*,*,#666,.F.);
#922=ORIENTED_EDGE('',*,*,#652,.F.);
#923=ORIENTED_EDGE('',*,*,#665,.F.);
#924=ORIENTED_EDGE('',*,*,#654,.F.);
#925=ORIENTED_EDGE('',*,*,#653,.F.);
#926=ORIENTED_EDGE('',*,*,#666,.T.);
#927=ORIENTED_EDGE('',*,*,#538,.F.);
#928=ORIENTED_EDGE('',*,*,#546,.F.);
#929=ORIENTED_EDGE('',*,*,#667,.T.);
#930=ORIENTED_EDGE('',*,*,#657,.F.);
#931=ORIENTED_EDGE('',*,*,#667,.F.);
#932=ORIENTED_EDGE('',*,*,#542,.F.);
#933=ORIENTED_EDGE('',*,*,#668,.T.);
#934=ORIENTED_EDGE('',*,*,#669,.F.);
#935=ORIENTED_EDGE('',*,*,#618,.F.);
#936=ORIENTED_EDGE('',*,*,#613,.T.);
#937=ORIENTED_EDGE('',*,*,#619,.T.);
#938=ORIENTED_EDGE('',*,*,#669,.T.);
#939=ORIENTED_EDGE('',*,*,#670,.T.);
#940=ORIENTED_EDGE('',*,*,#648,.T.);
#941=ORIENTED_EDGE('',*,*,#671,.F.);
#942=ORIENTED_EDGE('',*,*,#544,.F.);
#943=ORIENTED_EDGE('',*,*,#617,.T.);
#944=ORIENTED_EDGE('',*,*,#647,.T.);
#945=ORIENTED_EDGE('',*,*,#534,.F.);
#946=ORIENTED_EDGE('',*,*,#545,.T.);
#947=ORIENTED_EDGE('',*,*,#671,.T.);
#948=ORIENTED_EDGE('',*,*,#530,.F.);
#949=ORIENTED_EDGE('',*,*,#656,.T.);
#950=ORIENTED_EDGE('',*,*,#664,.T.);
#951=ORIENTED_EDGE('',*,*,#536,.F.);
#952=ORIENTED_EDGE('',*,*,#658,.F.);
#953=ORIENTED_EDGE('',*,*,#672,.F.);
#954=ORIENTED_EDGE('',*,*,#541,.F.);
#955=ORIENTED_EDGE('',*,*,#662,.T.);
#956=ORIENTED_EDGE('',*,*,#661,.F.);
#957=ORIENTED_EDGE('',*,*,#614,.T.);
#958=ORIENTED_EDGE('',*,*,#670,.F.);
#959=ORIENTED_EDGE('',*,*,#668,.F.);
#960=ORIENTED_EDGE('',*,*,#672,.T.);
#961=CYLINDRICAL_SURFACE('',#1037,1.5);
#962=CYLINDRICAL_SURFACE('',#1044,1.5);
#963=CYLINDRICAL_SURFACE('',#1051,0.4);
#964=CYLINDRICAL_SURFACE('',#1055,0.4);
#965=CYLINDRICAL_SURFACE('',#1059,0.4);
#966=CYLINDRICAL_SURFACE('',#1063,3.);
#967=CYLINDRICAL_SURFACE('',#1085,1.5);
#968=CYLINDRICAL_SURFACE('',#1086,2.);
#969=CYLINDRICAL_SURFACE('',#1102,1.5);
#970=CYLINDRICAL_SURFACE('',#1103,2.);
#971=ADVANCED_FACE('',(#61),#961,.T.);
#972=ADVANCED_FACE('',(#62),#19,.T.);
#973=ADVANCED_FACE('',(#63,#15),#20,.T.);
#974=ADVANCED_FACE('',(#64),#962,.T.);
#975=ADVANCED_FACE('',(#65),#21,.T.);
#976=ADVANCED_FACE('',(#66,#16),#22,.T.);
#977=ADVANCED_FACE('',(#67),#963,.T.);
#978=ADVANCED_FACE('',(#68),#23,.T.);
#979=ADVANCED_FACE('',(#69),#964,.T.);
#980=ADVANCED_FACE('',(#70),#24,.T.);
#981=ADVANCED_FACE('',(#71),#965,.T.);
#982=ADVANCED_FACE('',(#72),#25,.T.);
#983=ADVANCED_FACE('',(#73),#966,.T.);
#984=ADVANCED_FACE('',(#74),#26,.T.);
#985=ADVANCED_FACE('',(#75),#27,.F.);
#986=ADVANCED_FACE('',(#76),#28,.F.);
#987=ADVANCED_FACE('',(#77),#29,.F.);
#988=ADVANCED_FACE('',(#78),#30,.F.);
#989=ADVANCED_FACE('',(#79),#31,.F.);
#990=ADVANCED_FACE('',(#80),#32,.T.);
#991=ADVANCED_FACE('',(#81),#33,.T.);
#992=ADVANCED_FACE('',(#82),#34,.T.);
#993=ADVANCED_FACE('',(#83,#17),#35,.F.);
#994=ADVANCED_FACE('',(#84),#36,.T.);
#995=ADVANCED_FACE('',(#85),#37,.F.);
#996=ADVANCED_FACE('',(#86),#38,.T.);
#997=ADVANCED_FACE('',(#87),#39,.T.);
#998=ADVANCED_FACE('',(#88),#40,.F.);
#999=ADVANCED_FACE('',(#89),#41,.F.);
#1000=ADVANCED_FACE('',(#90),#967,.F.);
#1001=ADVANCED_FACE('',(#91),#968,.F.);
#1002=ADVANCED_FACE('',(#92),#42,.T.);
#1003=ADVANCED_FACE('',(#93),#43,.T.);
#1004=ADVANCED_FACE('',(#94),#44,.T.);
#1005=ADVANCED_FACE('',(#95),#45,.F.);
#1006=ADVANCED_FACE('',(#96),#46,.F.);
#1007=ADVANCED_FACE('',(#97),#47,.F.);
#1008=ADVANCED_FACE('',(#98,#18),#48,.F.);
#1009=ADVANCED_FACE('',(#99),#49,.T.);
#1010=ADVANCED_FACE('',(#100),#50,.T.);
#1011=ADVANCED_FACE('',(#101),#51,.T.);
#1012=ADVANCED_FACE('',(#102),#52,.F.);
#1013=ADVANCED_FACE('',(#103),#53,.F.);
#1014=ADVANCED_FACE('',(#104),#969,.F.);
#1015=ADVANCED_FACE('',(#105),#970,.F.);
#1016=ADVANCED_FACE('',(#106),#54,.T.);
#1017=ADVANCED_FACE('',(#107),#55,.T.);
#1018=ADVANCED_FACE('',(#108),#56,.T.);
#1019=ADVANCED_FACE('',(#109),#57,.T.);
#1020=ADVANCED_FACE('',(#110),#58,.T.);
#1021=ADVANCED_FACE('',(#111),#59,.T.);
#1022=ADVANCED_FACE('',(#112),#60,.T.);
#1023=CLOSED_SHELL('',(#971,#972,#973,#974,#975,#976,#977,#978,#979,#980,
#981,#982,#983,#984,#985,#986,#987,#988,#989,#990,#991,#992,#993,#994,#995,
#996,#997,#998,#999,#1000,#1001,#1002,#1003,#1004,#1005,#1006,#1007,#1008,
#1009,#1010,#1011,#1012,#1013,#1014,#1015,#1016,#1017,#1018,#1019,#1020,
#1021,#1022));
#1024=DERIVED_UNIT_ELEMENT(#1026,1.);
#1025=DERIVED_UNIT_ELEMENT(#1679,-3.);
#1026=(
MASS_UNIT()
NAMED_UNIT(*)
SI_UNIT(.KILO.,.GRAM.)
);
#1027=DERIVED_UNIT((#1024,#1025));
#1028=MEASURE_REPRESENTATION_ITEM('density measure',
POSITIVE_RATIO_MEASURE(7800.),#1027);
#1029=PROPERTY_DEFINITION_REPRESENTATION(#1034,#1031);
#1030=PROPERTY_DEFINITION_REPRESENTATION(#1035,#1032);
#1031=REPRESENTATION('material name',(#1033),#1676);
#1032=REPRESENTATION('density',(#1028),#1676);
#1033=DESCRIPTIVE_REPRESENTATION_ITEM('Stainless Steel 17-4 PH',
'Stainless Steel 17-4 PH');
#1034=PROPERTY_DEFINITION('material property','material name',#1686);
#1035=PROPERTY_DEFINITION('material property','density of part',#1686);
#1036=AXIS2_PLACEMENT_3D('',#1383,#1111,#1112);
#1037=AXIS2_PLACEMENT_3D('',#1384,#1113,#1114);
#1038=AXIS2_PLACEMENT_3D('',#1387,#1115,#1116);
#1039=AXIS2_PLACEMENT_3D('',#1391,#1118,#1119);
#1040=AXIS2_PLACEMENT_3D('',#1393,#1121,#1122);
#1041=AXIS2_PLACEMENT_3D('',#1399,#1126,#1127);
#1042=AXIS2_PLACEMENT_3D('',#1405,#1130,#1131);
#1043=AXIS2_PLACEMENT_3D('',#1420,#1139,#1140);
#1044=AXIS2_PLACEMENT_3D('',#1421,#1141,#1142);
#1045=AXIS2_PLACEMENT_3D('',#1424,#1143,#1144);
#1046=AXIS2_PLACEMENT_3D('',#1428,#1146,#1147);
#1047=AXIS2_PLACEMENT_3D('',#1430,#1149,#1150);
#1048=AXIS2_PLACEMENT_3D('',#1436,#1154,#1155);
#1049=AXIS2_PLACEMENT_3D('',#1454,#1164,#1165);
#1050=AXIS2_PLACEMENT_3D('',#1457,#1167,#1168);
#1051=AXIS2_PLACEMENT_3D('',#1458,#1169,#1170);
#1052=AXIS2_PLACEMENT_3D('',#1461,#1171,#1172);
#1053=AXIS2_PLACEMENT_3D('',#1465,#1174,#1175);
#1054=AXIS2_PLACEMENT_3D('',#1467,#1177,#1178);
#1055=AXIS2_PLACEMENT_3D('',#1473,#1182,#1183);
#1056=AXIS2_PLACEMENT_3D('',#1475,#1184,#1185);
#1057=AXIS2_PLACEMENT_3D('',#1478,#1187,#1188);
#1058=AXIS2_PLACEMENT_3D('',#1479,#1189,#1190);
#1059=AXIS2_PLACEMENT_3D('',#1489,#1196,#1197);
#1060=AXIS2_PLACEMENT_3D('',#1491,#1198,#1199);
#1061=AXIS2_PLACEMENT_3D('',#1494,#1201,#1202);
#1062=AXIS2_PLACEMENT_3D('',#1495,#1203,#1204);
#1063=AXIS2_PLACEMENT_3D('',#1501,#1208,#1209);
#1064=AXIS2_PLACEMENT_3D('',#1503,#1210,#1211);
#1065=AXIS2_PLACEMENT_3D('',#1506,#1213,#1214);
#1066=AXIS2_PLACEMENT_3D('',#1507,#1215,#1216);
#1067=AXIS2_PLACEMENT_3D('',#1510,#1219,#1220);
#1068=AXIS2_PLACEMENT_3D('',#1519,#1225,#1226);
#1069=AXIS2_PLACEMENT_3D('',#1528,#1231,#1232);
#1070=AXIS2_PLACEMENT_3D('',#1534,#1236,#1237);
#1071=AXIS2_PLACEMENT_3D('',#1540,#1241,#1242);
#1072=AXIS2_PLACEMENT_3D('',#1548,#1247,#1248);
#1073=AXIS2_PLACEMENT_3D('',#1554,#1252,#1253);
#1074=AXIS2_PLACEMENT_3D('',#1562,#1258,#1259);
#1075=AXIS2_PLACEMENT_3D('',#1569,#1264,#1265);
#1076=AXIS2_PLACEMENT_3D('',#1572,#1267,#1268);
#1077=AXIS2_PLACEMENT_3D('',#1574,#1269,#1270);
#1078=AXIS2_PLACEMENT_3D('',#1588,#1278,#1279);
#1079=AXIS2_PLACEMENT_3D('',#1589,#1280,#1281);
#1080=AXIS2_PLACEMENT_3D('',#1593,#1284,#1285);
#1081=AXIS2_PLACEMENT_3D('',#1598,#1289,#1290);
#1082=AXIS2_PLACEMENT_3D('',#1600,#1292,#1293);
#1083=AXIS2_PLACEMENT_3D('',#1602,#1295,#1296);
#1084=AXIS2_PLACEMENT_3D('',#1604,#1298,#1299);
#1085=AXIS2_PLACEMENT_3D('',#1606,#1301,#1302);
#1086=AXIS2_PLACEMENT_3D('',#1607,#1303,#1304);
#1087=AXIS2_PLACEMENT_3D('',#1609,#1306,#1307);
#1088=AXIS2_PLACEMENT_3D('',#1611,#1309,#1310);
#1089=AXIS2_PLACEMENT_3D('',#1613,#1312,#1313);
#1090=AXIS2_PLACEMENT_3D('',#1615,#1315,#1316);
#1091=AXIS2_PLACEMENT_3D('',#1619,#1319,#1320);
#1092=AXIS2_PLACEMENT_3D('',#1621,#1322,#1323);
#1093=AXIS2_PLACEMENT_3D('',#1622,#1324,#1325);
#1094=AXIS2_PLACEMENT_3D('',#1634,#1332,#1333);
#1095=AXIS2_PLACEMENT_3D('',#1636,#1334,#1335);
#1096=AXIS2_PLACEMENT_3D('',#1641,#1338,#1339);
#1097=AXIS2_PLACEMENT_3D('',#1642,#1340,#1341);
#1098=AXIS2_PLACEMENT_3D('',#1648,#1345,#1346);
#1099=AXIS2_PLACEMENT_3D('',#1650,#1348,#1349);
#1100=AXIS2_PLACEMENT_3D('',#1653,#1352,#1353);
#1101=AXIS2_PLACEMENT_3D('',#1656,#1356,#1357);
#1102=AXIS2_PLACEMENT_3D('',#1658,#1359,#1360);
#1103=AXIS2_PLACEMENT_3D('',#1659,#1361,#1362);
#1104=AXIS2_PLACEMENT_3D('',#1661,#1364,#1365);
#1105=AXIS2_PLACEMENT_3D('',#1665,#1368,#1369);
#1106=AXIS2_PLACEMENT_3D('',#1667,#1371,#1372);
#1107=AXIS2_PLACEMENT_3D('',#1669,#1374,#1375);
#1108=AXIS2_PLACEMENT_3D('',#1670,#1376,#1377);
#1109=AXIS2_PLACEMENT_3D('',#1671,#1378,#1379);
#1110=AXIS2_PLACEMENT_3D('',#1673,#1381,#1382);
#1111=DIRECTION('axis',(0.,0.,1.));
#1112=DIRECTION('refdir',(1.,0.,0.));
#1113=DIRECTION('center_axis',(-1.,0.,0.));
#1114=DIRECTION('ref_axis',(0.,0.793353340291235,-0.608761429008721));
#1115=DIRECTION('center_axis',(1.,0.,0.));
#1116=DIRECTION('ref_axis',(0.,0.793353340291235,-0.608761429008721));
#1117=DIRECTION('',(1.,0.,0.));
#1118=DIRECTION('center_axis',(-1.,0.,0.));
#1119=DIRECTION('ref_axis',(0.,0.793353340291235,-0.608761429008721));
#1120=DIRECTION('',(-1.,0.,0.));
#1121=DIRECTION('center_axis',(0.,0.,-1.));
#1122=DIRECTION('ref_axis',(0.,-1.,0.));
#1123=DIRECTION('',(0.,1.,0.));
#1124=DIRECTION('',(-1.,0.,0.));
#1125=DIRECTION('',(0.,1.,0.));
#1126=DIRECTION('center_axis',(1.,0.,0.));
#1127=DIRECTION('ref_axis',(0.,1.,0.));
#1128=DIRECTION('',(0.,-0.25881904510252,0.965925826289068));
#1129=DIRECTION('',(0.,-1.,-3.70074341541719E-16));
#1130=DIRECTION('center_axis',(-1.,0.,0.));
#1131=DIRECTION('ref_axis',(0.,1.,0.));
#1132=DIRECTION('',(0.,1.,3.70074341541719E-16));
#1133=DIRECTION('',(0.,-0.25881904510252,0.965925826289068));
#1134=DIRECTION('',(0.,-0.976395889602533,0.215988580177929));
#1135=DIRECTION('',(0.,0.,-1.));
#1136=DIRECTION('',(0.,-1.,0.));
#1137=DIRECTION('',(0.,0.96063100572564,-0.277827411963877));
#1138=DIRECTION('',(0.,-0.258819045102521,0.965925826289068));
#1139=DIRECTION('center_axis',(-1.,0.,0.));
#1140=DIRECTION('ref_axis',(0.,1.,0.));
#1141=DIRECTION('center_axis',(-1.,0.,0.));
#1142=DIRECTION('ref_axis',(0.,0.793353340291235,-0.608761429008721));
#1143=DIRECTION('center_axis',(1.,0.,0.));
#1144=DIRECTION('ref_axis',(0.,0.793353340291235,-0.608761429008721));
#1145=DIRECTION('',(1.,0.,0.));
#1146=DIRECTION('center_axis',(-1.,0.,0.));
#1147=DIRECTION('ref_axis',(0.,0.793353340291235,-0.608761429008721));
#1148=DIRECTION('',(-1.,0.,0.));
#1149=DIRECTION('center_axis',(0.,0.965925826289069,0.25881904510252));
#1150=DIRECTION('ref_axis',(0.,0.25881904510252,-0.965925826289068));
#1151=DIRECTION('',(0.,0.25881904510252,-0.965925826289068));
#1152=DIRECTION('',(1.,0.,0.));
#1153=DIRECTION('',(0.,0.25881904510252,-0.965925826289068));
#1154=DIRECTION('center_axis',(-1.,0.,0.));
#1155=DIRECTION('ref_axis',(0.,0.,1.));
#1156=DIRECTION('',(0.,-1.,0.));
#1157=DIRECTION('',(0.,-0.258819045102521,0.965925826289068));
#1158=DIRECTION('',(0.,-0.96063100572564,0.277827411963877));
#1159=DIRECTION('',(0.,-1.,0.));
#1160=DIRECTION('',(0.,0.,-1.));
#1161=DIRECTION('',(0.,0.976395889602533,-0.215988580177929));
#1162=DIRECTION('',(0.,0.25881904510252,-0.965925826289068));
#1163=DIRECTION('',(0.,-1.,-3.70074341541719E-16));
#1164=DIRECTION('center_axis',(1.,0.,0.));
#1165=DIRECTION('ref_axis',(0.,1.,0.));
#1166=DIRECTION('',(0.,1.,3.70074341541719E-16));
#1167=DIRECTION('center_axis',(1.,0.,0.));
#1168=DIRECTION('ref_axis',(0.,1.,0.));
#1169=DIRECTION('center_axis',(1.,0.,0.));
#1170=DIRECTION('ref_axis',(0.,-0.917307939024781,0.398178534080013));
#1171=DIRECTION('center_axis',(-1.,0.,0.));
#1172=DIRECTION('ref_axis',(0.,-0.917307939024781,0.398178534080013));
#1173=DIRECTION('',(1.,0.,0.));
#1174=DIRECTION('center_axis',(1.,0.,0.));
#1175=DIRECTION('ref_axis',(0.,-0.917307939024781,0.398178534080013));
#1176=DIRECTION('',(-1.,0.,0.));
#1177=DIRECTION('center_axis',(0.,-0.716887946992695,-0.69718840456264));
#1178=DIRECTION('ref_axis',(0.,0.69718840456264,-0.716887946992695));
#1179=DIRECTION('',(0.,-0.69718840456264,0.716887946992695));
#1180=DIRECTION('',(-1.,0.,0.));
#1181=DIRECTION('',(0.,0.69718840456264,-0.716887946992695));
#1182=DIRECTION('center_axis',(1.,0.,0.));
#1183=DIRECTION('ref_axis',(0.,0.103355774535079,-0.994644450982488));
#1184=DIRECTION('center_axis',(-1.,0.,0.));
#1185=DIRECTION('ref_axis',(0.,0.103355774535079,-0.994644450982488));
#1186=DIRECTION('',(1.,0.,0.));
#1187=DIRECTION('center_axis',(1.,0.,0.));
#1188=DIRECTION('ref_axis',(0.,0.103355774535079,-0.994644450982488));
#1189=DIRECTION('center_axis',(0.,0.844916826261272,-0.534897706763246));
#1190=DIRECTION('ref_axis',(0.,0.534897706763246,0.844916826261272));
#1191=DIRECTION('',(0.,-0.534897706763246,-0.844916826261272));
#1192=DIRECTION('',(0.,-0.534897706763246,-0.844916826261272));
#1193=DIRECTION('',(-1.,0.,0.));
#1194=DIRECTION('',(0.,0.534897706763246,0.844916826261272));
#1195=DIRECTION('',(0.,0.534897706763246,0.844916826261272));
#1196=DIRECTION('center_axis',(1.,0.,0.));
#1197=DIRECTION('ref_axis',(0.,0.973314324498709,0.229475980716112));
#1198=DIRECTION('center_axis',(-1.,0.,0.));
#1199=DIRECTION('ref_axis',(0.,0.973314324498709,0.229475980716112));
#1200=DIRECTION('',(1.,0.,0.));
#1201=DIRECTION('center_axis',(1.,0.,0.));
#1202=DIRECTION('ref_axis',(0.,0.973314324498709,0.229475980716112));
#1203=DIRECTION('center_axis',(0.,0.516990272064843,0.855991272496583));
#1204=DIRECTION('ref_axis',(0.,-0.855991272496583,0.516990272064843));
#1205=DIRECTION('',(0.,0.855991272496583,-0.516990272064843));
#1206=DIRECTION('',(-1.,0.,0.));
#1207=DIRECTION('',(0.,-0.855991272496583,0.516990272064843));
#1208=DIRECTION('center_axis',(1.,0.,0.));
#1209=DIRECTION('ref_axis',(0.,0.277827411963932,0.960631005725624));
#1210=DIRECTION('center_axis',(-1.,0.,0.));
#1211=DIRECTION('ref_axis',(0.,0.277827411963932,0.960631005725624));
#1212=DIRECTION('',(1.,0.,0.));
#1213=DIRECTION('center_axis',(1.,0.,0.));
#1214=DIRECTION('ref_axis',(0.,0.277827411963932,0.960631005725624));
#1215=DIRECTION('center_axis',(0.,0.0197310728691787,0.999805323432233));
#1216=DIRECTION('ref_axis',(0.,-0.999805323432233,0.0197310728691787));
#1217=DIRECTION('',(0.,-0.999805323432233,0.0197310728691787));
#1218=DIRECTION('',(0.,0.999805323432233,-0.0197310728691787));
#1219=DIRECTION('center_axis',(-1.,0.,0.));
#1220=DIRECTION('ref_axis',(0.,1.,0.));
#1221=DIRECTION('',(0.,-1.,0.));
#1222=DIRECTION('',(0.,0.,-1.));
#1223=DIRECTION('',(0.,1.,0.));
#1224=DIRECTION('',(0.,-0.25881904510252,0.965925826289068));
#1225=DIRECTION('center_axis',(1.,0.,0.));
#1226=DIRECTION('ref_axis',(0.,-1.,0.));
#1227=DIRECTION('',(0.,-1.,0.));
#1228=DIRECTION('',(0.,0.,-1.));
#1229=DIRECTION('',(0.,1.,0.));
#1230=DIRECTION('',(0.,0.25881904510252,-0.965925826289068));
#1231=DIRECTION('center_axis',(0.,1.,0.));
#1232=DIRECTION('ref_axis',(1.,0.,0.));
#1233=DIRECTION('',(0.707106781186548,0.,0.707106781186547));
#1234=DIRECTION('',(0.,0.,1.));
#1235=DIRECTION('',(-1.,0.,0.));
#1236=DIRECTION('center_axis',(0.,1.,0.));
#1237=DIRECTION('ref_axis',(1.,0.,0.));
#1238=DIRECTION('',(-1.,0.,0.));
#1239=DIRECTION('',(0.,0.,-1.));
#1240=DIRECTION('',(0.707106781186548,0.,-0.707106781186548));
#1241=DIRECTION('center_axis',(0.,0.965925826289068,0.25881904510252));
#1242=DIRECTION('ref_axis',(0.,0.25881904510252,-0.965925826289068));
#1243=DIRECTION('',(0.694746590606866,0.186156787897385,-0.694746590606866));
#1244=DIRECTION('',(-1.,0.,0.));
#1245=DIRECTION('',(0.,0.25881904510252,-0.965925826289068));
#1246=DIRECTION('',(-1.,0.,0.));
#1247=DIRECTION('center_axis',(0.707106781186548,0.,0.707106781186548));
#1248=DIRECTION('ref_axis',(0.707106781186548,0.,-0.707106781186548));
#1249=DIRECTION('',(0.,1.,0.));
#1250=DIRECTION('',(-0.705004944510249,0.0770458073629118,0.705004944510249));
#1251=DIRECTION('',(0.,-1.,0.));
#1252=DIRECTION('center_axis',(0.,-0.965925826289068,-0.25881904510252));
#1253=DIRECTION('ref_axis',(0.,-0.25881904510252,0.965925826289068));
#1254=DIRECTION('',(1.,0.,0.));
#1255=DIRECTION('',(0.,0.25881904510252,-0.965925826289068));
#1256=DIRECTION('',(1.,0.,0.));
#1257=DIRECTION('',(0.694746590606866,-0.186156787897385,0.694746590606866));
#1258=DIRECTION('center_axis',(0.,0.,-1.));
#1259=DIRECTION('ref_axis',(0.,-1.,0.));
#1260=DIRECTION('',(0.,1.,0.));
#1261=DIRECTION('',(-1.,0.,0.));
#1262=DIRECTION('',(1.,0.,0.));
#1263=DIRECTION('',(0.,1.,0.));
#1264=DIRECTION('center_axis',(-1.,0.,0.));
#1265=DIRECTION('ref_axis',(0.,0.,1.));
#1266=DIRECTION('',(0.,-1.,-3.70074341541719E-16));
#1267=DIRECTION('center_axis',(-1.,0.,0.));
#1268=DIRECTION('ref_axis',(0.,1.,0.));
#1269=DIRECTION('center_axis',(-1.,0.,0.));
#1270=DIRECTION('ref_axis',(0.,1.,0.));
#1271=DIRECTION('',(0.,1.,3.70074341541719E-16));
#1272=DIRECTION('',(0.,0.25881904510252,-0.965925826289068));
#1273=DIRECTION('',(0.,0.976395889602533,-0.215988580177929));
#1274=DIRECTION('',(0.,-1.,0.));
#1275=DIRECTION('',(0.,-0.96063100572564,0.277827411963877));
#1276=DIRECTION('',(0.,-0.258819045102521,0.965925826289068));
#1277=DIRECTION('',(0.,-1.,0.));
#1278=DIRECTION('center_axis',(-1.,0.,0.));
#1279=DIRECTION('ref_axis',(0.,1.,0.));
#1280=DIRECTION('center_axis',(0.707106781186547,0.152726989702668,0.690416154660624));
#1281=DIRECTION('ref_axis',(0.698611978156428,0.,-0.715500736530972));
#1282=DIRECTION('',(-0.663667874845116,-0.19360373058785,0.722538959088736));
#1283=DIRECTION('',(0.,-0.976395889602533,0.215988580177929));
#1284=DIRECTION('center_axis',(0.,0.,-1.));
#1285=DIRECTION('ref_axis',(0.,-1.,0.));
#1286=DIRECTION('',(-1.,0.,0.));
#1287=DIRECTION('',(-1.,0.,0.));
#1288=DIRECTION('',(0.,-1.,0.));
#1289=DIRECTION('center_axis',(0.,0.215988580177929,0.976395889602533));
#1290=DIRECTION('ref_axis',(0.,0.976395889602533,-0.215988580177929));
#1291=DIRECTION('',(-1.,0.,0.));
#1292=DIRECTION('center_axis',(0.,0.965925826289069,0.25881904510252));
#1293=DIRECTION('ref_axis',(0.,0.25881904510252,-0.965925826289068));
#1294=DIRECTION('',(-1.,0.,0.));
#1295=DIRECTION('center_axis',(0.,3.70074341541719E-16,-1.));
#1296=DIRECTION('ref_axis',(0.,-1.,-3.70074341541719E-16));
#1297=DIRECTION('',(1.,0.,0.));
#1298=DIRECTION('center_axis',(0.,-3.70074341541719E-16,1.));
#1299=DIRECTION('ref_axis',(0.,1.,3.70074341541719E-16));
#1300=DIRECTION('',(1.,0.,0.));
#1301=DIRECTION('center_axis',(-1.,0.,0.));
#1302=DIRECTION('ref_axis',(0.,-1.,-5.66553889764798E-16));
#1303=DIRECTION('center_axis',(-1.,0.,0.));
#1304=DIRECTION('ref_axis',(0.,1.,0.));
#1305=DIRECTION('',(-1.,0.,0.));
#1306=DIRECTION('center_axis',(0.,0.,-1.));
#1307=DIRECTION('ref_axis',(0.,-1.,0.));
#1308=DIRECTION('',(-1.,0.,0.));
#1309=DIRECTION('center_axis',(0.,-0.965925826289068,-0.258819045102521));
#1310=DIRECTION('ref_axis',(0.,-0.258819045102521,0.965925826289068));
#1311=DIRECTION('',(-1.,0.,0.));
#1312=DIRECTION('center_axis',(0.,-0.277827411963877,-0.96063100572564));
#1313=DIRECTION('ref_axis',(0.,-0.96063100572564,0.277827411963877));
#1314=DIRECTION('',(-1.,0.,0.));
#1315=DIRECTION('center_axis',(0.,-1.,0.));
#1316=DIRECTION('ref_axis',(0.,0.,1.));
#1317=DIRECTION('',(-1.,0.,0.));
#1318=DIRECTION('',(0.,0.,1.));
#1319=DIRECTION('center_axis',(0.,0.,1.));
#1320=DIRECTION('ref_axis',(0.,1.,0.));
#1321=DIRECTION('',(0.,1.,0.));
#1322=DIRECTION('center_axis',(1.,0.,0.));
#1323=DIRECTION('ref_axis',(0.,0.,-1.));
#1324=DIRECTION('center_axis',(1.,0.,0.));
#1325=DIRECTION('ref_axis',(0.,0.,-1.));
#1326=DIRECTION('',(0.,0.258819045102521,-0.965925826289068));
#1327=DIRECTION('',(0.,0.96063100572564,-0.277827411963877));
#1328=DIRECTION('',(0.,-1.,0.));
#1329=DIRECTION('',(0.,-0.976395889602533,0.215988580177929));
#1330=DIRECTION('',(0.,-0.25881904510252,0.965925826289068));
#1331=DIRECTION('',(0.,-1.,-3.70074341541719E-16));
#1332=DIRECTION('center_axis',(1.,0.,0.));
#1333=DIRECTION('ref_axis',(0.,1.,0.));
#1334=DIRECTION('center_axis',(1.,0.,0.));
#1335=DIRECTION('ref_axis',(0.,1.,0.));
#1336=DIRECTION('',(0.,1.,3.70074341541719E-16));
#1337=DIRECTION('',(0.,-0.25881904510252,0.965925826289068));
#1338=DIRECTION('center_axis',(1.,0.,0.));
#1339=DIRECTION('ref_axis',(0.,1.,0.));
#1340=DIRECTION('center_axis',(-0.707106781186548,0.152726989702668,0.690416154660623));
#1341=DIRECTION('ref_axis',(0.698611978156427,0.,0.715500736530973));
#1342=DIRECTION('',(0.,0.976395889602533,-0.215988580177929));
#1343=DIRECTION('',(-0.663667874845115,0.19360373058785,-0.722538959088737));
#1344=DIRECTION('',(0.705004944510248,0.0770458073629253,0.705004944510248));
#1345=DIRECTION('center_axis',(-0.707106781186547,0.,0.707106781186548));
#1346=DIRECTION('ref_axis',(0.707106781186548,0.,0.707106781186547));
#1347=DIRECTION('',(0.,1.,0.));
#1348=DIRECTION('center_axis',(0.,0.965925826289069,0.25881904510252));
#1349=DIRECTION('ref_axis',(0.,0.25881904510252,-0.965925826289068));
#1350=DIRECTION('',(-1.,0.,0.));
#1351=DIRECTION('',(-1.,0.,0.));
#1352=DIRECTION('center_axis',(0.,3.70074341541719E-16,-1.));
#1353=DIRECTION('ref_axis',(0.,-1.,-3.70074341541719E-16));
#1354=DIRECTION('',(1.,0.,0.));
#1355=DIRECTION('',(1.,0.,0.));
#1356=DIRECTION('center_axis',(0.,-3.70074341541719E-16,1.));
#1357=DIRECTION('ref_axis',(0.,1.,3.70074341541719E-16));
#1358=DIRECTION('',(1.,0.,0.));
#1359=DIRECTION('center_axis',(-1.,0.,0.));
#1360=DIRECTION('ref_axis',(0.,-1.,-5.66553889764798E-16));
#1361=DIRECTION('center_axis',(-1.,0.,0.));
#1362=DIRECTION('ref_axis',(0.,1.,0.));
#1363=DIRECTION('',(-1.,0.,0.));
#1364=DIRECTION('center_axis',(0.,1.,0.));
#1365=DIRECTION('ref_axis',(0.,0.,1.));
#1366=DIRECTION('',(1.,0.,0.));
#1367=DIRECTION('',(0.,0.,1.));
#1368=DIRECTION('center_axis',(1.,0.,0.));
#1369=DIRECTION('ref_axis',(0.,0.,-1.));
#1370=DIRECTION('',(0.,-1.,0.));
#1371=DIRECTION('center_axis',(0.,-0.277827411963877,-0.96063100572564));
#1372=DIRECTION('ref_axis',(0.,-0.96063100572564,0.277827411963877));
#1373=DIRECTION('',(-1.,0.,0.));
#1374=DIRECTION('center_axis',(0.,-0.965925826289068,-0.258819045102521));
#1375=DIRECTION('ref_axis',(0.,-0.258819045102521,0.965925826289068));
#1376=DIRECTION('center_axis',(0.,0.965925826289069,0.25881904510252));
#1377=DIRECTION('ref_axis',(0.,0.25881904510252,-0.965925826289068));
#1378=DIRECTION('center_axis',(0.,0.215988580177929,0.976395889602533));
#1379=DIRECTION('ref_axis',(0.,0.976395889602533,-0.215988580177929));
#1380=DIRECTION('',(-1.,0.,0.));
#1381=DIRECTION('center_axis',(0.,0.,1.));
#1382=DIRECTION('ref_axis',(0.,1.,0.));
#1383=CARTESIAN_POINT('',(0.,0.,0.));
#1384=CARTESIAN_POINT('Origin',(0.,8.19516194073819,1.5));
#1385=CARTESIAN_POINT('',(-3.5,8.19516194073819,0.));
#1386=CARTESIAN_POINT('',(-3.5,9.64405068017179,1.88822856765378));
#1387=CARTESIAN_POINT('Origin',(-3.5,8.19516194073819,1.5));
#1388=CARTESIAN_POINT('',(0.,9.6440506801718,1.88822856765378));
#1389=CARTESIAN_POINT('',(0.,9.6440506801718,1.88822856765378));
#1390=CARTESIAN_POINT('',(0.,8.19516194073819,0.));
#1391=CARTESIAN_POINT('Origin',(0.,8.19516194073819,1.5));
#1392=CARTESIAN_POINT('',(0.,8.19516194073819,0.));
#1393=CARTESIAN_POINT('Origin',(0.,10.15,0.));
#1394=CARTESIAN_POINT('',(0.,0.,0.));
#1395=CARTESIAN_POINT('',(0.,0.,0.));
#1396=CARTESIAN_POINT('',(-3.5,0.,0.));
#1397=CARTESIAN_POINT('',(0.,0.,0.));
#1398=CARTESIAN_POINT('',(-3.5,-4.925,0.));
#1399=CARTESIAN_POINT('Origin',(0.,-3.3861965976242,8.5));
#1400=CARTESIAN_POINT('',(0.,7.80544456622768,8.75));
#1401=CARTESIAN_POINT('',(0.,10.15,0.));
#1402=CARTESIAN_POINT('',(0.,6.0533683110667,8.75));
#1403=CARTESIAN_POINT('',(0.,4.33358585672125,8.75));
#1404=CARTESIAN_POINT('',(0.,6.0533683110667,11.75));
#1405=CARTESIAN_POINT('Origin',(0.,6.0533683110667,10.25));
#1406=CARTESIAN_POINT('',(0.,7.00159698893432,11.75));
#1407=CARTESIAN_POINT('',(0.,1.33358585672125,11.75));
#1408=CARTESIAN_POINT('',(0.,5.87948575580842,15.9377761337696));
#1409=CARTESIAN_POINT('',(0.,10.15,0.));
#1410=CARTESIAN_POINT('',(0.,1.07760680475161,17.));
#1411=CARTESIAN_POINT('',(0.,5.87948575580842,15.9377761337696));
#1412=CARTESIAN_POINT('',(0.,1.07760680475161,13.6));
#1413=CARTESIAN_POINT('',(0.,1.07760680475161,11.05));
#1414=CARTESIAN_POINT('',(0.,-8.51136594098258,13.6));
#1415=CARTESIAN_POINT('',(0.,-9.69878126930339,13.6));
#1416=CARTESIAN_POINT('',(0.,-3.23523806378151,12.0740728286134));
#1417=CARTESIAN_POINT('',(0.,-8.51136594098258,13.6));
#1418=CARTESIAN_POINT('',(0.,0.,0.));
#1419=CARTESIAN_POINT('',(0.,1.64783999846999,3.));
#1420=CARTESIAN_POINT('Origin',(0.,3.64783999846999,3.));
#1421=CARTESIAN_POINT('Origin',(0.,8.19516194073819,1.5));
#1422=CARTESIAN_POINT('',(-17.,8.19516194073819,0.));
#1423=CARTESIAN_POINT('',(-17.,9.6440506801718,1.88822856765378));
#1424=CARTESIAN_POINT('Origin',(-17.,8.19516194073819,1.5));
#1425=CARTESIAN_POINT('',(-13.5,9.64405068017179,1.88822856765378));
#1426=CARTESIAN_POINT('',(0.,9.6440506801718,1.88822856765378));
#1427=CARTESIAN_POINT('',(-13.5,8.19516194073819,0.));
#1428=CARTESIAN_POINT('Origin',(-13.5,8.19516194073819,1.5));
#1429=CARTESIAN_POINT('',(0.,8.19516194073819,0.));
#1430=CARTESIAN_POINT('Origin',(0.,5.87948575580842,15.9377761337696));
#1431=CARTESIAN_POINT('',(-17.,7.80544456622768,8.75));
#1432=CARTESIAN_POINT('',(-17.,10.15,0.));
#1433=CARTESIAN_POINT('',(-13.5,7.80544456622768,8.75));
#1434=CARTESIAN_POINT('',(0.,7.80544456622768,8.75));
#1435=CARTESIAN_POINT('',(-13.5,7.50490936638,9.87161263529442));
#1436=CARTESIAN_POINT('Origin',(-17.,-3.3861965976242,8.5));
#1437=CARTESIAN_POINT('',(-17.,0.,0.));
#1438=CARTESIAN_POINT('',(-17.,0.,0.));
#1439=CARTESIAN_POINT('',(-17.,-3.23523806378151,12.0740728286134));
#1440=CARTESIAN_POINT('',(-17.,0.,0.));
#1441=CARTESIAN_POINT('',(-17.,-8.51136594098258,13.6));
#1442=CARTESIAN_POINT('',(-17.,-8.51136594098258,13.6));
#1443=CARTESIAN_POINT('',(-17.,1.07760680475161,13.6));
#1444=CARTESIAN_POINT('',(-17.,1.07760680475161,13.6));
#1445=CARTESIAN_POINT('',(-17.,1.07760680475161,17.));
#1446=CARTESIAN_POINT('',(-17.,1.07760680475161,17.));
#1447=CARTESIAN_POINT('',(-17.,5.87948575580842,15.9377761337696));
#1448=CARTESIAN_POINT('',(-17.,5.87948575580842,15.9377761337696));
#1449=CARTESIAN_POINT('',(-17.,7.00159698893432,11.75));
#1450=CARTESIAN_POINT('',(-17.,10.15,0.));
#1451=CARTESIAN_POINT('',(-17.,6.0533683110667,11.75));
#1452=CARTESIAN_POINT('',(-17.,1.33358585672125,11.75));
#1453=CARTESIAN_POINT('',(-17.,6.0533683110667,8.75));
#1454=CARTESIAN_POINT('Origin',(-17.,6.0533683110667,10.25));
#1455=CARTESIAN_POINT('',(-17.,4.33358585672125,8.75));
#1456=CARTESIAN_POINT('',(-17.,1.64783999846999,3.));
#1457=CARTESIAN_POINT('Origin',(-17.,3.64783999846999,3.));
#1458=CARTESIAN_POINT('Origin',(-13.5,-0.956809825157351,14.3896330454917));
#1459=CARTESIAN_POINT('',(-13.5,-0.948917396009681,14.7895551748646));
#1460=CARTESIAN_POINT('',(-13.5,-1.24356500395443,14.1107576836666));
#1461=CARTESIAN_POINT('Origin',(-13.5,-0.956809825157351,14.3896330454917));
#1462=CARTESIAN_POINT('',(-3.5,-1.24356500395443,14.1107576836666));
#1463=CARTESIAN_POINT('',(-13.5,-1.24356500395443,14.1107576836666));
#1464=CARTESIAN_POINT('',(-3.5,-0.94891739600968,14.7895551748646));
#1465=CARTESIAN_POINT('Origin',(-3.5,-0.956809825157351,14.3896330454917));
#1466=CARTESIAN_POINT('',(-13.5,-0.948917396009679,14.7895551748646));
#1467=CARTESIAN_POINT('Origin',(-13.5,-1.92239319524839,14.8087666368172));
#1468=CARTESIAN_POINT('',(-13.5,3.22784550742713,9.51300436377779));
#1469=CARTESIAN_POINT('',(-13.5,-1.6155325876988,14.4932354697475));
#1470=CARTESIAN_POINT('',(-3.5,3.22784550742713,9.51300436377779));
#1471=CARTESIAN_POINT('',(-13.5,3.22784550742713,9.51300436377779));
#1472=CARTESIAN_POINT('',(-3.5,-7.65029780389704,20.6985171670775));
#1473=CARTESIAN_POINT('Origin',(-13.5,3.51460068622421,9.79187972560284));
#1474=CARTESIAN_POINT('',(-13.5,3.85256741672872,9.57792064289754));
#1475=CARTESIAN_POINT('Origin',(-13.5,3.51460068622421,9.79187972560284));
#1476=CARTESIAN_POINT('',(-3.5,3.85256741672872,9.57792064289754));
#1477=CARTESIAN_POINT('',(-13.5,3.85256741672872,9.57792064289754));
#1478=CARTESIAN_POINT('Origin',(-3.5,3.51460068622421,9.79187972560284));
#1479=CARTESIAN_POINT('Origin',(-13.5,3.58135072693861,9.14951060884972));
#1480=CARTESIAN_POINT('',(-13.5,4.78599307167479,11.0523465601449));
#1481=CARTESIAN_POINT('',(-13.5,-2.76356662179176,-0.872830787263588));
#1482=CARTESIAN_POINT('',(-13.5,6.03732705055114,13.0289359540737));
#1483=CARTESIAN_POINT('',(-13.5,-2.76356662179176,-0.872830787263588));
#1484=CARTESIAN_POINT('',(-3.5,6.03732705055115,13.0289359540737));
#1485=CARTESIAN_POINT('',(-13.5,6.03732705055114,13.0289359540737));
#1486=CARTESIAN_POINT('',(-3.5,4.78599307167479,11.0523465601449));
#1487=CARTESIAN_POINT('',(-3.5,2.69330377673742,7.74676424959658));
#1488=CARTESIAN_POINT('',(-3.5,2.69330377673742,7.74676424959658));
#1489=CARTESIAN_POINT('Origin',(-13.5,5.69936032004663,13.242895036779));
#1490=CARTESIAN_POINT('',(-13.5,5.90615642887257,13.5852915457776));
#1491=CARTESIAN_POINT('Origin',(-13.5,5.69936032004663,13.242895036779));
#1492=CARTESIAN_POINT('',(-3.5,5.90615642887257,13.5852915457776));
#1493=CARTESIAN_POINT('',(-13.5,5.90615642887257,13.5852915457776));
#1494=CARTESIAN_POINT('Origin',(-3.5,5.69936032004663,13.242895036779));
#1495=CARTESIAN_POINT('Origin',(-13.5,6.25583926075484,13.3740947401561));
#1496=CARTESIAN_POINT('',(-13.5,4.7645252559258,14.2747988219185));
#1497=CARTESIAN_POINT('',(-13.5,0.481094758730564,16.861848444115));
#1498=CARTESIAN_POINT('',(-3.5,4.7645252559258,14.2747988219185));
#1499=CARTESIAN_POINT('',(-13.5,4.7645252559258,14.2747988219185));
#1500=CARTESIAN_POINT('',(-3.5,-4.86221870090465,20.089032140939));
#1501=CARTESIAN_POINT('Origin',(-13.5,3.21355443973127,11.7068250044287));
#1502=CARTESIAN_POINT('',(-13.5,3.27274765833881,14.7062409747254));
#1503=CARTESIAN_POINT('Origin',(-13.5,3.21355443973127,11.7068250044287));
#1504=CARTESIAN_POINT('',(-3.5,3.27274765833881,14.7062409747254));
#1505=CARTESIAN_POINT('',(-13.5,3.27274765833881,14.7062409747254));
#1506=CARTESIAN_POINT('Origin',(-3.5,3.21355443973127,11.7068250044287));
#1507=CARTESIAN_POINT('Origin',(-13.5,4.07643874534501,14.6903801996021));
#1508=CARTESIAN_POINT('',(-3.5,-8.01093009266075,14.9289233937118));
#1509=CARTESIAN_POINT('',(-13.5,-7.7727392342155,14.9242227174155));
#1510=CARTESIAN_POINT('Origin',(-14.75,-16.9223931952484,17.));
#1511=CARTESIAN_POINT('',(-14.75,-14.4223931952484,13.6));
#1512=CARTESIAN_POINT('',(-14.75,-16.0113659409826,13.6));
#1513=CARTESIAN_POINT('',(-14.75,-16.4668795681155,13.6));
#1514=CARTESIAN_POINT('',(-14.75,-14.4223931952484,16.75));
#1515=CARTESIAN_POINT('',(-14.75,-14.4223931952484,17.));
#1516=CARTESIAN_POINT('',(-14.75,-16.8554058971406,16.75));
#1517=CARTESIAN_POINT('',(-14.75,-13.1917948964363,16.75));
#1518=CARTESIAN_POINT('',(-14.75,-16.9223931952484,17.));
#1519=CARTESIAN_POINT('Origin',(-2.25,-14.4223931952484,17.));
#1520=CARTESIAN_POINT('',(-2.25,-14.4223931952484,16.75));
#1521=CARTESIAN_POINT('',(-2.25,-16.8554058971406,16.75));
#1522=CARTESIAN_POINT('',(-2.25,-16.4417948964363,16.75));
#1523=CARTESIAN_POINT('',(-2.25,-14.4223931952484,13.6));
#1524=CARTESIAN_POINT('',(-2.25,-14.4223931952484,17.));
#1525=CARTESIAN_POINT('',(-2.25,-16.0113659409826,13.6));
#1526=CARTESIAN_POINT('',(-2.25,-11.4668795681155,13.6));
#1527=CARTESIAN_POINT('',(-2.25,-16.3831454454808,14.9875));
#1528=CARTESIAN_POINT('Origin',(-14.75,-14.4223931952484,17.));
#1529=CARTESIAN_POINT('',(-3.5,-14.4223931952484,15.5));
#1530=CARTESIAN_POINT('',(-5.5625,-14.4223931952484,13.4375));
#1531=CARTESIAN_POINT('',(-3.5,-14.4223931952484,13.6));
#1532=CARTESIAN_POINT('',(-3.5,-14.4223931952484,18.5742160674448));
#1533=CARTESIAN_POINT('',(-7.375,-14.4223931952484,13.6));
#1534=CARTESIAN_POINT('Origin',(-14.75,-14.4223931952484,17.));
#1535=CARTESIAN_POINT('',(-13.5,-14.4223931952484,13.6));
#1536=CARTESIAN_POINT('',(-15.875,-14.4223931952484,13.6));
#1537=CARTESIAN_POINT('',(-13.5,-14.4223931952484,15.5));
#1538=CARTESIAN_POINT('',(-13.5,-14.4223931952484,6.49999997019768));
#1539=CARTESIAN_POINT('',(-14.5625,-14.4223931952484,16.5625));
#1540=CARTESIAN_POINT('Origin',(-17.,-16.9223931952484,17.));
#1541=CARTESIAN_POINT('',(-15.,-16.9223931952484,17.));
#1542=CARTESIAN_POINT('',(-14.638183236693,-16.8254446857122,16.638183236693));
#1543=CARTESIAN_POINT('',(-18.,-16.9223931952484,17.));
#1544=CARTESIAN_POINT('',(-17.,-16.9223931952484,17.));
#1545=CARTESIAN_POINT('',(-18.,-16.0113659409826,13.6));
#1546=CARTESIAN_POINT('',(-18.,-16.9223931952484,17.));
#1547=CARTESIAN_POINT('',(0.,-16.0113659409826,13.6));
#1548=CARTESIAN_POINT('Origin',(-14.25,-9.46119659762419,16.25));
#1549=CARTESIAN_POINT('',(-13.5,0.913680704737303,15.5));
#1550=CARTESIAN_POINT('',(-13.5,-9.46119659762419,15.5));
#1551=CARTESIAN_POINT('',(-15.,1.07760680475161,17.));
#1552=CARTESIAN_POINT('',(-13.5,0.913680704737303,15.5));
#1553=CARTESIAN_POINT('',(-15.,-9.46119659762419,17.));
#1554=CARTESIAN_POINT('Origin',(0.,-16.0113659409826,13.6));
#1555=CARTESIAN_POINT('',(1.,-16.0113659409826,13.6));
#1556=CARTESIAN_POINT('',(0.,-16.0113659409826,13.6));
#1557=CARTESIAN_POINT('',(1.,-16.9223931952484,17.));
#1558=CARTESIAN_POINT('',(1.,-16.9223931952484,17.));
#1559=CARTESIAN_POINT('',(-2.,-16.9223931952484,17.));
#1560=CARTESIAN_POINT('',(0.,-16.9223931952484,17.));
#1561=CARTESIAN_POINT('',(-2.65927988884008,-16.7457396814476,16.3407201111599));
#1562=CARTESIAN_POINT('Origin',(0.,-8.51136594098258,13.6));
#1563=CARTESIAN_POINT('',(-3.5,-8.51136594098258,13.6));
#1564=CARTESIAN_POINT('',(-3.5,-14.2556829704913,13.6));
#1565=CARTESIAN_POINT('',(0.,-8.51136594098258,13.6));
#1566=CARTESIAN_POINT('',(1.,1.07760680475161,13.6));
#1567=CARTESIAN_POINT('',(0.,1.07760680475161,13.6));
#1568=CARTESIAN_POINT('',(1.,1.07760680475161,13.6));
#1569=CARTESIAN_POINT('Origin',(-13.5,-20.,-4.00000005960464));
#1570=CARTESIAN_POINT('',(-13.5,6.0533683110667,8.75));
#1571=CARTESIAN_POINT('',(-13.5,-3.97331584446665,8.75));
#1572=CARTESIAN_POINT('Origin',(-13.5,6.0533683110667,10.25));
#1573=CARTESIAN_POINT('',(-13.5,6.0533683110667,11.75));
#1574=CARTESIAN_POINT('Origin',(-13.5,6.0533683110667,10.25));
#1575=CARTESIAN_POINT('',(-13.5,7.00159698893432,11.75));
#1576=CARTESIAN_POINT('',(-13.5,-6.97331584446666,11.75));
#1577=CARTESIAN_POINT('',(-13.5,6.31706245175675,14.3047176722823));
#1578=CARTESIAN_POINT('',(-13.5,7.50490936638,9.87161263529442));
#1579=CARTESIAN_POINT('',(-13.5,-7.07918424062304,17.2681020265305));
#1580=CARTESIAN_POINT('',(-13.5,-8.51136594098258,13.6));
#1581=CARTESIAN_POINT('',(-13.5,-14.2556829704913,13.6));
#1582=CARTESIAN_POINT('',(-13.5,-3.23523806378151,12.0740728286134));
#1583=CARTESIAN_POINT('',(-13.5,-8.82559756382154,13.6908800132519));
#1584=CARTESIAN_POINT('',(-13.5,0.,0.));
#1585=CARTESIAN_POINT('',(-13.5,-0.169872973627228,0.633974568409618));
#1586=CARTESIAN_POINT('',(-13.5,-4.925,0.));
#1587=CARTESIAN_POINT('',(-13.5,1.64783999846999,3.));
#1588=CARTESIAN_POINT('Origin',(-13.5,3.64783999846999,3.));
#1589=CARTESIAN_POINT('Origin',(-14.25,-6.91719280548959,18.0003989437324));
#1590=CARTESIAN_POINT('',(-15.,5.87948575580842,15.9377761337696));
#1591=CARTESIAN_POINT('',(-12.8480705269438,6.50724188163093,13.5949583774374));
#1592=CARTESIAN_POINT('',(-15.,-6.75520137035615,18.7326958609343));
#1593=CARTESIAN_POINT('Origin',(-17.,1.07760680475161,17.));
#1594=CARTESIAN_POINT('',(0.,1.07760680475161,17.));
#1595=CARTESIAN_POINT('',(-18.,1.07760680475161,17.));
#1596=CARTESIAN_POINT('',(-17.,1.07760680475161,17.));
#1597=CARTESIAN_POINT('',(-18.,-16.9223931952484,17.));
#1598=CARTESIAN_POINT('Origin',(0.,1.07760680475161,17.));
#1599=CARTESIAN_POINT('',(0.,5.87948575580842,15.9377761337696));
#1600=CARTESIAN_POINT('Origin',(0.,5.87948575580842,15.9377761337696));
#1601=CARTESIAN_POINT('',(0.,7.00159698893432,11.75));
#1602=CARTESIAN_POINT('Origin',(0.,12.0533683110667,8.75));
#1603=CARTESIAN_POINT('',(-9.9,6.0533683110667,8.75));
#1604=CARTESIAN_POINT('Origin',(0.,6.0533683110667,11.75));
#1605=CARTESIAN_POINT('',(-9.9,6.0533683110667,11.75));
#1606=CARTESIAN_POINT('Origin',(-9.9,6.0533683110667,10.25));
#1607=CARTESIAN_POINT('Origin',(-9.9,3.64783999846999,3.));
#1608=CARTESIAN_POINT('',(-9.9,1.64783999846999,3.));
#1609=CARTESIAN_POINT('Origin',(0.,10.15,0.));
#1610=CARTESIAN_POINT('',(0.,0.,0.));
#1611=CARTESIAN_POINT('Origin',(0.,0.,0.));
#1612=CARTESIAN_POINT('',(0.,-3.23523806378151,12.0740728286134));
#1613=CARTESIAN_POINT('Origin',(0.,-3.23523806378151,12.0740728286134));
#1614=CARTESIAN_POINT('',(0.,-8.51136594098258,13.6));
#1615=CARTESIAN_POINT('Origin',(-17.,1.07760680475161,13.6));
#1616=CARTESIAN_POINT('',(-18.,1.07760680475161,13.6));
#1617=CARTESIAN_POINT('',(-17.,1.07760680475161,13.6));
#1618=CARTESIAN_POINT('',(-18.,1.07760680475161,17.));
#1619=CARTESIAN_POINT('Origin',(-17.,-16.0113659409826,13.6));
#1620=CARTESIAN_POINT('',(-18.,1.07760680475161,13.6));
#1621=CARTESIAN_POINT('Origin',(-18.,-7.92239319524839,15.3));
#1622=CARTESIAN_POINT('Origin',(-3.5,-20.,20.1484321348896));
#1623=CARTESIAN_POINT('',(-3.5,-3.23523806378151,12.0740728286134));
#1624=CARTESIAN_POINT('',(-3.5,-3.18842699793901,11.8993715525327));
#1625=CARTESIAN_POINT('',(-3.5,-12.048080584348,14.6228654606862));
#1626=CARTESIAN_POINT('',(-3.5,0.913680704737274,15.5));
#1627=CARTESIAN_POINT('',(-3.5,-18.4611965976242,15.5));
#1628=CARTESIAN_POINT('',(-3.5,6.31706245175675,14.3047176722823));
#1629=CARTESIAN_POINT('',(-3.5,-9.62552004287112,17.8313770878457));
#1630=CARTESIAN_POINT('',(-3.5,7.00159698893432,11.75));
#1631=CARTESIAN_POINT('',(-3.5,4.48635534206822,21.1370096194175));
#1632=CARTESIAN_POINT('',(-3.5,6.0533683110667,11.75));
#1633=CARTESIAN_POINT('',(-3.5,-6.97331584446665,11.75));
#1634=CARTESIAN_POINT('Origin',(-3.5,6.0533683110667,10.25));
#1635=CARTESIAN_POINT('',(-3.5,6.0533683110667,8.75));
#1636=CARTESIAN_POINT('Origin',(-3.5,6.0533683110667,10.25));
#1637=CARTESIAN_POINT('',(-3.5,7.80544456622768,8.75));
#1638=CARTESIAN_POINT('',(-3.5,-3.97331584446665,8.75));
#1639=CARTESIAN_POINT('',(-3.5,4.48635534206822,21.1370096194175));
#1640=CARTESIAN_POINT('',(-3.5,1.64783999846999,3.));
#1641=CARTESIAN_POINT('Origin',(-3.5,3.64783999846999,3.));
#1642=CARTESIAN_POINT('Origin',(-2.75,-9.46352860773767,18.5636740050476));
#1643=CARTESIAN_POINT('',(-2.,1.07760680475161,17.));
#1644=CARTESIAN_POINT('',(-2.,5.87948575580842,15.9377761337696));
#1645=CARTESIAN_POINT('',(-2.,-9.30153717260423,19.2959709222495));
#1646=CARTESIAN_POINT('',(-0.109421543920902,5.3279703729803,17.99605956364));
#1647=CARTESIAN_POINT('',(-3.5,0.913680704737274,15.5));
#1648=CARTESIAN_POINT('Origin',(-2.75,-18.4611965976242,16.25));
#1649=CARTESIAN_POINT('',(-2.,-18.4611965976242,17.));
#1650=CARTESIAN_POINT('Origin',(0.,5.87948575580842,15.9377761337696));
#1651=CARTESIAN_POINT('',(0.,5.87948575580842,15.9377761337696));
#1652=CARTESIAN_POINT('',(0.,7.00159698893432,11.75));
#1653=CARTESIAN_POINT('Origin',(0.,12.0533683110667,8.75));
#1654=CARTESIAN_POINT('',(0.,7.80544456622768,8.75));
#1655=CARTESIAN_POINT('',(-9.9,6.0533683110667,8.75));
#1656=CARTESIAN_POINT('Origin',(0.,6.0533683110667,11.75));
#1657=CARTESIAN_POINT('',(-9.9,6.0533683110667,11.75));
#1658=CARTESIAN_POINT('Origin',(-9.9,6.0533683110667,10.25));
#1659=CARTESIAN_POINT('Origin',(-9.9,3.64783999846999,3.));
#1660=CARTESIAN_POINT('',(-9.9,1.64783999846999,3.));
#1661=CARTESIAN_POINT('Origin',(0.,1.07760680475161,13.6));
#1662=CARTESIAN_POINT('',(1.,1.07760680475161,17.));
#1663=CARTESIAN_POINT('',(0.,1.07760680475161,17.));
#1664=CARTESIAN_POINT('',(1.,1.07760680475161,17.));
#1665=CARTESIAN_POINT('Origin',(1.,-7.92239319524839,15.3));
#1666=CARTESIAN_POINT('',(1.,-16.9223931952484,17.));
#1667=CARTESIAN_POINT('Origin',(0.,-3.23523806378151,12.0740728286134));
#1668=CARTESIAN_POINT('',(0.,-3.23523806378151,12.0740728286134));
#1669=CARTESIAN_POINT('Origin',(0.,0.,0.));
#1670=CARTESIAN_POINT('Origin',(0.,5.87948575580842,15.9377761337696));
#1671=CARTESIAN_POINT('Origin',(0.,1.07760680475161,17.));
#1672=CARTESIAN_POINT('',(0.,1.07760680475161,17.));
#1673=CARTESIAN_POINT('Origin',(0.,-16.9223931952484,17.));
#1674=UNCERTAINTY_MEASURE_WITH_UNIT(LENGTH_MEASURE(0.01),#1678,
'DISTANCE_ACCURACY_VALUE',
'Maximum model space distance between geometric entities at asserted c
onnectivities');
#1675=UNCERTAINTY_MEASURE_WITH_UNIT(LENGTH_MEASURE(0.01),#1678,
'DISTANCE_ACCURACY_VALUE',
'Maximum model space distance between geometric entities at asserted c
onnectivities');
#1676=(
GEOMETRIC_REPRESENTATION_CONTEXT(3)
GLOBAL_UNCERTAINTY_ASSIGNED_CONTEXT((#1674))
GLOBAL_UNIT_ASSIGNED_CONTEXT((#1678,#1680,#1681))
REPRESENTATION_CONTEXT('','3D')
);
#1677=(
GEOMETRIC_REPRESENTATION_CONTEXT(3)
GLOBAL_UNCERTAINTY_ASSIGNED_CONTEXT((#1675))
GLOBAL_UNIT_ASSIGNED_CONTEXT((#1678,#1680,#1681))
REPRESENTATION_CONTEXT('','3D')
);
#1678=(
LENGTH_UNIT()
NAMED_UNIT(*)
SI_UNIT(.MILLI.,.METRE.)
);
#1679=(
LENGTH_UNIT()
NAMED_UNIT(*)
SI_UNIT($,.METRE.)
);
#1680=(
NAMED_UNIT(*)
PLANE_ANGLE_UNIT()
SI_UNIT($,.RADIAN.)
);
#1681=(
NAMED_UNIT(*)
SI_UNIT($,.STERADIAN.)
SOLID_ANGLE_UNIT()
);
#1682=SHAPE_DEFINITION_REPRESENTATION(#1683,#1684);
#1683=PRODUCT_DEFINITION_SHAPE('',$,#1686);
#1684=SHAPE_REPRESENTATION('',(#1036),#1676);
#1685=PRODUCT_DEFINITION_CONTEXT('part definition',#1690,'design');
#1686=PRODUCT_DEFINITION('DD17.2 Locking Block',
'DD17.2 Locking Block v6',#1687,#1685);
#1687=PRODUCT_DEFINITION_FORMATION('',$,#1692);
#1688=PRODUCT_RELATED_PRODUCT_CATEGORY('DD17.2 Locking Block v6',
'DD17.2 Locking Block v6',(#1692));
#1689=APPLICATION_PROTOCOL_DEFINITION('international standard',
'automotive_design',2009,#1690);
#1690=APPLICATION_CONTEXT(
'Core Data for Automotive Mechanical Design Process');
#1691=PRODUCT_CONTEXT('part definition',#1690,'mechanical');
#1692=PRODUCT('DD17.2 Locking Block','DD17.2 Locking Block v6',$,(#1691));
#1693=PRESENTATION_STYLE_ASSIGNMENT((#1694));
#1694=SURFACE_STYLE_USAGE(.BOTH.,#1695);
#1695=SURFACE_SIDE_STYLE('',(#1696));
#1696=SURFACE_STYLE_FILL_AREA(#1697);
#1697=FILL_AREA_STYLE('Stainless Steel - Satin',(#1698));
#1698=FILL_AREA_STYLE_COLOUR('Stainless Steel - Satin',#1699);
#1699=COLOUR_RGB('Stainless Steel - Satin',0.796078431372549,0.796078431372549,
0.796078431372549);
ENDSEC;
END-ISO-10303-21;
