ISO-10303-21;
HEADER;
/* Generated by software containing ST-Developer
 * from STEP Tools, Inc. (www.steptools.com) 
 */

FILE_DESCRIPTION(
/* description */ (''),
/* implementation_level */ '2;1');

FILE_NAME(
/* name */ 'DD19.2 Front Rail.step',
/* time_stamp */ '2023-12-14T18:27:52-06:00',
/* author */ (''),
/* organization */ (''),
/* preprocessor_version */ 'ST-DEVELOPER v20',
/* originating_system */ 'Autodesk Translation Framework v12.14.0.127',

/* authorisation */ '');

FILE_SCHEMA (('AUTOMOTIVE_DESIGN { 1 0 10303 214 3 1 1 }'));
ENDSEC;

DATA;
#10=MECHANICAL_DESIGN_GEOMETRIC_PRESENTATION_REPRESENTATION('',(#13),#931);
#11=SHAPE_REPRESENTATION_RELATIONSHIP('SRR','None',#938,#12);
#12=ADVANCED_BREP_SHAPE_REPRESENTATION('',(#14),#930);
#13=STYLED_ITEM('',(#948),#14);
#14=MANIFOLD_SOLID_BREP('Body1',#563);
#15=FACE_BOUND('',#75,.T.);
#16=FACE_BOUND('',#78,.T.);
#17=CIRCLE('',#579,2.3);
#18=CIRCLE('',#582,8.20015151515151);
#19=CIRCLE('',#584,8.20015151515151);
#20=CIRCLE('',#586,8.20015151515151);
#21=CIRCLE('',#588,1.5);
#22=CIRCLE('',#589,1.5);
#23=B_SPLINE_CURVE_WITH_KNOTS('',3,(#766,#767,#768,#769,#770,#771,#772,
#773,#774,#775,#776,#777,#778,#779,#780,#781,#782,#783),.UNSPECIFIED.,.F.,
 .F.,(4,2,2,2,2,2,2,2,4),(0.,0.0871542349321379,0.174308469864276,0.261443088463099,
0.348577707061921,0.435712325660744,0.522846944259567,0.610001179191705,
0.697155414123843),.UNSPECIFIED.);
#24=CYLINDRICAL_SURFACE('',#578,2.3);
#25=CYLINDRICAL_SURFACE('',#585,8.20015151515151);
#26=CYLINDRICAL_SURFACE('',#587,1.5);
#27=FACE_OUTER_BOUND('',#56,.T.);
#28=FACE_OUTER_BOUND('',#57,.T.);
#29=FACE_OUTER_BOUND('',#58,.T.);
#30=FACE_OUTER_BOUND('',#59,.T.);
#31=FACE_OUTER_BOUND('',#60,.T.);
#32=FACE_OUTER_BOUND('',#61,.T.);
#33=FACE_OUTER_BOUND('',#62,.T.);
#34=FACE_OUTER_BOUND('',#63,.T.);
#35=FACE_OUTER_BOUND('',#64,.T.);
#36=FACE_OUTER_BOUND('',#65,.T.);
#37=FACE_OUTER_BOUND('',#66,.T.);
#38=FACE_OUTER_BOUND('',#67,.T.);
#39=FACE_OUTER_BOUND('',#68,.T.);
#40=FACE_OUTER_BOUND('',#69,.T.);
#41=FACE_OUTER_BOUND('',#70,.T.);
#42=FACE_OUTER_BOUND('',#71,.T.);
#43=FACE_OUTER_BOUND('',#72,.T.);
#44=FACE_OUTER_BOUND('',#73,.T.);
#45=FACE_OUTER_BOUND('',#74,.T.);
#46=FACE_OUTER_BOUND('',#76,.T.);
#47=FACE_OUTER_BOUND('',#77,.T.);
#48=FACE_OUTER_BOUND('',#79,.T.);
#49=FACE_OUTER_BOUND('',#80,.T.);
#50=FACE_OUTER_BOUND('',#81,.T.);
#51=FACE_OUTER_BOUND('',#82,.T.);
#52=FACE_OUTER_BOUND('',#83,.T.);
#53=FACE_OUTER_BOUND('',#84,.T.);
#54=FACE_OUTER_BOUND('',#85,.T.);
#55=FACE_OUTER_BOUND('',#86,.T.);
#56=EDGE_LOOP('',(#354,#355,#356,#357));
#57=EDGE_LOOP('',(#358,#359,#360,#361));
#58=EDGE_LOOP('',(#362,#363,#364,#365));
#59=EDGE_LOOP('',(#366,#367,#368,#369,#370));
#60=EDGE_LOOP('',(#371,#372,#373,#374,#375));
#61=EDGE_LOOP('',(#376,#377,#378,#379,#380,#381,#382,#383,#384,#385));
#62=EDGE_LOOP('',(#386,#387,#388,#389));
#63=EDGE_LOOP('',(#390,#391,#392,#393));
#64=EDGE_LOOP('',(#394,#395,#396,#397,#398));
#65=EDGE_LOOP('',(#399,#400,#401,#402,#403));
#66=EDGE_LOOP('',(#404,#405,#406,#407));
#67=EDGE_LOOP('',(#408,#409,#410,#411));
#68=EDGE_LOOP('',(#412,#413,#414,#415,#416));
#69=EDGE_LOOP('',(#417,#418,#419,#420));
#70=EDGE_LOOP('',(#421,#422,#423,#424));
#71=EDGE_LOOP('',(#425,#426,#427,#428));
#72=EDGE_LOOP('',(#429,#430,#431,#432));
#73=EDGE_LOOP('',(#433,#434,#435,#436,#437,#438));
#74=EDGE_LOOP('',(#439,#440,#441,#442,#443,#444,#445,#446));
#75=EDGE_LOOP('',(#447));
#76=EDGE_LOOP('',(#448,#449,#450,#451));
#77=EDGE_LOOP('',(#452,#453,#454,#455,#456,#457,#458,#459));
#78=EDGE_LOOP('',(#460));
#79=EDGE_LOOP('',(#461,#462,#463,#464,#465,#466));
#80=EDGE_LOOP('',(#467,#468,#469,#470,#471));
#81=EDGE_LOOP('',(#472,#473,#474,#475,#476,#477));
#82=EDGE_LOOP('',(#478,#479,#480,#481,#482,#483));
#83=EDGE_LOOP('',(#484,#485,#486,#487));
#84=EDGE_LOOP('',(#488,#489,#490,#491));
#85=EDGE_LOOP('',(#492,#493,#494,#495,#496,#497,#498,#499));
#86=EDGE_LOOP('',(#500,#501,#502,#503,#504,#505,#506,#507));
#87=LINE('',#758,#157);
#88=LINE('',#760,#158);
#89=LINE('',#762,#159);
#90=LINE('',#763,#160);
#91=LINE('',#786,#161);
#92=LINE('',#789,#162);
#93=LINE('',#791,#163);
#94=LINE('',#792,#164);
#95=LINE('',#795,#165);
#96=LINE('',#797,#166);
#97=LINE('',#799,#167);
#98=LINE('',#805,#168);
#99=LINE('',#807,#169);
#100=LINE('',#808,#170);
#101=LINE('',#811,#171);
#102=LINE('',#813,#172);
#103=LINE('',#817,#173);
#104=LINE('',#818,#174);
#105=LINE('',#823,#175);
#106=LINE('',#828,#176);
#107=LINE('',#830,#177);
#108=LINE('',#832,#178);
#109=LINE('',#833,#179);
#110=LINE('',#836,#180);
#111=LINE('',#838,#181);
#112=LINE('',#840,#182);
#113=LINE('',#841,#183);
#114=LINE('',#844,#184);
#115=LINE('',#846,#185);
#116=LINE('',#847,#186);
#117=LINE('',#851,#187);
#118=LINE('',#853,#188);
#119=LINE('',#855,#189);
#120=LINE('',#856,#190);
#121=LINE('',#859,#191);
#122=LINE('',#861,#192);
#123=LINE('',#862,#193);
#124=LINE('',#865,#194);
#125=LINE('',#867,#195);
#126=LINE('',#869,#196);
#127=LINE('',#870,#197);
#128=LINE('',#873,#198);
#129=LINE('',#875,#199);
#130=LINE('',#876,#200);
#131=LINE('',#879,#201);
#132=LINE('',#881,#202);
#133=LINE('',#882,#203);
#134=LINE('',#885,#204);
#135=LINE('',#887,#205);
#136=LINE('',#888,#206);
#137=LINE('',#890,#207);
#138=LINE('',#892,#208);
#139=LINE('',#893,#209);
#140=LINE('',#896,#210);
#141=LINE('',#897,#211);
#142=LINE('',#899,#212);
#143=LINE('',#900,#213);
#144=LINE('',#903,#214);
#145=LINE('',#904,#215);
#146=LINE('',#907,#216);
#147=LINE('',#908,#217);
#148=LINE('',#910,#218);
#149=LINE('',#911,#219);
#150=LINE('',#914,#220);
#151=LINE('',#915,#221);
#152=LINE('',#916,#222);
#153=LINE('',#918,#223);
#154=LINE('',#920,#224);
#155=LINE('',#922,#225);
#156=LINE('',#926,#226);
#157=VECTOR('',#616,10.);
#158=VECTOR('',#617,10.);
#159=VECTOR('',#618,10.);
#160=VECTOR('',#619,10.);
#161=VECTOR('',#624,10.);
#162=VECTOR('',#627,10.);
#163=VECTOR('',#628,10.);
#164=VECTOR('',#629,10.);
#165=VECTOR('',#632,10.);
#166=VECTOR('',#633,10.);
#167=VECTOR('',#634,10.);
#168=VECTOR('',#641,10.);
#169=VECTOR('',#642,10.);
#170=VECTOR('',#643,10.);
#171=VECTOR('',#646,10.);
#172=VECTOR('',#647,10.);
#173=VECTOR('',#650,10.);
#174=VECTOR('',#651,10.);
#175=VECTOR('',#656,1.5);
#176=VECTOR('',#661,10.);
#177=VECTOR('',#662,10.);
#178=VECTOR('',#663,10.);
#179=VECTOR('',#664,10.);
#180=VECTOR('',#667,10.);
#181=VECTOR('',#668,10.);
#182=VECTOR('',#669,10.);
#183=VECTOR('',#670,10.);
#184=VECTOR('',#673,10.);
#185=VECTOR('',#674,10.);
#186=VECTOR('',#675,10.);
#187=VECTOR('',#678,10.);
#188=VECTOR('',#679,10.);
#189=VECTOR('',#680,10.);
#190=VECTOR('',#681,10.);
#191=VECTOR('',#684,10.);
#192=VECTOR('',#685,10.);
#193=VECTOR('',#686,10.);
#194=VECTOR('',#689,10.);
#195=VECTOR('',#690,10.);
#196=VECTOR('',#691,10.);
#197=VECTOR('',#692,10.);
#198=VECTOR('',#695,10.);
#199=VECTOR('',#696,10.);
#200=VECTOR('',#697,10.);
#201=VECTOR('',#700,10.);
#202=VECTOR('',#701,10.);
#203=VECTOR('',#702,10.);
#204=VECTOR('',#705,10.);
#205=VECTOR('',#706,10.);
#206=VECTOR('',#707,10.);
#207=VECTOR('',#710,10.);
#208=VECTOR('',#713,10.);
#209=VECTOR('',#714,10.);
#210=VECTOR('',#717,10.);
#211=VECTOR('',#718,10.);
#212=VECTOR('',#719,10.);
#213=VECTOR('',#720,10.);
#214=VECTOR('',#723,10.);
#215=VECTOR('',#724,10.);
#216=VECTOR('',#727,10.);
#217=VECTOR('',#728,10.);
#218=VECTOR('',#729,10.);
#219=VECTOR('',#730,10.);
#220=VECTOR('',#733,10.);
#221=VECTOR('',#734,10.);
#222=VECTOR('',#735,10.);
#223=VECTOR('',#738,10.);
#224=VECTOR('',#741,10.);
#225=VECTOR('',#744,10.);
#226=VECTOR('',#751,10.);
#227=VERTEX_POINT('',#756);
#228=VERTEX_POINT('',#757);
#229=VERTEX_POINT('',#759);
#230=VERTEX_POINT('',#761);
#231=VERTEX_POINT('',#765);
#232=VERTEX_POINT('',#784);
#233=VERTEX_POINT('',#788);
#234=VERTEX_POINT('',#790);
#235=VERTEX_POINT('',#794);
#236=VERTEX_POINT('',#796);
#237=VERTEX_POINT('',#798);
#238=VERTEX_POINT('',#802);
#239=VERTEX_POINT('',#804);
#240=VERTEX_POINT('',#806);
#241=VERTEX_POINT('',#810);
#242=VERTEX_POINT('',#812);
#243=VERTEX_POINT('',#814);
#244=VERTEX_POINT('',#816);
#245=VERTEX_POINT('',#820);
#246=VERTEX_POINT('',#822);
#247=VERTEX_POINT('',#826);
#248=VERTEX_POINT('',#827);
#249=VERTEX_POINT('',#829);
#250=VERTEX_POINT('',#831);
#251=VERTEX_POINT('',#835);
#252=VERTEX_POINT('',#837);
#253=VERTEX_POINT('',#839);
#254=VERTEX_POINT('',#843);
#255=VERTEX_POINT('',#845);
#256=VERTEX_POINT('',#849);
#257=VERTEX_POINT('',#850);
#258=VERTEX_POINT('',#852);
#259=VERTEX_POINT('',#854);
#260=VERTEX_POINT('',#858);
#261=VERTEX_POINT('',#860);
#262=VERTEX_POINT('',#864);
#263=VERTEX_POINT('',#866);
#264=VERTEX_POINT('',#868);
#265=VERTEX_POINT('',#872);
#266=VERTEX_POINT('',#874);
#267=VERTEX_POINT('',#878);
#268=VERTEX_POINT('',#880);
#269=VERTEX_POINT('',#884);
#270=VERTEX_POINT('',#886);
#271=VERTEX_POINT('',#895);
#272=VERTEX_POINT('',#898);
#273=VERTEX_POINT('',#902);
#274=VERTEX_POINT('',#906);
#275=VERTEX_POINT('',#909);
#276=VERTEX_POINT('',#913);
#277=EDGE_CURVE('',#227,#228,#87,.T.);
#278=EDGE_CURVE('',#229,#227,#88,.T.);
#279=EDGE_CURVE('',#230,#229,#89,.T.);
#280=EDGE_CURVE('',#230,#228,#90,.T.);
#281=EDGE_CURVE('',#228,#231,#23,.T.);
#282=EDGE_CURVE('',#232,#230,#17,.T.);
#283=EDGE_CURVE('',#232,#231,#91,.T.);
#284=EDGE_CURVE('',#231,#233,#92,.T.);
#285=EDGE_CURVE('',#234,#232,#93,.T.);
#286=EDGE_CURVE('',#233,#234,#94,.T.);
#287=EDGE_CURVE('',#234,#235,#95,.T.);
#288=EDGE_CURVE('',#235,#236,#96,.T.);
#289=EDGE_CURVE('',#236,#237,#97,.T.);
#290=EDGE_CURVE('',#237,#233,#18,.T.);
#291=EDGE_CURVE('',#227,#238,#19,.T.);
#292=EDGE_CURVE('',#238,#239,#98,.T.);
#293=EDGE_CURVE('',#239,#240,#99,.T.);
#294=EDGE_CURVE('',#240,#229,#100,.T.);
#295=EDGE_CURVE('',#241,#237,#101,.T.);
#296=EDGE_CURVE('',#242,#241,#102,.T.);
#297=EDGE_CURVE('',#243,#242,#20,.T.);
#298=EDGE_CURVE('',#243,#244,#103,.T.);
#299=EDGE_CURVE('',#238,#244,#104,.T.);
#300=EDGE_CURVE('',#245,#245,#21,.T.);
#301=EDGE_CURVE('',#245,#246,#105,.T.);
#302=EDGE_CURVE('',#246,#246,#22,.T.);
#303=EDGE_CURVE('',#247,#248,#106,.T.);
#304=EDGE_CURVE('',#248,#249,#107,.T.);
#305=EDGE_CURVE('',#249,#250,#108,.T.);
#306=EDGE_CURVE('',#250,#247,#109,.T.);
#307=EDGE_CURVE('',#247,#251,#110,.T.);
#308=EDGE_CURVE('',#251,#252,#111,.T.);
#309=EDGE_CURVE('',#252,#253,#112,.T.);
#310=EDGE_CURVE('',#248,#253,#113,.T.);
#311=EDGE_CURVE('',#254,#250,#114,.T.);
#312=EDGE_CURVE('',#254,#255,#115,.T.);
#313=EDGE_CURVE('',#251,#255,#116,.T.);
#314=EDGE_CURVE('',#256,#257,#117,.T.);
#315=EDGE_CURVE('',#257,#258,#118,.T.);
#316=EDGE_CURVE('',#258,#259,#119,.T.);
#317=EDGE_CURVE('',#259,#256,#120,.T.);
#318=EDGE_CURVE('',#260,#258,#121,.T.);
#319=EDGE_CURVE('',#260,#261,#122,.T.);
#320=EDGE_CURVE('',#261,#259,#123,.T.);
#321=EDGE_CURVE('',#262,#257,#124,.T.);
#322=EDGE_CURVE('',#263,#262,#125,.T.);
#323=EDGE_CURVE('',#263,#264,#126,.T.);
#324=EDGE_CURVE('',#258,#264,#127,.T.);
#325=EDGE_CURVE('',#264,#265,#128,.T.);
#326=EDGE_CURVE('',#266,#263,#129,.T.);
#327=EDGE_CURVE('',#265,#266,#130,.T.);
#328=EDGE_CURVE('',#267,#254,#131,.T.);
#329=EDGE_CURVE('',#268,#267,#132,.T.);
#330=EDGE_CURVE('',#255,#268,#133,.T.);
#331=EDGE_CURVE('',#269,#249,#134,.T.);
#332=EDGE_CURVE('',#270,#269,#135,.T.);
#333=EDGE_CURVE('',#250,#270,#136,.T.);
#334=EDGE_CURVE('',#253,#269,#137,.T.);
#335=EDGE_CURVE('',#242,#268,#138,.T.);
#336=EDGE_CURVE('',#252,#241,#139,.T.);
#337=EDGE_CURVE('',#271,#265,#140,.T.);
#338=EDGE_CURVE('',#240,#271,#141,.T.);
#339=EDGE_CURVE('',#239,#272,#142,.T.);
#340=EDGE_CURVE('',#272,#260,#143,.T.);
#341=EDGE_CURVE('',#273,#261,#144,.T.);
#342=EDGE_CURVE('',#256,#273,#145,.T.);
#343=EDGE_CURVE('',#270,#274,#146,.T.);
#344=EDGE_CURVE('',#274,#236,#147,.T.);
#345=EDGE_CURVE('',#235,#275,#148,.T.);
#346=EDGE_CURVE('',#267,#275,#149,.T.);
#347=EDGE_CURVE('',#276,#262,#150,.T.);
#348=EDGE_CURVE('',#244,#276,#151,.T.);
#349=EDGE_CURVE('',#266,#243,#152,.T.);
#350=EDGE_CURVE('',#273,#276,#153,.T.);
#351=EDGE_CURVE('',#272,#244,#154,.T.);
#352=EDGE_CURVE('',#241,#274,#155,.T.);
#353=EDGE_CURVE('',#275,#271,#156,.T.);
#354=ORIENTED_EDGE('',*,*,#277,.F.);
#355=ORIENTED_EDGE('',*,*,#278,.F.);
#356=ORIENTED_EDGE('',*,*,#279,.F.);
#357=ORIENTED_EDGE('',*,*,#280,.T.);
#358=ORIENTED_EDGE('',*,*,#281,.F.);
#359=ORIENTED_EDGE('',*,*,#280,.F.);
#360=ORIENTED_EDGE('',*,*,#282,.F.);
#361=ORIENTED_EDGE('',*,*,#283,.T.);
#362=ORIENTED_EDGE('',*,*,#284,.F.);
#363=ORIENTED_EDGE('',*,*,#283,.F.);
#364=ORIENTED_EDGE('',*,*,#285,.F.);
#365=ORIENTED_EDGE('',*,*,#286,.F.);
#366=ORIENTED_EDGE('',*,*,#286,.T.);
#367=ORIENTED_EDGE('',*,*,#287,.T.);
#368=ORIENTED_EDGE('',*,*,#288,.T.);
#369=ORIENTED_EDGE('',*,*,#289,.T.);
#370=ORIENTED_EDGE('',*,*,#290,.T.);
#371=ORIENTED_EDGE('',*,*,#278,.T.);
#372=ORIENTED_EDGE('',*,*,#291,.T.);
#373=ORIENTED_EDGE('',*,*,#292,.T.);
#374=ORIENTED_EDGE('',*,*,#293,.T.);
#375=ORIENTED_EDGE('',*,*,#294,.T.);
#376=ORIENTED_EDGE('',*,*,#277,.T.);
#377=ORIENTED_EDGE('',*,*,#281,.T.);
#378=ORIENTED_EDGE('',*,*,#284,.T.);
#379=ORIENTED_EDGE('',*,*,#290,.F.);
#380=ORIENTED_EDGE('',*,*,#295,.F.);
#381=ORIENTED_EDGE('',*,*,#296,.F.);
#382=ORIENTED_EDGE('',*,*,#297,.F.);
#383=ORIENTED_EDGE('',*,*,#298,.T.);
#384=ORIENTED_EDGE('',*,*,#299,.F.);
#385=ORIENTED_EDGE('',*,*,#291,.F.);
#386=ORIENTED_EDGE('',*,*,#300,.F.);
#387=ORIENTED_EDGE('',*,*,#301,.T.);
#388=ORIENTED_EDGE('',*,*,#302,.F.);
#389=ORIENTED_EDGE('',*,*,#301,.F.);
#390=ORIENTED_EDGE('',*,*,#303,.T.);
#391=ORIENTED_EDGE('',*,*,#304,.T.);
#392=ORIENTED_EDGE('',*,*,#305,.T.);
#393=ORIENTED_EDGE('',*,*,#306,.T.);
#394=ORIENTED_EDGE('',*,*,#303,.F.);
#395=ORIENTED_EDGE('',*,*,#307,.T.);
#396=ORIENTED_EDGE('',*,*,#308,.T.);
#397=ORIENTED_EDGE('',*,*,#309,.T.);
#398=ORIENTED_EDGE('',*,*,#310,.F.);
#399=ORIENTED_EDGE('',*,*,#306,.F.);
#400=ORIENTED_EDGE('',*,*,#311,.F.);
#401=ORIENTED_EDGE('',*,*,#312,.T.);
#402=ORIENTED_EDGE('',*,*,#313,.F.);
#403=ORIENTED_EDGE('',*,*,#307,.F.);
#404=ORIENTED_EDGE('',*,*,#314,.T.);
#405=ORIENTED_EDGE('',*,*,#315,.T.);
#406=ORIENTED_EDGE('',*,*,#316,.T.);
#407=ORIENTED_EDGE('',*,*,#317,.T.);
#408=ORIENTED_EDGE('',*,*,#316,.F.);
#409=ORIENTED_EDGE('',*,*,#318,.F.);
#410=ORIENTED_EDGE('',*,*,#319,.T.);
#411=ORIENTED_EDGE('',*,*,#320,.T.);
#412=ORIENTED_EDGE('',*,*,#315,.F.);
#413=ORIENTED_EDGE('',*,*,#321,.F.);
#414=ORIENTED_EDGE('',*,*,#322,.F.);
#415=ORIENTED_EDGE('',*,*,#323,.T.);
#416=ORIENTED_EDGE('',*,*,#324,.F.);
#417=ORIENTED_EDGE('',*,*,#325,.F.);
#418=ORIENTED_EDGE('',*,*,#323,.F.);
#419=ORIENTED_EDGE('',*,*,#326,.F.);
#420=ORIENTED_EDGE('',*,*,#327,.F.);
#421=ORIENTED_EDGE('',*,*,#328,.F.);
#422=ORIENTED_EDGE('',*,*,#329,.F.);
#423=ORIENTED_EDGE('',*,*,#330,.F.);
#424=ORIENTED_EDGE('',*,*,#312,.F.);
#425=ORIENTED_EDGE('',*,*,#305,.F.);
#426=ORIENTED_EDGE('',*,*,#331,.F.);
#427=ORIENTED_EDGE('',*,*,#332,.F.);
#428=ORIENTED_EDGE('',*,*,#333,.F.);
#429=ORIENTED_EDGE('',*,*,#304,.F.);
#430=ORIENTED_EDGE('',*,*,#310,.T.);
#431=ORIENTED_EDGE('',*,*,#334,.T.);
#432=ORIENTED_EDGE('',*,*,#331,.T.);
#433=ORIENTED_EDGE('',*,*,#313,.T.);
#434=ORIENTED_EDGE('',*,*,#330,.T.);
#435=ORIENTED_EDGE('',*,*,#335,.F.);
#436=ORIENTED_EDGE('',*,*,#296,.T.);
#437=ORIENTED_EDGE('',*,*,#336,.F.);
#438=ORIENTED_EDGE('',*,*,#308,.F.);
#439=ORIENTED_EDGE('',*,*,#324,.T.);
#440=ORIENTED_EDGE('',*,*,#325,.T.);
#441=ORIENTED_EDGE('',*,*,#337,.F.);
#442=ORIENTED_EDGE('',*,*,#338,.F.);
#443=ORIENTED_EDGE('',*,*,#293,.F.);
#444=ORIENTED_EDGE('',*,*,#339,.T.);
#445=ORIENTED_EDGE('',*,*,#340,.T.);
#446=ORIENTED_EDGE('',*,*,#318,.T.);
#447=ORIENTED_EDGE('',*,*,#302,.T.);
#448=ORIENTED_EDGE('',*,*,#317,.F.);
#449=ORIENTED_EDGE('',*,*,#320,.F.);
#450=ORIENTED_EDGE('',*,*,#341,.F.);
#451=ORIENTED_EDGE('',*,*,#342,.F.);
#452=ORIENTED_EDGE('',*,*,#311,.T.);
#453=ORIENTED_EDGE('',*,*,#333,.T.);
#454=ORIENTED_EDGE('',*,*,#343,.T.);
#455=ORIENTED_EDGE('',*,*,#344,.T.);
#456=ORIENTED_EDGE('',*,*,#288,.F.);
#457=ORIENTED_EDGE('',*,*,#345,.T.);
#458=ORIENTED_EDGE('',*,*,#346,.F.);
#459=ORIENTED_EDGE('',*,*,#328,.T.);
#460=ORIENTED_EDGE('',*,*,#300,.T.);
#461=ORIENTED_EDGE('',*,*,#322,.T.);
#462=ORIENTED_EDGE('',*,*,#347,.F.);
#463=ORIENTED_EDGE('',*,*,#348,.F.);
#464=ORIENTED_EDGE('',*,*,#298,.F.);
#465=ORIENTED_EDGE('',*,*,#349,.F.);
#466=ORIENTED_EDGE('',*,*,#326,.T.);
#467=ORIENTED_EDGE('',*,*,#314,.F.);
#468=ORIENTED_EDGE('',*,*,#342,.T.);
#469=ORIENTED_EDGE('',*,*,#350,.T.);
#470=ORIENTED_EDGE('',*,*,#347,.T.);
#471=ORIENTED_EDGE('',*,*,#321,.T.);
#472=ORIENTED_EDGE('',*,*,#348,.T.);
#473=ORIENTED_EDGE('',*,*,#350,.F.);
#474=ORIENTED_EDGE('',*,*,#341,.T.);
#475=ORIENTED_EDGE('',*,*,#319,.F.);
#476=ORIENTED_EDGE('',*,*,#340,.F.);
#477=ORIENTED_EDGE('',*,*,#351,.T.);
#478=ORIENTED_EDGE('',*,*,#336,.T.);
#479=ORIENTED_EDGE('',*,*,#352,.T.);
#480=ORIENTED_EDGE('',*,*,#343,.F.);
#481=ORIENTED_EDGE('',*,*,#332,.T.);
#482=ORIENTED_EDGE('',*,*,#334,.F.);
#483=ORIENTED_EDGE('',*,*,#309,.F.);
#484=ORIENTED_EDGE('',*,*,#299,.T.);
#485=ORIENTED_EDGE('',*,*,#351,.F.);
#486=ORIENTED_EDGE('',*,*,#339,.F.);
#487=ORIENTED_EDGE('',*,*,#292,.F.);
#488=ORIENTED_EDGE('',*,*,#295,.T.);
#489=ORIENTED_EDGE('',*,*,#289,.F.);
#490=ORIENTED_EDGE('',*,*,#344,.F.);
#491=ORIENTED_EDGE('',*,*,#352,.F.);
#492=ORIENTED_EDGE('',*,*,#279,.T.);
#493=ORIENTED_EDGE('',*,*,#294,.F.);
#494=ORIENTED_EDGE('',*,*,#338,.T.);
#495=ORIENTED_EDGE('',*,*,#353,.F.);
#496=ORIENTED_EDGE('',*,*,#345,.F.);
#497=ORIENTED_EDGE('',*,*,#287,.F.);
#498=ORIENTED_EDGE('',*,*,#285,.T.);
#499=ORIENTED_EDGE('',*,*,#282,.T.);
#500=ORIENTED_EDGE('',*,*,#329,.T.);
#501=ORIENTED_EDGE('',*,*,#346,.T.);
#502=ORIENTED_EDGE('',*,*,#353,.T.);
#503=ORIENTED_EDGE('',*,*,#337,.T.);
#504=ORIENTED_EDGE('',*,*,#327,.T.);
#505=ORIENTED_EDGE('',*,*,#349,.T.);
#506=ORIENTED_EDGE('',*,*,#297,.T.);
#507=ORIENTED_EDGE('',*,*,#335,.T.);
#508=PLANE('',#577);
#509=PLANE('',#580);
#510=PLANE('',#581);
#511=PLANE('',#583);
#512=PLANE('',#590);
#513=PLANE('',#591);
#514=PLANE('',#592);
#515=PLANE('',#593);
#516=PLANE('',#594);
#517=PLANE('',#595);
#518=PLANE('',#596);
#519=PLANE('',#597);
#520=PLANE('',#598);
#521=PLANE('',#599);
#522=PLANE('',#600);
#523=PLANE('',#601);
#524=PLANE('',#602);
#525=PLANE('',#603);
#526=PLANE('',#604);
#527=PLANE('',#605);
#528=PLANE('',#606);
#529=PLANE('',#607);
#530=PLANE('',#608);
#531=PLANE('',#609);
#532=PLANE('',#610);
#533=PLANE('',#611);
#534=ADVANCED_FACE('',(#27),#508,.F.);
#535=ADVANCED_FACE('',(#28),#24,.F.);
#536=ADVANCED_FACE('',(#29),#509,.F.);
#537=ADVANCED_FACE('',(#30),#510,.F.);
#538=ADVANCED_FACE('',(#31),#511,.F.);
#539=ADVANCED_FACE('',(#32),#25,.F.);
#540=ADVANCED_FACE('',(#33),#26,.F.);
#541=ADVANCED_FACE('',(#34),#512,.T.);
#542=ADVANCED_FACE('',(#35),#513,.T.);
#543=ADVANCED_FACE('',(#36),#514,.F.);
#544=ADVANCED_FACE('',(#37),#515,.T.);
#545=ADVANCED_FACE('',(#38),#516,.F.);
#546=ADVANCED_FACE('',(#39),#517,.F.);
#547=ADVANCED_FACE('',(#40),#518,.F.);
#548=ADVANCED_FACE('',(#41),#519,.F.);
#549=ADVANCED_FACE('',(#42),#520,.T.);
#550=ADVANCED_FACE('',(#43),#521,.T.);
#551=ADVANCED_FACE('',(#44),#522,.F.);
#552=ADVANCED_FACE('',(#45,#15),#523,.T.);
#553=ADVANCED_FACE('',(#46),#524,.F.);
#554=ADVANCED_FACE('',(#47,#16),#525,.T.);
#555=ADVANCED_FACE('',(#48),#526,.F.);
#556=ADVANCED_FACE('',(#49),#527,.T.);
#557=ADVANCED_FACE('',(#50),#528,.F.);
#558=ADVANCED_FACE('',(#51),#529,.F.);
#559=ADVANCED_FACE('',(#52),#530,.F.);
#560=ADVANCED_FACE('',(#53),#531,.F.);
#561=ADVANCED_FACE('',(#54),#532,.T.);
#562=ADVANCED_FACE('',(#55),#533,.T.);
#563=CLOSED_SHELL('',(#534,#535,#536,#537,#538,#539,#540,#541,#542,#543,
#544,#545,#546,#547,#548,#549,#550,#551,#552,#553,#554,#555,#556,#557,#558,
#559,#560,#561,#562));
#564=DERIVED_UNIT_ELEMENT(#566,1.);
#565=DERIVED_UNIT_ELEMENT(#933,-3.);
#566=(
MASS_UNIT()
NAMED_UNIT(*)
SI_UNIT(.KILO.,.GRAM.)
);
#567=DERIVED_UNIT((#564,#565));
#568=MEASURE_REPRESENTATION_ITEM('density measure',
POSITIVE_RATIO_MEASURE(7850.),#567);
#569=PROPERTY_DEFINITION_REPRESENTATION(#574,#571);
#570=PROPERTY_DEFINITION_REPRESENTATION(#575,#572);
#571=REPRESENTATION('material name',(#573),#930);
#572=REPRESENTATION('density',(#568),#930);
#573=DESCRIPTIVE_REPRESENTATION_ITEM('Steel','Steel');
#574=PROPERTY_DEFINITION('material property','material name',#940);
#575=PROPERTY_DEFINITION('material property','density of part',#940);
#576=AXIS2_PLACEMENT_3D('',#754,#612,#613);
#577=AXIS2_PLACEMENT_3D('',#755,#614,#615);
#578=AXIS2_PLACEMENT_3D('',#764,#620,#621);
#579=AXIS2_PLACEMENT_3D('',#785,#622,#623);
#580=AXIS2_PLACEMENT_3D('',#787,#625,#626);
#581=AXIS2_PLACEMENT_3D('',#793,#630,#631);
#582=AXIS2_PLACEMENT_3D('',#800,#635,#636);
#583=AXIS2_PLACEMENT_3D('',#801,#637,#638);
#584=AXIS2_PLACEMENT_3D('',#803,#639,#640);
#585=AXIS2_PLACEMENT_3D('',#809,#644,#645);
#586=AXIS2_PLACEMENT_3D('',#815,#648,#649);
#587=AXIS2_PLACEMENT_3D('',#819,#652,#653);
#588=AXIS2_PLACEMENT_3D('',#821,#654,#655);
#589=AXIS2_PLACEMENT_3D('',#824,#657,#658);
#590=AXIS2_PLACEMENT_3D('',#825,#659,#660);
#591=AXIS2_PLACEMENT_3D('',#834,#665,#666);
#592=AXIS2_PLACEMENT_3D('',#842,#671,#672);
#593=AXIS2_PLACEMENT_3D('',#848,#676,#677);
#594=AXIS2_PLACEMENT_3D('',#857,#682,#683);
#595=AXIS2_PLACEMENT_3D('',#863,#687,#688);
#596=AXIS2_PLACEMENT_3D('',#871,#693,#694);
#597=AXIS2_PLACEMENT_3D('',#877,#698,#699);
#598=AXIS2_PLACEMENT_3D('',#883,#703,#704);
#599=AXIS2_PLACEMENT_3D('',#889,#708,#709);
#600=AXIS2_PLACEMENT_3D('',#891,#711,#712);
#601=AXIS2_PLACEMENT_3D('',#894,#715,#716);
#602=AXIS2_PLACEMENT_3D('',#901,#721,#722);
#603=AXIS2_PLACEMENT_3D('',#905,#725,#726);
#604=AXIS2_PLACEMENT_3D('',#912,#731,#732);
#605=AXIS2_PLACEMENT_3D('',#917,#736,#737);
#606=AXIS2_PLACEMENT_3D('',#919,#739,#740);
#607=AXIS2_PLACEMENT_3D('',#921,#742,#743);
#608=AXIS2_PLACEMENT_3D('',#923,#745,#746);
#609=AXIS2_PLACEMENT_3D('',#924,#747,#748);
#610=AXIS2_PLACEMENT_3D('',#925,#749,#750);
#611=AXIS2_PLACEMENT_3D('',#927,#752,#753);
#612=DIRECTION('axis',(0.,0.,1.));
#613=DIRECTION('refdir',(1.,0.,0.));
#614=DIRECTION('center_axis',(-1.,-3.79563427222276E-16,0.));
#615=DIRECTION('ref_axis',(3.79563427222276E-16,-1.,0.));
#616=DIRECTION('',(0.,1.,0.));
#617=DIRECTION('',(0.,0.,1.));
#618=DIRECTION('',(3.79563427222276E-16,-1.,0.));
#619=DIRECTION('',(0.,0.,1.));
#620=DIRECTION('center_axis',(0.,0.,1.));
#621=DIRECTION('ref_axis',(-1.,0.,0.));
#622=DIRECTION('center_axis',(0.,0.,1.));
#623=DIRECTION('ref_axis',(-1.,0.,0.));
#624=DIRECTION('',(0.,0.,1.));
#625=DIRECTION('center_axis',(1.,0.,0.));
#626=DIRECTION('ref_axis',(0.,1.,0.));
#627=DIRECTION('',(0.,-1.,0.));
#628=DIRECTION('',(0.,1.,0.));
#629=DIRECTION('',(0.,0.,-1.));
#630=DIRECTION('center_axis',(0.,1.,0.));
#631=DIRECTION('ref_axis',(1.,0.,0.));
#632=DIRECTION('',(1.,0.,0.));
#633=DIRECTION('',(0.,0.,1.));
#634=DIRECTION('',(-1.,0.,0.));
#635=DIRECTION('center_axis',(0.,1.,0.));
#636=DIRECTION('ref_axis',(0.999981522883908,0.,0.00607897119417574));
#637=DIRECTION('center_axis',(0.,1.,0.));
#638=DIRECTION('ref_axis',(1.,0.,0.));
#639=DIRECTION('center_axis',(0.,1.,0.));
#640=DIRECTION('ref_axis',(0.999981522883908,0.,0.00607897119417574));
#641=DIRECTION('',(-1.,0.,0.));
#642=DIRECTION('',(0.,0.,-1.));
#643=DIRECTION('',(1.,0.,0.));
#644=DIRECTION('center_axis',(0.,-1.,0.));
#645=DIRECTION('ref_axis',(2.96166828366543E-16,0.,-1.));
#646=DIRECTION('',(0.,-1.,0.));
#647=DIRECTION('',(0.,-1.,0.));
#648=DIRECTION('center_axis',(0.,-1.,0.));
#649=DIRECTION('ref_axis',(0.999981522883908,0.,0.00607897119417574));
#650=DIRECTION('',(0.,-1.,0.));
#651=DIRECTION('',(0.,1.,0.));
#652=DIRECTION('center_axis',(-1.,0.,0.));
#653=DIRECTION('ref_axis',(0.,1.,0.));
#654=DIRECTION('center_axis',(-1.,0.,0.));
#655=DIRECTION('ref_axis',(0.,1.,0.));
#656=DIRECTION('',(-1.,0.,0.));
#657=DIRECTION('center_axis',(1.,0.,0.));
#658=DIRECTION('ref_axis',(0.,1.,0.));
#659=DIRECTION('center_axis',(0.707106781186548,0.707106781186548,0.));
#660=DIRECTION('ref_axis',(0.,0.,-1.));
#661=DIRECTION('',(0.707106781186548,-0.707106781186548,0.));
#662=DIRECTION('',(0.,0.,-1.));
#663=DIRECTION('',(-0.707106781186548,0.707106781186548,0.));
#664=DIRECTION('',(0.,0.,1.));
#665=DIRECTION('center_axis',(0.,0.,1.));
#666=DIRECTION('ref_axis',(1.,0.,0.));
#667=DIRECTION('',(-1.,0.,0.));
#668=DIRECTION('',(0.,-1.,0.));
#669=DIRECTION('',(1.,0.,0.));
#670=DIRECTION('',(0.,-1.,0.));
#671=DIRECTION('center_axis',(0.,-1.,0.));
#672=DIRECTION('ref_axis',(-1.,0.,0.));
#673=DIRECTION('',(0.,0.,1.));
#674=DIRECTION('',(-1.,0.,0.));
#675=DIRECTION('',(0.00607897119417542,0.,-0.999981522883908));
#676=DIRECTION('center_axis',(-0.707106781186548,0.707106781186548,0.));
#677=DIRECTION('ref_axis',(0.,0.,1.));
#678=DIRECTION('',(0.707106781186548,0.707106781186548,0.));
#679=DIRECTION('',(0.,0.,-1.));
#680=DIRECTION('',(-0.707106781186547,-0.707106781186547,0.));
#681=DIRECTION('',(0.,0.,1.));
#682=DIRECTION('center_axis',(0.,0.,1.));
#683=DIRECTION('ref_axis',(0.,1.,0.));
#684=DIRECTION('',(0.,1.,0.));
#685=DIRECTION('',(-1.,0.,0.));
#686=DIRECTION('',(0.,1.,0.));
#687=DIRECTION('center_axis',(0.,-1.,0.));
#688=DIRECTION('ref_axis',(-1.,0.,0.));
#689=DIRECTION('',(-1.,0.,0.));
#690=DIRECTION('',(0.00607897119417604,0.,0.999981522883908));
#691=DIRECTION('',(-1.,0.,0.));
#692=DIRECTION('',(0.,0.,-1.));
#693=DIRECTION('center_axis',(0.,0.,-1.));
#694=DIRECTION('ref_axis',(-1.,0.,0.));
#695=DIRECTION('',(0.,1.,0.));
#696=DIRECTION('',(0.,-1.,0.));
#697=DIRECTION('',(1.,0.,0.));
#698=DIRECTION('center_axis',(0.,0.,-1.));
#699=DIRECTION('ref_axis',(-1.,0.,0.));
#700=DIRECTION('',(0.,-1.,0.));
#701=DIRECTION('',(1.,0.,0.));
#702=DIRECTION('',(0.,1.,0.));
#703=DIRECTION('center_axis',(0.,0.,-1.));
#704=DIRECTION('ref_axis',(0.,1.,0.));
#705=DIRECTION('',(0.,1.,0.));
#706=DIRECTION('',(1.,0.,0.));
#707=DIRECTION('',(0.,-1.,0.));
#708=DIRECTION('center_axis',(1.,0.,0.));
#709=DIRECTION('ref_axis',(0.,0.,-1.));
#710=DIRECTION('',(0.,0.,-1.));
#711=DIRECTION('center_axis',(0.999981522883908,0.,0.00607897119417542));
#712=DIRECTION('ref_axis',(-0.00607897119417542,0.,0.999981522883908));
#713=DIRECTION('',(-0.00607897119417542,0.,0.999981522883908));
#714=DIRECTION('',(0.00607897119417542,0.,-0.999981522883908));
#715=DIRECTION('center_axis',(-1.,0.,0.));
#716=DIRECTION('ref_axis',(0.,0.,1.));
#717=DIRECTION('',(0.,0.,1.));
#718=DIRECTION('',(0.,1.,0.));
#719=DIRECTION('',(0.,1.,0.));
#720=DIRECTION('',(0.,0.,1.));
#721=DIRECTION('center_axis',(1.,0.,0.));
#722=DIRECTION('ref_axis',(0.,0.,-1.));
#723=DIRECTION('',(0.,0.,-1.));
#724=DIRECTION('',(0.,-1.,0.));
#725=DIRECTION('center_axis',(1.,0.,0.));
#726=DIRECTION('ref_axis',(0.,0.,-1.));
#727=DIRECTION('',(0.,0.,-1.));
#728=DIRECTION('',(0.,-1.,0.));
#729=DIRECTION('',(0.,1.,0.));
#730=DIRECTION('',(0.,0.,-1.));
#731=DIRECTION('center_axis',(-0.999981522883908,0.,0.00607897119417604));
#732=DIRECTION('ref_axis',(-0.00607897119417604,0.,-0.999981522883908));
#733=DIRECTION('',(0.,1.,0.));
#734=DIRECTION('',(0.00607897119417604,0.,0.999981522883908));
#735=DIRECTION('',(-0.00607897119417604,0.,-0.999981522883908));
#736=DIRECTION('center_axis',(0.,0.,1.));
#737=DIRECTION('ref_axis',(1.,0.,0.));
#738=DIRECTION('',(1.,0.,0.));
#739=DIRECTION('center_axis',(0.,1.,0.));
#740=DIRECTION('ref_axis',(1.,0.,0.));
#741=DIRECTION('',(1.,0.,0.));
#742=DIRECTION('center_axis',(0.,1.,0.));
#743=DIRECTION('ref_axis',(1.,0.,0.));
#744=DIRECTION('',(1.,0.,0.));
#745=DIRECTION('center_axis',(0.,0.,-1.));
#746=DIRECTION('ref_axis',(-1.,0.,0.));
#747=DIRECTION('center_axis',(0.,0.,-1.));
#748=DIRECTION('ref_axis',(-1.,0.,0.));
#749=DIRECTION('center_axis',(0.,0.,-1.));
#750=DIRECTION('ref_axis',(-1.,0.,0.));
#751=DIRECTION('',(-1.,0.,0.));
#752=DIRECTION('center_axis',(0.,1.,0.));
#753=DIRECTION('ref_axis',(0.,0.,1.));
#754=CARTESIAN_POINT('',(0.,0.,0.));
#755=CARTESIAN_POINT('Origin',(7.5,11.7,0.));
#756=CARTESIAN_POINT('',(7.5,0.,5.0791614331198));
#757=CARTESIAN_POINT('',(7.5,11.7,5.0791614331198));
#758=CARTESIAN_POINT('',(7.49999999999999,23.85,5.0791614331198));
#759=CARTESIAN_POINT('',(7.5,0.,0.));
#760=CARTESIAN_POINT('',(7.5,0.,4.375));
#761=CARTESIAN_POINT('',(7.5,11.7,0.));
#762=CARTESIAN_POINT('',(7.5,5.85,0.));
#763=CARTESIAN_POINT('',(7.5,11.7,0.));
#764=CARTESIAN_POINT('Origin',(9.8,11.7,0.));
#765=CARTESIAN_POINT('',(12.1,11.7,5.0791614331198));
#766=CARTESIAN_POINT('Ctrl Pts',(7.5,11.7,5.0791614331198));
#767=CARTESIAN_POINT('Ctrl Pts',(7.5,11.9905141164405,5.0791614331198));
#768=CARTESIAN_POINT('Ctrl Pts',(7.55837978548542,12.299252020557,5.06139705434432));
#769=CARTESIAN_POINT('Ctrl Pts',(7.79356894728227,12.8654180423633,4.99832518115396));
#770=CARTESIAN_POINT('Ctrl Pts',(7.97030097555376,13.1229921690119,4.95404420054718));
#771=CARTESIAN_POINT('Ctrl Pts',(8.37696206099631,13.5296532544544,4.87175598411382));
#772=CARTESIAN_POINT('Ctrl Pts',(8.6345549789611,13.7064208295177,4.82824799588218));
#773=CARTESIAN_POINT('Ctrl Pts',(9.20078860547931,13.9416361068974,4.76696603678606));
#774=CARTESIAN_POINT('Ctrl Pts',(9.50955127133726,14.,4.75));
#775=CARTESIAN_POINT('Ctrl Pts',(10.0904487286627,14.,4.75));
#776=CARTESIAN_POINT('Ctrl Pts',(10.3992113945207,13.9416361068974,4.76696603678606));
#777=CARTESIAN_POINT('Ctrl Pts',(10.9654450210389,13.7064208295177,4.82824799588218));
#778=CARTESIAN_POINT('Ctrl Pts',(11.2230379390037,13.5296532544544,4.87175598411382));
#779=CARTESIAN_POINT('Ctrl Pts',(11.6296990244462,13.1229921690119,4.95404420054717));
#780=CARTESIAN_POINT('Ctrl Pts',(11.8064310527177,12.8654180423633,4.99832518115396));
#781=CARTESIAN_POINT('Ctrl Pts',(12.0416202145146,12.299252020557,5.06139705434432));
#782=CARTESIAN_POINT('Ctrl Pts',(12.1,11.9905141164405,5.0791614331198));
#783=CARTESIAN_POINT('Ctrl Pts',(12.1,11.7,5.0791614331198));
#784=CARTESIAN_POINT('',(12.1,11.7,0.));
#785=CARTESIAN_POINT('Origin',(9.8,11.7,0.));
#786=CARTESIAN_POINT('',(12.1,11.7,0.));
#787=CARTESIAN_POINT('Origin',(12.1,3.08148791101958E-32,0.));
#788=CARTESIAN_POINT('',(12.1,0.,5.0791614331198));
#789=CARTESIAN_POINT('',(12.1,23.85,5.0791614331198));
#790=CARTESIAN_POINT('',(12.1,3.08148791101958E-32,0.));
#791=CARTESIAN_POINT('',(12.1,1.54074395550979E-32,0.));
#792=CARTESIAN_POINT('',(12.1,0.,4.375));
#793=CARTESIAN_POINT('Origin',(9.8,0.,8.75));
#794=CARTESIAN_POINT('',(19.6,0.,0.));
#795=CARTESIAN_POINT('',(0.,0.,0.));
#796=CARTESIAN_POINT('',(19.6,0.,13.));
#797=CARTESIAN_POINT('',(19.6,0.,0.));
#798=CARTESIAN_POINT('',(18.,0.,13.));
#799=CARTESIAN_POINT('',(9.8,0.,13.));
#800=CARTESIAN_POINT('Origin',(9.8,0.,12.9501515151515));
#801=CARTESIAN_POINT('Origin',(9.8,0.,8.75));
#802=CARTESIAN_POINT('',(1.6,0.,13.));
#803=CARTESIAN_POINT('Origin',(9.8,0.,12.9501515151515));
#804=CARTESIAN_POINT('',(0.,0.,13.));
#805=CARTESIAN_POINT('',(9.8,0.,13.));
#806=CARTESIAN_POINT('',(0.,0.,0.));
#807=CARTESIAN_POINT('',(0.,0.,17.5));
#808=CARTESIAN_POINT('',(0.,0.,0.));
#809=CARTESIAN_POINT('Origin',(9.8,23.85,12.9501515151515));
#810=CARTESIAN_POINT('',(18.,4.5,13.));
#811=CARTESIAN_POINT('',(18.,23.85,13.));
#812=CARTESIAN_POINT('',(18.,23.85,13.));
#813=CARTESIAN_POINT('',(18.,23.85,13.));
#814=CARTESIAN_POINT('',(1.6,23.85,13.));
#815=CARTESIAN_POINT('Origin',(9.8,23.85,12.9501515151515));
#816=CARTESIAN_POINT('',(1.6,4.5,13.));
#817=CARTESIAN_POINT('',(1.6,23.85,13.));
#818=CARTESIAN_POINT('',(1.6,23.85,13.));
#819=CARTESIAN_POINT('Origin',(7.94,18.1,2.5));
#820=CARTESIAN_POINT('',(19.6,16.6,2.5));
#821=CARTESIAN_POINT('Origin',(19.6,18.1,2.5));
#822=CARTESIAN_POINT('',(0.,16.6,2.5));
#823=CARTESIAN_POINT('',(7.94,16.6,2.5));
#824=CARTESIAN_POINT('Origin',(0.,18.1,2.5));
#825=CARTESIAN_POINT('Origin',(20.4,22.05,17.1425));
#826=CARTESIAN_POINT('',(19.6,22.85,17.5));
#827=CARTESIAN_POINT('',(21.2,21.25,17.5));
#828=CARTESIAN_POINT('',(20.8125,21.6375,17.5));
#829=CARTESIAN_POINT('',(21.2,21.25,16.07));
#830=CARTESIAN_POINT('',(21.2,21.25,17.1425));
#831=CARTESIAN_POINT('',(19.6,22.85,16.07));
#832=CARTESIAN_POINT('',(24.5875,17.8625,16.07));
#833=CARTESIAN_POINT('',(19.6,22.85,17.1425));
#834=CARTESIAN_POINT('Origin',(0.,0.,17.5));
#835=CARTESIAN_POINT('',(17.9726441241685,22.85,17.5));
#836=CARTESIAN_POINT('',(10.6,22.85,17.5));
#837=CARTESIAN_POINT('',(17.9726441241685,4.5,17.5));
#838=CARTESIAN_POINT('',(17.9726441241685,11.925,17.5));
#839=CARTESIAN_POINT('',(21.2,4.5,17.5));
#840=CARTESIAN_POINT('',(19.6,4.5,17.5));
#841=CARTESIAN_POINT('',(21.2,4.5,17.5));
#842=CARTESIAN_POINT('Origin',(21.2,22.85,17.5));
#843=CARTESIAN_POINT('',(19.6,22.85,13.9));
#844=CARTESIAN_POINT('',(19.6,22.85,17.5));
#845=CARTESIAN_POINT('',(17.9945288248337,22.85,13.9));
#846=CARTESIAN_POINT('',(21.2,22.85,13.9));
#847=CARTESIAN_POINT('',(17.9863816937625,22.85,15.24019067955));
#848=CARTESIAN_POINT('Origin',(-0.799999999999996,22.05,17.1425));
#849=CARTESIAN_POINT('',(-1.6,21.25,17.5));
#850=CARTESIAN_POINT('',(4.44089209850063E-15,22.85,17.5));
#851=CARTESIAN_POINT('',(-6.1125,16.7375,17.5));
#852=CARTESIAN_POINT('',(0.,22.85,16.07));
#853=CARTESIAN_POINT('',(4.44089209850063E-15,22.85,17.1425));
#854=CARTESIAN_POINT('',(-1.6,21.25,16.07));
#855=CARTESIAN_POINT('',(-4.9875,17.8625,16.07));
#856=CARTESIAN_POINT('',(-1.6,21.25,17.1425));
#857=CARTESIAN_POINT('Origin',(2.22044604925031E-15,4.5,16.07));
#858=CARTESIAN_POINT('',(2.22044604925031E-15,4.5,16.07));
#859=CARTESIAN_POINT('',(0.,2.25,16.07));
#860=CARTESIAN_POINT('',(-1.6,4.5,16.07));
#861=CARTESIAN_POINT('',(2.22044604925031E-15,4.5,16.07));
#862=CARTESIAN_POINT('',(-1.6,23.85,16.07));
#863=CARTESIAN_POINT('Origin',(21.2,22.85,17.5));
#864=CARTESIAN_POINT('',(1.62735587583149,22.85,17.5));
#865=CARTESIAN_POINT('',(10.6,22.85,17.5));
#866=CARTESIAN_POINT('',(1.6054711751663,22.85,13.9));
#867=CARTESIAN_POINT('',(1.6277175185081,22.85,17.5594896706945));
#868=CARTESIAN_POINT('',(0.,22.85,13.9));
#869=CARTESIAN_POINT('',(21.2,22.85,13.9));
#870=CARTESIAN_POINT('',(0.,22.85,8.75));
#871=CARTESIAN_POINT('Origin',(9.8,23.35,13.9));
#872=CARTESIAN_POINT('',(0.,23.85,13.9));
#873=CARTESIAN_POINT('',(0.,11.675,13.9));
#874=CARTESIAN_POINT('',(1.6054711751663,23.85,13.9));
#875=CARTESIAN_POINT('',(1.6054711751663,23.6,13.9));
#876=CARTESIAN_POINT('',(9.8,23.85,13.9));
#877=CARTESIAN_POINT('Origin',(9.8,23.35,13.9));
#878=CARTESIAN_POINT('',(19.6,23.85,13.9));
#879=CARTESIAN_POINT('',(19.6,11.675,13.9));
#880=CARTESIAN_POINT('',(17.9945288248337,23.85,13.9));
#881=CARTESIAN_POINT('',(9.8,23.85,13.9));
#882=CARTESIAN_POINT('',(17.9945288248337,23.6,13.9));
#883=CARTESIAN_POINT('Origin',(19.6,4.5,16.07));
#884=CARTESIAN_POINT('',(21.2,4.5,16.07));
#885=CARTESIAN_POINT('',(21.2,23.85,16.07));
#886=CARTESIAN_POINT('',(19.6,4.5,16.07));
#887=CARTESIAN_POINT('',(19.6,4.5,16.07));
#888=CARTESIAN_POINT('',(19.6,2.25,16.07));
#889=CARTESIAN_POINT('Origin',(21.2,14.175,16.785));
#890=CARTESIAN_POINT('',(21.2,4.5,16.07));
#891=CARTESIAN_POINT('Origin',(18.,23.85,13.));
#892=CARTESIAN_POINT('',(18.0127660641515,23.85,10.9000018483944));
#893=CARTESIAN_POINT('',(17.9859899825203,4.5,15.3046265835966));
#894=CARTESIAN_POINT('Origin',(0.,0.,0.));
#895=CARTESIAN_POINT('',(0.,23.85,0.));
#896=CARTESIAN_POINT('',(0.,23.85,17.5));
#897=CARTESIAN_POINT('',(0.,0.,0.));
#898=CARTESIAN_POINT('',(0.,4.5,13.));
#899=CARTESIAN_POINT('',(0.,1.125,13.));
#900=CARTESIAN_POINT('',(0.,4.5,8.75));
#901=CARTESIAN_POINT('Origin',(-1.6,14.175,16.785));
#902=CARTESIAN_POINT('',(-1.6,4.5,17.5));
#903=CARTESIAN_POINT('',(-1.6,4.5,16.07));
#904=CARTESIAN_POINT('',(-1.6,4.5,17.5));
#905=CARTESIAN_POINT('Origin',(19.6,0.,17.5));
#906=CARTESIAN_POINT('',(19.6,4.5,13.));
#907=CARTESIAN_POINT('',(19.6,4.5,17.5));
#908=CARTESIAN_POINT('',(19.6,1.125,13.));
#909=CARTESIAN_POINT('',(19.6,23.85,0.));
#910=CARTESIAN_POINT('',(19.6,0.,0.));
#911=CARTESIAN_POINT('',(19.6,23.85,0.));
#912=CARTESIAN_POINT('Origin',(1.62735587583149,23.85,17.5));
#913=CARTESIAN_POINT('',(1.62735587583149,4.5,17.5));
#914=CARTESIAN_POINT('',(1.62735587583149,11.925,17.5));
#915=CARTESIAN_POINT('',(1.62732580726584,4.5,17.4950537666479));
#916=CARTESIAN_POINT('',(1.60091187376426,23.85,13.1500018483944));
#917=CARTESIAN_POINT('Origin',(0.,0.,17.5));
#918=CARTESIAN_POINT('',(0.,4.5,17.5));
#919=CARTESIAN_POINT('Origin',(0.,4.5,17.5));
#920=CARTESIAN_POINT('',(19.6,4.5,13.));
#921=CARTESIAN_POINT('Origin',(0.,4.5,17.5));
#922=CARTESIAN_POINT('',(19.6,4.5,13.));
#923=CARTESIAN_POINT('Origin',(9.8,2.25,13.));
#924=CARTESIAN_POINT('Origin',(9.8,2.25,13.));
#925=CARTESIAN_POINT('Origin',(19.6,0.,0.));
#926=CARTESIAN_POINT('',(0.,23.85,0.));
#927=CARTESIAN_POINT('Origin',(9.8,23.85,8.75));
#928=UNCERTAINTY_MEASURE_WITH_UNIT(LENGTH_MEASURE(0.01),#932,
'DISTANCE_ACCURACY_VALUE',
'Maximum model space distance between geometric entities at asserted c
onnectivities');
#929=UNCERTAINTY_MEASURE_WITH_UNIT(LENGTH_MEASURE(0.01),#932,
'DISTANCE_ACCURACY_VALUE',
'Maximum model space distance between geometric entities at asserted c
onnectivities');
#930=(
GEOMETRIC_REPRESENTATION_CONTEXT(3)
GLOBAL_UNCERTAINTY_ASSIGNED_CONTEXT((#928))
GLOBAL_UNIT_ASSIGNED_CONTEXT((#932,#934,#935))
REPRESENTATION_CONTEXT('','3D')
);
#931=(
GEOMETRIC_REPRESENTATION_CONTEXT(3)
GLOBAL_UNCERTAINTY_ASSIGNED_CONTEXT((#929))
GLOBAL_UNIT_ASSIGNED_CONTEXT((#932,#934,#935))
REPRESENTATION_CONTEXT('','3D')
);
#932=(
LENGTH_UNIT()
NAMED_UNIT(*)
SI_UNIT(.MILLI.,.METRE.)
);
#933=(
LENGTH_UNIT()
NAMED_UNIT(*)
SI_UNIT($,.METRE.)
);
#934=(
NAMED_UNIT(*)
PLANE_ANGLE_UNIT()
SI_UNIT($,.RADIAN.)
);
#935=(
NAMED_UNIT(*)
SI_UNIT($,.STERADIAN.)
SOLID_ANGLE_UNIT()
);
#936=SHAPE_DEFINITION_REPRESENTATION(#937,#938);
#937=PRODUCT_DEFINITION_SHAPE('',$,#940);
#938=SHAPE_REPRESENTATION('',(#576),#930);
#939=PRODUCT_DEFINITION_CONTEXT('part definition',#944,'design');
#940=PRODUCT_DEFINITION('DD19.2 Front Rail','DD19.2 Front Rail v1',#941,
#939);
#941=PRODUCT_DEFINITION_FORMATION('',$,#946);
#942=PRODUCT_RELATED_PRODUCT_CATEGORY('DD19.2 Front Rail v1',
'DD19.2 Front Rail v1',(#946));
#943=APPLICATION_PROTOCOL_DEFINITION('international standard',
'automotive_design',2009,#944);
#944=APPLICATION_CONTEXT(
'Core Data for Automotive Mechanical Design Process');
#945=PRODUCT_CONTEXT('part definition',#944,'mechanical');
#946=PRODUCT('DD19.2 Front Rail','DD19.2 Front Rail v1',$,(#945));
#947=PRESENTATION_STYLE_ASSIGNMENT((#949));
#948=PRESENTATION_STYLE_ASSIGNMENT((#950));
#949=SURFACE_STYLE_USAGE(.BOTH.,#951);
#950=SURFACE_STYLE_USAGE(.BOTH.,#952);
#951=SURFACE_SIDE_STYLE('',(#953));
#952=SURFACE_SIDE_STYLE('',(#954));
#953=SURFACE_STYLE_FILL_AREA(#955);
#954=SURFACE_STYLE_FILL_AREA(#956);
#955=FILL_AREA_STYLE('Steel - Satin',(#957));
#956=FILL_AREA_STYLE('Aluminum - Satin',(#958));
#957=FILL_AREA_STYLE_COLOUR('Steel - Satin',#959);
#958=FILL_AREA_STYLE_COLOUR('Aluminum - Satin',#960);
#959=COLOUR_RGB('Steel - Satin',0.627450980392157,0.627450980392157,0.627450980392157);
#960=COLOUR_RGB('Aluminum - Satin',0.96078431372549,0.96078431372549,0.964705882352941);
ENDSEC;
END-ISO-10303-21;
