ISO-10303-21;
HEADER;
/* Generated by software containing ST-Developer
 * from STEP Tools, Inc. (www.steptools.com) 
 */

FILE_DESCRIPTION(
/* description */ (''),
/* implementation_level */ '2;1');

FILE_NAME(
/* name */ 'DD19.2 Locking Block.step',
/* time_stamp */ '2023-12-14T18:27:44-06:00',
/* author */ (''),
/* organization */ (''),
/* preprocessor_version */ 'ST-DEVELOPER v20',
/* originating_system */ 'Autodesk Translation Framework v12.14.0.127',

/* authorisation */ '');

FILE_SCHEMA (('AUTOMOTIVE_DESIGN { 1 0 10303 214 3 1 1 }'));
ENDSEC;

DATA;
#10=MECHANICAL_DESIGN_GEOMETRIC_PRESENTATION_REPRESENTATION('',(#13),#1671);
#11=SHAPE_REPRESENTATION_RELATIONSHIP('SRR','None',#1678,#12);
#12=ADVANCED_BREP_SHAPE_REPRESENTATION('',(#14),#1670);
#13=STYLED_ITEM('',(#1687),#14);
#14=MANIFOLD_SOLID_BREP('Body1',#949);
#15=FACE_BOUND('',#116,.T.);
#16=FACE_BOUND('',#118,.T.);
#17=FACE_BOUND('',#128,.T.);
#18=FACE_BOUND('',#132,.T.);
#19=PLANE('',#967);
#20=PLANE('',#972);
#21=PLANE('',#973);
#22=PLANE('',#980);
#23=PLANE('',#987);
#24=PLANE('',#988);
#25=PLANE('',#989);
#26=PLANE('',#990);
#27=PLANE('',#991);
#28=PLANE('',#992);
#29=PLANE('',#995);
#30=PLANE('',#996);
#31=PLANE('',#1001);
#32=PLANE('',#1002);
#33=PLANE('',#1006);
#34=PLANE('',#1008);
#35=PLANE('',#1010);
#36=PLANE('',#1014);
#37=PLANE('',#1015);
#38=PLANE('',#1016);
#39=PLANE('',#1017);
#40=PLANE('',#1018);
#41=PLANE('',#1019);
#42=PLANE('',#1023);
#43=PLANE('',#1024);
#44=PLANE('',#1025);
#45=PLANE('',#1026);
#46=PLANE('',#1028);
#47=PLANE('',#1029);
#48=PLANE('',#1030);
#49=PLANE('',#1031);
#50=PLANE('',#1034);
#51=PLANE('',#1035);
#52=PLANE('',#1036);
#53=PLANE('',#1037);
#54=PLANE('',#1038);
#55=B_SPLINE_CURVE_WITH_KNOTS('',3,(#1349,#1350,#1351,#1352,#1353,#1354,
#1355,#1356,#1357,#1358),.UNSPECIFIED.,.F.,.F.,(4,2,2,2,4),(0.,0.0760639668476201,
0.123748332631622,0.173421688953721,0.173977746804623),.UNSPECIFIED.);
#56=B_SPLINE_CURVE_WITH_KNOTS('',3,(#1424,#1425,#1426,#1427,#1428,#1429,
#1430,#1431,#1432,#1433),.UNSPECIFIED.,.F.,.F.,(4,2,2,2,4),(-0.000554325323517552,
0.,0.049645829244074,0.0973027029904598,0.17332546767311),.UNSPECIFIED.);
#57=B_SPLINE_SURFACE_WITH_KNOTS('',3,3,((#1307,#1308,#1309,#1310,#1311,
#1312,#1313,#1314,#1315,#1316),(#1317,#1318,#1319,#1320,#1321,#1322,#1323,
#1324,#1325,#1326),(#1327,#1328,#1329,#1330,#1331,#1332,#1333,#1334,#1335,
#1336),(#1337,#1338,#1339,#1340,#1341,#1342,#1343,#1344,#1345,#1346)),
 .UNSPECIFIED.,.F.,.F.,.F.,(4,4),(4,1,1,1,1,1,1,4),(0.,1.),(0.,0.0256835587310915,
0.0513671174621829,0.0856118624369716,0.102734234924366,0.111295421168063,
0.115576014289912,0.11985660741176),.UNSPECIFIED.);
#58=B_SPLINE_SURFACE_WITH_KNOTS('',3,3,((#1378,#1379,#1380,#1381,#1382,
#1383,#1384,#1385,#1386,#1387,#1388),(#1389,#1390,#1391,#1392,#1393,#1394,
#1395,#1396,#1397,#1398,#1399),(#1400,#1401,#1402,#1403,#1404,#1405,#1406,
#1407,#1408,#1409,#1410),(#1411,#1412,#1413,#1414,#1415,#1416,#1417,#1418,
#1419,#1420,#1421)),.UNSPECIFIED.,.F.,.F.,.F.,(4,4),(4,1,1,1,1,1,1,1,4),
(0.,1.),(-0.515647896450441,-0.48136205769093,-0.447076218931418,-0.434219029396602,
-0.421361839861785,-0.412790380171907,-0.404218920482029,-0.39993319063709,
-0.395647460792151),.UNSPECIFIED.);
#59=FACE_OUTER_BOUND('',#109,.T.);
#60=FACE_OUTER_BOUND('',#110,.T.);
#61=FACE_OUTER_BOUND('',#111,.T.);
#62=FACE_OUTER_BOUND('',#112,.T.);
#63=FACE_OUTER_BOUND('',#113,.T.);
#64=FACE_OUTER_BOUND('',#114,.T.);
#65=FACE_OUTER_BOUND('',#115,.T.);
#66=FACE_OUTER_BOUND('',#117,.T.);
#67=FACE_OUTER_BOUND('',#119,.T.);
#68=FACE_OUTER_BOUND('',#120,.T.);
#69=FACE_OUTER_BOUND('',#121,.T.);
#70=FACE_OUTER_BOUND('',#122,.T.);
#71=FACE_OUTER_BOUND('',#123,.T.);
#72=FACE_OUTER_BOUND('',#124,.T.);
#73=FACE_OUTER_BOUND('',#125,.T.);
#74=FACE_OUTER_BOUND('',#126,.T.);
#75=FACE_OUTER_BOUND('',#127,.T.);
#76=FACE_OUTER_BOUND('',#129,.T.);
#77=FACE_OUTER_BOUND('',#130,.T.);
#78=FACE_OUTER_BOUND('',#131,.T.);
#79=FACE_OUTER_BOUND('',#133,.T.);
#80=FACE_OUTER_BOUND('',#134,.T.);
#81=FACE_OUTER_BOUND('',#135,.T.);
#82=FACE_OUTER_BOUND('',#136,.T.);
#83=FACE_OUTER_BOUND('',#137,.T.);
#84=FACE_OUTER_BOUND('',#138,.T.);
#85=FACE_OUTER_BOUND('',#139,.T.);
#86=FACE_OUTER_BOUND('',#140,.T.);
#87=FACE_OUTER_BOUND('',#141,.T.);
#88=FACE_OUTER_BOUND('',#142,.T.);
#89=FACE_OUTER_BOUND('',#143,.T.);
#90=FACE_OUTER_BOUND('',#144,.T.);
#91=FACE_OUTER_BOUND('',#145,.T.);
#92=FACE_OUTER_BOUND('',#146,.T.);
#93=FACE_OUTER_BOUND('',#147,.T.);
#94=FACE_OUTER_BOUND('',#148,.T.);
#95=FACE_OUTER_BOUND('',#149,.T.);
#96=FACE_OUTER_BOUND('',#150,.T.);
#97=FACE_OUTER_BOUND('',#151,.T.);
#98=FACE_OUTER_BOUND('',#152,.T.);
#99=FACE_OUTER_BOUND('',#153,.T.);
#100=FACE_OUTER_BOUND('',#154,.T.);
#101=FACE_OUTER_BOUND('',#155,.T.);
#102=FACE_OUTER_BOUND('',#156,.T.);
#103=FACE_OUTER_BOUND('',#157,.T.);
#104=FACE_OUTER_BOUND('',#158,.T.);
#105=FACE_OUTER_BOUND('',#159,.T.);
#106=FACE_OUTER_BOUND('',#160,.T.);
#107=FACE_OUTER_BOUND('',#161,.T.);
#108=FACE_OUTER_BOUND('',#162,.T.);
#109=EDGE_LOOP('',(#619,#620,#621,#622));
#110=EDGE_LOOP('',(#623,#624,#625,#626));
#111=EDGE_LOOP('',(#627,#628,#629,#630));
#112=EDGE_LOOP('',(#631,#632,#633,#634));
#113=EDGE_LOOP('',(#635,#636,#637,#638));
#114=EDGE_LOOP('',(#639,#640,#641,#642));
#115=EDGE_LOOP('',(#643,#644,#645,#646,#647,#648,#649,#650,#651,#652,#653,
#654,#655,#656,#657,#658,#659,#660,#661,#662));
#116=EDGE_LOOP('',(#663));
#117=EDGE_LOOP('',(#664,#665,#666,#667,#668,#669,#670,#671,#672,#673,#674,
#675,#676,#677,#678,#679,#680,#681,#682,#683));
#118=EDGE_LOOP('',(#684));
#119=EDGE_LOOP('',(#685,#686,#687,#688));
#120=EDGE_LOOP('',(#689,#690,#691,#692));
#121=EDGE_LOOP('',(#693,#694,#695,#696));
#122=EDGE_LOOP('',(#697,#698,#699,#700));
#123=EDGE_LOOP('',(#701,#702,#703,#704));
#124=EDGE_LOOP('',(#705,#706,#707,#708));
#125=EDGE_LOOP('',(#709,#710,#711,#712));
#126=EDGE_LOOP('',(#713,#714,#715,#716));
#127=EDGE_LOOP('',(#717,#718,#719,#720,#721,#722,#723,#724,#725,#726,#727,
#728));
#128=EDGE_LOOP('',(#729));
#129=EDGE_LOOP('',(#730,#731,#732,#733));
#130=EDGE_LOOP('',(#734,#735,#736,#737));
#131=EDGE_LOOP('',(#738,#739,#740,#741,#742,#743,#744,#745,#746,#747,#748,
#749));
#132=EDGE_LOOP('',(#750));
#133=EDGE_LOOP('',(#751,#752,#753,#754));
#134=EDGE_LOOP('',(#755,#756,#757,#758));
#135=EDGE_LOOP('',(#759,#760,#761,#762));
#136=EDGE_LOOP('',(#763,#764,#765,#766));
#137=EDGE_LOOP('',(#767,#768,#769,#770));
#138=EDGE_LOOP('',(#771,#772,#773,#774));
#139=EDGE_LOOP('',(#775,#776,#777,#778));
#140=EDGE_LOOP('',(#779,#780,#781,#782));
#141=EDGE_LOOP('',(#783,#784,#785,#786,#787));
#142=EDGE_LOOP('',(#788,#789,#790,#791));
#143=EDGE_LOOP('',(#792,#793,#794,#795));
#144=EDGE_LOOP('',(#796,#797,#798,#799));
#145=EDGE_LOOP('',(#800,#801,#802));
#146=EDGE_LOOP('',(#803,#804,#805,#806));
#147=EDGE_LOOP('',(#807,#808,#809,#810,#811));
#148=EDGE_LOOP('',(#812,#813,#814,#815));
#149=EDGE_LOOP('',(#816,#817,#818,#819));
#150=EDGE_LOOP('',(#820,#821,#822,#823,#824,#825,#826));
#151=EDGE_LOOP('',(#827,#828,#829));
#152=EDGE_LOOP('',(#830,#831,#832,#833));
#153=EDGE_LOOP('',(#834,#835,#836,#837,#838,#839,#840,#841,#842,#843,#844,
#845));
#154=EDGE_LOOP('',(#846,#847,#848,#849));
#155=EDGE_LOOP('',(#850,#851,#852,#853));
#156=EDGE_LOOP('',(#854,#855,#856,#857));
#157=EDGE_LOOP('',(#858,#859,#860,#861,#862));
#158=EDGE_LOOP('',(#863,#864,#865,#866,#867,#868,#869));
#159=EDGE_LOOP('',(#870,#871,#872,#873));
#160=EDGE_LOOP('',(#874,#875,#876,#877));
#161=EDGE_LOOP('',(#878,#879,#880,#881));
#162=EDGE_LOOP('',(#882,#883,#884,#885,#886));
#163=LINE('',#1303,#267);
#164=LINE('',#1306,#268);
#165=LINE('',#1359,#269);
#166=LINE('',#1363,#270);
#167=LINE('',#1365,#271);
#168=LINE('',#1367,#272);
#169=LINE('',#1368,#273);
#170=LINE('',#1374,#274);
#171=LINE('',#1377,#275);
#172=LINE('',#1435,#276);
#173=LINE('',#1438,#277);
#174=LINE('',#1439,#278);
#175=LINE('',#1442,#279);
#176=LINE('',#1444,#280);
#177=LINE('',#1446,#281);
#178=LINE('',#1450,#282);
#179=LINE('',#1452,#283);
#180=LINE('',#1456,#284);
#181=LINE('',#1460,#285);
#182=LINE('',#1464,#286);
#183=LINE('',#1468,#287);
#184=LINE('',#1470,#288);
#185=LINE('',#1471,#289);
#186=LINE('',#1476,#290);
#187=LINE('',#1478,#291);
#188=LINE('',#1480,#292);
#189=LINE('',#1482,#293);
#190=LINE('',#1486,#294);
#191=LINE('',#1490,#295);
#192=LINE('',#1494,#296);
#193=LINE('',#1498,#297);
#194=LINE('',#1500,#298);
#195=LINE('',#1504,#299);
#196=LINE('',#1506,#300);
#197=LINE('',#1507,#301);
#198=LINE('',#1512,#302);
#199=LINE('',#1513,#303);
#200=LINE('',#1516,#304);
#201=LINE('',#1518,#305);
#202=LINE('',#1519,#306);
#203=LINE('',#1522,#307);
#204=LINE('',#1523,#308);
#205=LINE('',#1526,#309);
#206=LINE('',#1528,#310);
#207=LINE('',#1529,#311);
#208=LINE('',#1532,#312);
#209=LINE('',#1534,#313);
#210=LINE('',#1535,#314);
#211=LINE('',#1538,#315);
#212=LINE('',#1539,#316);
#213=LINE('',#1544,#317);
#214=LINE('',#1545,#318);
#215=LINE('',#1548,#319);
#216=LINE('',#1549,#320);
#217=LINE('',#1552,#321);
#218=LINE('',#1554,#322);
#219=LINE('',#1555,#323);
#220=LINE('',#1557,#324);
#221=LINE('',#1559,#325);
#222=LINE('',#1561,#326);
#223=LINE('',#1563,#327);
#224=LINE('',#1566,#328);
#225=LINE('',#1571,#329);
#226=LINE('',#1574,#330);
#227=LINE('',#1577,#331);
#228=LINE('',#1578,#332);
#229=LINE('',#1581,#333);
#230=LINE('',#1583,#334);
#231=LINE('',#1587,#335);
#232=LINE('',#1589,#336);
#233=LINE('',#1591,#337);
#234=LINE('',#1592,#338);
#235=LINE('',#1594,#339);
#236=LINE('',#1595,#340);
#237=LINE('',#1599,#341);
#238=LINE('',#1600,#342);
#239=LINE('',#1602,#343);
#240=LINE('',#1604,#344);
#241=LINE('',#1605,#345);
#242=LINE('',#1607,#346);
#243=LINE('',#1609,#347);
#244=LINE('',#1615,#348);
#245=LINE('',#1619,#349);
#246=LINE('',#1620,#350);
#247=LINE('',#1622,#351);
#248=LINE('',#1624,#352);
#249=LINE('',#1626,#353);
#250=LINE('',#1629,#354);
#251=LINE('',#1630,#355);
#252=LINE('',#1631,#356);
#253=LINE('',#1635,#357);
#254=LINE('',#1638,#358);
#255=LINE('',#1640,#359);
#256=LINE('',#1644,#360);
#257=LINE('',#1648,#361);
#258=LINE('',#1649,#362);
#259=LINE('',#1651,#363);
#260=LINE('',#1652,#364);
#261=LINE('',#1654,#365);
#262=LINE('',#1655,#366);
#263=LINE('',#1657,#367);
#264=LINE('',#1659,#368);
#265=LINE('',#1662,#369);
#266=LINE('',#1666,#370);
#267=VECTOR('',#1045,10.);
#268=VECTOR('',#1048,10.);
#269=VECTOR('',#1049,10.);
#270=VECTOR('',#1054,10.);
#271=VECTOR('',#1055,10.);
#272=VECTOR('',#1056,10.);
#273=VECTOR('',#1057,10.);
#274=VECTOR('',#1062,10.);
#275=VECTOR('',#1065,10.);
#276=VECTOR('',#1068,10.);
#277=VECTOR('',#1071,10.);
#278=VECTOR('',#1072,10.);
#279=VECTOR('',#1075,10.);
#280=VECTOR('',#1076,10.);
#281=VECTOR('',#1077,10.);
#282=VECTOR('',#1080,10.);
#283=VECTOR('',#1081,10.);
#284=VECTOR('',#1084,10.);
#285=VECTOR('',#1087,10.);
#286=VECTOR('',#1090,10.);
#287=VECTOR('',#1093,10.);
#288=VECTOR('',#1094,10.);
#289=VECTOR('',#1095,10.);
#290=VECTOR('',#1100,10.);
#291=VECTOR('',#1101,10.);
#292=VECTOR('',#1102,10.);
#293=VECTOR('',#1103,10.);
#294=VECTOR('',#1106,10.);
#295=VECTOR('',#1109,10.);
#296=VECTOR('',#1112,10.);
#297=VECTOR('',#1115,10.);
#298=VECTOR('',#1116,10.);
#299=VECTOR('',#1119,10.);
#300=VECTOR('',#1120,10.);
#301=VECTOR('',#1121,10.);
#302=VECTOR('',#1126,10.);
#303=VECTOR('',#1127,10.);
#304=VECTOR('',#1130,10.);
#305=VECTOR('',#1131,10.);
#306=VECTOR('',#1132,10.);
#307=VECTOR('',#1135,10.);
#308=VECTOR('',#1136,10.);
#309=VECTOR('',#1139,10.);
#310=VECTOR('',#1140,10.);
#311=VECTOR('',#1141,10.);
#312=VECTOR('',#1144,10.);
#313=VECTOR('',#1145,10.);
#314=VECTOR('',#1146,10.);
#315=VECTOR('',#1149,10.);
#316=VECTOR('',#1150,10.);
#317=VECTOR('',#1155,10.);
#318=VECTOR('',#1156,10.);
#319=VECTOR('',#1159,10.);
#320=VECTOR('',#1160,10.);
#321=VECTOR('',#1163,10.);
#322=VECTOR('',#1164,10.);
#323=VECTOR('',#1165,10.);
#324=VECTOR('',#1166,10.);
#325=VECTOR('',#1167,10.);
#326=VECTOR('',#1168,10.);
#327=VECTOR('',#1169,10.);
#328=VECTOR('',#1172,10.);
#329=VECTOR('',#1177,10.);
#330=VECTOR('',#1180,10.);
#331=VECTOR('',#1183,10.);
#332=VECTOR('',#1184,10.);
#333=VECTOR('',#1187,10.);
#334=VECTOR('',#1188,10.);
#335=VECTOR('',#1191,10.);
#336=VECTOR('',#1192,10.);
#337=VECTOR('',#1193,10.);
#338=VECTOR('',#1194,10.);
#339=VECTOR('',#1195,10.);
#340=VECTOR('',#1196,10.);
#341=VECTOR('',#1201,10.);
#342=VECTOR('',#1202,10.);
#343=VECTOR('',#1205,10.);
#344=VECTOR('',#1208,10.);
#345=VECTOR('',#1209,10.);
#346=VECTOR('',#1212,10.);
#347=VECTOR('',#1215,10.);
#348=VECTOR('',#1222,10.);
#349=VECTOR('',#1227,10.);
#350=VECTOR('',#1228,10.);
#351=VECTOR('',#1231,10.);
#352=VECTOR('',#1234,10.);
#353=VECTOR('',#1237,10.);
#354=VECTOR('',#1240,10.);
#355=VECTOR('',#1241,10.);
#356=VECTOR('',#1242,10.);
#357=VECTOR('',#1249,2.);
#358=VECTOR('',#1254,10.);
#359=VECTOR('',#1257,10.);
#360=VECTOR('',#1262,10.);
#361=VECTOR('',#1267,10.);
#362=VECTOR('',#1268,10.);
#363=VECTOR('',#1271,10.);
#364=VECTOR('',#1272,10.);
#365=VECTOR('',#1275,10.);
#366=VECTOR('',#1276,10.);
#367=VECTOR('',#1279,10.);
#368=VECTOR('',#1282,2.);
#369=VECTOR('',#1287,10.);
#370=VECTOR('',#1294,10.);
#371=CIRCLE('',#964,2.);
#372=CIRCLE('',#965,2.);
#373=CIRCLE('',#966,2.5);
#374=CIRCLE('',#969,2.);
#375=CIRCLE('',#970,2.);
#376=CIRCLE('',#971,2.5);
#377=CIRCLE('',#974,1.5);
#378=CIRCLE('',#975,1.5);
#379=CIRCLE('',#976,0.25);
#380=CIRCLE('',#977,2.);
#381=CIRCLE('',#978,0.25);
#382=CIRCLE('',#979,2.);
#383=CIRCLE('',#981,0.25);
#384=CIRCLE('',#982,2.);
#385=CIRCLE('',#983,0.25);
#386=CIRCLE('',#984,1.5);
#387=CIRCLE('',#985,1.5);
#388=CIRCLE('',#986,2.);
#389=CIRCLE('',#994,1.5);
#390=CIRCLE('',#997,1.5);
#391=CIRCLE('',#998,2.);
#392=CIRCLE('',#1000,1.5);
#393=CIRCLE('',#1003,1.5);
#394=CIRCLE('',#1004,2.);
#395=CIRCLE('',#1012,1.50414363346856);
#396=CIRCLE('',#1013,1.50414363346856);
#397=CIRCLE('',#1020,1.5);
#398=CIRCLE('',#1027,1.5);
#399=VERTEX_POINT('',#1299);
#400=VERTEX_POINT('',#1300);
#401=VERTEX_POINT('',#1302);
#402=VERTEX_POINT('',#1304);
#403=VERTEX_POINT('',#1347);
#404=VERTEX_POINT('',#1348);
#405=VERTEX_POINT('',#1362);
#406=VERTEX_POINT('',#1364);
#407=VERTEX_POINT('',#1366);
#408=VERTEX_POINT('',#1370);
#409=VERTEX_POINT('',#1371);
#410=VERTEX_POINT('',#1373);
#411=VERTEX_POINT('',#1375);
#412=VERTEX_POINT('',#1422);
#413=VERTEX_POINT('',#1423);
#414=VERTEX_POINT('',#1437);
#415=VERTEX_POINT('',#1441);
#416=VERTEX_POINT('',#1443);
#417=VERTEX_POINT('',#1445);
#418=VERTEX_POINT('',#1447);
#419=VERTEX_POINT('',#1449);
#420=VERTEX_POINT('',#1451);
#421=VERTEX_POINT('',#1453);
#422=VERTEX_POINT('',#1455);
#423=VERTEX_POINT('',#1457);
#424=VERTEX_POINT('',#1459);
#425=VERTEX_POINT('',#1461);
#426=VERTEX_POINT('',#1463);
#427=VERTEX_POINT('',#1465);
#428=VERTEX_POINT('',#1467);
#429=VERTEX_POINT('',#1469);
#430=VERTEX_POINT('',#1472);
#431=VERTEX_POINT('',#1475);
#432=VERTEX_POINT('',#1477);
#433=VERTEX_POINT('',#1479);
#434=VERTEX_POINT('',#1481);
#435=VERTEX_POINT('',#1483);
#436=VERTEX_POINT('',#1485);
#437=VERTEX_POINT('',#1487);
#438=VERTEX_POINT('',#1489);
#439=VERTEX_POINT('',#1491);
#440=VERTEX_POINT('',#1493);
#441=VERTEX_POINT('',#1495);
#442=VERTEX_POINT('',#1497);
#443=VERTEX_POINT('',#1499);
#444=VERTEX_POINT('',#1501);
#445=VERTEX_POINT('',#1503);
#446=VERTEX_POINT('',#1505);
#447=VERTEX_POINT('',#1508);
#448=VERTEX_POINT('',#1511);
#449=VERTEX_POINT('',#1515);
#450=VERTEX_POINT('',#1517);
#451=VERTEX_POINT('',#1521);
#452=VERTEX_POINT('',#1525);
#453=VERTEX_POINT('',#1527);
#454=VERTEX_POINT('',#1531);
#455=VERTEX_POINT('',#1533);
#456=VERTEX_POINT('',#1537);
#457=VERTEX_POINT('',#1541);
#458=VERTEX_POINT('',#1542);
#459=VERTEX_POINT('',#1547);
#460=VERTEX_POINT('',#1551);
#461=VERTEX_POINT('',#1553);
#462=VERTEX_POINT('',#1556);
#463=VERTEX_POINT('',#1558);
#464=VERTEX_POINT('',#1560);
#465=VERTEX_POINT('',#1562);
#466=VERTEX_POINT('',#1564);
#467=VERTEX_POINT('',#1567);
#468=VERTEX_POINT('',#1570);
#469=VERTEX_POINT('',#1572);
#470=VERTEX_POINT('',#1576);
#471=VERTEX_POINT('',#1580);
#472=VERTEX_POINT('',#1582);
#473=VERTEX_POINT('',#1584);
#474=VERTEX_POINT('',#1586);
#475=VERTEX_POINT('',#1588);
#476=VERTEX_POINT('',#1590);
#477=VERTEX_POINT('',#1593);
#478=VERTEX_POINT('',#1596);
#479=VERTEX_POINT('',#1612);
#480=VERTEX_POINT('',#1614);
#481=VERTEX_POINT('',#1618);
#482=VERTEX_POINT('',#1628);
#483=VERTEX_POINT('',#1643);
#484=VERTEX_POINT('',#1647);
#485=EDGE_CURVE('',#399,#400,#371,.F.);
#486=EDGE_CURVE('',#401,#399,#163,.T.);
#487=EDGE_CURVE('',#401,#402,#372,.T.);
#488=EDGE_CURVE('',#400,#402,#164,.T.);
#489=EDGE_CURVE('',#403,#404,#55,.F.);
#490=EDGE_CURVE('',#402,#403,#165,.T.);
#491=EDGE_CURVE('',#404,#401,#373,.T.);
#492=EDGE_CURVE('',#405,#399,#166,.T.);
#493=EDGE_CURVE('',#405,#406,#167,.T.);
#494=EDGE_CURVE('',#407,#406,#168,.T.);
#495=EDGE_CURVE('',#399,#407,#169,.T.);
#496=EDGE_CURVE('',#408,#409,#374,.T.);
#497=EDGE_CURVE('',#410,#409,#170,.T.);
#498=EDGE_CURVE('',#410,#411,#375,.T.);
#499=EDGE_CURVE('',#408,#411,#171,.T.);
#500=EDGE_CURVE('',#412,#413,#56,.T.);
#501=EDGE_CURVE('',#411,#413,#376,.T.);
#502=EDGE_CURVE('',#412,#410,#172,.T.);
#503=EDGE_CURVE('',#414,#400,#173,.T.);
#504=EDGE_CURVE('',#405,#414,#174,.T.);
#505=EDGE_CURVE('',#415,#404,#175,.T.);
#506=EDGE_CURVE('',#416,#415,#176,.T.);
#507=EDGE_CURVE('',#417,#416,#177,.T.);
#508=EDGE_CURVE('',#418,#417,#377,.T.);
#509=EDGE_CURVE('',#419,#418,#178,.T.);
#510=EDGE_CURVE('',#419,#420,#179,.T.);
#511=EDGE_CURVE('',#420,#421,#378,.T.);
#512=EDGE_CURVE('',#421,#422,#180,.T.);
#513=EDGE_CURVE('',#423,#422,#379,.F.);
#514=EDGE_CURVE('',#423,#424,#181,.T.);
#515=EDGE_CURVE('',#425,#424,#380,.F.);
#516=EDGE_CURVE('',#425,#426,#182,.T.);
#517=EDGE_CURVE('',#427,#426,#381,.F.);
#518=EDGE_CURVE('',#428,#427,#183,.T.);
#519=EDGE_CURVE('',#429,#428,#184,.T.);
#520=EDGE_CURVE('',#414,#429,#185,.T.);
#521=EDGE_CURVE('',#430,#430,#382,.T.);
#522=EDGE_CURVE('',#409,#431,#186,.T.);
#523=EDGE_CURVE('',#432,#431,#187,.T.);
#524=EDGE_CURVE('',#433,#432,#188,.T.);
#525=EDGE_CURVE('',#434,#433,#189,.T.);
#526=EDGE_CURVE('',#435,#434,#383,.F.);
#527=EDGE_CURVE('',#435,#436,#190,.T.);
#528=EDGE_CURVE('',#437,#436,#384,.F.);
#529=EDGE_CURVE('',#437,#438,#191,.T.);
#530=EDGE_CURVE('',#439,#438,#385,.F.);
#531=EDGE_CURVE('',#439,#440,#192,.T.);
#532=EDGE_CURVE('',#440,#441,#386,.T.);
#533=EDGE_CURVE('',#441,#442,#193,.T.);
#534=EDGE_CURVE('',#443,#442,#194,.T.);
#535=EDGE_CURVE('',#444,#443,#387,.T.);
#536=EDGE_CURVE('',#445,#444,#195,.T.);
#537=EDGE_CURVE('',#446,#445,#196,.T.);
#538=EDGE_CURVE('',#413,#446,#197,.T.);
#539=EDGE_CURVE('',#447,#447,#388,.T.);
#540=EDGE_CURVE('',#448,#408,#198,.T.);
#541=EDGE_CURVE('',#431,#448,#199,.T.);
#542=EDGE_CURVE('',#449,#408,#200,.T.);
#543=EDGE_CURVE('',#450,#449,#201,.T.);
#544=EDGE_CURVE('',#450,#448,#202,.T.);
#545=EDGE_CURVE('',#448,#451,#203,.T.);
#546=EDGE_CURVE('',#432,#451,#204,.T.);
#547=EDGE_CURVE('',#452,#449,#205,.T.);
#548=EDGE_CURVE('',#453,#452,#206,.T.);
#549=EDGE_CURVE('',#453,#450,#207,.T.);
#550=EDGE_CURVE('',#406,#454,#208,.T.);
#551=EDGE_CURVE('',#455,#454,#209,.T.);
#552=EDGE_CURVE('',#407,#455,#210,.T.);
#553=EDGE_CURVE('',#429,#456,#211,.T.);
#554=EDGE_CURVE('',#456,#405,#212,.T.);
#555=EDGE_CURVE('',#457,#458,#389,.T.);
#556=EDGE_CURVE('',#458,#418,#213,.T.);
#557=EDGE_CURVE('',#417,#457,#214,.T.);
#558=EDGE_CURVE('',#459,#458,#215,.T.);
#559=EDGE_CURVE('',#459,#419,#216,.T.);
#560=EDGE_CURVE('',#457,#460,#217,.T.);
#561=EDGE_CURVE('',#460,#461,#218,.T.);
#562=EDGE_CURVE('',#461,#455,#219,.T.);
#563=EDGE_CURVE('',#454,#462,#220,.T.);
#564=EDGE_CURVE('',#462,#463,#221,.T.);
#565=EDGE_CURVE('',#463,#464,#222,.T.);
#566=EDGE_CURVE('',#464,#465,#223,.T.);
#567=EDGE_CURVE('',#465,#466,#390,.T.);
#568=EDGE_CURVE('',#466,#459,#224,.T.);
#569=EDGE_CURVE('',#467,#467,#391,.T.);
#570=EDGE_CURVE('',#443,#468,#225,.T.);
#571=EDGE_CURVE('',#468,#469,#392,.T.);
#572=EDGE_CURVE('',#469,#444,#226,.T.);
#573=EDGE_CURVE('',#470,#469,#227,.T.);
#574=EDGE_CURVE('',#470,#445,#228,.T.);
#575=EDGE_CURVE('',#468,#471,#229,.T.);
#576=EDGE_CURVE('',#471,#472,#230,.T.);
#577=EDGE_CURVE('',#472,#473,#393,.T.);
#578=EDGE_CURVE('',#473,#474,#231,.T.);
#579=EDGE_CURVE('',#474,#475,#232,.T.);
#580=EDGE_CURVE('',#475,#476,#233,.T.);
#581=EDGE_CURVE('',#476,#453,#234,.T.);
#582=EDGE_CURVE('',#452,#477,#235,.T.);
#583=EDGE_CURVE('',#470,#477,#236,.T.);
#584=EDGE_CURVE('',#478,#478,#394,.T.);
#585=EDGE_CURVE('',#422,#439,#237,.T.);
#586=EDGE_CURVE('',#438,#423,#238,.T.);
#587=EDGE_CURVE('',#421,#440,#239,.T.);
#588=EDGE_CURVE('',#426,#435,#240,.T.);
#589=EDGE_CURVE('',#434,#427,#241,.T.);
#590=EDGE_CURVE('',#436,#425,#242,.T.);
#591=EDGE_CURVE('',#424,#437,#243,.T.);
#592=EDGE_CURVE('',#479,#421,#395,.T.);
#593=EDGE_CURVE('',#479,#480,#244,.T.);
#594=EDGE_CURVE('',#440,#480,#396,.T.);
#595=EDGE_CURVE('',#428,#481,#245,.T.);
#596=EDGE_CURVE('',#481,#456,#246,.T.);
#597=EDGE_CURVE('',#456,#462,#247,.T.);
#598=EDGE_CURVE('',#481,#463,#248,.T.);
#599=EDGE_CURVE('',#466,#420,#249,.T.);
#600=EDGE_CURVE('',#482,#479,#250,.T.);
#601=EDGE_CURVE('',#465,#482,#251,.T.);
#602=EDGE_CURVE('',#479,#464,#252,.T.);
#603=EDGE_CURVE('',#421,#482,#397,.T.);
#604=EDGE_CURVE('',#430,#467,#253,.T.);
#605=EDGE_CURVE('',#416,#460,#254,.T.);
#606=EDGE_CURVE('',#415,#461,#255,.T.);
#607=EDGE_CURVE('',#480,#483,#256,.T.);
#608=EDGE_CURVE('',#483,#440,#398,.T.);
#609=EDGE_CURVE('',#451,#484,#257,.T.);
#610=EDGE_CURVE('',#484,#433,#258,.T.);
#611=EDGE_CURVE('',#475,#484,#259,.T.);
#612=EDGE_CURVE('',#474,#480,#260,.T.);
#613=EDGE_CURVE('',#442,#471,#261,.T.);
#614=EDGE_CURVE('',#441,#472,#262,.T.);
#615=EDGE_CURVE('',#483,#473,#263,.T.);
#616=EDGE_CURVE('',#478,#447,#264,.T.);
#617=EDGE_CURVE('',#477,#446,#265,.T.);
#618=EDGE_CURVE('',#476,#451,#266,.T.);
#619=ORIENTED_EDGE('',*,*,#485,.F.);
#620=ORIENTED_EDGE('',*,*,#486,.F.);
#621=ORIENTED_EDGE('',*,*,#487,.T.);
#622=ORIENTED_EDGE('',*,*,#488,.F.);
#623=ORIENTED_EDGE('',*,*,#489,.F.);
#624=ORIENTED_EDGE('',*,*,#490,.F.);
#625=ORIENTED_EDGE('',*,*,#487,.F.);
#626=ORIENTED_EDGE('',*,*,#491,.F.);
#627=ORIENTED_EDGE('',*,*,#492,.F.);
#628=ORIENTED_EDGE('',*,*,#493,.T.);
#629=ORIENTED_EDGE('',*,*,#494,.F.);
#630=ORIENTED_EDGE('',*,*,#495,.F.);
#631=ORIENTED_EDGE('',*,*,#496,.T.);
#632=ORIENTED_EDGE('',*,*,#497,.F.);
#633=ORIENTED_EDGE('',*,*,#498,.T.);
#634=ORIENTED_EDGE('',*,*,#499,.F.);
#635=ORIENTED_EDGE('',*,*,#500,.T.);
#636=ORIENTED_EDGE('',*,*,#501,.F.);
#637=ORIENTED_EDGE('',*,*,#498,.F.);
#638=ORIENTED_EDGE('',*,*,#502,.F.);
#639=ORIENTED_EDGE('',*,*,#503,.F.);
#640=ORIENTED_EDGE('',*,*,#504,.F.);
#641=ORIENTED_EDGE('',*,*,#492,.T.);
#642=ORIENTED_EDGE('',*,*,#485,.T.);
#643=ORIENTED_EDGE('',*,*,#488,.T.);
#644=ORIENTED_EDGE('',*,*,#490,.T.);
#645=ORIENTED_EDGE('',*,*,#489,.T.);
#646=ORIENTED_EDGE('',*,*,#505,.F.);
#647=ORIENTED_EDGE('',*,*,#506,.F.);
#648=ORIENTED_EDGE('',*,*,#507,.F.);
#649=ORIENTED_EDGE('',*,*,#508,.F.);
#650=ORIENTED_EDGE('',*,*,#509,.F.);
#651=ORIENTED_EDGE('',*,*,#510,.T.);
#652=ORIENTED_EDGE('',*,*,#511,.T.);
#653=ORIENTED_EDGE('',*,*,#512,.T.);
#654=ORIENTED_EDGE('',*,*,#513,.F.);
#655=ORIENTED_EDGE('',*,*,#514,.T.);
#656=ORIENTED_EDGE('',*,*,#515,.F.);
#657=ORIENTED_EDGE('',*,*,#516,.T.);
#658=ORIENTED_EDGE('',*,*,#517,.F.);
#659=ORIENTED_EDGE('',*,*,#518,.F.);
#660=ORIENTED_EDGE('',*,*,#519,.F.);
#661=ORIENTED_EDGE('',*,*,#520,.F.);
#662=ORIENTED_EDGE('',*,*,#503,.T.);
#663=ORIENTED_EDGE('',*,*,#521,.T.);
#664=ORIENTED_EDGE('',*,*,#500,.F.);
#665=ORIENTED_EDGE('',*,*,#502,.T.);
#666=ORIENTED_EDGE('',*,*,#497,.T.);
#667=ORIENTED_EDGE('',*,*,#522,.T.);
#668=ORIENTED_EDGE('',*,*,#523,.F.);
#669=ORIENTED_EDGE('',*,*,#524,.F.);
#670=ORIENTED_EDGE('',*,*,#525,.F.);
#671=ORIENTED_EDGE('',*,*,#526,.F.);
#672=ORIENTED_EDGE('',*,*,#527,.T.);
#673=ORIENTED_EDGE('',*,*,#528,.F.);
#674=ORIENTED_EDGE('',*,*,#529,.T.);
#675=ORIENTED_EDGE('',*,*,#530,.F.);
#676=ORIENTED_EDGE('',*,*,#531,.T.);
#677=ORIENTED_EDGE('',*,*,#532,.T.);
#678=ORIENTED_EDGE('',*,*,#533,.T.);
#679=ORIENTED_EDGE('',*,*,#534,.F.);
#680=ORIENTED_EDGE('',*,*,#535,.F.);
#681=ORIENTED_EDGE('',*,*,#536,.F.);
#682=ORIENTED_EDGE('',*,*,#537,.F.);
#683=ORIENTED_EDGE('',*,*,#538,.F.);
#684=ORIENTED_EDGE('',*,*,#539,.T.);
#685=ORIENTED_EDGE('',*,*,#540,.F.);
#686=ORIENTED_EDGE('',*,*,#541,.F.);
#687=ORIENTED_EDGE('',*,*,#522,.F.);
#688=ORIENTED_EDGE('',*,*,#496,.F.);
#689=ORIENTED_EDGE('',*,*,#540,.T.);
#690=ORIENTED_EDGE('',*,*,#542,.F.);
#691=ORIENTED_EDGE('',*,*,#543,.F.);
#692=ORIENTED_EDGE('',*,*,#544,.T.);
#693=ORIENTED_EDGE('',*,*,#541,.T.);
#694=ORIENTED_EDGE('',*,*,#545,.T.);
#695=ORIENTED_EDGE('',*,*,#546,.F.);
#696=ORIENTED_EDGE('',*,*,#523,.T.);
#697=ORIENTED_EDGE('',*,*,#543,.T.);
#698=ORIENTED_EDGE('',*,*,#547,.F.);
#699=ORIENTED_EDGE('',*,*,#548,.F.);
#700=ORIENTED_EDGE('',*,*,#549,.T.);
#701=ORIENTED_EDGE('',*,*,#494,.T.);
#702=ORIENTED_EDGE('',*,*,#550,.T.);
#703=ORIENTED_EDGE('',*,*,#551,.F.);
#704=ORIENTED_EDGE('',*,*,#552,.F.);
#705=ORIENTED_EDGE('',*,*,#504,.T.);
#706=ORIENTED_EDGE('',*,*,#520,.T.);
#707=ORIENTED_EDGE('',*,*,#553,.T.);
#708=ORIENTED_EDGE('',*,*,#554,.T.);
#709=ORIENTED_EDGE('',*,*,#555,.T.);
#710=ORIENTED_EDGE('',*,*,#556,.T.);
#711=ORIENTED_EDGE('',*,*,#508,.T.);
#712=ORIENTED_EDGE('',*,*,#557,.T.);
#713=ORIENTED_EDGE('',*,*,#556,.F.);
#714=ORIENTED_EDGE('',*,*,#558,.F.);
#715=ORIENTED_EDGE('',*,*,#559,.T.);
#716=ORIENTED_EDGE('',*,*,#509,.T.);
#717=ORIENTED_EDGE('',*,*,#555,.F.);
#718=ORIENTED_EDGE('',*,*,#560,.T.);
#719=ORIENTED_EDGE('',*,*,#561,.T.);
#720=ORIENTED_EDGE('',*,*,#562,.T.);
#721=ORIENTED_EDGE('',*,*,#551,.T.);
#722=ORIENTED_EDGE('',*,*,#563,.T.);
#723=ORIENTED_EDGE('',*,*,#564,.T.);
#724=ORIENTED_EDGE('',*,*,#565,.T.);
#725=ORIENTED_EDGE('',*,*,#566,.T.);
#726=ORIENTED_EDGE('',*,*,#567,.T.);
#727=ORIENTED_EDGE('',*,*,#568,.T.);
#728=ORIENTED_EDGE('',*,*,#558,.T.);
#729=ORIENTED_EDGE('',*,*,#569,.T.);
#730=ORIENTED_EDGE('',*,*,#535,.T.);
#731=ORIENTED_EDGE('',*,*,#570,.T.);
#732=ORIENTED_EDGE('',*,*,#571,.T.);
#733=ORIENTED_EDGE('',*,*,#572,.T.);
#734=ORIENTED_EDGE('',*,*,#572,.F.);
#735=ORIENTED_EDGE('',*,*,#573,.F.);
#736=ORIENTED_EDGE('',*,*,#574,.T.);
#737=ORIENTED_EDGE('',*,*,#536,.T.);
#738=ORIENTED_EDGE('',*,*,#571,.F.);
#739=ORIENTED_EDGE('',*,*,#575,.T.);
#740=ORIENTED_EDGE('',*,*,#576,.T.);
#741=ORIENTED_EDGE('',*,*,#577,.T.);
#742=ORIENTED_EDGE('',*,*,#578,.T.);
#743=ORIENTED_EDGE('',*,*,#579,.T.);
#744=ORIENTED_EDGE('',*,*,#580,.T.);
#745=ORIENTED_EDGE('',*,*,#581,.T.);
#746=ORIENTED_EDGE('',*,*,#548,.T.);
#747=ORIENTED_EDGE('',*,*,#582,.T.);
#748=ORIENTED_EDGE('',*,*,#583,.F.);
#749=ORIENTED_EDGE('',*,*,#573,.T.);
#750=ORIENTED_EDGE('',*,*,#584,.T.);
#751=ORIENTED_EDGE('',*,*,#513,.T.);
#752=ORIENTED_EDGE('',*,*,#585,.T.);
#753=ORIENTED_EDGE('',*,*,#530,.T.);
#754=ORIENTED_EDGE('',*,*,#586,.T.);
#755=ORIENTED_EDGE('',*,*,#585,.F.);
#756=ORIENTED_EDGE('',*,*,#512,.F.);
#757=ORIENTED_EDGE('',*,*,#587,.T.);
#758=ORIENTED_EDGE('',*,*,#531,.F.);
#759=ORIENTED_EDGE('',*,*,#517,.T.);
#760=ORIENTED_EDGE('',*,*,#588,.T.);
#761=ORIENTED_EDGE('',*,*,#526,.T.);
#762=ORIENTED_EDGE('',*,*,#589,.T.);
#763=ORIENTED_EDGE('',*,*,#588,.F.);
#764=ORIENTED_EDGE('',*,*,#516,.F.);
#765=ORIENTED_EDGE('',*,*,#590,.F.);
#766=ORIENTED_EDGE('',*,*,#527,.F.);
#767=ORIENTED_EDGE('',*,*,#515,.T.);
#768=ORIENTED_EDGE('',*,*,#591,.T.);
#769=ORIENTED_EDGE('',*,*,#528,.T.);
#770=ORIENTED_EDGE('',*,*,#590,.T.);
#771=ORIENTED_EDGE('',*,*,#586,.F.);
#772=ORIENTED_EDGE('',*,*,#529,.F.);
#773=ORIENTED_EDGE('',*,*,#591,.F.);
#774=ORIENTED_EDGE('',*,*,#514,.F.);
#775=ORIENTED_EDGE('',*,*,#592,.F.);
#776=ORIENTED_EDGE('',*,*,#593,.T.);
#777=ORIENTED_EDGE('',*,*,#594,.F.);
#778=ORIENTED_EDGE('',*,*,#587,.F.);
#779=ORIENTED_EDGE('',*,*,#519,.T.);
#780=ORIENTED_EDGE('',*,*,#595,.T.);
#781=ORIENTED_EDGE('',*,*,#596,.T.);
#782=ORIENTED_EDGE('',*,*,#553,.F.);
#783=ORIENTED_EDGE('',*,*,#554,.F.);
#784=ORIENTED_EDGE('',*,*,#597,.T.);
#785=ORIENTED_EDGE('',*,*,#563,.F.);
#786=ORIENTED_EDGE('',*,*,#550,.F.);
#787=ORIENTED_EDGE('',*,*,#493,.F.);
#788=ORIENTED_EDGE('',*,*,#596,.F.);
#789=ORIENTED_EDGE('',*,*,#598,.T.);
#790=ORIENTED_EDGE('',*,*,#564,.F.);
#791=ORIENTED_EDGE('',*,*,#597,.F.);
#792=ORIENTED_EDGE('',*,*,#568,.F.);
#793=ORIENTED_EDGE('',*,*,#599,.T.);
#794=ORIENTED_EDGE('',*,*,#510,.F.);
#795=ORIENTED_EDGE('',*,*,#559,.F.);
#796=ORIENTED_EDGE('',*,*,#600,.F.);
#797=ORIENTED_EDGE('',*,*,#601,.F.);
#798=ORIENTED_EDGE('',*,*,#566,.F.);
#799=ORIENTED_EDGE('',*,*,#602,.F.);
#800=ORIENTED_EDGE('',*,*,#592,.T.);
#801=ORIENTED_EDGE('',*,*,#603,.T.);
#802=ORIENTED_EDGE('',*,*,#600,.T.);
#803=ORIENTED_EDGE('',*,*,#521,.F.);
#804=ORIENTED_EDGE('',*,*,#604,.T.);
#805=ORIENTED_EDGE('',*,*,#569,.F.);
#806=ORIENTED_EDGE('',*,*,#604,.F.);
#807=ORIENTED_EDGE('',*,*,#599,.F.);
#808=ORIENTED_EDGE('',*,*,#567,.F.);
#809=ORIENTED_EDGE('',*,*,#601,.T.);
#810=ORIENTED_EDGE('',*,*,#603,.F.);
#811=ORIENTED_EDGE('',*,*,#511,.F.);
#812=ORIENTED_EDGE('',*,*,#557,.F.);
#813=ORIENTED_EDGE('',*,*,#507,.T.);
#814=ORIENTED_EDGE('',*,*,#605,.T.);
#815=ORIENTED_EDGE('',*,*,#560,.F.);
#816=ORIENTED_EDGE('',*,*,#506,.T.);
#817=ORIENTED_EDGE('',*,*,#606,.T.);
#818=ORIENTED_EDGE('',*,*,#561,.F.);
#819=ORIENTED_EDGE('',*,*,#605,.F.);
#820=ORIENTED_EDGE('',*,*,#486,.T.);
#821=ORIENTED_EDGE('',*,*,#495,.T.);
#822=ORIENTED_EDGE('',*,*,#552,.T.);
#823=ORIENTED_EDGE('',*,*,#562,.F.);
#824=ORIENTED_EDGE('',*,*,#606,.F.);
#825=ORIENTED_EDGE('',*,*,#505,.T.);
#826=ORIENTED_EDGE('',*,*,#491,.T.);
#827=ORIENTED_EDGE('',*,*,#594,.T.);
#828=ORIENTED_EDGE('',*,*,#607,.T.);
#829=ORIENTED_EDGE('',*,*,#608,.T.);
#830=ORIENTED_EDGE('',*,*,#609,.T.);
#831=ORIENTED_EDGE('',*,*,#610,.T.);
#832=ORIENTED_EDGE('',*,*,#524,.T.);
#833=ORIENTED_EDGE('',*,*,#546,.T.);
#834=ORIENTED_EDGE('',*,*,#525,.T.);
#835=ORIENTED_EDGE('',*,*,#610,.F.);
#836=ORIENTED_EDGE('',*,*,#611,.F.);
#837=ORIENTED_EDGE('',*,*,#579,.F.);
#838=ORIENTED_EDGE('',*,*,#612,.T.);
#839=ORIENTED_EDGE('',*,*,#593,.F.);
#840=ORIENTED_EDGE('',*,*,#602,.T.);
#841=ORIENTED_EDGE('',*,*,#565,.F.);
#842=ORIENTED_EDGE('',*,*,#598,.F.);
#843=ORIENTED_EDGE('',*,*,#595,.F.);
#844=ORIENTED_EDGE('',*,*,#518,.T.);
#845=ORIENTED_EDGE('',*,*,#589,.F.);
#846=ORIENTED_EDGE('',*,*,#613,.F.);
#847=ORIENTED_EDGE('',*,*,#533,.F.);
#848=ORIENTED_EDGE('',*,*,#614,.T.);
#849=ORIENTED_EDGE('',*,*,#576,.F.);
#850=ORIENTED_EDGE('',*,*,#612,.F.);
#851=ORIENTED_EDGE('',*,*,#578,.F.);
#852=ORIENTED_EDGE('',*,*,#615,.F.);
#853=ORIENTED_EDGE('',*,*,#607,.F.);
#854=ORIENTED_EDGE('',*,*,#584,.F.);
#855=ORIENTED_EDGE('',*,*,#616,.T.);
#856=ORIENTED_EDGE('',*,*,#539,.F.);
#857=ORIENTED_EDGE('',*,*,#616,.F.);
#858=ORIENTED_EDGE('',*,*,#614,.F.);
#859=ORIENTED_EDGE('',*,*,#532,.F.);
#860=ORIENTED_EDGE('',*,*,#608,.F.);
#861=ORIENTED_EDGE('',*,*,#615,.T.);
#862=ORIENTED_EDGE('',*,*,#577,.F.);
#863=ORIENTED_EDGE('',*,*,#501,.T.);
#864=ORIENTED_EDGE('',*,*,#538,.T.);
#865=ORIENTED_EDGE('',*,*,#617,.F.);
#866=ORIENTED_EDGE('',*,*,#582,.F.);
#867=ORIENTED_EDGE('',*,*,#547,.T.);
#868=ORIENTED_EDGE('',*,*,#542,.T.);
#869=ORIENTED_EDGE('',*,*,#499,.T.);
#870=ORIENTED_EDGE('',*,*,#537,.T.);
#871=ORIENTED_EDGE('',*,*,#574,.F.);
#872=ORIENTED_EDGE('',*,*,#583,.T.);
#873=ORIENTED_EDGE('',*,*,#617,.T.);
#874=ORIENTED_EDGE('',*,*,#570,.F.);
#875=ORIENTED_EDGE('',*,*,#534,.T.);
#876=ORIENTED_EDGE('',*,*,#613,.T.);
#877=ORIENTED_EDGE('',*,*,#575,.F.);
#878=ORIENTED_EDGE('',*,*,#609,.F.);
#879=ORIENTED_EDGE('',*,*,#618,.F.);
#880=ORIENTED_EDGE('',*,*,#580,.F.);
#881=ORIENTED_EDGE('',*,*,#611,.T.);
#882=ORIENTED_EDGE('',*,*,#544,.F.);
#883=ORIENTED_EDGE('',*,*,#549,.F.);
#884=ORIENTED_EDGE('',*,*,#581,.F.);
#885=ORIENTED_EDGE('',*,*,#618,.T.);
#886=ORIENTED_EDGE('',*,*,#545,.F.);
#887=CYLINDRICAL_SURFACE('',#963,2.);
#888=CYLINDRICAL_SURFACE('',#968,2.);
#889=CYLINDRICAL_SURFACE('',#993,1.5);
#890=CYLINDRICAL_SURFACE('',#999,1.5);
#891=CYLINDRICAL_SURFACE('',#1005,0.25);
#892=CYLINDRICAL_SURFACE('',#1007,0.25);
#893=CYLINDRICAL_SURFACE('',#1009,2.);
#894=CYLINDRICAL_SURFACE('',#1011,1.50414363346856);
#895=CYLINDRICAL_SURFACE('',#1021,2.);
#896=CYLINDRICAL_SURFACE('',#1022,1.5);
#897=CYLINDRICAL_SURFACE('',#1032,2.);
#898=CYLINDRICAL_SURFACE('',#1033,1.5);
#899=ADVANCED_FACE('',(#59),#887,.F.);
#900=ADVANCED_FACE('',(#60),#57,.T.);
#901=ADVANCED_FACE('',(#61),#19,.F.);
#902=ADVANCED_FACE('',(#62),#888,.F.);
#903=ADVANCED_FACE('',(#63),#58,.T.);
#904=ADVANCED_FACE('',(#64),#20,.F.);
#905=ADVANCED_FACE('',(#65,#15),#21,.F.);
#906=ADVANCED_FACE('',(#66,#16),#22,.F.);
#907=ADVANCED_FACE('',(#67),#23,.F.);
#908=ADVANCED_FACE('',(#68),#24,.F.);
#909=ADVANCED_FACE('',(#69),#25,.T.);
#910=ADVANCED_FACE('',(#70),#26,.T.);
#911=ADVANCED_FACE('',(#71),#27,.T.);
#912=ADVANCED_FACE('',(#72),#28,.T.);
#913=ADVANCED_FACE('',(#73),#889,.T.);
#914=ADVANCED_FACE('',(#74),#29,.T.);
#915=ADVANCED_FACE('',(#75,#17),#30,.T.);
#916=ADVANCED_FACE('',(#76),#890,.T.);
#917=ADVANCED_FACE('',(#77),#31,.T.);
#918=ADVANCED_FACE('',(#78,#18),#32,.T.);
#919=ADVANCED_FACE('',(#79),#891,.T.);
#920=ADVANCED_FACE('',(#80),#33,.T.);
#921=ADVANCED_FACE('',(#81),#892,.T.);
#922=ADVANCED_FACE('',(#82),#34,.T.);
#923=ADVANCED_FACE('',(#83),#893,.T.);
#924=ADVANCED_FACE('',(#84),#35,.T.);
#925=ADVANCED_FACE('',(#85),#894,.F.);
#926=ADVANCED_FACE('',(#86),#36,.T.);
#927=ADVANCED_FACE('',(#87),#37,.T.);
#928=ADVANCED_FACE('',(#88),#38,.T.);
#929=ADVANCED_FACE('',(#89),#39,.F.);
#930=ADVANCED_FACE('',(#90),#40,.F.);
#931=ADVANCED_FACE('',(#91),#41,.F.);
#932=ADVANCED_FACE('',(#92),#895,.F.);
#933=ADVANCED_FACE('',(#93),#896,.F.);
#934=ADVANCED_FACE('',(#94),#42,.T.);
#935=ADVANCED_FACE('',(#95),#43,.T.);
#936=ADVANCED_FACE('',(#96),#44,.T.);
#937=ADVANCED_FACE('',(#97),#45,.F.);
#938=ADVANCED_FACE('',(#98),#46,.T.);
#939=ADVANCED_FACE('',(#99),#47,.T.);
#940=ADVANCED_FACE('',(#100),#48,.F.);
#941=ADVANCED_FACE('',(#101),#49,.F.);
#942=ADVANCED_FACE('',(#102),#897,.F.);
#943=ADVANCED_FACE('',(#103),#898,.F.);
#944=ADVANCED_FACE('',(#104),#50,.T.);
#945=ADVANCED_FACE('',(#105),#51,.T.);
#946=ADVANCED_FACE('',(#106),#52,.T.);
#947=ADVANCED_FACE('',(#107),#53,.T.);
#948=ADVANCED_FACE('',(#108),#54,.T.);
#949=CLOSED_SHELL('',(#899,#900,#901,#902,#903,#904,#905,#906,#907,#908,
#909,#910,#911,#912,#913,#914,#915,#916,#917,#918,#919,#920,#921,#922,#923,
#924,#925,#926,#927,#928,#929,#930,#931,#932,#933,#934,#935,#936,#937,#938,
#939,#940,#941,#942,#943,#944,#945,#946,#947,#948));
#950=DERIVED_UNIT_ELEMENT(#952,1.);
#951=DERIVED_UNIT_ELEMENT(#1673,-3.);
#952=(
MASS_UNIT()
NAMED_UNIT(*)
SI_UNIT(.KILO.,.GRAM.)
);
#953=DERIVED_UNIT((#950,#951));
#954=MEASURE_REPRESENTATION_ITEM('density measure',
POSITIVE_RATIO_MEASURE(7800.),#953);
#955=PROPERTY_DEFINITION_REPRESENTATION(#960,#957);
#956=PROPERTY_DEFINITION_REPRESENTATION(#961,#958);
#957=REPRESENTATION('material name',(#959),#1670);
#958=REPRESENTATION('density',(#954),#1670);
#959=DESCRIPTIVE_REPRESENTATION_ITEM('Stainless Steel 17-4 PH',
'Stainless Steel 17-4 PH');
#960=PROPERTY_DEFINITION('material property','material name',#1680);
#961=PROPERTY_DEFINITION('material property','density of part',#1680);
#962=AXIS2_PLACEMENT_3D('',#1297,#1039,#1040);
#963=AXIS2_PLACEMENT_3D('',#1298,#1041,#1042);
#964=AXIS2_PLACEMENT_3D('',#1301,#1043,#1044);
#965=AXIS2_PLACEMENT_3D('',#1305,#1046,#1047);
#966=AXIS2_PLACEMENT_3D('',#1360,#1050,#1051);
#967=AXIS2_PLACEMENT_3D('',#1361,#1052,#1053);
#968=AXIS2_PLACEMENT_3D('',#1369,#1058,#1059);
#969=AXIS2_PLACEMENT_3D('',#1372,#1060,#1061);
#970=AXIS2_PLACEMENT_3D('',#1376,#1063,#1064);
#971=AXIS2_PLACEMENT_3D('',#1434,#1066,#1067);
#972=AXIS2_PLACEMENT_3D('',#1436,#1069,#1070);
#973=AXIS2_PLACEMENT_3D('',#1440,#1073,#1074);
#974=AXIS2_PLACEMENT_3D('',#1448,#1078,#1079);
#975=AXIS2_PLACEMENT_3D('',#1454,#1082,#1083);
#976=AXIS2_PLACEMENT_3D('',#1458,#1085,#1086);
#977=AXIS2_PLACEMENT_3D('',#1462,#1088,#1089);
#978=AXIS2_PLACEMENT_3D('',#1466,#1091,#1092);
#979=AXIS2_PLACEMENT_3D('',#1473,#1096,#1097);
#980=AXIS2_PLACEMENT_3D('',#1474,#1098,#1099);
#981=AXIS2_PLACEMENT_3D('',#1484,#1104,#1105);
#982=AXIS2_PLACEMENT_3D('',#1488,#1107,#1108);
#983=AXIS2_PLACEMENT_3D('',#1492,#1110,#1111);
#984=AXIS2_PLACEMENT_3D('',#1496,#1113,#1114);
#985=AXIS2_PLACEMENT_3D('',#1502,#1117,#1118);
#986=AXIS2_PLACEMENT_3D('',#1509,#1122,#1123);
#987=AXIS2_PLACEMENT_3D('',#1510,#1124,#1125);
#988=AXIS2_PLACEMENT_3D('',#1514,#1128,#1129);
#989=AXIS2_PLACEMENT_3D('',#1520,#1133,#1134);
#990=AXIS2_PLACEMENT_3D('',#1524,#1137,#1138);
#991=AXIS2_PLACEMENT_3D('',#1530,#1142,#1143);
#992=AXIS2_PLACEMENT_3D('',#1536,#1147,#1148);
#993=AXIS2_PLACEMENT_3D('',#1540,#1151,#1152);
#994=AXIS2_PLACEMENT_3D('',#1543,#1153,#1154);
#995=AXIS2_PLACEMENT_3D('',#1546,#1157,#1158);
#996=AXIS2_PLACEMENT_3D('',#1550,#1161,#1162);
#997=AXIS2_PLACEMENT_3D('',#1565,#1170,#1171);
#998=AXIS2_PLACEMENT_3D('',#1568,#1173,#1174);
#999=AXIS2_PLACEMENT_3D('',#1569,#1175,#1176);
#1000=AXIS2_PLACEMENT_3D('',#1573,#1178,#1179);
#1001=AXIS2_PLACEMENT_3D('',#1575,#1181,#1182);
#1002=AXIS2_PLACEMENT_3D('',#1579,#1185,#1186);
#1003=AXIS2_PLACEMENT_3D('',#1585,#1189,#1190);
#1004=AXIS2_PLACEMENT_3D('',#1597,#1197,#1198);
#1005=AXIS2_PLACEMENT_3D('',#1598,#1199,#1200);
#1006=AXIS2_PLACEMENT_3D('',#1601,#1203,#1204);
#1007=AXIS2_PLACEMENT_3D('',#1603,#1206,#1207);
#1008=AXIS2_PLACEMENT_3D('',#1606,#1210,#1211);
#1009=AXIS2_PLACEMENT_3D('',#1608,#1213,#1214);
#1010=AXIS2_PLACEMENT_3D('',#1610,#1216,#1217);
#1011=AXIS2_PLACEMENT_3D('',#1611,#1218,#1219);
#1012=AXIS2_PLACEMENT_3D('',#1613,#1220,#1221);
#1013=AXIS2_PLACEMENT_3D('',#1616,#1223,#1224);
#1014=AXIS2_PLACEMENT_3D('',#1617,#1225,#1226);
#1015=AXIS2_PLACEMENT_3D('',#1621,#1229,#1230);
#1016=AXIS2_PLACEMENT_3D('',#1623,#1232,#1233);
#1017=AXIS2_PLACEMENT_3D('',#1625,#1235,#1236);
#1018=AXIS2_PLACEMENT_3D('',#1627,#1238,#1239);
#1019=AXIS2_PLACEMENT_3D('',#1632,#1243,#1244);
#1020=AXIS2_PLACEMENT_3D('',#1633,#1245,#1246);
#1021=AXIS2_PLACEMENT_3D('',#1634,#1247,#1248);
#1022=AXIS2_PLACEMENT_3D('',#1636,#1250,#1251);
#1023=AXIS2_PLACEMENT_3D('',#1637,#1252,#1253);
#1024=AXIS2_PLACEMENT_3D('',#1639,#1255,#1256);
#1025=AXIS2_PLACEMENT_3D('',#1641,#1258,#1259);
#1026=AXIS2_PLACEMENT_3D('',#1642,#1260,#1261);
#1027=AXIS2_PLACEMENT_3D('',#1645,#1263,#1264);
#1028=AXIS2_PLACEMENT_3D('',#1646,#1265,#1266);
#1029=AXIS2_PLACEMENT_3D('',#1650,#1269,#1270);
#1030=AXIS2_PLACEMENT_3D('',#1653,#1273,#1274);
#1031=AXIS2_PLACEMENT_3D('',#1656,#1277,#1278);
#1032=AXIS2_PLACEMENT_3D('',#1658,#1280,#1281);
#1033=AXIS2_PLACEMENT_3D('',#1660,#1283,#1284);
#1034=AXIS2_PLACEMENT_3D('',#1661,#1285,#1286);
#1035=AXIS2_PLACEMENT_3D('',#1663,#1288,#1289);
#1036=AXIS2_PLACEMENT_3D('',#1664,#1290,#1291);
#1037=AXIS2_PLACEMENT_3D('',#1665,#1292,#1293);
#1038=AXIS2_PLACEMENT_3D('',#1667,#1295,#1296);
#1039=DIRECTION('axis',(0.,0.,1.));
#1040=DIRECTION('refdir',(1.,0.,0.));
#1041=DIRECTION('center_axis',(1.44804539225998E-16,1.,-2.89609078451998E-16));
#1042=DIRECTION('ref_axis',(-0.781009544222792,5.55111512312578E-16,0.624519088445588));
#1043=DIRECTION('center_axis',(0.,-1.,4.44089209850063E-16));
#1044=DIRECTION('ref_axis',(-0.781009544222792,5.55111512312578E-16,0.624519088445588));
#1045=DIRECTION('',(0.,-1.,3.62011348064997E-16));
#1046=DIRECTION('center_axis',(2.73447518764714E-16,1.,-5.46895037529431E-16));
#1047=DIRECTION('ref_axis',(-0.781009544222791,5.55111512312578E-16,0.624519088445588));
#1048=DIRECTION('',(0.,1.,-3.62011348064997E-16));
#1049=DIRECTION('',(0.,1.,-3.62011348064997E-16));
#1050=DIRECTION('center_axis',(0.,3.62011348064997E-16,1.));
#1051=DIRECTION('ref_axis',(-1.,0.,0.));
#1052=DIRECTION('center_axis',(-1.,0.,0.));
#1053=DIRECTION('ref_axis',(0.,1.,-3.70074341541719E-16));
#1054=DIRECTION('',(0.,-4.44089209850063E-16,-1.));
#1055=DIRECTION('',(0.,-1.,3.70074341541719E-16));
#1056=DIRECTION('',(0.,-0.258819045102521,0.965925826289068));
#1057=DIRECTION('',(0.,-1.,3.62011348064997E-16));
#1058=DIRECTION('center_axis',(1.44804540952203E-16,-1.,2.89609076150391E-16));
#1059=DIRECTION('ref_axis',(0.781009544601866,5.55111512312578E-16,0.624519087971525));
#1060=DIRECTION('center_axis',(0.,-1.,4.44089209850063E-16));
#1061=DIRECTION('ref_axis',(0.781009544601866,5.55111512312578E-16,0.624519087971525));
#1062=DIRECTION('',(0.,-1.,3.62011348064997E-16));
#1063=DIRECTION('center_axis',(-2.73447516834179E-16,1.,-5.46895033668358E-16));
#1064=DIRECTION('ref_axis',(0.0310095595030274,5.55111512312578E-16,0.999519087971525));
#1065=DIRECTION('',(0.,1.,-3.62011348064997E-16));
#1066=DIRECTION('center_axis',(0.,3.62011348064997E-16,1.));
#1067=DIRECTION('ref_axis',(2.22044604925031E-16,1.,0.));
#1068=DIRECTION('',(0.,-1.,3.62011348064997E-16));
#1069=DIRECTION('center_axis',(0.,1.,-4.44089209850063E-16));
#1070=DIRECTION('ref_axis',(1.,0.,0.));
#1071=DIRECTION('',(0.,-4.44089209850063E-16,-1.));
#1072=DIRECTION('',(0.707106781186548,-3.14018491736755E-16,-0.707106781186548));
#1073=DIRECTION('center_axis',(-1.,0.,0.));
#1074=DIRECTION('ref_axis',(0.,0.,1.));
#1075=DIRECTION('',(0.,-1.,3.62011348064997E-16));
#1076=DIRECTION('',(0.,-0.258819045102521,0.965925826289068));
#1077=DIRECTION('',(0.,-1.,0.));
#1078=DIRECTION('center_axis',(-1.,0.,0.));
#1079=DIRECTION('ref_axis',(0.,0.793353340291236,-0.60876142900872));
#1080=DIRECTION('',(0.,0.25881904510252,-0.965925826289069));
#1081=DIRECTION('',(0.,-1.,0.));
#1082=DIRECTION('center_axis',(-1.,0.,0.));
#1083=DIRECTION('ref_axis',(0.,1.,0.));
#1084=DIRECTION('',(0.,-0.787370647294938,0.616479897302703));
#1085=DIRECTION('center_axis',(-1.,0.,0.));
#1086=DIRECTION('ref_axis',(0.,-0.945349313030621,0.326059314163133));
#1087=DIRECTION('',(0.,1.,-1.11022302462516E-15));
#1088=DIRECTION('center_axis',(-1.,0.,0.));
#1089=DIRECTION('ref_axis',(0.,0.257705899346793,0.966223405554771));
#1090=DIRECTION('',(0.,0.867175338883722,-0.498002943396826));
#1091=DIRECTION('center_axis',(-1.,0.,0.));
#1092=DIRECTION('ref_axis',(0.,0.792651377166731,0.609675154714119));
#1093=DIRECTION('',(0.,0.25881904510252,-0.965925826289069));
#1094=DIRECTION('',(0.,0.971081374624591,-0.238748746294539));
#1095=DIRECTION('',(0.,1.,-3.70074341541719E-16));
#1096=DIRECTION('center_axis',(-1.,0.,0.));
#1097=DIRECTION('ref_axis',(0.,1.,0.));
#1098=DIRECTION('center_axis',(1.,0.,0.));
#1099=DIRECTION('ref_axis',(0.,0.,-1.));
#1100=DIRECTION('',(0.,4.44089209850063E-16,1.));
#1101=DIRECTION('',(0.,-1.,3.70074341541719E-16));
#1102=DIRECTION('',(0.,-0.971081374624591,0.238748746294539));
#1103=DIRECTION('',(0.,-0.25881904510252,0.965925826289069));
#1104=DIRECTION('center_axis',(1.,0.,0.));
#1105=DIRECTION('ref_axis',(0.,0.792651377166731,0.609675154714119));
#1106=DIRECTION('',(0.,-0.867175338883722,0.498002943396826));
#1107=DIRECTION('center_axis',(1.,0.,0.));
#1108=DIRECTION('ref_axis',(0.,0.257705899346793,0.966223405554771));
#1109=DIRECTION('',(0.,-1.,1.11022302462516E-15));
#1110=DIRECTION('center_axis',(1.,0.,0.));
#1111=DIRECTION('ref_axis',(0.,-0.945349313030621,0.326059314163133));
#1112=DIRECTION('',(0.,0.787370647294938,-0.616479897302703));
#1113=DIRECTION('center_axis',(1.,0.,0.));
#1114=DIRECTION('ref_axis',(0.,1.,0.));
#1115=DIRECTION('',(0.,1.,0.));
#1116=DIRECTION('',(0.,-0.25881904510252,0.965925826289069));
#1117=DIRECTION('center_axis',(1.,0.,0.));
#1118=DIRECTION('ref_axis',(0.,0.793353340291236,-0.60876142900872));
#1119=DIRECTION('',(0.,1.,0.));
#1120=DIRECTION('',(0.,0.258819045102521,-0.965925826289068));
#1121=DIRECTION('',(0.,1.,-3.62011348064997E-16));
#1122=DIRECTION('center_axis',(1.,0.,0.));
#1123=DIRECTION('ref_axis',(0.,1.,0.));
#1124=DIRECTION('center_axis',(0.,1.,-4.44089209850063E-16));
#1125=DIRECTION('ref_axis',(1.,0.,0.));
#1126=DIRECTION('',(0.,-4.44089209850063E-16,-1.));
#1127=DIRECTION('',(0.707106781186548,3.14018491736755E-16,0.707106781186547));
#1128=DIRECTION('center_axis',(1.,0.,0.));
#1129=DIRECTION('ref_axis',(0.,-1.,3.70074341541719E-16));
#1130=DIRECTION('',(0.,1.,-3.62011348064997E-16));
#1131=DIRECTION('',(0.,0.258819045102521,-0.965925826289068));
#1132=DIRECTION('',(0.,1.,-3.70074341541719E-16));
#1133=DIRECTION('center_axis',(-0.707106781186547,2.61682076447296E-16,
0.707106781186548));
#1134=DIRECTION('ref_axis',(0.707106781186548,0.,0.707106781186547));
#1135=DIRECTION('',(0.,1.,-3.70074341541719E-16));
#1136=DIRECTION('',(0.704527393042417,0.0853364219176769,0.704527393042417));
#1137=DIRECTION('center_axis',(0.,-0.965925826289068,-0.258819045102521));
#1138=DIRECTION('ref_axis',(0.,-0.258819045102521,0.965925826289068));
#1139=DIRECTION('',(-1.,0.,0.));
#1140=DIRECTION('',(0.,0.258819045102521,-0.965925826289068));
#1141=DIRECTION('',(-1.,0.,0.));
#1142=DIRECTION('center_axis',(0.,-0.965925826289068,-0.258819045102521));
#1143=DIRECTION('ref_axis',(0.,-0.258819045102521,0.965925826289068));
#1144=DIRECTION('',(-1.,0.,0.));
#1145=DIRECTION('',(0.,-0.258819045102521,0.965925826289068));
#1146=DIRECTION('',(-1.,0.,0.));
#1147=DIRECTION('center_axis',(0.707106781186548,2.61682076447296E-16,0.707106781186548));
#1148=DIRECTION('ref_axis',(0.707106781186548,0.,-0.707106781186548));
#1149=DIRECTION('',(-0.704527393042417,0.0853364219176774,0.704527393042417));
#1150=DIRECTION('',(0.,-1.,3.70074341541719E-16));
#1151=DIRECTION('center_axis',(-1.,0.,0.));
#1152=DIRECTION('ref_axis',(0.,0.793353340291236,-0.60876142900872));
#1153=DIRECTION('center_axis',(1.,0.,0.));
#1154=DIRECTION('ref_axis',(0.,0.793353340291236,-0.60876142900872));
#1155=DIRECTION('',(1.,0.,0.));
#1156=DIRECTION('',(-1.,0.,0.));
#1157=DIRECTION('center_axis',(0.,0.965925826289069,0.25881904510252));
#1158=DIRECTION('ref_axis',(0.,0.25881904510252,-0.965925826289069));
#1159=DIRECTION('',(0.,0.25881904510252,-0.965925826289069));
#1160=DIRECTION('',(1.,0.,0.));
#1161=DIRECTION('center_axis',(-1.,0.,0.));
#1162=DIRECTION('ref_axis',(0.,0.,1.));
#1163=DIRECTION('',(0.,-1.,0.));
#1164=DIRECTION('',(0.,-0.258819045102521,0.965925826289068));
#1165=DIRECTION('',(0.,-1.,3.62011348064997E-16));
#1166=DIRECTION('',(0.,1.,-3.70074341541719E-16));
#1167=DIRECTION('',(0.,0.971081374624591,-0.238748746294539));
#1168=DIRECTION('',(0.,0.25881904510252,-0.965925826289069));
#1169=DIRECTION('',(0.,-1.,0.));
#1170=DIRECTION('center_axis',(1.,0.,0.));
#1171=DIRECTION('ref_axis',(0.,1.,0.));
#1172=DIRECTION('',(0.,1.,0.));
#1173=DIRECTION('center_axis',(1.,0.,0.));
#1174=DIRECTION('ref_axis',(0.,1.,0.));
#1175=DIRECTION('center_axis',(-1.,0.,0.));
#1176=DIRECTION('ref_axis',(0.,0.793353340291236,-0.60876142900872));
#1177=DIRECTION('',(1.,0.,0.));
#1178=DIRECTION('center_axis',(-1.,0.,0.));
#1179=DIRECTION('ref_axis',(0.,0.793353340291236,-0.60876142900872));
#1180=DIRECTION('',(-1.,0.,0.));
#1181=DIRECTION('center_axis',(0.,0.,-1.));
#1182=DIRECTION('ref_axis',(0.,-1.,0.));
#1183=DIRECTION('',(0.,1.,0.));
#1184=DIRECTION('',(-1.,0.,0.));
#1185=DIRECTION('center_axis',(1.,0.,0.));
#1186=DIRECTION('ref_axis',(0.,1.,0.));
#1187=DIRECTION('',(0.,-0.25881904510252,0.965925826289069));
#1188=DIRECTION('',(0.,-1.,0.));
#1189=DIRECTION('center_axis',(-1.,0.,0.));
#1190=DIRECTION('ref_axis',(0.,1.,0.));
#1191=DIRECTION('',(0.,1.,0.));
#1192=DIRECTION('',(0.,-0.25881904510252,0.965925826289069));
#1193=DIRECTION('',(0.,-0.971081374624591,0.238748746294539));
#1194=DIRECTION('',(0.,-1.,3.70074341541719E-16));
#1195=DIRECTION('',(0.,1.,-3.62011348064997E-16));
#1196=DIRECTION('',(0.,-0.258819045102521,0.965925826289068));
#1197=DIRECTION('center_axis',(-1.,0.,0.));
#1198=DIRECTION('ref_axis',(0.,1.,0.));
#1199=DIRECTION('center_axis',(1.,0.,0.));
#1200=DIRECTION('ref_axis',(0.,-0.945349313030621,0.326059314163133));
#1201=DIRECTION('',(1.,0.,0.));
#1202=DIRECTION('',(-1.,0.,0.));
#1203=DIRECTION('center_axis',(0.,-0.616479897302703,-0.787370647294938));
#1204=DIRECTION('ref_axis',(0.,0.787370647294938,-0.616479897302703));
#1205=DIRECTION('',(1.,0.,0.));
#1206=DIRECTION('center_axis',(1.,0.,0.));
#1207=DIRECTION('ref_axis',(0.,0.792651377166731,0.609675154714119));
#1208=DIRECTION('',(1.,0.,0.));
#1209=DIRECTION('',(-1.,0.,0.));
#1210=DIRECTION('center_axis',(0.,0.498002943396826,0.867175338883722));
#1211=DIRECTION('ref_axis',(0.,-0.867175338883722,0.498002943396826));
#1212=DIRECTION('',(-1.,0.,0.));
#1213=DIRECTION('center_axis',(1.,0.,0.));
#1214=DIRECTION('ref_axis',(0.,0.257705899346793,0.966223405554771));
#1215=DIRECTION('',(1.,0.,0.));
#1216=DIRECTION('center_axis',(0.,1.11022302462516E-15,1.));
#1217=DIRECTION('ref_axis',(0.,-1.,1.11022302462516E-15));
#1218=DIRECTION('center_axis',(1.,0.,0.));
#1219=DIRECTION('ref_axis',(0.,0.0741755412230743,0.997245200080835));
#1220=DIRECTION('center_axis',(1.,0.,0.));
#1221=DIRECTION('ref_axis',(0.,0.0741755412230743,0.997245200080835));
#1222=DIRECTION('',(1.,0.,0.));
#1223=DIRECTION('center_axis',(-1.,0.,0.));
#1224=DIRECTION('ref_axis',(0.,0.0741755412230743,0.997245200080835));
#1225=DIRECTION('center_axis',(0.707106781186548,0.168820857504655,0.686658225081002));
#1226=DIRECTION('ref_axis',(0.696657523877786,0.,-0.717403857269023));
#1227=DIRECTION('',(-0.659015576606952,-0.194665384788611,0.726501106506046));
#1228=DIRECTION('',(0.,-0.971081374624591,0.238748746294539));
#1229=DIRECTION('center_axis',(0.,3.70074341541719E-16,1.));
#1230=DIRECTION('ref_axis',(0.,1.,-3.70074341541719E-16));
#1231=DIRECTION('',(-1.,0.,0.));
#1232=DIRECTION('center_axis',(0.,0.238748746294539,0.971081374624591));
#1233=DIRECTION('ref_axis',(0.,0.971081374624591,-0.238748746294539));
#1234=DIRECTION('',(-1.,0.,0.));
#1235=DIRECTION('center_axis',(0.,0.,-1.));
#1236=DIRECTION('ref_axis',(0.,-1.,0.));
#1237=DIRECTION('',(1.,0.,0.));
#1238=DIRECTION('center_axis',(0.,0.,1.));
#1239=DIRECTION('ref_axis',(0.,1.,0.));
#1240=DIRECTION('',(0.,1.,0.));
#1241=DIRECTION('',(1.,0.,0.));
#1242=DIRECTION('',(-1.,0.,0.));
#1243=DIRECTION('center_axis',(-1.,0.,0.));
#1244=DIRECTION('ref_axis',(0.,0.,1.));
#1245=DIRECTION('center_axis',(-1.,0.,0.));
#1246=DIRECTION('ref_axis',(0.,1.,0.));
#1247=DIRECTION('center_axis',(-1.,0.,0.));
#1248=DIRECTION('ref_axis',(0.,1.,0.));
#1249=DIRECTION('',(-1.,0.,0.));
#1250=DIRECTION('center_axis',(-1.,0.,0.));
#1251=DIRECTION('ref_axis',(0.,-1.,-1.22464679914735E-16));
#1252=DIRECTION('center_axis',(0.,0.,-1.));
#1253=DIRECTION('ref_axis',(0.,-1.,0.));
#1254=DIRECTION('',(-1.,0.,0.));
#1255=DIRECTION('center_axis',(0.,-0.965925826289068,-0.258819045102521));
#1256=DIRECTION('ref_axis',(0.,-0.258819045102521,0.965925826289068));
#1257=DIRECTION('',(-1.,0.,0.));
#1258=DIRECTION('center_axis',(0.,-3.62011348064997E-16,-1.));
#1259=DIRECTION('ref_axis',(0.,-1.,3.62011348064997E-16));
#1260=DIRECTION('center_axis',(1.,0.,0.));
#1261=DIRECTION('ref_axis',(0.,0.,-1.));
#1262=DIRECTION('',(0.,-1.,0.));
#1263=DIRECTION('center_axis',(1.,0.,0.));
#1264=DIRECTION('ref_axis',(0.,1.,0.));
#1265=DIRECTION('center_axis',(-0.707106781186548,0.168820857504655,0.686658225081003));
#1266=DIRECTION('ref_axis',(0.696657523877786,0.,0.717403857269022));
#1267=DIRECTION('',(0.,0.971081374624591,-0.238748746294539));
#1268=DIRECTION('',(-0.659015576606952,0.194665384788611,-0.726501106506045));
#1269=DIRECTION('center_axis',(0.,0.965925826289069,0.25881904510252));
#1270=DIRECTION('ref_axis',(0.,0.25881904510252,-0.965925826289069));
#1271=DIRECTION('',(-1.,0.,0.));
#1272=DIRECTION('',(-1.,0.,0.));
#1273=DIRECTION('center_axis',(0.,0.,-1.));
#1274=DIRECTION('ref_axis',(0.,-1.,0.));
#1275=DIRECTION('',(1.,0.,0.));
#1276=DIRECTION('',(1.,0.,0.));
#1277=DIRECTION('center_axis',(0.,0.,1.));
#1278=DIRECTION('ref_axis',(0.,1.,0.));
#1279=DIRECTION('',(1.,0.,0.));
#1280=DIRECTION('center_axis',(-1.,0.,0.));
#1281=DIRECTION('ref_axis',(0.,1.,0.));
#1282=DIRECTION('',(-1.,0.,0.));
#1283=DIRECTION('center_axis',(-1.,0.,0.));
#1284=DIRECTION('ref_axis',(0.,-1.,-1.22464679914735E-16));
#1285=DIRECTION('center_axis',(0.,-3.62011348064997E-16,-1.));
#1286=DIRECTION('ref_axis',(0.,-1.,3.62011348064997E-16));
#1287=DIRECTION('',(-1.,0.,0.));
#1288=DIRECTION('center_axis',(0.,-0.965925826289068,-0.258819045102521));
#1289=DIRECTION('ref_axis',(0.,-0.258819045102521,0.965925826289068));
#1290=DIRECTION('center_axis',(0.,0.965925826289069,0.25881904510252));
#1291=DIRECTION('ref_axis',(0.,0.25881904510252,-0.965925826289069));
#1292=DIRECTION('center_axis',(0.,0.238748746294539,0.971081374624591));
#1293=DIRECTION('ref_axis',(0.,0.971081374624591,-0.238748746294539));
#1294=DIRECTION('',(-1.,0.,0.));
#1295=DIRECTION('center_axis',(0.,3.70074341541719E-16,1.));
#1296=DIRECTION('ref_axis',(0.,1.,-3.70074341541719E-16));
#1297=CARTESIAN_POINT('',(0.,0.,0.));
#1298=CARTESIAN_POINT('Origin',(-13.4379809115544,-6.31767620683361,11.3079975648667));
#1299=CARTESIAN_POINT('',(-15.,-14.2707048273344,12.5570357417579));
#1300=CARTESIAN_POINT('',(-13.5,-14.2707048273344,13.3070357417579));
#1301=CARTESIAN_POINT('Origin',(-13.4379809115544,-14.2707048273344,11.3079975648667));
#1302=CARTESIAN_POINT('',(-15.,-9.27070482733445,12.5570357417579));
#1303=CARTESIAN_POINT('',(-15.,-6.31767620683361,12.5570357417579));
#1304=CARTESIAN_POINT('',(-13.5,-9.27070482733445,13.3070357417579));
#1305=CARTESIAN_POINT('Origin',(-13.4379809115544,-9.27070482733445,11.3079975648667));
#1306=CARTESIAN_POINT('',(-13.5,-15.8853524136672,13.3070357417579));
#1307=CARTESIAN_POINT('Ctrl Pts',(-13.5,-9.27070482733445,13.3070357417579));
#1308=CARTESIAN_POINT('Ctrl Pts',(-13.5,-9.18509296489747,13.3070357417579));
#1309=CARTESIAN_POINT('Ctrl Pts',(-13.5,-9.01197311246333,13.3070357417579));
#1310=CARTESIAN_POINT('Ctrl Pts',(-13.5,-8.74852959415936,13.3070357417579));
#1311=CARTESIAN_POINT('Ctrl Pts',(-13.5,-8.56793838792986,13.3070357417579));
#1312=CARTESIAN_POINT('Ctrl Pts',(-13.5,-8.49865578057181,13.3070357417579));
#1313=CARTESIAN_POINT('Ctrl Pts',(-13.5,-8.48176648404889,13.3070357417579));
#1314=CARTESIAN_POINT('Ctrl Pts',(-13.5,-8.47715303818492,13.3070357417579));
#1315=CARTESIAN_POINT('Ctrl Pts',(-13.5,-8.47639112808996,13.3070357417579));
#1316=CARTESIAN_POINT('Ctrl Pts',(-13.4999967666304,-8.47638941588344,13.3070373584427));
#1317=CARTESIAN_POINT('Ctrl Pts',(-14.0765667128254,-9.27070482733445,13.2891480683903));
#1318=CARTESIAN_POINT('Ctrl Pts',(-14.0765667128254,-9.13096304035323,13.2891480683903));
#1319=CARTESIAN_POINT('Ctrl Pts',(-14.053077525645,-8.84893932561886,13.2820455450128));
#1320=CARTESIAN_POINT('Ctrl Pts',(-13.9429308769936,-8.42170473651411,13.2555494323594));
#1321=CARTESIAN_POINT('Ctrl Pts',(-13.7828543128465,-8.11710650078488,13.2397909981347));
#1322=CARTESIAN_POINT('Ctrl Pts',(-13.6419799988765,-7.96022069248678,13.25985931914));
#1323=CARTESIAN_POINT('Ctrl Pts',(-13.5705374318074,-7.90022822999086,13.2799974049322));
#1324=CARTESIAN_POINT('Ctrl Pts',(-13.5300869079844,-7.87140173830713,13.2944666374864));
#1325=CARTESIAN_POINT('Ctrl Pts',(-13.5100285072928,-7.85867131654576,13.3026589829324));
#1326=CARTESIAN_POINT('Ctrl Pts',(-13.5,-7.85267247148645,13.3070357417579));
#1327=CARTESIAN_POINT('Ctrl Pts',(-14.6397498336107,-9.27070482733445,13.0075565079976));
#1328=CARTESIAN_POINT('Ctrl Pts',(-14.6397498336107,-9.0773933672582,13.0075565079976));
#1329=CARTESIAN_POINT('Ctrl Pts',(-14.5905496472426,-8.68722951467092,13.0013471279647));
#1330=CARTESIAN_POINT('Ctrl Pts',(-14.3586060354264,-8.09709294761251,12.97814035609));
#1331=CARTESIAN_POINT('Ctrl Pts',(-14.0221219568499,-7.66853772084856,12.9640777112214));
#1332=CARTESIAN_POINT('Ctrl Pts',(-13.712623518666,-7.42551431420291,12.9806609878035));
#1333=CARTESIAN_POINT('Ctrl Pts',(-13.5481932282504,-7.32396118458989,12.9974528741175));
#1334=CARTESIAN_POINT('Ctrl Pts',(-13.452512688742,-7.27215474857915,13.0095315670227));
#1335=CARTESIAN_POINT('Ctrl Pts',(-13.4041028202899,-7.24817864436963,13.016368491975));
#1336=CARTESIAN_POINT('Ctrl Pts',(-13.3796233803,-7.23659231589316,13.0200212588351));
#1337=CARTESIAN_POINT('Ctrl Pts',(-15.,-9.27070482733445,12.5570357417579));
#1338=CARTESIAN_POINT('Ctrl Pts',(-15.,-9.04252357816818,12.5570357417579));
#1339=CARTESIAN_POINT('Ctrl Pts',(-14.9357901555877,-8.58091371980919,12.5570357417579));
#1340=CARTESIAN_POINT('Ctrl Pts',(-14.6256016133659,-7.87301381656413,12.5570357417579));
#1341=CARTESIAN_POINT('Ctrl Pts',(-14.1491699656696,-7.34690396983858,12.5570357417579));
#1342=CARTESIAN_POINT('Ctrl Pts',(-13.6877909602645,-7.06159543382026,12.5570357417579));
#1343=CARTESIAN_POINT('Ctrl Pts',(-13.439996533561,-6.95189239395432,12.5570357417579));
#1344=CARTESIAN_POINT('Ctrl Pts',(-13.2954677774264,-6.89973608199328,12.5570357417579));
#1345=CARTESIAN_POINT('Ctrl Pts',(-13.2223729318596,-6.87703566952108,12.5570357417579));
#1346=CARTESIAN_POINT('Ctrl Pts',(-13.1854428255481,-6.86650680452005,12.5570357417579));
#1347=CARTESIAN_POINT('',(-13.5,-8.47639112808996,13.3070357417579));
#1348=CARTESIAN_POINT('',(-13.5,-6.97941697985653,12.5570357417579));
#1349=CARTESIAN_POINT('Ctrl Pts',(-13.5,-6.97941697985653,12.5570357417579));
#1350=CARTESIAN_POINT('Ctrl Pts',(-13.5,-7.13228485509048,12.7593159159258));
#1351=CARTESIAN_POINT('Ctrl Pts',(-13.5,-7.32391242233495,12.9291028657752));
#1352=CARTESIAN_POINT('Ctrl Pts',(-13.5,-7.68094818497879,13.135419252038));
#1353=CARTESIAN_POINT('Ctrl Pts',(-13.500000000007,-7.82803685081161,13.1971980777749));
#1354=CARTESIAN_POINT('Ctrl Pts',(-13.500000000007,-8.14066084988068,13.2837677294162));
#1355=CARTESIAN_POINT('Ctrl Pts',(-13.5,-8.30534982463217,13.3065287651867));
#1356=CARTESIAN_POINT('Ctrl Pts',(-13.5,-8.47268616420439,13.307032950786));
#1357=CARTESIAN_POINT('Ctrl Pts',(-13.5,-8.47453864565016,13.3070357417579));
#1358=CARTESIAN_POINT('Ctrl Pts',(-13.5,-8.47639112808996,13.3070357417579));
#1359=CARTESIAN_POINT('',(-13.5,-15.8853524136672,13.3070357417579));
#1360=CARTESIAN_POINT('Origin',(-12.5,-9.27070482733445,12.5570357417579));
#1361=CARTESIAN_POINT('Origin',(-15.,-16.7707048273344,16.8070357417579));
#1362=CARTESIAN_POINT('',(-15.,-14.2707048273344,16.8070357417579));
#1363=CARTESIAN_POINT('',(-15.,-14.2707048273344,16.8070357417579));
#1364=CARTESIAN_POINT('',(-15.,-16.7707048273344,16.8070357417579));
#1365=CARTESIAN_POINT('',(-15.,-18.3853524136672,16.8070357417579));
#1366=CARTESIAN_POINT('',(-15.,-15.6319207595022,12.5570357417579));
#1367=CARTESIAN_POINT('',(-15.,-16.2013127934183,14.6820357417579));
#1368=CARTESIAN_POINT('',(-15.,-6.31767620683361,12.5570357417579));
#1369=CARTESIAN_POINT('Origin',(-3.56201911900606,-8.81767620683361,11.3079975658148));
#1370=CARTESIAN_POINT('',(-2.00000002980232,-14.2707048273344,12.5570357417579));
#1371=CARTESIAN_POINT('',(-3.5,-14.2707048273344,13.3070357417579));
#1372=CARTESIAN_POINT('Origin',(-3.56201911900606,-14.2707048273344,11.3079975658148));
#1373=CARTESIAN_POINT('',(-3.5,-9.27070482733445,13.3070357417579));
#1374=CARTESIAN_POINT('',(-3.5,-15.8853524136672,13.3070357417579));
#1375=CARTESIAN_POINT('',(-2.,-9.27070482733445,12.5570357417579));
#1376=CARTESIAN_POINT('Origin',(-3.56201911900606,-9.27070482733445,11.3079975658148));
#1377=CARTESIAN_POINT('',(-2.00000002980232,-8.81767620683361,12.5570357417579));
#1378=CARTESIAN_POINT('Ctrl Pts',(-2.,-9.27070482733445,12.5570357417579));
#1379=CARTESIAN_POINT('Ctrl Pts',(-2.,-8.96609807097473,12.5570357417579));
#1380=CARTESIAN_POINT('Ctrl Pts',(-2.11188440681524,-8.35562705412632,12.5570357417579));
#1381=CARTESIAN_POINT('Ctrl Pts',(-2.50099585648122,-7.72152770509502,12.5570357417579));
#1382=CARTESIAN_POINT('Ctrl Pts',(-2.89290182763159,-7.34512687482791,12.5570357417579));
#1383=CARTESIAN_POINT('Ctrl Pts',(-3.14600162370666,-7.16233839199232,12.5570357417579));
#1384=CARTESIAN_POINT('Ctrl Pts',(-3.38083851036104,-7.03124188906062,12.5570357417579));
#1385=CARTESIAN_POINT('Ctrl Pts',(-3.55806708572078,-6.9526396361409,12.5570357417579));
#1386=CARTESIAN_POINT('Ctrl Pts',(-3.70361812270734,-6.90000270501181,12.5570357417579));
#1387=CARTESIAN_POINT('Ctrl Pts',(-3.77745439647556,-6.87708489864144,12.5570357417579));
#1388=CARTESIAN_POINT('Ctrl Pts',(-3.81455717445191,-6.86650680452005,12.5570357417579));
#1389=CARTESIAN_POINT('Ctrl Pts',(-2.36025016638926,-9.27070482733445,13.0075565079977));
#1390=CARTESIAN_POINT('Ctrl Pts',(-2.36025016638926,-9.01264691488045,13.0075565079977));
#1391=CARTESIAN_POINT('Ctrl Pts',(-2.44694361719842,-8.49676165520181,12.9961073180167));
#1392=CARTESIAN_POINT('Ctrl Pts',(-2.73231686643485,-7.97447604994288,12.9721062906952));
#1393=CARTESIAN_POINT('Ctrl Pts',(-3.00418938778625,-7.66517217944655,12.9689189167308));
#1394=CARTESIAN_POINT('Ctrl Pts',(-3.17597509210904,-7.51173474863427,12.9743076331669));
#1395=CARTESIAN_POINT('Ctrl Pts',(-3.33293022249828,-7.39738133933827,12.9853359438572));
#1396=CARTESIAN_POINT('Ctrl Pts',(-3.45052247372387,-7.32467870633539,12.9973058259425));
#1397=CARTESIAN_POINT('Ctrl Pts',(-3.54688536115119,-7.27243777602943,13.009446929023));
#1398=CARTESIAN_POINT('Ctrl Pts',(-3.59578272280538,-7.24823281780229,13.0163514129737));
#1399=CARTESIAN_POINT('Ctrl Pts',(-3.62037661969997,-7.23659231589316,13.0200212588351));
#1400=CARTESIAN_POINT('Ctrl Pts',(-2.92343328717463,-9.27070482733445,13.2891480683903));
#1401=CARTESIAN_POINT('Ctrl Pts',(-2.92343328717463,-9.08415885733997,13.2891480683903));
#1402=CARTESIAN_POINT('Ctrl Pts',(-2.96455472846504,-8.71106111106108,13.2760553155312));
#1403=CARTESIAN_POINT('Ctrl Pts',(-3.10061560098745,-8.33346571917899,13.2486908176508));
#1404=CARTESIAN_POINT('Ctrl Pts',(-3.22844493458559,-8.1179000361302,13.2455133907908));
#1405=CARTESIAN_POINT('Ctrl Pts',(-3.30748201365515,-8.01560703016298,13.252178326719));
#1406=CARTESIAN_POINT('Ctrl Pts',(-3.37778482557327,-7.94361416375495,13.2654662841464));
#1407=CARTESIAN_POINT('Ctrl Pts',(-3.42891583194492,-7.90063068971326,13.2798199569916));
#1408=CARTESIAN_POINT('Ctrl Pts',(-3.46966032765417,-7.8715492983085,13.2943652508024));
#1409=CARTESIAN_POINT('Ctrl Pts',(-3.48992460307636,-7.85869936495035,13.3026385188095));
#1410=CARTESIAN_POINT('Ctrl Pts',(-3.5,-7.85267247148645,13.3070357417579));
#1411=CARTESIAN_POINT('Ctrl Pts',(-3.5,-9.27070482733445,13.3070357417579));
#1412=CARTESIAN_POINT('Ctrl Pts',(-3.5,-9.15641869813608,13.3070357417579));
#1413=CARTESIAN_POINT('Ctrl Pts',(-3.5,-8.92705062616909,13.3070357417579));
#1414=CARTESIAN_POINT('Ctrl Pts',(-3.5,-8.69451118099547,13.3070357417579));
#1415=CARTESIAN_POINT('Ctrl Pts',(-3.5,-8.5731005110408,13.3070357417579));
#1416=CARTESIAN_POINT('Ctrl Pts',(-3.5,-8.52264440915645,13.3070357417579));
#1417=CARTESIAN_POINT('Ctrl Pts',(-3.5,-8.49399550817835,13.3070357417579));
#1418=CARTESIAN_POINT('Ctrl Pts',(-3.5,-8.4818471989349,13.3070357417579));
#1419=CARTESIAN_POINT('Ctrl Pts',(-3.5,-8.47715479713686,13.3070357417579));
#1420=CARTESIAN_POINT('Ctrl Pts',(-3.5,-8.47639112808996,13.3070357417579));
#1421=CARTESIAN_POINT('Ctrl Pts',(-3.50000323336961,-8.47638941588344,13.3070373584427));
#1422=CARTESIAN_POINT('',(-3.5,-8.47639112808996,13.3070357417579));
#1423=CARTESIAN_POINT('',(-3.5,-6.97941697985653,12.5570357417579));
#1424=CARTESIAN_POINT('Ctrl Pts',(-3.5,-8.47639112808996,13.3070357417579));
#1425=CARTESIAN_POINT('Ctrl Pts',(-3.5,-8.47454337701157,13.3070357417579));
#1426=CARTESIAN_POINT('Ctrl Pts',(-3.5,-8.47269562691885,13.3070329650244));
#1427=CARTESIAN_POINT('Ctrl Pts',(-3.5,-8.30536253402657,13.3065300768169));
#1428=CARTESIAN_POINT('Ctrl Pts',(-3.4999999999938,-8.14067192433877,13.2837698971159));
#1429=CARTESIAN_POINT('Ctrl Pts',(-3.4999999999938,-7.82804810193166,13.1972020562518));
#1430=CARTESIAN_POINT('Ctrl Pts',(-3.5,-7.68096100133283,13.1354250847026));
#1431=CARTESIAN_POINT('Ctrl Pts',(-3.5,-7.32392061403204,12.9291101090926));
#1432=CARTESIAN_POINT('Ctrl Pts',(-3.5,-7.13228813589834,12.7593202572067));
#1433=CARTESIAN_POINT('Ctrl Pts',(-3.5,-6.97941697985653,12.5570357417579));
#1434=CARTESIAN_POINT('Origin',(-4.5,-9.27070482733445,12.5570357417579));
#1435=CARTESIAN_POINT('',(-3.5,-15.8853524136672,13.3070357417579));
#1436=CARTESIAN_POINT('Origin',(-15.,-14.2707048273344,16.8070357417579));
#1437=CARTESIAN_POINT('',(-13.5,-14.2707048273344,15.3070357417579));
#1438=CARTESIAN_POINT('',(-13.5,-14.2707048273345,5.67218272446049));
#1439=CARTESIAN_POINT('',(-14.625,-14.2707048273344,16.4320357417579));
#1440=CARTESIAN_POINT('Origin',(-13.5,-20.,-5.46267029283692));
#1441=CARTESIAN_POINT('',(-13.5,-3.36464758633277,12.5570357417579));
#1442=CARTESIAN_POINT('',(-13.5,-11.6823237931664,12.5570357417579));
#1443=CARTESIAN_POINT('',(-13.5,0.,0.));
#1444=CARTESIAN_POINT('',(-13.5,0.0129608055268071,-0.0483703847330685));
#1445=CARTESIAN_POINT('',(-13.5,8.91556183504406,0.));
#1446=CARTESIAN_POINT('',(-13.5,-4.56480005284706,0.));
#1447=CARTESIAN_POINT('',(-13.5,10.3644505744777,1.88822856765378));
#1448=CARTESIAN_POINT('Origin',(-13.5,8.91556183504406,1.5));
#1449=CARTESIAN_POINT('',(-13.5,8.45885716242578,9.));
#1450=CARTESIAN_POINT('',(-13.5,8.4487189798772,9.0378362123677));
#1451=CARTESIAN_POINT('',(-13.5,7.53929528357404,9.));
#1452=CARTESIAN_POINT('',(-13.5,-3.49999990314245,9.));
#1453=CARTESIAN_POINT('',(-13.5,6.03929528357408,10.5));
#1454=CARTESIAN_POINT('Origin',(-13.5,7.53929528357404,10.5));
#1455=CARTESIAN_POINT('',(-13.5,2.06694395585905,13.6101930799342));
#1456=CARTESIAN_POINT('',(-13.5,-0.429673074149916,15.5649449055856));
#1457=CARTESIAN_POINT('',(-13.5,2.22106393018472,14.0570357417579));
#1458=CARTESIAN_POINT('Origin',(-13.5,2.22106393018472,13.8070357417579));
#1459=CARTESIAN_POINT('',(-13.5,4.96280545866303,14.0570357417579));
#1460=CARTESIAN_POINT('',(-13.5,-7.25188266008747,14.0570357417579));
#1461=CARTESIAN_POINT('',(-13.5,5.95881134545668,13.7913864195253));
#1462=CARTESIAN_POINT('Origin',(-13.5,4.96280545866302,12.0570357417579));
#1463=CARTESIAN_POINT('',(-13.5,7.30609879749672,13.0176638669661));
#1464=CARTESIAN_POINT('',(-13.5,1.0745665631901,16.5963189040796));
#1465=CARTESIAN_POINT('',(-13.5,7.42307951821978,12.8655747935208));
#1466=CARTESIAN_POINT('Origin',(-13.5,7.18159806164752,12.8008700322451));
#1467=CARTESIAN_POINT('',(-13.5,7.17237738126268,13.8012079062108));
#1468=CARTESIAN_POINT('',(-13.5,8.4487189798772,9.0378362123677));
#1469=CARTESIAN_POINT('',(-13.5,1.04760651990254,15.3070357417579));
#1470=CARTESIAN_POINT('',(-13.5,-6.55687639645113,17.1766635710421));
#1471=CARTESIAN_POINT('',(-13.5,-18.3853524136672,15.3070357417579));
#1472=CARTESIAN_POINT('',(-13.5,1.85489523455201,3.));
#1473=CARTESIAN_POINT('Origin',(-13.5,3.85489523455201,3.));
#1474=CARTESIAN_POINT('Origin',(-3.5,-20.,21.0000003129244));
#1475=CARTESIAN_POINT('',(-3.5,-14.2707048273344,15.3070357417579));
#1476=CARTESIAN_POINT('',(-3.5,-14.2707048273344,18.9035180273411));
#1477=CARTESIAN_POINT('',(-3.5,1.04760651990254,15.3070357417579));
#1478=CARTESIAN_POINT('',(-3.5,-18.3853524136672,15.3070357417579));
#1479=CARTESIAN_POINT('',(-3.5,7.17237738126268,13.8012079062108));
#1480=CARTESIAN_POINT('',(-3.5,-9.62448819463877,17.9308624364243));
#1481=CARTESIAN_POINT('',(-3.5,7.42307951821978,12.8655747935208));
#1482=CARTESIAN_POINT('',(-3.5,5.14088515415705,21.3828401129503));
#1483=CARTESIAN_POINT('',(-3.5,7.30609879749672,13.0176638669661));
#1484=CARTESIAN_POINT('Origin',(-3.5,7.18159806164752,12.8008700322451));
#1485=CARTESIAN_POINT('',(-3.5,5.95881134545668,13.7913864195253));
#1486=CARTESIAN_POINT('',(-3.5,-4.63946327124399,19.87778177394));
#1487=CARTESIAN_POINT('',(-3.5,4.96280545866302,14.0570357417579));
#1488=CARTESIAN_POINT('Origin',(-3.5,4.96280545866302,12.0570357417579));
#1489=CARTESIAN_POINT('',(-3.5,2.22106393018472,14.0570357417579));
#1490=CARTESIAN_POINT('',(-3.5,-7.25188266008749,14.0570357417579));
#1491=CARTESIAN_POINT('',(-3.5,2.06694395585905,13.6101930799342));
#1492=CARTESIAN_POINT('Origin',(-3.5,2.22106393018472,13.8070357417579));
#1493=CARTESIAN_POINT('',(-3.5,6.03929528357408,10.5));
#1494=CARTESIAN_POINT('',(-3.5,-6.85213909334862,20.5934803298463));
#1495=CARTESIAN_POINT('',(-3.5,7.53929528357404,9.));
#1496=CARTESIAN_POINT('Origin',(-3.5,7.53929528357404,10.5));
#1497=CARTESIAN_POINT('',(-3.5,8.45885716242578,9.));
#1498=CARTESIAN_POINT('',(-3.5,-3.49999990314245,9.));
#1499=CARTESIAN_POINT('',(-3.5,10.3644505744777,1.88822856765378));
#1500=CARTESIAN_POINT('',(-3.5,5.14088515415705,21.3828401129503));
#1501=CARTESIAN_POINT('',(-3.5,8.91556183504406,0.));
#1502=CARTESIAN_POINT('Origin',(-3.5,8.91556183504406,1.5));
#1503=CARTESIAN_POINT('',(-3.5,0.,0.));
#1504=CARTESIAN_POINT('',(-3.5,-4.56480005284706,0.));
#1505=CARTESIAN_POINT('',(-3.5,-3.36464758633277,12.5570357417579));
#1506=CARTESIAN_POINT('',(-3.5,-3.29487302019336,12.2966335158495));
#1507=CARTESIAN_POINT('',(-3.5,-11.6823237931664,12.5570357417579));
#1508=CARTESIAN_POINT('',(-3.5,1.85489523455201,3.));
#1509=CARTESIAN_POINT('Origin',(-3.5,3.85489523455201,3.));
#1510=CARTESIAN_POINT('Origin',(-15.,-14.2707048273344,16.8070357417579));
#1511=CARTESIAN_POINT('',(-2.00000002980232,-14.2707048273344,16.8070357417579));
#1512=CARTESIAN_POINT('',(-2.00000002980232,-14.2707048273344,16.8070357417579));
#1513=CARTESIAN_POINT('',(-5.625,-14.2707048273345,13.1820357417579));
#1514=CARTESIAN_POINT('Origin',(-2.00000002980232,-14.2707048273344,16.8070357417579));
#1515=CARTESIAN_POINT('',(-2.00000002980232,-15.6319207595022,12.5570357417579));
#1516=CARTESIAN_POINT('',(-2.00000002980232,-8.81767620683361,12.5570357417579));
#1517=CARTESIAN_POINT('',(-2.,-16.7707048273344,16.8070357417579));
#1518=CARTESIAN_POINT('',(-2.00000002980232,-16.1175786707836,14.3695357417579));
#1519=CARTESIAN_POINT('',(-2.,-18.3853524136672,16.8070357417579));
#1520=CARTESIAN_POINT('Origin',(-2.75,-18.3853524136672,16.0570357417579));
#1521=CARTESIAN_POINT('',(-2.,1.22929517266555,16.8070357417579));
#1522=CARTESIAN_POINT('',(-2.,-18.3853524136672,16.8070357417579));
#1523=CARTESIAN_POINT('',(-3.5,1.04760651990254,15.3070357417579));
#1524=CARTESIAN_POINT('Origin',(0.,-15.6319207595022,12.5570357417579));
#1525=CARTESIAN_POINT('',(0.,-15.6319207595022,12.5570357417579));
#1526=CARTESIAN_POINT('',(0.,-15.6319207595022,12.5570357417579));
#1527=CARTESIAN_POINT('',(0.,-16.7707048273344,16.8070357417579));
#1528=CARTESIAN_POINT('',(0.,-16.7707048273344,16.8070357417579));
#1529=CARTESIAN_POINT('',(0.,-16.7707048273344,16.8070357417579));
#1530=CARTESIAN_POINT('Origin',(0.,-15.6319207595022,12.5570357417579));
#1531=CARTESIAN_POINT('',(-17.,-16.7707048273344,16.8070357417579));
#1532=CARTESIAN_POINT('',(0.,-16.7707048273344,16.8070357417579));
#1533=CARTESIAN_POINT('',(-17.,-15.6319207595022,12.5570357417579));
#1534=CARTESIAN_POINT('',(-17.,-16.7707048273344,16.8070357417579));
#1535=CARTESIAN_POINT('',(0.,-15.6319207595022,12.5570357417579));
#1536=CARTESIAN_POINT('Origin',(-14.25,-18.3853524136672,16.0570357417579));
#1537=CARTESIAN_POINT('',(-15.,1.22929517266555,16.8070357417579));
#1538=CARTESIAN_POINT('',(-13.5,1.04760651990254,15.3070357417579));
#1539=CARTESIAN_POINT('',(-15.,-18.3853524136672,16.8070357417579));
#1540=CARTESIAN_POINT('Origin',(0.,8.91556183504406,1.5));
#1541=CARTESIAN_POINT('',(-17.,8.91556183504406,0.));
#1542=CARTESIAN_POINT('',(-17.,10.3644505744777,1.88822856765378));
#1543=CARTESIAN_POINT('Origin',(-17.,8.91556183504406,1.5));
#1544=CARTESIAN_POINT('',(0.,10.3644505744777,1.88822856765378));
#1545=CARTESIAN_POINT('',(0.,8.91556183504406,0.));
#1546=CARTESIAN_POINT('Origin',(0.,6.72929517266556,15.4548132206251));
#1547=CARTESIAN_POINT('',(-17.,8.45885716242578,9.));
#1548=CARTESIAN_POINT('',(-17.,10.8703998943059,0.));
#1549=CARTESIAN_POINT('',(0.,8.45885716242578,9.));
#1550=CARTESIAN_POINT('Origin',(-17.,-2.95015246651429,8.40351787087895));
#1551=CARTESIAN_POINT('',(-17.,0.,0.));
#1552=CARTESIAN_POINT('',(-17.,0.,0.));
#1553=CARTESIAN_POINT('',(-17.,-3.36464758633277,12.5570357417579));
#1554=CARTESIAN_POINT('',(-17.,0.,0.));
#1555=CARTESIAN_POINT('',(-17.,-15.6319207595022,12.5570357417579));
#1556=CARTESIAN_POINT('',(-17.,1.22929517266555,16.8070357417579));
#1557=CARTESIAN_POINT('',(-17.,1.22929517266555,16.8070357417579));
#1558=CARTESIAN_POINT('',(-17.,6.72929517266556,15.4548132206251));
#1559=CARTESIAN_POINT('',(-17.,6.72929517266556,15.4548132206251));
#1560=CARTESIAN_POINT('',(-17.,7.65500958513241,12.));
#1561=CARTESIAN_POINT('',(-17.,10.8703998943059,0.));
#1562=CARTESIAN_POINT('',(-17.,7.53929528357404,12.));
#1563=CARTESIAN_POINT('',(-17.,2.29457140852988,12.));
#1564=CARTESIAN_POINT('',(-17.,7.53929528357404,9.));
#1565=CARTESIAN_POINT('Origin',(-17.,7.53929528357404,10.5));
#1566=CARTESIAN_POINT('',(-17.,5.0249238636004,9.));
#1567=CARTESIAN_POINT('',(-17.,1.85489523455201,3.));
#1568=CARTESIAN_POINT('Origin',(-17.,3.85489523455201,3.));
#1569=CARTESIAN_POINT('Origin',(0.,8.91556183504406,1.5));
#1570=CARTESIAN_POINT('',(0.,10.3644505744777,1.88822856765378));
#1571=CARTESIAN_POINT('',(0.,10.3644505744777,1.88822856765378));
#1572=CARTESIAN_POINT('',(0.,8.91556183504406,0.));
#1573=CARTESIAN_POINT('Origin',(0.,8.91556183504406,1.5));
#1574=CARTESIAN_POINT('',(0.,8.91556183504406,0.));
#1575=CARTESIAN_POINT('Origin',(0.,10.8703998943059,0.));
#1576=CARTESIAN_POINT('',(0.,0.,0.));
#1577=CARTESIAN_POINT('',(0.,0.,0.));
#1578=CARTESIAN_POINT('',(0.,0.,0.));
#1579=CARTESIAN_POINT('Origin',(0.,-2.95015246651429,8.40351787087895));
#1580=CARTESIAN_POINT('',(0.,8.45885716242578,9.));
#1581=CARTESIAN_POINT('',(0.,10.8703998943059,0.));
#1582=CARTESIAN_POINT('',(0.,7.53929528357404,9.));
#1583=CARTESIAN_POINT('',(0.,5.0249238636004,9.));
#1584=CARTESIAN_POINT('',(0.,7.53929528357404,12.));
#1585=CARTESIAN_POINT('Origin',(0.,7.53929528357404,10.5));
#1586=CARTESIAN_POINT('',(0.,7.65500958513241,12.));
#1587=CARTESIAN_POINT('',(0.,2.29457140852988,12.));
#1588=CARTESIAN_POINT('',(0.,6.72929517266556,15.4548132206251));
#1589=CARTESIAN_POINT('',(0.,10.8703998943059,0.));
#1590=CARTESIAN_POINT('',(0.,1.22929517266555,16.8070357417579));
#1591=CARTESIAN_POINT('',(0.,6.72929517266556,15.4548132206251));
#1592=CARTESIAN_POINT('',(0.,1.22929517266555,16.8070357417579));
#1593=CARTESIAN_POINT('',(0.,-3.36464758633277,12.5570357417579));
#1594=CARTESIAN_POINT('',(0.,-15.6319207595022,12.5570357417579));
#1595=CARTESIAN_POINT('',(0.,0.,0.));
#1596=CARTESIAN_POINT('',(0.,1.85489523455201,3.));
#1597=CARTESIAN_POINT('Origin',(0.,3.85489523455201,3.));
#1598=CARTESIAN_POINT('Origin',(-13.5,2.22106393018472,13.8070357417579));
#1599=CARTESIAN_POINT('',(-13.5,2.06694395585905,13.6101930799342));
#1600=CARTESIAN_POINT('',(-13.5,2.22106393018472,14.0570357417579));
#1601=CARTESIAN_POINT('Origin',(-13.5,1.49623467982504,14.0570357417579));
#1602=CARTESIAN_POINT('',(-13.5,6.03929528357408,10.5));
#1603=CARTESIAN_POINT('Origin',(-6.75,7.18159806164752,12.8008700322451));
#1604=CARTESIAN_POINT('',(-6.75,7.30609879749672,13.0176638669661));
#1605=CARTESIAN_POINT('',(-6.75,7.42307951821978,12.8655747935208));
#1606=CARTESIAN_POINT('Origin',(-13.5,7.39619054002989,12.9659258262891));
#1607=CARTESIAN_POINT('',(-13.5,5.95881134545668,13.7913864195253));
#1608=CARTESIAN_POINT('Origin',(-13.5,4.96280545866302,12.0570357417579));
#1609=CARTESIAN_POINT('',(-13.5,4.96280545866303,14.0570357417579));
#1610=CARTESIAN_POINT('Origin',(-13.5,5.49623467982504,14.0570357417579));
#1611=CARTESIAN_POINT('Origin',(-13.5,7.54343891704264,10.4999999812913));
#1612=CARTESIAN_POINT('',(-13.5,7.65500958513241,12.));
#1613=CARTESIAN_POINT('Origin',(-13.5,7.54343891704264,10.4999999812913));
#1614=CARTESIAN_POINT('',(-3.5,7.65500958513241,12.));
#1615=CARTESIAN_POINT('',(-13.5,7.65500958513241,12.));
#1616=CARTESIAN_POINT('Origin',(-3.5,7.54343891704264,10.4999999812913));
#1617=CARTESIAN_POINT('Origin',(-14.25,-6.37781483673022,17.9049746020105));
#1618=CARTESIAN_POINT('',(-15.,6.72929517266556,15.4548132206251));
#1619=CARTESIAN_POINT('',(-13.0071534496853,7.31795840660462,13.2578921230167));
#1620=CARTESIAN_POINT('',(-15.,-6.19875327700932,18.633285632979));
#1621=CARTESIAN_POINT('Origin',(0.,-16.7707048273344,16.8070357417579));
#1622=CARTESIAN_POINT('',(0.,1.22929517266555,16.8070357417579));
#1623=CARTESIAN_POINT('Origin',(0.,1.22929517266555,16.8070357417579));
#1624=CARTESIAN_POINT('',(0.,6.72929517266556,15.4548132206251));
#1625=CARTESIAN_POINT('Origin',(0.,13.0000001937151,9.));
#1626=CARTESIAN_POINT('',(-9.35,7.53929528357404,9.));
#1627=CARTESIAN_POINT('Origin',(0.,7.53929528357404,12.));
#1628=CARTESIAN_POINT('',(-13.5,7.53929528357404,12.));
#1629=CARTESIAN_POINT('',(-13.5,-6.23035235821298,12.));
#1630=CARTESIAN_POINT('',(-9.35,7.53929528357404,12.));
#1631=CARTESIAN_POINT('',(0.,7.65500958513241,12.));
#1632=CARTESIAN_POINT('Origin',(-13.5,-20.,-5.46267029283692));
#1633=CARTESIAN_POINT('Origin',(-13.5,7.53929528357404,10.5));
#1634=CARTESIAN_POINT('Origin',(-9.35,3.85489523455201,3.));
#1635=CARTESIAN_POINT('',(-9.35,1.85489523455201,3.));
#1636=CARTESIAN_POINT('Origin',(-9.35,7.53929528357404,10.5));
#1637=CARTESIAN_POINT('Origin',(0.,10.8703998943059,0.));
#1638=CARTESIAN_POINT('',(0.,0.,0.));
#1639=CARTESIAN_POINT('Origin',(0.,0.,0.));
#1640=CARTESIAN_POINT('',(0.,-3.36464758633277,12.5570357417579));
#1641=CARTESIAN_POINT('Origin',(0.,-3.36464758633277,12.5570357417579));
#1642=CARTESIAN_POINT('Origin',(-3.5,-20.,21.0000003129244));
#1643=CARTESIAN_POINT('',(-3.5,7.53929528357404,12.));
#1644=CARTESIAN_POINT('',(-3.5,-6.23035235821298,12.));
#1645=CARTESIAN_POINT('Origin',(-3.5,7.53929528357404,10.5));
#1646=CARTESIAN_POINT('Origin',(-2.75,-9.44542663491787,18.6591734673927));
#1647=CARTESIAN_POINT('',(-2.,6.72929517266556,15.4548132206251));
#1648=CARTESIAN_POINT('',(-2.,-9.26636507519697,19.3874844983612));
#1649=CARTESIAN_POINT('',(0.076030599297166,6.11606035729768,17.7434367085481));
#1650=CARTESIAN_POINT('Origin',(0.,6.72929517266556,15.4548132206251));
#1651=CARTESIAN_POINT('',(0.,6.72929517266556,15.4548132206251));
#1652=CARTESIAN_POINT('',(0.,7.65500958513241,12.));
#1653=CARTESIAN_POINT('Origin',(0.,13.0000001937151,9.));
#1654=CARTESIAN_POINT('',(0.,8.45885716242578,9.));
#1655=CARTESIAN_POINT('',(-9.35,7.53929528357404,9.));
#1656=CARTESIAN_POINT('Origin',(0.,7.53929528357404,12.));
#1657=CARTESIAN_POINT('',(-9.35,7.53929528357404,12.));
#1658=CARTESIAN_POINT('Origin',(-9.35,3.85489523455201,3.));
#1659=CARTESIAN_POINT('',(-9.35,1.85489523455201,3.));
#1660=CARTESIAN_POINT('Origin',(-9.35,7.53929528357404,10.5));
#1661=CARTESIAN_POINT('Origin',(0.,-3.36464758633277,12.5570357417579));
#1662=CARTESIAN_POINT('',(0.,-3.36464758633277,12.5570357417579));
#1663=CARTESIAN_POINT('Origin',(0.,0.,0.));
#1664=CARTESIAN_POINT('Origin',(0.,6.72929517266556,15.4548132206251));
#1665=CARTESIAN_POINT('Origin',(0.,1.22929517266555,16.8070357417579));
#1666=CARTESIAN_POINT('',(0.,1.22929517266555,16.8070357417579));
#1667=CARTESIAN_POINT('Origin',(0.,-16.7707048273344,16.8070357417579));
#1668=UNCERTAINTY_MEASURE_WITH_UNIT(LENGTH_MEASURE(0.01),#1672,
'DISTANCE_ACCURACY_VALUE',
'Maximum model space distance between geometric entities at asserted c
onnectivities');
#1669=UNCERTAINTY_MEASURE_WITH_UNIT(LENGTH_MEASURE(0.01),#1672,
'DISTANCE_ACCURACY_VALUE',
'Maximum model space distance between geometric entities at asserted c
onnectivities');
#1670=(
GEOMETRIC_REPRESENTATION_CONTEXT(3)
GLOBAL_UNCERTAINTY_ASSIGNED_CONTEXT((#1668))
GLOBAL_UNIT_ASSIGNED_CONTEXT((#1672,#1674,#1675))
REPRESENTATION_CONTEXT('','3D')
);
#1671=(
GEOMETRIC_REPRESENTATION_CONTEXT(3)
GLOBAL_UNCERTAINTY_ASSIGNED_CONTEXT((#1669))
GLOBAL_UNIT_ASSIGNED_CONTEXT((#1672,#1674,#1675))
REPRESENTATION_CONTEXT('','3D')
);
#1672=(
LENGTH_UNIT()
NAMED_UNIT(*)
SI_UNIT(.MILLI.,.METRE.)
);
#1673=(
LENGTH_UNIT()
NAMED_UNIT(*)
SI_UNIT($,.METRE.)
);
#1674=(
NAMED_UNIT(*)
PLANE_ANGLE_UNIT()
SI_UNIT($,.RADIAN.)
);
#1675=(
NAMED_UNIT(*)
SI_UNIT($,.STERADIAN.)
SOLID_ANGLE_UNIT()
);
#1676=SHAPE_DEFINITION_REPRESENTATION(#1677,#1678);
#1677=PRODUCT_DEFINITION_SHAPE('',$,#1680);
#1678=SHAPE_REPRESENTATION('',(#962),#1670);
#1679=PRODUCT_DEFINITION_CONTEXT('part definition',#1684,'design');
#1680=PRODUCT_DEFINITION('DD19.2 Locking Block',
'DD19.2 Locking Block v4',#1681,#1679);
#1681=PRODUCT_DEFINITION_FORMATION('',$,#1686);
#1682=PRODUCT_RELATED_PRODUCT_CATEGORY('DD19.2 Locking Block v4',
'DD19.2 Locking Block v4',(#1686));
#1683=APPLICATION_PROTOCOL_DEFINITION('international standard',
'automotive_design',2009,#1684);
#1684=APPLICATION_CONTEXT(
'Core Data for Automotive Mechanical Design Process');
#1685=PRODUCT_CONTEXT('part definition',#1684,'mechanical');
#1686=PRODUCT('DD19.2 Locking Block','DD19.2 Locking Block v4',$,(#1685));
#1687=PRESENTATION_STYLE_ASSIGNMENT((#1688));
#1688=SURFACE_STYLE_USAGE(.BOTH.,#1689);
#1689=SURFACE_SIDE_STYLE('',(#1690));
#1690=SURFACE_STYLE_FILL_AREA(#1691);
#1691=FILL_AREA_STYLE('Stainless Steel - Satin',(#1692));
#1692=FILL_AREA_STYLE_COLOUR('Stainless Steel - Satin',#1693);
#1693=COLOUR_RGB('Stainless Steel - Satin',0.796078431372549,0.796078431372549,
0.796078431372549);
ENDSEC;
END-ISO-10303-21;
