ISO-10303-21;
HEADER;
/* Generated by software containing ST-Developer
 * from STEP Tools, Inc. (www.steptools.com) 
 */

FILE_DESCRIPTION(
/* description */ (''),
/* implementation_level */ '2;1');

FILE_NAME(
/* name */ 'DDXX.2 Rear Rails.step',
/* time_stamp */ '2023-12-14T18:27:20-06:00',
/* author */ (''),
/* organization */ (''),
/* preprocessor_version */ 'ST-DEVELOPER v20',
/* originating_system */ 'Autodesk Translation Framework v12.14.0.127',

/* authorisation */ '');

FILE_SCHEMA (('AUTOMOTIVE_DESIGN { 1 0 10303 214 3 1 1 }'));
ENDSEC;

DATA;
#10=MECHANICAL_DESIGN_GEOMETRIC_PRESENTATION_REPRESENTATION('',(#13),#1559);
#11=SHAPE_REPRESENTATION_RELATIONSHIP('SRR','None',#1566,#12);
#12=ADVANCED_BREP_SHAPE_REPRESENTATION('',(#14),#1558);
#13=STYLED_ITEM('',(#1576),#14);
#14=MANIFOLD_SOLID_BREP('Body1',#907);
#15=FACE_BOUND('',#120,.T.);
#16=FACE_BOUND('',#123,.T.);
#17=FACE_BOUND('',#128,.T.);
#18=FACE_BOUND('',#137,.T.);
#19=ELLIPSE('',#958,1.02605380195194,1.);
#20=ELLIPSE('',#960,1.02605380195194,1.);
#21=ELLIPSE('',#962,2.10292444847653,2.);
#22=ELLIPSE('',#969,2.10292444847653,2.);
#23=ELLIPSE('',#975,1.05146222423826,1.);
#24=ELLIPSE('',#976,1.05146222423826,1.);
#25=ELLIPSE('',#977,1.05146222423826,1.);
#26=ELLIPSE('',#978,1.05146222423826,1.);
#27=ELLIPSE('',#980,1.05146222423834,1.);
#28=ELLIPSE('',#982,1.05146222423834,1.);
#29=ELLIPSE('',#995,1.05146222423834,1.);
#30=ELLIPSE('',#996,1.05146222423834,1.);
#31=PLANE('',#924);
#32=PLANE('',#925);
#33=PLANE('',#929);
#34=PLANE('',#935);
#35=PLANE('',#936);
#36=PLANE('',#940);
#37=PLANE('',#943);
#38=PLANE('',#944);
#39=PLANE('',#947);
#40=PLANE('',#956);
#41=PLANE('',#957);
#42=PLANE('',#963);
#43=PLANE('',#964);
#44=PLANE('',#970);
#45=PLANE('',#974);
#46=PLANE('',#983);
#47=PLANE('',#988);
#48=PLANE('',#991);
#49=PLANE('',#994);
#50=PLANE('',#997);
#51=PLANE('',#1000);
#52=PLANE('',#1011);
#53=FACE_OUTER_BOUND('',#99,.T.);
#54=FACE_OUTER_BOUND('',#100,.T.);
#55=FACE_OUTER_BOUND('',#101,.T.);
#56=FACE_OUTER_BOUND('',#102,.T.);
#57=FACE_OUTER_BOUND('',#103,.T.);
#58=FACE_OUTER_BOUND('',#104,.T.);
#59=FACE_OUTER_BOUND('',#105,.T.);
#60=FACE_OUTER_BOUND('',#106,.T.);
#61=FACE_OUTER_BOUND('',#107,.T.);
#62=FACE_OUTER_BOUND('',#108,.T.);
#63=FACE_OUTER_BOUND('',#109,.T.);
#64=FACE_OUTER_BOUND('',#110,.T.);
#65=FACE_OUTER_BOUND('',#111,.T.);
#66=FACE_OUTER_BOUND('',#112,.T.);
#67=FACE_OUTER_BOUND('',#113,.T.);
#68=FACE_OUTER_BOUND('',#114,.T.);
#69=FACE_OUTER_BOUND('',#115,.T.);
#70=FACE_OUTER_BOUND('',#116,.T.);
#71=FACE_OUTER_BOUND('',#117,.T.);
#72=FACE_OUTER_BOUND('',#118,.T.);
#73=FACE_OUTER_BOUND('',#119,.T.);
#74=FACE_OUTER_BOUND('',#121,.T.);
#75=FACE_OUTER_BOUND('',#122,.T.);
#76=FACE_OUTER_BOUND('',#124,.T.);
#77=FACE_OUTER_BOUND('',#125,.T.);
#78=FACE_OUTER_BOUND('',#126,.T.);
#79=FACE_OUTER_BOUND('',#127,.T.);
#80=FACE_OUTER_BOUND('',#129,.T.);
#81=FACE_OUTER_BOUND('',#130,.T.);
#82=FACE_OUTER_BOUND('',#131,.T.);
#83=FACE_OUTER_BOUND('',#132,.T.);
#84=FACE_OUTER_BOUND('',#133,.T.);
#85=FACE_OUTER_BOUND('',#134,.T.);
#86=FACE_OUTER_BOUND('',#135,.T.);
#87=FACE_OUTER_BOUND('',#136,.T.);
#88=FACE_OUTER_BOUND('',#138,.T.);
#89=FACE_OUTER_BOUND('',#139,.T.);
#90=FACE_OUTER_BOUND('',#140,.T.);
#91=FACE_OUTER_BOUND('',#141,.T.);
#92=FACE_OUTER_BOUND('',#142,.T.);
#93=FACE_OUTER_BOUND('',#143,.T.);
#94=FACE_OUTER_BOUND('',#144,.T.);
#95=FACE_OUTER_BOUND('',#145,.T.);
#96=FACE_OUTER_BOUND('',#146,.T.);
#97=FACE_OUTER_BOUND('',#147,.T.);
#98=FACE_OUTER_BOUND('',#148,.T.);
#99=EDGE_LOOP('',(#573,#574,#575,#576));
#100=EDGE_LOOP('',(#577,#578,#579,#580));
#101=EDGE_LOOP('',(#581,#582,#583,#584,#585,#586));
#102=EDGE_LOOP('',(#587,#588,#589,#590));
#103=EDGE_LOOP('',(#591,#592,#593,#594,#595,#596,#597,#598));
#104=EDGE_LOOP('',(#599,#600,#601,#602));
#105=EDGE_LOOP('',(#603,#604,#605,#606));
#106=EDGE_LOOP('',(#607,#608,#609,#610,#611,#612));
#107=EDGE_LOOP('',(#613,#614,#615,#616));
#108=EDGE_LOOP('',(#617,#618,#619,#620,#621,#622,#623,#624));
#109=EDGE_LOOP('',(#625,#626,#627,#628,#629,#630));
#110=EDGE_LOOP('',(#631,#632,#633,#634,#635,#636,#637,#638));
#111=EDGE_LOOP('',(#639,#640,#641,#642,#643,#644,#645,#646));
#112=EDGE_LOOP('',(#647,#648,#649,#650));
#113=EDGE_LOOP('',(#651,#652,#653,#654));
#114=EDGE_LOOP('',(#655,#656,#657,#658));
#115=EDGE_LOOP('',(#659,#660,#661,#662,#663,#664));
#116=EDGE_LOOP('',(#665,#666,#667,#668));
#117=EDGE_LOOP('',(#669,#670,#671,#672));
#118=EDGE_LOOP('',(#673,#674,#675,#676,#677,#678));
#119=EDGE_LOOP('',(#679,#680,#681,#682,#683,#684,#685,#686,#687,#688,#689));
#120=EDGE_LOOP('',(#690));
#121=EDGE_LOOP('',(#691,#692,#693,#694));
#122=EDGE_LOOP('',(#695,#696,#697,#698,#699,#700,#701,#702,#703,#704,#705));
#123=EDGE_LOOP('',(#706));
#124=EDGE_LOOP('',(#707,#708,#709,#710,#711,#712,#713,#714,#715,#716,#717,
#718,#719,#720,#721,#722));
#125=EDGE_LOOP('',(#723,#724,#725,#726));
#126=EDGE_LOOP('',(#727,#728,#729,#730));
#127=EDGE_LOOP('',(#731,#732,#733,#734,#735,#736,#737,#738,#739));
#128=EDGE_LOOP('',(#740));
#129=EDGE_LOOP('',(#741,#742,#743,#744));
#130=EDGE_LOOP('',(#745,#746,#747,#748));
#131=EDGE_LOOP('',(#749,#750,#751,#752,#753,#754,#755,#756));
#132=EDGE_LOOP('',(#757,#758,#759,#760));
#133=EDGE_LOOP('',(#761,#762,#763,#764,#765,#766,#767,#768,#769,#770,#771,
#772));
#134=EDGE_LOOP('',(#773,#774,#775,#776,#777,#778));
#135=EDGE_LOOP('',(#779,#780,#781,#782));
#136=EDGE_LOOP('',(#783,#784,#785,#786,#787,#788,#789,#790,#791));
#137=EDGE_LOOP('',(#792));
#138=EDGE_LOOP('',(#793,#794,#795,#796));
#139=EDGE_LOOP('',(#797,#798,#799,#800));
#140=EDGE_LOOP('',(#801,#802,#803,#804));
#141=EDGE_LOOP('',(#805,#806,#807,#808));
#142=EDGE_LOOP('',(#809,#810,#811,#812));
#143=EDGE_LOOP('',(#813,#814,#815,#816));
#144=EDGE_LOOP('',(#817,#818,#819,#820));
#145=EDGE_LOOP('',(#821,#822,#823,#824));
#146=EDGE_LOOP('',(#825,#826,#827,#828));
#147=EDGE_LOOP('',(#829,#830,#831,#832));
#148=EDGE_LOOP('',(#833,#834,#835,#836));
#149=LINE('',#1295,#233);
#150=LINE('',#1298,#234);
#151=LINE('',#1301,#235);
#152=LINE('',#1303,#236);
#153=LINE('',#1304,#237);
#154=LINE('',#1307,#238);
#155=LINE('',#1309,#239);
#156=LINE('',#1311,#240);
#157=LINE('',#1316,#241);
#158=LINE('',#1321,#242);
#159=LINE('',#1323,#243);
#160=LINE('',#1325,#244);
#161=LINE('',#1328,#245);
#162=LINE('',#1334,#246);
#163=LINE('',#1337,#247);
#164=LINE('',#1340,#248);
#165=LINE('',#1342,#249);
#166=LINE('',#1343,#250);
#167=LINE('',#1346,#251);
#168=LINE('',#1348,#252);
#169=LINE('',#1350,#253);
#170=LINE('',#1355,#254);
#171=LINE('',#1360,#255);
#172=LINE('',#1362,#256);
#173=LINE('',#1364,#257);
#174=LINE('',#1367,#258);
#175=LINE('',#1370,#259);
#176=LINE('',#1371,#260);
#177=LINE('',#1374,#261);
#178=LINE('',#1378,#262);
#179=LINE('',#1380,#263);
#180=LINE('',#1382,#264);
#181=LINE('',#1387,#265);
#182=LINE('',#1391,#266);
#183=LINE('',#1393,#267);
#184=LINE('',#1395,#268);
#185=LINE('',#1399,#269);
#186=LINE('',#1400,#270);
#187=LINE('',#1409,#271);
#188=LINE('',#1412,#272);
#189=LINE('',#1414,#273);
#190=LINE('',#1415,#274);
#191=LINE('',#1418,#275);
#192=LINE('',#1420,#276);
#193=LINE('',#1424,#277);
#194=LINE('',#1428,#278);
#195=LINE('',#1431,#279);
#196=LINE('',#1433,#280);
#197=LINE('',#1436,#281);
#198=LINE('',#1438,#282);
#199=LINE('',#1440,#283);
#200=LINE('',#1444,#284);
#201=LINE('',#1449,#285);
#202=LINE('',#1452,#286);
#203=LINE('',#1458,#287);
#204=LINE('',#1460,#288);
#205=LINE('',#1461,#289);
#206=LINE('',#1468,#290);
#207=LINE('',#1472,#291);
#208=LINE('',#1474,#292);
#209=LINE('',#1476,#293);
#210=LINE('',#1480,#294);
#211=LINE('',#1485,#295);
#212=LINE('',#1490,#296);
#213=LINE('',#1491,#297);
#214=LINE('',#1494,#298);
#215=LINE('',#1499,#299);
#216=LINE('',#1501,#300);
#217=LINE('',#1506,#301);
#218=LINE('',#1513,#302);
#219=LINE('',#1514,#303);
#220=LINE('',#1516,#304);
#221=LINE('',#1518,#305);
#222=LINE('',#1522,#306);
#223=LINE('',#1526,#307);
#224=LINE('',#1527,#308);
#225=LINE('',#1531,#309);
#226=LINE('',#1535,#310);
#227=LINE('',#1537,#311);
#228=LINE('',#1541,#312);
#229=LINE('',#1548,#313);
#230=LINE('',#1550,#314);
#231=LINE('',#1553,#315);
#232=LINE('',#1555,#316);
#233=VECTOR('',#1021,10.);
#234=VECTOR('',#1024,10.);
#235=VECTOR('',#1027,10.);
#236=VECTOR('',#1028,10.);
#237=VECTOR('',#1029,10.);
#238=VECTOR('',#1032,10.);
#239=VECTOR('',#1033,10.);
#240=VECTOR('',#1034,10.);
#241=VECTOR('',#1041,10.);
#242=VECTOR('',#1046,10.);
#243=VECTOR('',#1047,10.);
#244=VECTOR('',#1048,10.);
#245=VECTOR('',#1051,10.);
#246=VECTOR('',#1056,10.);
#247=VECTOR('',#1059,10.);
#248=VECTOR('',#1062,10.);
#249=VECTOR('',#1063,10.);
#250=VECTOR('',#1064,10.);
#251=VECTOR('',#1067,10.);
#252=VECTOR('',#1068,10.);
#253=VECTOR('',#1069,10.);
#254=VECTOR('',#1076,10.);
#255=VECTOR('',#1081,10.);
#256=VECTOR('',#1082,10.);
#257=VECTOR('',#1083,10.);
#258=VECTOR('',#1086,10.);
#259=VECTOR('',#1089,10.);
#260=VECTOR('',#1090,10.);
#261=VECTOR('',#1093,10.);
#262=VECTOR('',#1096,10.);
#263=VECTOR('',#1097,10.);
#264=VECTOR('',#1098,10.);
#265=VECTOR('',#1103,10.);
#266=VECTOR('',#1106,10.);
#267=VECTOR('',#1107,10.);
#268=VECTOR('',#1108,10.);
#269=VECTOR('',#1111,10.);
#270=VECTOR('',#1112,0.5);
#271=VECTOR('',#1125,10.);
#272=VECTOR('',#1128,10.);
#273=VECTOR('',#1129,10.);
#274=VECTOR('',#1130,10.);
#275=VECTOR('',#1133,10.);
#276=VECTOR('',#1134,10.);
#277=VECTOR('',#1139,10.);
#278=VECTOR('',#1144,10.);
#279=VECTOR('',#1147,10.);
#280=VECTOR('',#1150,10.);
#281=VECTOR('',#1153,10.);
#282=VECTOR('',#1154,10.);
#283=VECTOR('',#1155,10.);
#284=VECTOR('',#1160,10.);
#285=VECTOR('',#1165,10.);
#286=VECTOR('',#1170,10.);
#287=VECTOR('',#1175,10.);
#288=VECTOR('',#1176,10.);
#289=VECTOR('',#1177,10.);
#290=VECTOR('',#1184,10.);
#291=VECTOR('',#1187,10.);
#292=VECTOR('',#1188,10.);
#293=VECTOR('',#1189,10.);
#294=VECTOR('',#1192,10.);
#295=VECTOR('',#1199,10.);
#296=VECTOR('',#1204,10.);
#297=VECTOR('',#1205,10.);
#298=VECTOR('',#1208,10.);
#299=VECTOR('',#1213,10.);
#300=VECTOR('',#1214,10.);
#301=VECTOR('',#1221,10.);
#302=VECTOR('',#1230,10.);
#303=VECTOR('',#1231,10.);
#304=VECTOR('',#1234,10.);
#305=VECTOR('',#1237,10.);
#306=VECTOR('',#1240,10.);
#307=VECTOR('',#1243,10.);
#308=VECTOR('',#1244,10.);
#309=VECTOR('',#1249,10.);
#310=VECTOR('',#1256,10.);
#311=VECTOR('',#1259,10.);
#312=VECTOR('',#1264,10.);
#313=VECTOR('',#1277,10.);
#314=VECTOR('',#1280,10.);
#315=VECTOR('',#1285,1.6);
#316=VECTOR('',#1288,1.6);
#317=CIRCLE('',#922,0.5);
#318=CIRCLE('',#923,0.5);
#319=CIRCLE('',#926,0.5);
#320=CIRCLE('',#928,0.5);
#321=CIRCLE('',#930,1.);
#322=CIRCLE('',#931,2.);
#323=CIRCLE('',#933,0.5);
#324=CIRCLE('',#934,0.5);
#325=CIRCLE('',#937,0.5);
#326=CIRCLE('',#939,0.5);
#327=CIRCLE('',#941,2.);
#328=CIRCLE('',#942,1.);
#329=CIRCLE('',#945,1.);
#330=CIRCLE('',#946,2.);
#331=CIRCLE('',#948,2.);
#332=CIRCLE('',#949,2.);
#333=CIRCLE('',#951,0.5);
#334=CIRCLE('',#952,0.5);
#335=CIRCLE('',#954,1.);
#336=CIRCLE('',#955,1.);
#337=CIRCLE('',#965,19.125);
#338=CIRCLE('',#966,1.);
#339=CIRCLE('',#967,1.6);
#340=CIRCLE('',#971,1.);
#341=CIRCLE('',#972,19.125);
#342=CIRCLE('',#973,1.6);
#343=CIRCLE('',#984,19.125);
#344=CIRCLE('',#985,1.);
#345=CIRCLE('',#986,1.);
#346=CIRCLE('',#987,1.6);
#347=CIRCLE('',#990,1.);
#348=CIRCLE('',#992,2.);
#349=CIRCLE('',#999,1.);
#350=CIRCLE('',#1001,19.125);
#351=CIRCLE('',#1002,1.);
#352=CIRCLE('',#1003,1.6);
#353=VERTEX_POINT('',#1291);
#354=VERTEX_POINT('',#1292);
#355=VERTEX_POINT('',#1294);
#356=VERTEX_POINT('',#1296);
#357=VERTEX_POINT('',#1300);
#358=VERTEX_POINT('',#1302);
#359=VERTEX_POINT('',#1306);
#360=VERTEX_POINT('',#1308);
#361=VERTEX_POINT('',#1310);
#362=VERTEX_POINT('',#1314);
#363=VERTEX_POINT('',#1318);
#364=VERTEX_POINT('',#1320);
#365=VERTEX_POINT('',#1322);
#366=VERTEX_POINT('',#1324);
#367=VERTEX_POINT('',#1326);
#368=VERTEX_POINT('',#1330);
#369=VERTEX_POINT('',#1331);
#370=VERTEX_POINT('',#1333);
#371=VERTEX_POINT('',#1335);
#372=VERTEX_POINT('',#1339);
#373=VERTEX_POINT('',#1341);
#374=VERTEX_POINT('',#1345);
#375=VERTEX_POINT('',#1347);
#376=VERTEX_POINT('',#1349);
#377=VERTEX_POINT('',#1353);
#378=VERTEX_POINT('',#1357);
#379=VERTEX_POINT('',#1359);
#380=VERTEX_POINT('',#1361);
#381=VERTEX_POINT('',#1363);
#382=VERTEX_POINT('',#1365);
#383=VERTEX_POINT('',#1369);
#384=VERTEX_POINT('',#1373);
#385=VERTEX_POINT('',#1375);
#386=VERTEX_POINT('',#1377);
#387=VERTEX_POINT('',#1379);
#388=VERTEX_POINT('',#1381);
#389=VERTEX_POINT('',#1385);
#390=VERTEX_POINT('',#1386);
#391=VERTEX_POINT('',#1388);
#392=VERTEX_POINT('',#1390);
#393=VERTEX_POINT('',#1392);
#394=VERTEX_POINT('',#1394);
#395=VERTEX_POINT('',#1396);
#396=VERTEX_POINT('',#1398);
#397=VERTEX_POINT('',#1405);
#398=VERTEX_POINT('',#1407);
#399=VERTEX_POINT('',#1411);
#400=VERTEX_POINT('',#1413);
#401=VERTEX_POINT('',#1417);
#402=VERTEX_POINT('',#1419);
#403=VERTEX_POINT('',#1423);
#404=VERTEX_POINT('',#1427);
#405=VERTEX_POINT('',#1429);
#406=VERTEX_POINT('',#1435);
#407=VERTEX_POINT('',#1437);
#408=VERTEX_POINT('',#1439);
#409=VERTEX_POINT('',#1441);
#410=VERTEX_POINT('',#1445);
#411=VERTEX_POINT('',#1448);
#412=VERTEX_POINT('',#1453);
#413=VERTEX_POINT('',#1455);
#414=VERTEX_POINT('',#1457);
#415=VERTEX_POINT('',#1459);
#416=VERTEX_POINT('',#1462);
#417=VERTEX_POINT('',#1465);
#418=VERTEX_POINT('',#1467);
#419=VERTEX_POINT('',#1469);
#420=VERTEX_POINT('',#1471);
#421=VERTEX_POINT('',#1473);
#422=VERTEX_POINT('',#1475);
#423=VERTEX_POINT('',#1477);
#424=VERTEX_POINT('',#1479);
#425=VERTEX_POINT('',#1483);
#426=VERTEX_POINT('',#1487);
#427=VERTEX_POINT('',#1488);
#428=VERTEX_POINT('',#1493);
#429=VERTEX_POINT('',#1495);
#430=VERTEX_POINT('',#1498);
#431=VERTEX_POINT('',#1500);
#432=VERTEX_POINT('',#1503);
#433=VERTEX_POINT('',#1510);
#434=VERTEX_POINT('',#1512);
#435=VERTEX_POINT('',#1519);
#436=VERTEX_POINT('',#1521);
#437=VERTEX_POINT('',#1523);
#438=VERTEX_POINT('',#1525);
#439=VERTEX_POINT('',#1530);
#440=VERTEX_POINT('',#1538);
#441=EDGE_CURVE('',#353,#354,#317,.T.);
#442=EDGE_CURVE('',#354,#355,#149,.T.);
#443=EDGE_CURVE('',#355,#356,#318,.T.);
#444=EDGE_CURVE('',#356,#353,#150,.T.);
#445=EDGE_CURVE('',#354,#357,#151,.T.);
#446=EDGE_CURVE('',#358,#357,#152,.T.);
#447=EDGE_CURVE('',#358,#355,#153,.T.);
#448=EDGE_CURVE('',#359,#353,#154,.T.);
#449=EDGE_CURVE('',#360,#359,#155,.T.);
#450=EDGE_CURVE('',#360,#361,#156,.T.);
#451=EDGE_CURVE('',#357,#361,#319,.T.);
#452=EDGE_CURVE('',#362,#358,#320,.T.);
#453=EDGE_CURVE('',#361,#362,#157,.T.);
#454=EDGE_CURVE('',#363,#360,#321,.T.);
#455=EDGE_CURVE('',#364,#363,#158,.T.);
#456=EDGE_CURVE('',#365,#364,#159,.T.);
#457=EDGE_CURVE('',#366,#365,#160,.T.);
#458=EDGE_CURVE('',#367,#366,#322,.T.);
#459=EDGE_CURVE('',#367,#362,#161,.T.);
#460=EDGE_CURVE('',#368,#369,#323,.T.);
#461=EDGE_CURVE('',#369,#370,#162,.T.);
#462=EDGE_CURVE('',#370,#371,#324,.T.);
#463=EDGE_CURVE('',#371,#368,#163,.T.);
#464=EDGE_CURVE('',#371,#372,#164,.T.);
#465=EDGE_CURVE('',#373,#372,#165,.T.);
#466=EDGE_CURVE('',#373,#368,#166,.T.);
#467=EDGE_CURVE('',#374,#370,#167,.T.);
#468=EDGE_CURVE('',#375,#374,#168,.T.);
#469=EDGE_CURVE('',#376,#375,#169,.T.);
#470=EDGE_CURVE('',#372,#376,#325,.T.);
#471=EDGE_CURVE('',#377,#373,#326,.T.);
#472=EDGE_CURVE('',#376,#377,#170,.T.);
#473=EDGE_CURVE('',#378,#375,#327,.T.);
#474=EDGE_CURVE('',#379,#378,#171,.T.);
#475=EDGE_CURVE('',#380,#379,#172,.T.);
#476=EDGE_CURVE('',#381,#380,#173,.T.);
#477=EDGE_CURVE('',#382,#381,#328,.T.);
#478=EDGE_CURVE('',#382,#377,#174,.T.);
#479=EDGE_CURVE('',#383,#367,#175,.T.);
#480=EDGE_CURVE('',#356,#383,#176,.T.);
#481=EDGE_CURVE('',#384,#369,#177,.T.);
#482=EDGE_CURVE('',#385,#384,#329,.T.);
#483=EDGE_CURVE('',#386,#385,#178,.T.);
#484=EDGE_CURVE('',#387,#386,#179,.T.);
#485=EDGE_CURVE('',#388,#387,#180,.T.);
#486=EDGE_CURVE('',#374,#388,#330,.T.);
#487=EDGE_CURVE('',#389,#390,#181,.T.);
#488=EDGE_CURVE('',#391,#389,#331,.T.);
#489=EDGE_CURVE('',#392,#391,#182,.T.);
#490=EDGE_CURVE('',#393,#392,#183,.T.);
#491=EDGE_CURVE('',#394,#393,#184,.T.);
#492=EDGE_CURVE('',#395,#394,#332,.T.);
#493=EDGE_CURVE('',#396,#395,#185,.F.);
#494=EDGE_CURVE('',#390,#396,#186,.T.);
#495=EDGE_CURVE('',#396,#387,#333,.T.);
#496=EDGE_CURVE('',#386,#390,#334,.T.);
#497=EDGE_CURVE('',#397,#393,#335,.T.);
#498=EDGE_CURVE('',#392,#398,#336,.T.);
#499=EDGE_CURVE('',#398,#397,#187,.T.);
#500=EDGE_CURVE('',#399,#398,#188,.T.);
#501=EDGE_CURVE('',#400,#399,#189,.T.);
#502=EDGE_CURVE('',#400,#397,#190,.F.);
#503=EDGE_CURVE('',#401,#391,#191,.T.);
#504=EDGE_CURVE('',#402,#401,#192,.T.);
#505=EDGE_CURVE('',#399,#402,#19,.T.);
#506=EDGE_CURVE('',#402,#403,#193,.T.);
#507=EDGE_CURVE('',#403,#400,#20,.T.);
#508=EDGE_CURVE('',#394,#404,#194,.T.);
#509=EDGE_CURVE('',#404,#405,#21,.T.);
#510=EDGE_CURVE('',#405,#395,#195,.T.);
#511=EDGE_CURVE('',#404,#403,#196,.F.);
#512=EDGE_CURVE('',#406,#405,#197,.F.);
#513=EDGE_CURVE('',#407,#406,#198,.T.);
#514=EDGE_CURVE('',#408,#407,#199,.F.);
#515=EDGE_CURVE('',#409,#408,#337,.F.);
#516=EDGE_CURVE('',#379,#409,#338,.T.);
#517=EDGE_CURVE('',#388,#378,#200,.T.);
#518=EDGE_CURVE('',#410,#410,#339,.T.);
#519=EDGE_CURVE('',#389,#411,#201,.T.);
#520=EDGE_CURVE('',#411,#401,#22,.T.);
#521=EDGE_CURVE('',#381,#385,#202,.T.);
#522=EDGE_CURVE('',#412,#380,#340,.T.);
#523=EDGE_CURVE('',#412,#413,#341,.F.);
#524=EDGE_CURVE('',#413,#414,#203,.F.);
#525=EDGE_CURVE('',#415,#414,#204,.T.);
#526=EDGE_CURVE('',#415,#411,#205,.F.);
#527=EDGE_CURVE('',#416,#416,#342,.T.);
#528=EDGE_CURVE('',#417,#415,#23,.T.);
#529=EDGE_CURVE('',#418,#417,#206,.T.);
#530=EDGE_CURVE('',#419,#418,#24,.T.);
#531=EDGE_CURVE('',#420,#419,#207,.F.);
#532=EDGE_CURVE('',#421,#420,#208,.T.);
#533=EDGE_CURVE('',#421,#422,#209,.T.);
#534=EDGE_CURVE('',#423,#422,#25,.F.);
#535=EDGE_CURVE('',#424,#423,#210,.F.);
#536=EDGE_CURVE('',#406,#424,#26,.F.);
#537=EDGE_CURVE('',#414,#425,#27,.T.);
#538=EDGE_CURVE('',#425,#417,#211,.T.);
#539=EDGE_CURVE('',#426,#427,#28,.T.);
#540=EDGE_CURVE('',#427,#419,#212,.T.);
#541=EDGE_CURVE('',#418,#426,#213,.T.);
#542=EDGE_CURVE('',#427,#428,#214,.F.);
#543=EDGE_CURVE('',#428,#429,#343,.F.);
#544=EDGE_CURVE('',#364,#429,#344,.T.);
#545=EDGE_CURVE('',#430,#363,#215,.T.);
#546=EDGE_CURVE('',#431,#430,#216,.T.);
#547=EDGE_CURVE('',#420,#431,#345,.T.);
#548=EDGE_CURVE('',#432,#432,#346,.T.);
#549=EDGE_CURVE('',#426,#425,#217,.F.);
#550=EDGE_CURVE('',#359,#430,#347,.T.);
#551=EDGE_CURVE('',#433,#383,#348,.T.);
#552=EDGE_CURVE('',#433,#434,#218,.T.);
#553=EDGE_CURVE('',#431,#434,#219,.T.);
#554=EDGE_CURVE('',#384,#382,#220,.T.);
#555=EDGE_CURVE('',#408,#413,#221,.T.);
#556=EDGE_CURVE('',#435,#407,#29,.F.);
#557=EDGE_CURVE('',#436,#435,#222,.F.);
#558=EDGE_CURVE('',#437,#436,#30,.F.);
#559=EDGE_CURVE('',#437,#438,#223,.T.);
#560=EDGE_CURVE('',#428,#438,#224,.T.);
#561=EDGE_CURVE('',#429,#439,#225,.T.);
#562=EDGE_CURVE('',#439,#365,#349,.T.);
#563=EDGE_CURVE('',#439,#438,#350,.F.);
#564=EDGE_CURVE('',#422,#437,#226,.T.);
#565=EDGE_CURVE('',#434,#421,#351,.T.);
#566=EDGE_CURVE('',#366,#433,#227,.T.);
#567=EDGE_CURVE('',#440,#440,#352,.T.);
#568=EDGE_CURVE('',#409,#412,#228,.T.);
#569=EDGE_CURVE('',#424,#435,#229,.T.);
#570=EDGE_CURVE('',#436,#423,#230,.T.);
#571=EDGE_CURVE('',#440,#432,#231,.T.);
#572=EDGE_CURVE('',#416,#410,#232,.T.);
#573=ORIENTED_EDGE('',*,*,#441,.T.);
#574=ORIENTED_EDGE('',*,*,#442,.T.);
#575=ORIENTED_EDGE('',*,*,#443,.T.);
#576=ORIENTED_EDGE('',*,*,#444,.T.);
#577=ORIENTED_EDGE('',*,*,#442,.F.);
#578=ORIENTED_EDGE('',*,*,#445,.T.);
#579=ORIENTED_EDGE('',*,*,#446,.F.);
#580=ORIENTED_EDGE('',*,*,#447,.T.);
#581=ORIENTED_EDGE('',*,*,#441,.F.);
#582=ORIENTED_EDGE('',*,*,#448,.F.);
#583=ORIENTED_EDGE('',*,*,#449,.F.);
#584=ORIENTED_EDGE('',*,*,#450,.T.);
#585=ORIENTED_EDGE('',*,*,#451,.F.);
#586=ORIENTED_EDGE('',*,*,#445,.F.);
#587=ORIENTED_EDGE('',*,*,#452,.T.);
#588=ORIENTED_EDGE('',*,*,#446,.T.);
#589=ORIENTED_EDGE('',*,*,#451,.T.);
#590=ORIENTED_EDGE('',*,*,#453,.T.);
#591=ORIENTED_EDGE('',*,*,#453,.F.);
#592=ORIENTED_EDGE('',*,*,#450,.F.);
#593=ORIENTED_EDGE('',*,*,#454,.F.);
#594=ORIENTED_EDGE('',*,*,#455,.F.);
#595=ORIENTED_EDGE('',*,*,#456,.F.);
#596=ORIENTED_EDGE('',*,*,#457,.F.);
#597=ORIENTED_EDGE('',*,*,#458,.F.);
#598=ORIENTED_EDGE('',*,*,#459,.T.);
#599=ORIENTED_EDGE('',*,*,#460,.T.);
#600=ORIENTED_EDGE('',*,*,#461,.T.);
#601=ORIENTED_EDGE('',*,*,#462,.T.);
#602=ORIENTED_EDGE('',*,*,#463,.T.);
#603=ORIENTED_EDGE('',*,*,#463,.F.);
#604=ORIENTED_EDGE('',*,*,#464,.T.);
#605=ORIENTED_EDGE('',*,*,#465,.F.);
#606=ORIENTED_EDGE('',*,*,#466,.T.);
#607=ORIENTED_EDGE('',*,*,#462,.F.);
#608=ORIENTED_EDGE('',*,*,#467,.F.);
#609=ORIENTED_EDGE('',*,*,#468,.F.);
#610=ORIENTED_EDGE('',*,*,#469,.F.);
#611=ORIENTED_EDGE('',*,*,#470,.F.);
#612=ORIENTED_EDGE('',*,*,#464,.F.);
#613=ORIENTED_EDGE('',*,*,#471,.T.);
#614=ORIENTED_EDGE('',*,*,#465,.T.);
#615=ORIENTED_EDGE('',*,*,#470,.T.);
#616=ORIENTED_EDGE('',*,*,#472,.T.);
#617=ORIENTED_EDGE('',*,*,#472,.F.);
#618=ORIENTED_EDGE('',*,*,#469,.T.);
#619=ORIENTED_EDGE('',*,*,#473,.F.);
#620=ORIENTED_EDGE('',*,*,#474,.F.);
#621=ORIENTED_EDGE('',*,*,#475,.F.);
#622=ORIENTED_EDGE('',*,*,#476,.F.);
#623=ORIENTED_EDGE('',*,*,#477,.F.);
#624=ORIENTED_EDGE('',*,*,#478,.T.);
#625=ORIENTED_EDGE('',*,*,#443,.F.);
#626=ORIENTED_EDGE('',*,*,#447,.F.);
#627=ORIENTED_EDGE('',*,*,#452,.F.);
#628=ORIENTED_EDGE('',*,*,#459,.F.);
#629=ORIENTED_EDGE('',*,*,#479,.F.);
#630=ORIENTED_EDGE('',*,*,#480,.F.);
#631=ORIENTED_EDGE('',*,*,#461,.F.);
#632=ORIENTED_EDGE('',*,*,#481,.F.);
#633=ORIENTED_EDGE('',*,*,#482,.F.);
#634=ORIENTED_EDGE('',*,*,#483,.F.);
#635=ORIENTED_EDGE('',*,*,#484,.F.);
#636=ORIENTED_EDGE('',*,*,#485,.F.);
#637=ORIENTED_EDGE('',*,*,#486,.F.);
#638=ORIENTED_EDGE('',*,*,#467,.T.);
#639=ORIENTED_EDGE('',*,*,#487,.F.);
#640=ORIENTED_EDGE('',*,*,#488,.F.);
#641=ORIENTED_EDGE('',*,*,#489,.F.);
#642=ORIENTED_EDGE('',*,*,#490,.F.);
#643=ORIENTED_EDGE('',*,*,#491,.F.);
#644=ORIENTED_EDGE('',*,*,#492,.F.);
#645=ORIENTED_EDGE('',*,*,#493,.F.);
#646=ORIENTED_EDGE('',*,*,#494,.F.);
#647=ORIENTED_EDGE('',*,*,#494,.T.);
#648=ORIENTED_EDGE('',*,*,#495,.T.);
#649=ORIENTED_EDGE('',*,*,#484,.T.);
#650=ORIENTED_EDGE('',*,*,#496,.T.);
#651=ORIENTED_EDGE('',*,*,#497,.T.);
#652=ORIENTED_EDGE('',*,*,#490,.T.);
#653=ORIENTED_EDGE('',*,*,#498,.T.);
#654=ORIENTED_EDGE('',*,*,#499,.T.);
#655=ORIENTED_EDGE('',*,*,#499,.F.);
#656=ORIENTED_EDGE('',*,*,#500,.F.);
#657=ORIENTED_EDGE('',*,*,#501,.F.);
#658=ORIENTED_EDGE('',*,*,#502,.T.);
#659=ORIENTED_EDGE('',*,*,#498,.F.);
#660=ORIENTED_EDGE('',*,*,#489,.T.);
#661=ORIENTED_EDGE('',*,*,#503,.F.);
#662=ORIENTED_EDGE('',*,*,#504,.F.);
#663=ORIENTED_EDGE('',*,*,#505,.F.);
#664=ORIENTED_EDGE('',*,*,#500,.T.);
#665=ORIENTED_EDGE('',*,*,#505,.T.);
#666=ORIENTED_EDGE('',*,*,#506,.T.);
#667=ORIENTED_EDGE('',*,*,#507,.T.);
#668=ORIENTED_EDGE('',*,*,#501,.T.);
#669=ORIENTED_EDGE('',*,*,#492,.T.);
#670=ORIENTED_EDGE('',*,*,#508,.T.);
#671=ORIENTED_EDGE('',*,*,#509,.T.);
#672=ORIENTED_EDGE('',*,*,#510,.T.);
#673=ORIENTED_EDGE('',*,*,#497,.F.);
#674=ORIENTED_EDGE('',*,*,#502,.F.);
#675=ORIENTED_EDGE('',*,*,#507,.F.);
#676=ORIENTED_EDGE('',*,*,#511,.F.);
#677=ORIENTED_EDGE('',*,*,#508,.F.);
#678=ORIENTED_EDGE('',*,*,#491,.T.);
#679=ORIENTED_EDGE('',*,*,#510,.F.);
#680=ORIENTED_EDGE('',*,*,#512,.F.);
#681=ORIENTED_EDGE('',*,*,#513,.F.);
#682=ORIENTED_EDGE('',*,*,#514,.F.);
#683=ORIENTED_EDGE('',*,*,#515,.F.);
#684=ORIENTED_EDGE('',*,*,#516,.F.);
#685=ORIENTED_EDGE('',*,*,#474,.T.);
#686=ORIENTED_EDGE('',*,*,#517,.F.);
#687=ORIENTED_EDGE('',*,*,#485,.T.);
#688=ORIENTED_EDGE('',*,*,#495,.F.);
#689=ORIENTED_EDGE('',*,*,#493,.T.);
#690=ORIENTED_EDGE('',*,*,#518,.F.);
#691=ORIENTED_EDGE('',*,*,#488,.T.);
#692=ORIENTED_EDGE('',*,*,#519,.T.);
#693=ORIENTED_EDGE('',*,*,#520,.T.);
#694=ORIENTED_EDGE('',*,*,#503,.T.);
#695=ORIENTED_EDGE('',*,*,#487,.T.);
#696=ORIENTED_EDGE('',*,*,#496,.F.);
#697=ORIENTED_EDGE('',*,*,#483,.T.);
#698=ORIENTED_EDGE('',*,*,#521,.F.);
#699=ORIENTED_EDGE('',*,*,#476,.T.);
#700=ORIENTED_EDGE('',*,*,#522,.F.);
#701=ORIENTED_EDGE('',*,*,#523,.T.);
#702=ORIENTED_EDGE('',*,*,#524,.T.);
#703=ORIENTED_EDGE('',*,*,#525,.F.);
#704=ORIENTED_EDGE('',*,*,#526,.T.);
#705=ORIENTED_EDGE('',*,*,#519,.F.);
#706=ORIENTED_EDGE('',*,*,#527,.T.);
#707=ORIENTED_EDGE('',*,*,#506,.F.);
#708=ORIENTED_EDGE('',*,*,#504,.T.);
#709=ORIENTED_EDGE('',*,*,#520,.F.);
#710=ORIENTED_EDGE('',*,*,#526,.F.);
#711=ORIENTED_EDGE('',*,*,#528,.F.);
#712=ORIENTED_EDGE('',*,*,#529,.F.);
#713=ORIENTED_EDGE('',*,*,#530,.F.);
#714=ORIENTED_EDGE('',*,*,#531,.F.);
#715=ORIENTED_EDGE('',*,*,#532,.F.);
#716=ORIENTED_EDGE('',*,*,#533,.T.);
#717=ORIENTED_EDGE('',*,*,#534,.F.);
#718=ORIENTED_EDGE('',*,*,#535,.F.);
#719=ORIENTED_EDGE('',*,*,#536,.F.);
#720=ORIENTED_EDGE('',*,*,#512,.T.);
#721=ORIENTED_EDGE('',*,*,#509,.F.);
#722=ORIENTED_EDGE('',*,*,#511,.T.);
#723=ORIENTED_EDGE('',*,*,#537,.T.);
#724=ORIENTED_EDGE('',*,*,#538,.T.);
#725=ORIENTED_EDGE('',*,*,#528,.T.);
#726=ORIENTED_EDGE('',*,*,#525,.T.);
#727=ORIENTED_EDGE('',*,*,#539,.T.);
#728=ORIENTED_EDGE('',*,*,#540,.T.);
#729=ORIENTED_EDGE('',*,*,#530,.T.);
#730=ORIENTED_EDGE('',*,*,#541,.T.);
#731=ORIENTED_EDGE('',*,*,#540,.F.);
#732=ORIENTED_EDGE('',*,*,#542,.T.);
#733=ORIENTED_EDGE('',*,*,#543,.T.);
#734=ORIENTED_EDGE('',*,*,#544,.F.);
#735=ORIENTED_EDGE('',*,*,#455,.T.);
#736=ORIENTED_EDGE('',*,*,#545,.F.);
#737=ORIENTED_EDGE('',*,*,#546,.F.);
#738=ORIENTED_EDGE('',*,*,#547,.F.);
#739=ORIENTED_EDGE('',*,*,#531,.T.);
#740=ORIENTED_EDGE('',*,*,#548,.T.);
#741=ORIENTED_EDGE('',*,*,#538,.F.);
#742=ORIENTED_EDGE('',*,*,#549,.F.);
#743=ORIENTED_EDGE('',*,*,#541,.F.);
#744=ORIENTED_EDGE('',*,*,#529,.T.);
#745=ORIENTED_EDGE('',*,*,#454,.T.);
#746=ORIENTED_EDGE('',*,*,#449,.T.);
#747=ORIENTED_EDGE('',*,*,#550,.T.);
#748=ORIENTED_EDGE('',*,*,#545,.T.);
#749=ORIENTED_EDGE('',*,*,#444,.F.);
#750=ORIENTED_EDGE('',*,*,#480,.T.);
#751=ORIENTED_EDGE('',*,*,#551,.F.);
#752=ORIENTED_EDGE('',*,*,#552,.T.);
#753=ORIENTED_EDGE('',*,*,#553,.F.);
#754=ORIENTED_EDGE('',*,*,#546,.T.);
#755=ORIENTED_EDGE('',*,*,#550,.F.);
#756=ORIENTED_EDGE('',*,*,#448,.T.);
#757=ORIENTED_EDGE('',*,*,#477,.T.);
#758=ORIENTED_EDGE('',*,*,#521,.T.);
#759=ORIENTED_EDGE('',*,*,#482,.T.);
#760=ORIENTED_EDGE('',*,*,#554,.T.);
#761=ORIENTED_EDGE('',*,*,#537,.F.);
#762=ORIENTED_EDGE('',*,*,#524,.F.);
#763=ORIENTED_EDGE('',*,*,#555,.F.);
#764=ORIENTED_EDGE('',*,*,#514,.T.);
#765=ORIENTED_EDGE('',*,*,#556,.F.);
#766=ORIENTED_EDGE('',*,*,#557,.F.);
#767=ORIENTED_EDGE('',*,*,#558,.F.);
#768=ORIENTED_EDGE('',*,*,#559,.T.);
#769=ORIENTED_EDGE('',*,*,#560,.F.);
#770=ORIENTED_EDGE('',*,*,#542,.F.);
#771=ORIENTED_EDGE('',*,*,#539,.F.);
#772=ORIENTED_EDGE('',*,*,#549,.T.);
#773=ORIENTED_EDGE('',*,*,#460,.F.);
#774=ORIENTED_EDGE('',*,*,#466,.F.);
#775=ORIENTED_EDGE('',*,*,#471,.F.);
#776=ORIENTED_EDGE('',*,*,#478,.F.);
#777=ORIENTED_EDGE('',*,*,#554,.F.);
#778=ORIENTED_EDGE('',*,*,#481,.T.);
#779=ORIENTED_EDGE('',*,*,#544,.T.);
#780=ORIENTED_EDGE('',*,*,#561,.T.);
#781=ORIENTED_EDGE('',*,*,#562,.T.);
#782=ORIENTED_EDGE('',*,*,#456,.T.);
#783=ORIENTED_EDGE('',*,*,#562,.F.);
#784=ORIENTED_EDGE('',*,*,#563,.T.);
#785=ORIENTED_EDGE('',*,*,#559,.F.);
#786=ORIENTED_EDGE('',*,*,#564,.F.);
#787=ORIENTED_EDGE('',*,*,#533,.F.);
#788=ORIENTED_EDGE('',*,*,#565,.F.);
#789=ORIENTED_EDGE('',*,*,#552,.F.);
#790=ORIENTED_EDGE('',*,*,#566,.F.);
#791=ORIENTED_EDGE('',*,*,#457,.T.);
#792=ORIENTED_EDGE('',*,*,#567,.F.);
#793=ORIENTED_EDGE('',*,*,#516,.T.);
#794=ORIENTED_EDGE('',*,*,#568,.T.);
#795=ORIENTED_EDGE('',*,*,#522,.T.);
#796=ORIENTED_EDGE('',*,*,#475,.T.);
#797=ORIENTED_EDGE('',*,*,#458,.T.);
#798=ORIENTED_EDGE('',*,*,#566,.T.);
#799=ORIENTED_EDGE('',*,*,#551,.T.);
#800=ORIENTED_EDGE('',*,*,#479,.T.);
#801=ORIENTED_EDGE('',*,*,#486,.T.);
#802=ORIENTED_EDGE('',*,*,#517,.T.);
#803=ORIENTED_EDGE('',*,*,#473,.T.);
#804=ORIENTED_EDGE('',*,*,#468,.T.);
#805=ORIENTED_EDGE('',*,*,#561,.F.);
#806=ORIENTED_EDGE('',*,*,#543,.F.);
#807=ORIENTED_EDGE('',*,*,#560,.T.);
#808=ORIENTED_EDGE('',*,*,#563,.F.);
#809=ORIENTED_EDGE('',*,*,#568,.F.);
#810=ORIENTED_EDGE('',*,*,#515,.T.);
#811=ORIENTED_EDGE('',*,*,#555,.T.);
#812=ORIENTED_EDGE('',*,*,#523,.F.);
#813=ORIENTED_EDGE('',*,*,#565,.T.);
#814=ORIENTED_EDGE('',*,*,#532,.T.);
#815=ORIENTED_EDGE('',*,*,#547,.T.);
#816=ORIENTED_EDGE('',*,*,#553,.T.);
#817=ORIENTED_EDGE('',*,*,#536,.T.);
#818=ORIENTED_EDGE('',*,*,#569,.T.);
#819=ORIENTED_EDGE('',*,*,#556,.T.);
#820=ORIENTED_EDGE('',*,*,#513,.T.);
#821=ORIENTED_EDGE('',*,*,#569,.F.);
#822=ORIENTED_EDGE('',*,*,#535,.T.);
#823=ORIENTED_EDGE('',*,*,#570,.F.);
#824=ORIENTED_EDGE('',*,*,#557,.T.);
#825=ORIENTED_EDGE('',*,*,#534,.T.);
#826=ORIENTED_EDGE('',*,*,#564,.T.);
#827=ORIENTED_EDGE('',*,*,#558,.T.);
#828=ORIENTED_EDGE('',*,*,#570,.T.);
#829=ORIENTED_EDGE('',*,*,#567,.T.);
#830=ORIENTED_EDGE('',*,*,#571,.T.);
#831=ORIENTED_EDGE('',*,*,#548,.F.);
#832=ORIENTED_EDGE('',*,*,#571,.F.);
#833=ORIENTED_EDGE('',*,*,#527,.F.);
#834=ORIENTED_EDGE('',*,*,#572,.T.);
#835=ORIENTED_EDGE('',*,*,#518,.T.);
#836=ORIENTED_EDGE('',*,*,#572,.F.);
#837=CYLINDRICAL_SURFACE('',#921,0.5);
#838=CYLINDRICAL_SURFACE('',#927,0.5);
#839=CYLINDRICAL_SURFACE('',#932,0.5);
#840=CYLINDRICAL_SURFACE('',#938,0.5);
#841=CYLINDRICAL_SURFACE('',#950,0.5);
#842=CYLINDRICAL_SURFACE('',#953,1.);
#843=CYLINDRICAL_SURFACE('',#959,1.);
#844=CYLINDRICAL_SURFACE('',#961,2.);
#845=CYLINDRICAL_SURFACE('',#968,2.);
#846=CYLINDRICAL_SURFACE('',#979,1.);
#847=CYLINDRICAL_SURFACE('',#981,1.);
#848=CYLINDRICAL_SURFACE('',#989,1.);
#849=CYLINDRICAL_SURFACE('',#993,1.);
#850=CYLINDRICAL_SURFACE('',#998,1.);
#851=CYLINDRICAL_SURFACE('',#1004,1.);
#852=CYLINDRICAL_SURFACE('',#1005,2.);
#853=CYLINDRICAL_SURFACE('',#1006,2.);
#854=CYLINDRICAL_SURFACE('',#1007,19.125);
#855=CYLINDRICAL_SURFACE('',#1008,19.125);
#856=CYLINDRICAL_SURFACE('',#1009,1.);
#857=CYLINDRICAL_SURFACE('',#1010,1.);
#858=CYLINDRICAL_SURFACE('',#1012,1.);
#859=CYLINDRICAL_SURFACE('',#1013,1.6);
#860=CYLINDRICAL_SURFACE('',#1014,1.6);
#861=ADVANCED_FACE('',(#53),#837,.T.);
#862=ADVANCED_FACE('',(#54),#31,.T.);
#863=ADVANCED_FACE('',(#55),#32,.T.);
#864=ADVANCED_FACE('',(#56),#838,.T.);
#865=ADVANCED_FACE('',(#57),#33,.F.);
#866=ADVANCED_FACE('',(#58),#839,.T.);
#867=ADVANCED_FACE('',(#59),#34,.T.);
#868=ADVANCED_FACE('',(#60),#35,.F.);
#869=ADVANCED_FACE('',(#61),#840,.T.);
#870=ADVANCED_FACE('',(#62),#36,.F.);
#871=ADVANCED_FACE('',(#63),#37,.F.);
#872=ADVANCED_FACE('',(#64),#38,.F.);
#873=ADVANCED_FACE('',(#65),#39,.F.);
#874=ADVANCED_FACE('',(#66),#841,.F.);
#875=ADVANCED_FACE('',(#67),#842,.T.);
#876=ADVANCED_FACE('',(#68),#40,.F.);
#877=ADVANCED_FACE('',(#69),#41,.F.);
#878=ADVANCED_FACE('',(#70),#843,.T.);
#879=ADVANCED_FACE('',(#71),#844,.F.);
#880=ADVANCED_FACE('',(#72),#42,.T.);
#881=ADVANCED_FACE('',(#73,#15),#43,.F.);
#882=ADVANCED_FACE('',(#74),#845,.T.);
#883=ADVANCED_FACE('',(#75,#16),#44,.T.);
#884=ADVANCED_FACE('',(#76),#45,.T.);
#885=ADVANCED_FACE('',(#77),#846,.T.);
#886=ADVANCED_FACE('',(#78),#847,.T.);
#887=ADVANCED_FACE('',(#79,#17),#46,.T.);
#888=ADVANCED_FACE('',(#80),#47,.T.);
#889=ADVANCED_FACE('',(#81),#848,.F.);
#890=ADVANCED_FACE('',(#82),#48,.T.);
#891=ADVANCED_FACE('',(#83),#849,.F.);
#892=ADVANCED_FACE('',(#84),#49,.T.);
#893=ADVANCED_FACE('',(#85),#50,.T.);
#894=ADVANCED_FACE('',(#86),#850,.T.);
#895=ADVANCED_FACE('',(#87,#18),#51,.T.);
#896=ADVANCED_FACE('',(#88),#851,.T.);
#897=ADVANCED_FACE('',(#89),#852,.T.);
#898=ADVANCED_FACE('',(#90),#853,.T.);
#899=ADVANCED_FACE('',(#91),#854,.F.);
#900=ADVANCED_FACE('',(#92),#855,.F.);
#901=ADVANCED_FACE('',(#93),#856,.T.);
#902=ADVANCED_FACE('',(#94),#857,.F.);
#903=ADVANCED_FACE('',(#95),#52,.T.);
#904=ADVANCED_FACE('',(#96),#858,.F.);
#905=ADVANCED_FACE('',(#97),#859,.F.);
#906=ADVANCED_FACE('',(#98),#860,.F.);
#907=CLOSED_SHELL('',(#861,#862,#863,#864,#865,#866,#867,#868,#869,#870,
#871,#872,#873,#874,#875,#876,#877,#878,#879,#880,#881,#882,#883,#884,#885,
#886,#887,#888,#889,#890,#891,#892,#893,#894,#895,#896,#897,#898,#899,#900,
#901,#902,#903,#904,#905,#906));
#908=DERIVED_UNIT_ELEMENT(#910,1.);
#909=DERIVED_UNIT_ELEMENT(#1561,-3.);
#910=(
MASS_UNIT()
NAMED_UNIT(*)
SI_UNIT(.KILO.,.GRAM.)
);
#911=DERIVED_UNIT((#908,#909));
#912=MEASURE_REPRESENTATION_ITEM('density measure',
POSITIVE_RATIO_MEASURE(7800.),#911);
#913=PROPERTY_DEFINITION_REPRESENTATION(#918,#915);
#914=PROPERTY_DEFINITION_REPRESENTATION(#919,#916);
#915=REPRESENTATION('material name',(#917),#1558);
#916=REPRESENTATION('density',(#912),#1558);
#917=DESCRIPTIVE_REPRESENTATION_ITEM('Stainless Steel 17-4 PH',
'Stainless Steel 17-4 PH');
#918=PROPERTY_DEFINITION('material property','material name',#1568);
#919=PROPERTY_DEFINITION('material property','density of part',#1568);
#920=AXIS2_PLACEMENT_3D('',#1289,#1015,#1016);
#921=AXIS2_PLACEMENT_3D('',#1290,#1017,#1018);
#922=AXIS2_PLACEMENT_3D('',#1293,#1019,#1020);
#923=AXIS2_PLACEMENT_3D('',#1297,#1022,#1023);
#924=AXIS2_PLACEMENT_3D('',#1299,#1025,#1026);
#925=AXIS2_PLACEMENT_3D('',#1305,#1030,#1031);
#926=AXIS2_PLACEMENT_3D('',#1312,#1035,#1036);
#927=AXIS2_PLACEMENT_3D('',#1313,#1037,#1038);
#928=AXIS2_PLACEMENT_3D('',#1315,#1039,#1040);
#929=AXIS2_PLACEMENT_3D('',#1317,#1042,#1043);
#930=AXIS2_PLACEMENT_3D('',#1319,#1044,#1045);
#931=AXIS2_PLACEMENT_3D('',#1327,#1049,#1050);
#932=AXIS2_PLACEMENT_3D('',#1329,#1052,#1053);
#933=AXIS2_PLACEMENT_3D('',#1332,#1054,#1055);
#934=AXIS2_PLACEMENT_3D('',#1336,#1057,#1058);
#935=AXIS2_PLACEMENT_3D('',#1338,#1060,#1061);
#936=AXIS2_PLACEMENT_3D('',#1344,#1065,#1066);
#937=AXIS2_PLACEMENT_3D('',#1351,#1070,#1071);
#938=AXIS2_PLACEMENT_3D('',#1352,#1072,#1073);
#939=AXIS2_PLACEMENT_3D('',#1354,#1074,#1075);
#940=AXIS2_PLACEMENT_3D('',#1356,#1077,#1078);
#941=AXIS2_PLACEMENT_3D('',#1358,#1079,#1080);
#942=AXIS2_PLACEMENT_3D('',#1366,#1084,#1085);
#943=AXIS2_PLACEMENT_3D('',#1368,#1087,#1088);
#944=AXIS2_PLACEMENT_3D('',#1372,#1091,#1092);
#945=AXIS2_PLACEMENT_3D('',#1376,#1094,#1095);
#946=AXIS2_PLACEMENT_3D('',#1383,#1099,#1100);
#947=AXIS2_PLACEMENT_3D('',#1384,#1101,#1102);
#948=AXIS2_PLACEMENT_3D('',#1389,#1104,#1105);
#949=AXIS2_PLACEMENT_3D('',#1397,#1109,#1110);
#950=AXIS2_PLACEMENT_3D('',#1401,#1113,#1114);
#951=AXIS2_PLACEMENT_3D('',#1402,#1115,#1116);
#952=AXIS2_PLACEMENT_3D('',#1403,#1117,#1118);
#953=AXIS2_PLACEMENT_3D('',#1404,#1119,#1120);
#954=AXIS2_PLACEMENT_3D('',#1406,#1121,#1122);
#955=AXIS2_PLACEMENT_3D('',#1408,#1123,#1124);
#956=AXIS2_PLACEMENT_3D('',#1410,#1126,#1127);
#957=AXIS2_PLACEMENT_3D('',#1416,#1131,#1132);
#958=AXIS2_PLACEMENT_3D('',#1421,#1135,#1136);
#959=AXIS2_PLACEMENT_3D('',#1422,#1137,#1138);
#960=AXIS2_PLACEMENT_3D('',#1425,#1140,#1141);
#961=AXIS2_PLACEMENT_3D('',#1426,#1142,#1143);
#962=AXIS2_PLACEMENT_3D('',#1430,#1145,#1146);
#963=AXIS2_PLACEMENT_3D('',#1432,#1148,#1149);
#964=AXIS2_PLACEMENT_3D('',#1434,#1151,#1152);
#965=AXIS2_PLACEMENT_3D('',#1442,#1156,#1157);
#966=AXIS2_PLACEMENT_3D('',#1443,#1158,#1159);
#967=AXIS2_PLACEMENT_3D('',#1446,#1161,#1162);
#968=AXIS2_PLACEMENT_3D('',#1447,#1163,#1164);
#969=AXIS2_PLACEMENT_3D('',#1450,#1166,#1167);
#970=AXIS2_PLACEMENT_3D('',#1451,#1168,#1169);
#971=AXIS2_PLACEMENT_3D('',#1454,#1171,#1172);
#972=AXIS2_PLACEMENT_3D('',#1456,#1173,#1174);
#973=AXIS2_PLACEMENT_3D('',#1463,#1178,#1179);
#974=AXIS2_PLACEMENT_3D('',#1464,#1180,#1181);
#975=AXIS2_PLACEMENT_3D('',#1466,#1182,#1183);
#976=AXIS2_PLACEMENT_3D('',#1470,#1185,#1186);
#977=AXIS2_PLACEMENT_3D('',#1478,#1190,#1191);
#978=AXIS2_PLACEMENT_3D('',#1481,#1193,#1194);
#979=AXIS2_PLACEMENT_3D('',#1482,#1195,#1196);
#980=AXIS2_PLACEMENT_3D('',#1484,#1197,#1198);
#981=AXIS2_PLACEMENT_3D('',#1486,#1200,#1201);
#982=AXIS2_PLACEMENT_3D('',#1489,#1202,#1203);
#983=AXIS2_PLACEMENT_3D('',#1492,#1206,#1207);
#984=AXIS2_PLACEMENT_3D('',#1496,#1209,#1210);
#985=AXIS2_PLACEMENT_3D('',#1497,#1211,#1212);
#986=AXIS2_PLACEMENT_3D('',#1502,#1215,#1216);
#987=AXIS2_PLACEMENT_3D('',#1504,#1217,#1218);
#988=AXIS2_PLACEMENT_3D('',#1505,#1219,#1220);
#989=AXIS2_PLACEMENT_3D('',#1507,#1222,#1223);
#990=AXIS2_PLACEMENT_3D('',#1508,#1224,#1225);
#991=AXIS2_PLACEMENT_3D('',#1509,#1226,#1227);
#992=AXIS2_PLACEMENT_3D('',#1511,#1228,#1229);
#993=AXIS2_PLACEMENT_3D('',#1515,#1232,#1233);
#994=AXIS2_PLACEMENT_3D('',#1517,#1235,#1236);
#995=AXIS2_PLACEMENT_3D('',#1520,#1238,#1239);
#996=AXIS2_PLACEMENT_3D('',#1524,#1241,#1242);
#997=AXIS2_PLACEMENT_3D('',#1528,#1245,#1246);
#998=AXIS2_PLACEMENT_3D('',#1529,#1247,#1248);
#999=AXIS2_PLACEMENT_3D('',#1532,#1250,#1251);
#1000=AXIS2_PLACEMENT_3D('',#1533,#1252,#1253);
#1001=AXIS2_PLACEMENT_3D('',#1534,#1254,#1255);
#1002=AXIS2_PLACEMENT_3D('',#1536,#1257,#1258);
#1003=AXIS2_PLACEMENT_3D('',#1539,#1260,#1261);
#1004=AXIS2_PLACEMENT_3D('',#1540,#1262,#1263);
#1005=AXIS2_PLACEMENT_3D('',#1542,#1265,#1266);
#1006=AXIS2_PLACEMENT_3D('',#1543,#1267,#1268);
#1007=AXIS2_PLACEMENT_3D('',#1544,#1269,#1270);
#1008=AXIS2_PLACEMENT_3D('',#1545,#1271,#1272);
#1009=AXIS2_PLACEMENT_3D('',#1546,#1273,#1274);
#1010=AXIS2_PLACEMENT_3D('',#1547,#1275,#1276);
#1011=AXIS2_PLACEMENT_3D('',#1549,#1278,#1279);
#1012=AXIS2_PLACEMENT_3D('',#1551,#1281,#1282);
#1013=AXIS2_PLACEMENT_3D('',#1552,#1283,#1284);
#1014=AXIS2_PLACEMENT_3D('',#1554,#1286,#1287);
#1015=DIRECTION('axis',(0.,0.,1.));
#1016=DIRECTION('refdir',(1.,0.,0.));
#1017=DIRECTION('center_axis',(2.75419542420727E-13,6.12047272920195E-29,
-1.));
#1018=DIRECTION('ref_axis',(-0.707106781186549,0.707106781186546,-1.88411095042053E-13));
#1019=DIRECTION('center_axis',(2.22044604925031E-16,-1.21969062930177E-16,
1.));
#1020=DIRECTION('ref_axis',(-0.707106781186549,0.707106781186546,-1.88411095042053E-13));
#1021=DIRECTION('',(-2.75419542420727E-13,-6.12047272920195E-29,1.));
#1022=DIRECTION('center_axis',(-2.22044604925031E-16,1.381151798601E-16,
-1.));
#1023=DIRECTION('ref_axis',(-0.707106781186549,0.707106781186546,-1.88411095042053E-13));
#1024=DIRECTION('',(2.75419542420727E-13,6.12047272920195E-29,-1.));
#1025=DIRECTION('center_axis',(-1.,-2.22044604925031E-16,-2.75419542420727E-13));
#1026=DIRECTION('ref_axis',(-2.75419542420727E-13,-6.12047272920195E-29,
1.));
#1027=DIRECTION('',(2.00832593980653E-16,-1.,-1.21969062930177E-16));
#1028=DIRECTION('',(2.75419542420727E-13,6.12047272920195E-29,-1.));
#1029=DIRECTION('',(-2.22044604925069E-16,1.,1.381151798601E-16));
#1030=DIRECTION('center_axis',(-2.22044604925031E-16,1.21969062930177E-16,
-1.));
#1031=DIRECTION('ref_axis',(2.00832593980653E-16,-1.,-1.21969062930177E-16));
#1032=DIRECTION('',(-1.,-2.22044604925031E-16,2.22044604925031E-16));
#1033=DIRECTION('',(-2.22044604925031E-16,1.,1.21969062930177E-16));
#1034=DIRECTION('',(-1.,-2.22044604925031E-16,2.22044604925031E-16));
#1035=DIRECTION('center_axis',(2.22044604925031E-16,-1.21969062930177E-16,
1.));
#1036=DIRECTION('ref_axis',(-0.707106781186543,-0.707106781186552,-2.00971834711522E-13));
#1037=DIRECTION('center_axis',(-2.75419542420727E-13,-6.12047272920195E-29,
1.));
#1038=DIRECTION('ref_axis',(-0.707106781186543,-0.707106781186552,-2.00971834711522E-13));
#1039=DIRECTION('center_axis',(-2.22044604925031E-16,1.381151798601E-16,
-1.));
#1040=DIRECTION('ref_axis',(-0.707106781186543,-0.707106781186552,-2.00971834711522E-13));
#1041=DIRECTION('',(-2.75419542420727E-13,-6.12047272920195E-29,1.));
#1042=DIRECTION('center_axis',(-2.22044604925031E-16,1.,4.93038065763132E-32));
#1043=DIRECTION('ref_axis',(-2.22044604925031E-16,0.,-1.));
#1044=DIRECTION('center_axis',(2.22044604925031E-16,-1.,-4.93038065763132E-32));
#1045=DIRECTION('ref_axis',(0.707106781186548,1.57009245868378E-16,0.707106781186547));
#1046=DIRECTION('',(2.22044604925031E-16,0.,1.));
#1047=DIRECTION('',(-1.,-2.22044604925031E-16,2.22044604925031E-16));
#1048=DIRECTION('',(-2.22044604925031E-16,0.,-1.));
#1049=DIRECTION('center_axis',(-2.22044604925031E-16,1.,4.93038065763132E-32));
#1050=DIRECTION('ref_axis',(0.707106781186547,1.57009245868377E-16,0.707106781186548));
#1051=DIRECTION('',(-1.,-2.22044604925031E-16,2.22044604925031E-16));
#1052=DIRECTION('center_axis',(-2.22044604925031E-16,1.09476442525376E-47,
-1.));
#1053=DIRECTION('ref_axis',(0.707106781186541,0.707106781186554,0.));
#1054=DIRECTION('center_axis',(2.22044604925031E-16,1.21714096024431E-16,
1.));
#1055=DIRECTION('ref_axis',(0.707106781186541,0.707106781186554,0.));
#1056=DIRECTION('',(2.22044604925031E-16,-1.09476442525376E-47,1.));
#1057=DIRECTION('center_axis',(-2.22044604925031E-16,1.381151798601E-16,
-1.));
#1058=DIRECTION('ref_axis',(0.707106781186541,0.707106781186554,0.));
#1059=DIRECTION('',(-2.22044604925031E-16,1.09476442525376E-47,-1.));
#1060=DIRECTION('center_axis',(1.,2.22044604925031E-16,-2.22044604925031E-16));
#1061=DIRECTION('ref_axis',(-2.22044604925031E-16,0.,-1.));
#1062=DIRECTION('',(2.22044604925031E-16,-1.,-1.381151798601E-16));
#1063=DIRECTION('',(2.22044604925031E-16,-1.09476442525376E-47,1.));
#1064=DIRECTION('',(-2.22044604925031E-16,1.,-1.21714096024431E-16));
#1065=DIRECTION('center_axis',(-2.22044604925031E-16,1.381151798601E-16,
-1.));
#1066=DIRECTION('ref_axis',(2.22044604925031E-16,-1.,-1.381151798601E-16));
#1067=DIRECTION('',(1.,2.22044604925031E-16,-2.22044604925031E-16));
#1068=DIRECTION('',(-2.22044604925031E-16,1.,1.381151798601E-16));
#1069=DIRECTION('',(-1.,-2.22044604925031E-16,2.22044604925031E-16));
#1070=DIRECTION('center_axis',(-2.22044604925031E-16,1.381151798601E-16,
-1.));
#1071=DIRECTION('ref_axis',(0.707106781186554,-0.707106781186541,0.));
#1072=DIRECTION('center_axis',(-2.22044604925031E-16,1.09476442525376E-47,
-1.));
#1073=DIRECTION('ref_axis',(0.707106781186554,-0.707106781186541,0.));
#1074=DIRECTION('center_axis',(2.22044604925031E-16,1.21714096024431E-16,
1.));
#1075=DIRECTION('ref_axis',(0.707106781186554,-0.707106781186541,0.));
#1076=DIRECTION('',(-2.22044604925031E-16,1.09476442525376E-47,-1.));
#1077=DIRECTION('center_axis',(-2.22044604925031E-16,1.,4.93038065763132E-32));
#1078=DIRECTION('ref_axis',(-2.22044604925031E-16,0.,-1.));
#1079=DIRECTION('center_axis',(-2.22044604925031E-16,1.,4.93038065763132E-32));
#1080=DIRECTION('ref_axis',(-0.707106781186547,-1.57009245868377E-16,0.707106781186548));
#1081=DIRECTION('',(2.22044604925031E-16,0.,1.));
#1082=DIRECTION('',(-1.,-2.22044604925031E-16,2.22044604925031E-16));
#1083=DIRECTION('',(-2.22044604925031E-16,0.,-1.));
#1084=DIRECTION('center_axis',(2.22044604925031E-16,-1.,-4.93038065763132E-32));
#1085=DIRECTION('ref_axis',(-0.707106781186548,-1.57009245868378E-16,0.707106781186547));
#1086=DIRECTION('',(1.,2.22044604925031E-16,-2.22044604925031E-16));
#1087=DIRECTION('center_axis',(-2.22044604925031E-16,1.381151798601E-16,
-1.));
#1088=DIRECTION('ref_axis',(2.22044604925031E-16,-1.,-1.381151798601E-16));
#1089=DIRECTION('',(2.22044604925031E-16,-1.,-1.381151798601E-16));
#1090=DIRECTION('',(1.,2.22044604925031E-16,-2.22044604925031E-16));
#1091=DIRECTION('center_axis',(2.22044604925031E-16,-1.,-4.93038065763132E-32));
#1092=DIRECTION('ref_axis',(-2.22044604925031E-16,0.,-1.));
#1093=DIRECTION('',(1.,2.22044604925031E-16,-2.22044604925031E-16));
#1094=DIRECTION('center_axis',(-2.22044604925031E-16,1.,4.93038065763132E-32));
#1095=DIRECTION('ref_axis',(-0.707106781186548,-1.57009245868378E-16,0.707106781186547));
#1096=DIRECTION('',(2.22044604925031E-16,0.,1.));
#1097=DIRECTION('',(1.,2.22044604925031E-16,-2.22044604925031E-16));
#1098=DIRECTION('',(-2.22044604925031E-16,0.,-1.));
#1099=DIRECTION('center_axis',(2.22044604925031E-16,-1.,-4.93038065763132E-32));
#1100=DIRECTION('ref_axis',(-0.707106781186547,-1.57009245868377E-16,0.707106781186548));
#1101=DIRECTION('center_axis',(-2.22044604925031E-16,1.,4.93038065763132E-32));
#1102=DIRECTION('ref_axis',(-2.22044604925031E-16,0.,-1.));
#1103=DIRECTION('',(-2.22044604925031E-16,0.,-1.));
#1104=DIRECTION('center_axis',(-2.22044604925031E-16,1.,4.93038065763132E-32));
#1105=DIRECTION('ref_axis',(0.923879532511287,2.05142465794791E-16,0.382683432365089));
#1106=DIRECTION('',(0.707106781186547,-2.4201221189771E-16,-0.707106781186548));
#1107=DIRECTION('',(0.707106781186547,1.57009245868377E-16,0.707106781186548));
#1108=DIRECTION('',(-0.707106781186547,2.4201221189771E-16,0.707106781186548));
#1109=DIRECTION('center_axis',(2.22044604925031E-16,-1.,-4.93038065763132E-32));
#1110=DIRECTION('ref_axis',(0.923879532511287,2.05142465794791E-16,0.38268343236509));
#1111=DIRECTION('',(-2.22044604925031E-16,0.,-1.));
#1112=DIRECTION('',(-1.,-2.22044604925031E-16,2.22044604925031E-16));
#1113=DIRECTION('center_axis',(-1.,-2.22044604925031E-16,2.22044604925031E-16));
#1114=DIRECTION('ref_axis',(-3.14018491736755E-16,0.707106781186544,-0.707106781186551));
#1115=DIRECTION('center_axis',(-1.,-2.22044604925031E-16,2.22044604925031E-16));
#1116=DIRECTION('ref_axis',(-1.57155883461998E-30,-0.707106781186544,-0.707106781186551));
#1117=DIRECTION('center_axis',(1.,2.22044604925031E-16,-2.22044604925031E-16));
#1118=DIRECTION('ref_axis',(-1.57155883461998E-30,-0.707106781186544,-0.707106781186551));
#1119=DIRECTION('center_axis',(-0.707106781186547,-1.57009245868377E-16,
-0.707106781186548));
#1120=DIRECTION('ref_axis',(-0.500000000000002,-0.707106781186545,0.500000000000001));
#1121=DIRECTION('center_axis',(0.707106781186548,5.56030703634465E-16,0.707106781186547));
#1122=DIRECTION('ref_axis',(-0.500000000000001,-0.707106781186545,0.500000000000002));
#1123=DIRECTION('center_axis',(-0.707106781186548,-4.3365199619907E-16,
-0.707106781186547));
#1124=DIRECTION('ref_axis',(-0.500000000000001,-0.707106781186545,0.500000000000002));
#1125=DIRECTION('',(-0.707106781186547,-1.57009245868377E-16,-0.707106781186548));
#1126=DIRECTION('center_axis',(0.707106781186548,1.57009245868378E-16,-0.707106781186547));
#1127=DIRECTION('ref_axis',(-0.707106781186547,-1.57009245868377E-16,-0.707106781186548));
#1128=DIRECTION('',(4.1766056964996E-16,-1.,1.95615964724929E-16));
#1129=DIRECTION('',(0.689151757774653,0.223918979794504,0.689151757774653));
#1130=DIRECTION('',(-2.22044604925031E-16,1.,-5.64301557250683E-16));
#1131=DIRECTION('center_axis',(-0.707106781186548,-4.3365199619907E-16,
-0.707106781186547));
#1132=DIRECTION('ref_axis',(-1.35509791024619E-16,1.,-4.77766743350271E-16));
#1133=DIRECTION('',(2.22044604925031E-16,-1.,3.91231929449858E-16));
#1134=DIRECTION('',(0.689151757774653,-0.223918979794504,-0.689151757774653));
#1135=DIRECTION('center_axis',(-0.707106781186548,-4.3365199619907E-16,
-0.707106781186547));
#1136=DIRECTION('ref_axis',(-4.85287568260626E-16,1.,-1.27988966114264E-16));
#1137=DIRECTION('center_axis',(0.689151757774653,0.223918979794504,0.689151757774653));
#1138=DIRECTION('ref_axis',(-0.565597836363355,0.760727406648784,0.318422518478996));
#1139=DIRECTION('',(-0.689151757774653,-0.223918979794504,-0.689151757774653));
#1140=DIRECTION('center_axis',(0.707106781186548,5.56030703634465E-16,0.707106781186547));
#1141=DIRECTION('ref_axis',(-1.65385435993169E-15,1.,8.67508197755978E-16));
#1142=DIRECTION('center_axis',(-2.22044604925031E-16,1.,-5.64301557250683E-16));
#1143=DIRECTION('ref_axis',(0.923879532511287,4.21091322612448E-16,0.38268343236509));
#1144=DIRECTION('',(-2.22044604925031E-16,1.,-5.64301557250683E-16));
#1145=DIRECTION('center_axis',(-2.79792524853238E-16,0.951056516295158,
-0.309016994374935));
#1146=DIRECTION('ref_axis',(-1.21409798536637E-16,0.309016994374935,0.951056516295158));
#1147=DIRECTION('',(2.22044604925031E-16,-1.,5.64301557250683E-16));
#1148=DIRECTION('center_axis',(-0.707106781186548,-5.56030703634465E-16,
-0.707106781186547));
#1149=DIRECTION('ref_axis',(2.22044604925032E-16,-1.,5.64301557250683E-16));
#1150=DIRECTION('',(0.689151757774653,-0.223918979794504,-0.689151757774653));
#1151=DIRECTION('center_axis',(1.,2.22044604925031E-16,-2.22044604925031E-16));
#1152=DIRECTION('ref_axis',(-2.22044604925031E-16,1.,3.08148791101958E-32));
#1153=DIRECTION('',(-1.42561411991032E-16,-0.309016994374934,-0.951056516295158));
#1154=DIRECTION('',(-2.22044604925031E-16,1.,4.93038065763132E-32));
#1155=DIRECTION('',(1.42561411990964E-16,0.309016994375164,0.951056516295083));
#1156=DIRECTION('center_axis',(1.,2.22044604925031E-16,-2.22044604925031E-16));
#1157=DIRECTION('ref_axis',(-2.79792524853272E-16,0.951056516295083,-0.309016994375165));
#1158=DIRECTION('center_axis',(1.,2.22044604925031E-16,-2.22044604925031E-16));
#1159=DIRECTION('ref_axis',(7.34914128011767E-17,-0.852957031517638,-0.521981132211327));
#1160=DIRECTION('',(2.22044604925031E-16,-1.,-1.381151798601E-16));
#1161=DIRECTION('center_axis',(-1.,-2.22044604925031E-16,2.22044604925031E-16));
#1162=DIRECTION('ref_axis',(-2.22044604925031E-16,1.,7.70371977754894E-32));
#1163=DIRECTION('center_axis',(-2.22044604925031E-16,1.,-3.91231929449858E-16));
#1164=DIRECTION('ref_axis',(0.923879532511287,3.54860443407479E-16,0.382683432365089));
#1165=DIRECTION('',(-2.22044604925031E-16,1.,-3.91231929449858E-16));
#1166=DIRECTION('center_axis',(2.79792524853238E-16,-0.951056516295158,
0.309016994374935));
#1167=DIRECTION('ref_axis',(7.65686093591146E-17,0.309016994374935,0.951056516295158));
#1168=DIRECTION('center_axis',(1.,2.22044604925031E-16,-2.22044604925031E-16));
#1169=DIRECTION('ref_axis',(-2.22044604925031E-16,1.,3.08148791101958E-32));
#1170=DIRECTION('',(-2.22044604925031E-16,1.,-1.21714096024431E-16));
#1171=DIRECTION('center_axis',(-1.,-2.22044604925031E-16,2.22044604925031E-16));
#1172=DIRECTION('ref_axis',(7.34914128011767E-17,-0.852957031517638,-0.521981132211327));
#1173=DIRECTION('center_axis',(1.,2.22044604925031E-16,-2.22044604925031E-16));
#1174=DIRECTION('ref_axis',(-2.79792524853272E-16,0.951056516295083,-0.309016994375165));
#1175=DIRECTION('',(1.42561411990964E-16,0.309016994375164,0.951056516295083));
#1176=DIRECTION('',(2.22044604925031E-16,-1.,-4.93038065763132E-32));
#1177=DIRECTION('',(-1.42561411991032E-16,-0.309016994374934,-0.951056516295158));
#1178=DIRECTION('center_axis',(-1.,-2.22044604925031E-16,2.22044604925031E-16));
#1179=DIRECTION('ref_axis',(-2.22044604925031E-16,1.,7.70371977754894E-32));
#1180=DIRECTION('center_axis',(-2.79792524853238E-16,0.951056516295158,
-0.309016994374935));
#1181=DIRECTION('ref_axis',(-1.42561411991032E-16,-0.309016994374935,-0.951056516295158));
#1182=DIRECTION('center_axis',(2.79792524853238E-16,-0.951056516295158,
0.309016994374935));
#1183=DIRECTION('ref_axis',(-1.05758067271978E-17,-0.309016994374935,-0.951056516295158));
#1184=DIRECTION('',(1.,2.22044604925031E-16,-2.22044604925031E-16));
#1185=DIRECTION('center_axis',(2.79792524853238E-16,-0.951056516295158,
0.309016994374935));
#1186=DIRECTION('ref_axis',(-2.74547017254866E-16,-0.309016994374935,-0.951056516295158));
#1187=DIRECTION('',(1.42561411991032E-16,0.309016994374934,0.951056516295158));
#1188=DIRECTION('',(-1.,-2.22044604925031E-16,2.22044604925031E-16));
#1189=DIRECTION('',(-1.42561411991032E-16,-0.309016994374934,-0.951056516295158));
#1190=DIRECTION('center_axis',(2.79792524853238E-16,-0.951056516295158,
0.309016994374935));
#1191=DIRECTION('ref_axis',(-4.72525425150618E-16,-0.309016994374935,-0.951056516295158));
#1192=DIRECTION('',(1.,2.22044604925031E-16,-2.22044604925031E-16));
#1193=DIRECTION('center_axis',(2.79792524853238E-16,-0.951056516295158,
0.309016994374935));
#1194=DIRECTION('ref_axis',(1.87402601168554E-16,-0.309016994374935,-0.951056516295158));
#1195=DIRECTION('center_axis',(2.22044604925031E-16,-1.,-4.93038065763132E-32));
#1196=DIRECTION('ref_axis',(0.707106781186546,1.57009245868377E-16,-0.707106781186549));
#1197=DIRECTION('center_axis',(-2.79792524853272E-16,0.951056516295083,
-0.309016994375164));
#1198=DIRECTION('ref_axis',(-1.05758067271404E-17,-0.309016994375164,-0.951056516295083));
#1199=DIRECTION('',(-2.22044604925031E-16,1.,4.93038065763132E-32));
#1200=DIRECTION('center_axis',(2.22044604925031E-16,-1.,-4.93038065763132E-32));
#1201=DIRECTION('ref_axis',(-0.707106781186546,-1.57009245868377E-16,-0.707106781186549));
#1202=DIRECTION('center_axis',(-2.79792524853272E-16,0.951056516295083,
-0.309016994375164));
#1203=DIRECTION('ref_axis',(-2.74547017254788E-16,-0.309016994375164,-0.951056516295083));
#1204=DIRECTION('',(-2.22044604925031E-16,1.,4.93038065763132E-32));
#1205=DIRECTION('',(2.22044604925031E-16,-1.,-4.93038065763132E-32));
#1206=DIRECTION('center_axis',(-1.,-2.22044604925031E-16,2.22044604925031E-16));
#1207=DIRECTION('ref_axis',(2.22044604925031E-16,-1.,-3.08148791101958E-32));
#1208=DIRECTION('',(-1.42561411990964E-16,-0.309016994375164,-0.951056516295083));
#1209=DIRECTION('center_axis',(-1.,-2.22044604925031E-16,2.22044604925031E-16));
#1210=DIRECTION('ref_axis',(-2.79792524853272E-16,0.951056516295083,-0.309016994375165));
#1211=DIRECTION('center_axis',(1.,2.22044604925031E-16,-2.22044604925031E-16));
#1212=DIRECTION('ref_axis',(7.34914128011767E-17,-0.852957031517638,-0.521981132211327));
#1213=DIRECTION('',(2.22044604925031E-16,-1.,-1.21969062930177E-16));
#1214=DIRECTION('',(2.22044604925031E-16,0.,1.));
#1215=DIRECTION('center_axis',(1.,2.22044604925031E-16,-2.22044604925031E-16));
#1216=DIRECTION('ref_axis',(-2.54046296363023E-16,0.987688340595139,-0.156434465040224));
#1217=DIRECTION('center_axis',(1.,2.22044604925031E-16,-2.22044604925031E-16));
#1218=DIRECTION('ref_axis',(-2.22044604925031E-16,1.,7.70371977754894E-32));
#1219=DIRECTION('center_axis',(-2.22044604925031E-16,0.,-1.));
#1220=DIRECTION('ref_axis',(2.22044604925031E-16,-1.,-3.08148791101958E-32));
#1221=DIRECTION('',(-1.,-2.22044604925031E-16,2.22044604925031E-16));
#1222=DIRECTION('center_axis',(-2.22044604925031E-16,1.,1.21969062930177E-16));
#1223=DIRECTION('ref_axis',(0.707106781186548,7.07640943754807E-17,0.707106781186547));
#1224=DIRECTION('center_axis',(-2.22044604925031E-16,1.,4.93038065763132E-32));
#1225=DIRECTION('ref_axis',(0.707106781186548,1.57009245868378E-16,0.707106781186547));
#1226=DIRECTION('center_axis',(-2.22044604925031E-16,1.,4.93038065763132E-32));
#1227=DIRECTION('ref_axis',(-1.,-2.22044604925031E-16,2.22044604925031E-16));
#1228=DIRECTION('center_axis',(2.22044604925031E-16,-1.,-4.93038065763132E-32));
#1229=DIRECTION('ref_axis',(0.707106781186547,1.57009245868377E-16,0.707106781186548));
#1230=DIRECTION('',(-2.22044604925031E-16,0.,-1.));
#1231=DIRECTION('',(1.,2.22044604925031E-16,-2.22044604925031E-16));
#1232=DIRECTION('center_axis',(-2.22044604925031E-16,1.,-1.21714096024431E-16));
#1233=DIRECTION('ref_axis',(-0.707106781186548,-7.09443832035119E-17,0.707106781186547));
#1234=DIRECTION('',(2.22044604925031E-16,-1.,1.21714096024431E-16));
#1235=DIRECTION('center_axis',(2.79792524853272E-16,-0.951056516295083,
0.309016994375164));
#1236=DIRECTION('ref_axis',(1.42561411990964E-16,0.309016994375164,0.951056516295083));
#1237=DIRECTION('',(1.,2.22044604925031E-16,-2.22044604925031E-16));
#1238=DIRECTION('center_axis',(-2.79792524853272E-16,0.951056516295083,
-0.309016994375164));
#1239=DIRECTION('ref_axis',(1.87402601168596E-16,-0.309016994375164,-0.951056516295083));
#1240=DIRECTION('',(-1.,-2.22044604925031E-16,2.22044604925031E-16));
#1241=DIRECTION('center_axis',(-2.79792524853272E-16,0.951056516295083,
-0.309016994375164));
#1242=DIRECTION('ref_axis',(-4.72525425150524E-16,-0.309016994375164,-0.951056516295083));
#1243=DIRECTION('',(1.42561411990964E-16,0.309016994375164,0.951056516295083));
#1244=DIRECTION('',(1.,2.22044604925031E-16,-2.22044604925031E-16));
#1245=DIRECTION('center_axis',(-2.22044604925031E-16,-1.21714096024431E-16,
-1.));
#1246=DIRECTION('ref_axis',(-2.22044604925031E-16,1.,-1.21714096024431E-16));
#1247=DIRECTION('center_axis',(-1.,-2.22044604925031E-16,2.22044604925031E-16));
#1248=DIRECTION('ref_axis',(7.34914128011767E-17,-0.852957031517638,-0.521981132211327));
#1249=DIRECTION('',(1.,2.22044604925031E-16,-2.22044604925031E-16));
#1250=DIRECTION('center_axis',(-1.,-2.22044604925031E-16,2.22044604925031E-16));
#1251=DIRECTION('ref_axis',(7.34914128011767E-17,-0.852957031517638,-0.521981132211327));
#1252=DIRECTION('center_axis',(1.,2.22044604925031E-16,-2.22044604925031E-16));
#1253=DIRECTION('ref_axis',(2.22044604925031E-16,0.,1.));
#1254=DIRECTION('center_axis',(1.,2.22044604925031E-16,-2.22044604925031E-16));
#1255=DIRECTION('ref_axis',(-2.79792524853272E-16,0.951056516295083,-0.309016994375165));
#1256=DIRECTION('',(2.22044604925031E-16,-1.,-4.93038065763132E-32));
#1257=DIRECTION('center_axis',(-1.,-2.22044604925031E-16,2.22044604925031E-16));
#1258=DIRECTION('ref_axis',(-2.54046296363023E-16,0.987688340595139,-0.156434465040224));
#1259=DIRECTION('',(-2.22044604925031E-16,1.,1.381151798601E-16));
#1260=DIRECTION('center_axis',(1.,2.22044604925031E-16,-2.22044604925031E-16));
#1261=DIRECTION('ref_axis',(-2.22044604925031E-16,1.,7.70371977754894E-32));
#1262=DIRECTION('center_axis',(-1.,-2.22044604925031E-16,2.22044604925031E-16));
#1263=DIRECTION('ref_axis',(7.34914128011767E-17,-0.852957031517638,-0.521981132211327));
#1264=DIRECTION('',(1.,2.22044604925031E-16,-2.22044604925031E-16));
#1265=DIRECTION('center_axis',(2.22044604925031E-16,-1.,-1.381151798601E-16));
#1266=DIRECTION('ref_axis',(0.707106781186547,5.93470656045009E-17,0.707106781186548));
#1267=DIRECTION('center_axis',(-2.22044604925031E-16,1.,1.381151798601E-16));
#1268=DIRECTION('ref_axis',(-0.707106781186547,-2.54671426132254E-16,0.707106781186548));
#1269=DIRECTION('center_axis',(-1.,-2.22044604925031E-16,2.22044604925031E-16));
#1270=DIRECTION('ref_axis',(-2.79792524853272E-16,0.951056516295083,-0.309016994375165));
#1271=DIRECTION('center_axis',(-1.,-2.22044604925031E-16,2.22044604925031E-16));
#1272=DIRECTION('ref_axis',(-2.79792524853272E-16,0.951056516295083,-0.309016994375165));
#1273=DIRECTION('center_axis',(1.,2.22044604925031E-16,-2.22044604925031E-16));
#1274=DIRECTION('ref_axis',(-2.54046296363023E-16,0.987688340595139,-0.156434465040224));
#1275=DIRECTION('center_axis',(2.22044604925031E-16,-1.,-4.93038065763132E-32));
#1276=DIRECTION('ref_axis',(0.707106781186548,1.57009245868378E-16,-0.707106781186547));
#1277=DIRECTION('',(2.22044604925031E-16,-1.,-4.93038065763132E-32));
#1278=DIRECTION('center_axis',(2.22044604925031E-16,0.,1.));
#1279=DIRECTION('ref_axis',(2.22044604925031E-16,-1.,-3.08148791101958E-32));
#1280=DIRECTION('',(-2.22044604925031E-16,1.,4.93038065763132E-32));
#1281=DIRECTION('center_axis',(2.22044604925031E-16,-1.,-4.93038065763132E-32));
#1282=DIRECTION('ref_axis',(-0.707106781186548,-1.57009245868378E-16,-0.707106781186547));
#1283=DIRECTION('center_axis',(-1.,-2.22044604925031E-16,2.22044604925031E-16));
#1284=DIRECTION('ref_axis',(-2.22044604925031E-16,1.,7.70371977754894E-32));
#1285=DIRECTION('',(-1.,-2.22044604925031E-16,2.22044604925031E-16));
#1286=DIRECTION('center_axis',(-1.,-2.22044604925031E-16,2.22044604925031E-16));
#1287=DIRECTION('ref_axis',(-2.22044604925031E-16,1.,7.70371977754894E-32));
#1288=DIRECTION('',(-1.,-2.22044604925031E-16,2.22044604925031E-16));
#1289=CARTESIAN_POINT('',(0.,0.,0.));
#1290=CARTESIAN_POINT('Origin',(0.0900000000014001,-16.3303212378981,34.0174999910587));
#1291=CARTESIAN_POINT('',(0.0900000000005785,-15.8303212378981,36.9999999704957));
#1292=CARTESIAN_POINT('',(-0.4099999999995,-16.3303212378981,36.9999999704957));
#1293=CARTESIAN_POINT('Origin',(0.0900000000005787,-16.3303212378981,36.9999999704952));
#1294=CARTESIAN_POINT('',(-0.409999999999698,-16.3303212378981,38.1600000759959));
#1295=CARTESIAN_POINT('',(-0.4099999999986,-16.3303212378981,34.0174999910586));
#1296=CARTESIAN_POINT('',(0.0900000000002588,-15.8303212378981,38.1600000759959));
#1297=CARTESIAN_POINT('Origin',(0.0900000000002592,-16.3303212378981,38.1600000759897));
#1298=CARTESIAN_POINT('',(0.0900000000014,-15.8303212378981,34.0174999910587));
#1299=CARTESIAN_POINT('Origin',(-0.409999999999691,-45.7499999404507,38.));
#1300=CARTESIAN_POINT('',(-0.409999999999495,-41.5,36.9999999704957));
#1301=CARTESIAN_POINT('',(-0.409999999999495,-42.,36.9999999704957));
#1302=CARTESIAN_POINT('',(-0.409999999999693,-41.5,38.1600000759959));
#1303=CARTESIAN_POINT('',(-0.409999999999714,-41.5,38.0800000379948));
#1304=CARTESIAN_POINT('',(-0.409999999999695,-30.7901605891744,38.1600000759959));
#1305=CARTESIAN_POINT('Origin',(2.09,-15.8303212378981,36.9999999704957));
#1306=CARTESIAN_POINT('',(1.43,-15.8303212378981,36.9999999704957));
#1307=CARTESIAN_POINT('',(2.09,-15.8303212378981,36.9999999704957));
#1308=CARTESIAN_POINT('',(1.43000000000001,-42.,36.9999999704957));
#1309=CARTESIAN_POINT('',(1.43,-23.3102409135362,36.9999999704957));
#1310=CARTESIAN_POINT('',(0.0900000000005849,-42.,36.9999999704957));
#1311=CARTESIAN_POINT('',(2.09000000000001,-42.,36.9999999704957));
#1312=CARTESIAN_POINT('Origin',(0.0900000000005846,-41.5,36.9999999704952));
#1313=CARTESIAN_POINT('Origin',(0.0900000000002872,-41.5,38.0800000379949));
#1314=CARTESIAN_POINT('',(0.0900000000002654,-42.,38.1600000759959));
#1315=CARTESIAN_POINT('Origin',(0.0900000000002651,-41.5,38.1600000759897));
#1316=CARTESIAN_POINT('',(0.0900000000002873,-42.,38.0800000379949));
#1317=CARTESIAN_POINT('Origin',(22.59,-42.,38.1600000759959));
#1318=CARTESIAN_POINT('',(2.43000000000001,-42.,35.9999999704957));
#1319=CARTESIAN_POINT('Origin',(1.43000000000001,-42.,35.9999999704957));
#1320=CARTESIAN_POINT('',(2.43,-42.,30.4348580670932));
#1321=CARTESIAN_POINT('',(2.43,-42.,28.535000037972));
#1322=CARTESIAN_POINT('',(3.59000000000001,-42.,30.4348580670932));
#1323=CARTESIAN_POINT('',(11.09,-42.,30.4348580670932));
#1324=CARTESIAN_POINT('',(3.59000000000001,-42.,36.1600000759959));
#1325=CARTESIAN_POINT('',(3.59000000000001,-42.,34.518463151442));
#1326=CARTESIAN_POINT('',(1.59000000000001,-42.,38.1600000759959));
#1327=CARTESIAN_POINT('Origin',(1.59000000000001,-42.,36.1600000759959));
#1328=CARTESIAN_POINT('',(22.59,-42.,38.1600000759959));
#1329=CARTESIAN_POINT('Origin',(22.09,-28.25,35.7409999821186));
#1330=CARTESIAN_POINT('',(22.59,-28.25,36.9999999704957));
#1331=CARTESIAN_POINT('',(22.09,-27.75,36.9999999704957));
#1332=CARTESIAN_POINT('Origin',(22.09,-28.25,36.9999999704957));
#1333=CARTESIAN_POINT('',(22.09,-27.75,38.1600000759959));
#1334=CARTESIAN_POINT('',(22.09,-27.75,35.7409999821186));
#1335=CARTESIAN_POINT('',(22.59,-28.25,38.1600000759959));
#1336=CARTESIAN_POINT('Origin',(22.09,-28.25,38.1600000759959));
#1337=CARTESIAN_POINT('',(22.59,-28.25,35.7409999821186));
#1338=CARTESIAN_POINT('Origin',(22.59,-45.7499999404507,39.1599999642372));
#1339=CARTESIAN_POINT('',(22.59,-41.5,38.1600000759959));
#1340=CARTESIAN_POINT('',(22.59,-30.7901605891744,38.1600000759959));
#1341=CARTESIAN_POINT('',(22.59,-41.5,36.9999999704957));
#1342=CARTESIAN_POINT('',(22.59,-41.5,38.6600000201166));
#1343=CARTESIAN_POINT('',(22.59,34.3931059338379,36.9999999704957));
#1344=CARTESIAN_POINT('Origin',(22.59,-15.8303212378981,38.1600000759959));
#1345=CARTESIAN_POINT('',(20.59,-27.75,38.1600000759959));
#1346=CARTESIAN_POINT('',(16.84,-27.75,38.1600000759959));
#1347=CARTESIAN_POINT('',(20.59,-42.,38.1600000759959));
#1348=CARTESIAN_POINT('',(20.59,-23.2477409284305,38.1600000759959));
#1349=CARTESIAN_POINT('',(22.09,-42.,38.1600000759959));
#1350=CARTESIAN_POINT('',(22.59,-42.,38.1600000759959));
#1351=CARTESIAN_POINT('Origin',(22.09,-41.5,38.1600000759959));
#1352=CARTESIAN_POINT('Origin',(22.09,-41.5,38.6600000201166));
#1353=CARTESIAN_POINT('',(22.09,-42.,36.9999999704957));
#1354=CARTESIAN_POINT('Origin',(22.09,-41.5,36.9999999704957));
#1355=CARTESIAN_POINT('',(22.09,-42.,38.6600000201166));
#1356=CARTESIAN_POINT('Origin',(22.59,-42.,38.1600000759959));
#1357=CARTESIAN_POINT('',(18.59,-42.,36.1600000759959));
#1358=CARTESIAN_POINT('Origin',(20.59,-42.,36.1600000759959));
#1359=CARTESIAN_POINT('',(18.59,-42.,30.4348580670932));
#1360=CARTESIAN_POINT('',(18.59,-42.,28.535000037972));
#1361=CARTESIAN_POINT('',(19.75,-42.,30.4348580670932));
#1362=CARTESIAN_POINT('',(11.09,-42.,30.4348580670932));
#1363=CARTESIAN_POINT('',(19.75,-42.,35.9999999704957));
#1364=CARTESIAN_POINT('',(19.75,-42.,28.535000037972));
#1365=CARTESIAN_POINT('',(20.75,-42.,36.9999999704957));
#1366=CARTESIAN_POINT('Origin',(20.75,-42.,35.9999999704957));
#1367=CARTESIAN_POINT('',(20.09,-42.,36.9999999704957));
#1368=CARTESIAN_POINT('Origin',(22.59,-15.8303212378981,38.1600000759959));
#1369=CARTESIAN_POINT('',(1.59,-15.8303212378981,38.1600000759959));
#1370=CARTESIAN_POINT('',(1.59,-30.6651606189629,38.1600000759959));
#1371=CARTESIAN_POINT('',(16.84,-15.8303212378981,38.1600000759959));
#1372=CARTESIAN_POINT('Origin',(11.09,-27.75,32.322));
#1373=CARTESIAN_POINT('',(20.75,-27.75,36.9999999704957));
#1374=CARTESIAN_POINT('',(20.09,-27.75,36.9999999704957));
#1375=CARTESIAN_POINT('',(19.75,-27.75,35.9999999704957));
#1376=CARTESIAN_POINT('Origin',(20.75,-27.75,35.9999999704957));
#1377=CARTESIAN_POINT('',(19.75,-27.75,19.7619998944998));
#1378=CARTESIAN_POINT('',(19.75,-27.75,17.6669999472239));
#1379=CARTESIAN_POINT('',(18.59,-27.75,19.7619998944998));
#1380=CARTESIAN_POINT('',(15.59,-27.75,19.7619998944998));
#1381=CARTESIAN_POINT('',(18.59,-27.75,36.1600000759959));
#1382=CARTESIAN_POINT('',(18.59,-27.75,24.196999999974));
#1383=CARTESIAN_POINT('Origin',(20.59,-27.75,36.1600000759959));
#1384=CARTESIAN_POINT('Origin',(20.09,-26.75,24.26));
#1385=CARTESIAN_POINT('',(19.75,-26.75,20.262111157645));
#1386=CARTESIAN_POINT('',(19.75,-26.75,19.7619998944998));
#1387=CARTESIAN_POINT('',(19.75,-26.75,21.584999999974));
#1388=CARTESIAN_POINT('',(19.1642135623731,-26.75,21.6763247200181));
#1389=CARTESIAN_POINT('Origin',(17.75,-26.75,20.262111157645));
#1390=CARTESIAN_POINT('',(18.1173507219629,-26.75,22.7231875604284));
#1391=CARTESIAN_POINT('',(16.3546090221659,-26.75,24.4859292602253));
#1392=CARTESIAN_POINT('',(17.2971067811865,-26.75,21.9029436196521));
#1393=CARTESIAN_POINT('',(18.994716151365,-26.75,23.6005529898306));
#1394=CARTESIAN_POINT('',(18.0042135623731,-26.75,21.1958368384655));
#1395=CARTESIAN_POINT('',(18.7163455967291,-26.75,20.4837048041096));
#1396=CARTESIAN_POINT('',(18.59,-26.75,19.7816232760924));
#1397=CARTESIAN_POINT('Origin',(16.59,-26.75,19.7816232760924));
#1398=CARTESIAN_POINT('',(18.59,-26.75,19.7619998944998));
#1399=CARTESIAN_POINT('',(18.59,-26.75,21.584999999974));
#1400=CARTESIAN_POINT('',(20.09,-26.75,19.7619998944998));
#1401=CARTESIAN_POINT('Origin',(20.09,-27.25,19.7619998944998));
#1402=CARTESIAN_POINT('Origin',(18.59,-27.25,19.7619998944998));
#1403=CARTESIAN_POINT('Origin',(19.75,-27.25,19.7619998944998));
#1404=CARTESIAN_POINT('Origin',(18.994716151365,-25.75,23.6005529898306));
#1405=CARTESIAN_POINT('',(16.59,-25.75,22.6100504008386));
#1406=CARTESIAN_POINT('Origin',(17.2971067811865,-25.75,21.9029436196521));
#1407=CARTESIAN_POINT('',(17.4102439407763,-25.75,23.4302943416149));
#1408=CARTESIAN_POINT('Origin',(18.1173507219629,-25.75,22.7231875604284));
#1409=CARTESIAN_POINT('',(18.2876093701785,-25.75,24.3076597710171));
#1410=CARTESIAN_POINT('Origin',(17.4102439407763,-27.75,23.4302943416149));
#1411=CARTESIAN_POINT('',(17.4102439407763,-21.0541815601372,23.4302943416149));
#1412=CARTESIAN_POINT('',(17.4102439407763,-27.75,23.4302943416149));
#1413=CARTESIAN_POINT('',(16.59,-21.3206949722111,22.6100504008386));
#1414=CARTESIAN_POINT('',(18.5812301712417,-20.6737050698415,24.6012805720804));
#1415=CARTESIAN_POINT('',(16.59,-25.3159874696045,22.6100504008386));
#1416=CARTESIAN_POINT('Origin',(13.1726285068264,-27.75,27.6679097755648));
#1417=CARTESIAN_POINT('',(19.1642135623731,-20.3428656920025,21.6763247200181));
#1418=CARTESIAN_POINT('',(19.1642135623731,-29.2075803094815,21.6763247200181));
#1419=CARTESIAN_POINT('',(18.2718592191503,-20.0529221898705,22.5686790632409));
#1420=CARTESIAN_POINT('',(11.422721660964,-17.8275024950073,29.4178166214273));
#1421=CARTESIAN_POINT('Origin',(18.1173507219629,-21.0541815601372,22.7231875604284));
#1422=CARTESIAN_POINT('Origin',(19.2883369524283,-20.6737050698415,23.8941737908938));
#1423=CARTESIAN_POINT('',(17.451615278374,-20.3194356019444,21.7484351224646));
#1424=CARTESIAN_POINT('',(19.2883369524283,-19.7226485535463,23.5851567965189));
#1425=CARTESIAN_POINT('Origin',(17.2971067811865,-21.3206949722111,21.9029436196521));
#1426=CARTESIAN_POINT('Origin',(16.59,-25.2727231028693,19.7816232760924));
#1427=CARTESIAN_POINT('',(18.0042135623731,-20.4989856685202,21.1958368384655));
#1428=CARTESIAN_POINT('',(18.0042135623731,-25.2727231028693,21.1958368384655));
#1429=CARTESIAN_POINT('',(18.59,-20.958491509615,19.7816232760924));
#1430=CARTESIAN_POINT('Origin',(16.59,-20.9584915096149,19.7816232760924));
#1431=CARTESIAN_POINT('',(18.59,-25.2727231028693,19.7816232760924));
#1432=CARTESIAN_POINT('Origin',(18.7163455967291,-19.8802855867757,20.4837048041096));
#1433=CARTESIAN_POINT('',(12.9765836851425,-18.865409696039,26.2234667156962));
#1434=CARTESIAN_POINT('Origin',(18.59,-30.6651606189629,18.909999999948));
#1435=CARTESIAN_POINT('',(18.59,-26.8465638397298,1.66000000000001));
#1436=CARTESIAN_POINT('',(18.59,-19.0453814431209,25.6695706325458));
#1437=CARTESIAN_POINT('',(18.59,-33.5759220748552,1.66000000000002));
#1438=CARTESIAN_POINT('',(18.59,-28.8526056884479,1.66000000000001));
#1439=CARTESIAN_POINT('',(18.59,-31.9693559548757,6.60450209884082));
#1440=CARTESIAN_POINT('',(18.59,-31.3145466585117,8.61979789024781));
#1441=CARTESIAN_POINT('',(18.59,-41.4550713952308,29.5444031130148));
#1442=CARTESIAN_POINT('Origin',(18.59,-50.1583118290191,12.5144521162659));
#1443=CARTESIAN_POINT('Origin',(18.59,-41.,30.4348580670932));
#1444=CARTESIAN_POINT('',(18.59,-23.2477409284305,36.1600000759959));
#1445=CARTESIAN_POINT('',(18.59,-29.6,8.66000000000001));
#1446=CARTESIAN_POINT('Origin',(18.59,-28.,8.66000000000001));
#1447=CARTESIAN_POINT('Origin',(17.75,-29.2075803094815,20.262111157645));
#1448=CARTESIAN_POINT('',(19.75,-20.8023715330973,20.262111157645));
#1449=CARTESIAN_POINT('',(19.75,-29.2075803094815,20.262111157645));
#1450=CARTESIAN_POINT('Origin',(17.75,-20.8023715330973,20.262111157645));
#1451=CARTESIAN_POINT('Origin',(19.75,-30.6651606189629,18.909999999948));
#1452=CARTESIAN_POINT('',(19.75,-36.3325803094814,35.9999999704957));
#1453=CARTESIAN_POINT('',(19.75,-41.4550713952308,29.5444031130148));
#1454=CARTESIAN_POINT('Origin',(19.75,-41.,30.4348580670932));
#1455=CARTESIAN_POINT('',(19.75,-31.9693559548757,6.60450209884082));
#1456=CARTESIAN_POINT('Origin',(19.75,-50.1583118290191,12.5144521162659));
#1457=CARTESIAN_POINT('',(19.75,-33.9528289224857,0.50000000000002));
#1458=CARTESIAN_POINT('',(19.75,-31.3145466585117,8.61979789024781));
#1459=CARTESIAN_POINT('',(19.75,-27.22347068736,0.500000000000016));
#1460=CARTESIAN_POINT('',(19.75,-29.0962954606225,0.500000000000016));
#1461=CARTESIAN_POINT('',(19.75,-19.0453814431209,25.6695706325458));
#1462=CARTESIAN_POINT('',(19.75,-29.6,8.66000000000001));
#1463=CARTESIAN_POINT('Origin',(19.75,-28.,8.66000000000001));
#1464=CARTESIAN_POINT('Origin',(11.09,-15.949203302435,35.1986271242969));
#1465=CARTESIAN_POINT('',(18.75,-27.5483903835928,-0.499999999999985));
#1466=CARTESIAN_POINT('Origin',(18.75,-27.2234706873599,0.500000000000016));
#1467=CARTESIAN_POINT('',(3.43,-27.5483903835928,-0.499999999999985));
#1468=CARTESIAN_POINT('',(11.09,-27.5483903835928,-0.499999999999985));
#1469=CARTESIAN_POINT('',(2.42999999999999,-27.22347068736,0.500000000000016));
#1470=CARTESIAN_POINT('Origin',(3.43,-27.2234706873599,0.500000000000016));
#1471=CARTESIAN_POINT('',(2.43,-15.879264721603,35.4138759431371));
#1472=CARTESIAN_POINT('',(2.43,-19.0513496606244,25.651202347789));
#1473=CARTESIAN_POINT('',(3.59,-15.879264721603,35.4138759431371));
#1474=CARTESIAN_POINT('',(11.09,-15.879264721603,35.4138759431371));
#1475=CARTESIAN_POINT('',(3.59,-26.8465638397298,1.66000000000001));
#1476=CARTESIAN_POINT('',(3.59,-17.9951863084942,28.901738909208));
#1477=CARTESIAN_POINT('',(4.59,-27.1714835359627,0.660000000000012));
#1478=CARTESIAN_POINT('Origin',(4.59,-26.8465638397298,1.66000000000001));
#1479=CARTESIAN_POINT('',(17.59,-27.1714835359627,0.660000000000012));
#1480=CARTESIAN_POINT('',(11.09,-27.1714835359627,0.660000000000012));
#1481=CARTESIAN_POINT('Origin',(17.59,-26.8465638397298,1.66000000000001));
#1482=CARTESIAN_POINT('Origin',(18.75,-29.0962954606225,0.500000000000016));
#1483=CARTESIAN_POINT('',(18.75,-34.2777486187188,-0.49999999999998));
#1484=CARTESIAN_POINT('Origin',(18.75,-33.9528289224857,0.50000000000002));
#1485=CARTESIAN_POINT('',(18.75,-29.0962954606225,-0.499999999999985));
#1486=CARTESIAN_POINT('Origin',(3.43,-29.1587954457283,0.500000000000016));
#1487=CARTESIAN_POINT('',(3.43,-34.2777486187188,-0.49999999999998));
#1488=CARTESIAN_POINT('',(2.43,-33.9528289224857,0.50000000000002));
#1489=CARTESIAN_POINT('Origin',(3.43,-33.9528289224857,0.50000000000002));
#1490=CARTESIAN_POINT('',(2.42999999999999,-29.1587954457283,0.500000000000016));
#1491=CARTESIAN_POINT('',(3.43,-29.1587954457283,-0.499999999999985));
#1492=CARTESIAN_POINT('Origin',(2.43,-30.7901605891744,18.909999999948));
#1493=CARTESIAN_POINT('',(2.43,-31.9693559548757,6.60450209884082));
#1494=CARTESIAN_POINT('',(2.43,-31.3205148760153,8.60142960549101));
#1495=CARTESIAN_POINT('',(2.43,-41.4550713952308,29.5444031130148));
#1496=CARTESIAN_POINT('Origin',(2.43,-50.1583118290191,12.5144521162659));
#1497=CARTESIAN_POINT('Origin',(2.43,-41.,30.4348580670932));
#1498=CARTESIAN_POINT('',(2.43,-15.8303212378981,35.9999999704957));
#1499=CARTESIAN_POINT('',(2.43,-23.3102409135362,35.9999999704957));
#1500=CARTESIAN_POINT('',(2.43,-15.8303212378981,35.722892937512));
#1501=CARTESIAN_POINT('',(2.43,-15.8303212378981,38.6599999998961));
#1502=CARTESIAN_POINT('Origin',(2.43,-16.8303212378981,35.722892937512));
#1503=CARTESIAN_POINT('',(2.43,-29.6,8.66000000000001));
#1504=CARTESIAN_POINT('Origin',(2.43,-28.,8.66000000000001));
#1505=CARTESIAN_POINT('Origin',(11.09,-27.5274303022822,-0.499999999999985));
#1506=CARTESIAN_POINT('',(11.09,-34.2777486187188,-0.49999999999998));
#1507=CARTESIAN_POINT('Origin',(1.43,-23.3102409135362,35.9999999704957));
#1508=CARTESIAN_POINT('Origin',(1.43,-15.8303212378981,35.9999999704957));
#1509=CARTESIAN_POINT('Origin',(11.09,-15.8303212378981,30.0349999821203));
#1510=CARTESIAN_POINT('',(3.59,-15.8303212378981,36.1600000759959));
#1511=CARTESIAN_POINT('Origin',(1.59,-15.8303212378981,36.1600000759959));
#1512=CARTESIAN_POINT('',(3.59,-15.8303212378981,35.722892937512));
#1513=CARTESIAN_POINT('',(3.59,-15.8303212378981,39.1599999642372));
#1514=CARTESIAN_POINT('',(11.09,-15.8303212378981,35.722892937512));
#1515=CARTESIAN_POINT('Origin',(20.75,-36.3325803094814,35.9999999704957));
#1516=CARTESIAN_POINT('',(20.75,-36.3325803094814,36.9999999704957));
#1517=CARTESIAN_POINT('Origin',(11.09,-34.400772028931,-0.878627124296885));
#1518=CARTESIAN_POINT('',(11.09,-31.9693559548757,6.60450209884082));
#1519=CARTESIAN_POINT('',(17.59,-33.9008417710884,0.660000000000016));
#1520=CARTESIAN_POINT('Origin',(17.59,-33.5759220748552,1.66000000000002));
#1521=CARTESIAN_POINT('',(4.59,-33.9008417710884,0.660000000000016));
#1522=CARTESIAN_POINT('',(11.09,-33.9008417710884,0.660000000000016));
#1523=CARTESIAN_POINT('',(3.59,-33.5759220748552,1.66000000000002));
#1524=CARTESIAN_POINT('Origin',(4.59,-33.5759220748552,1.66000000000002));
#1525=CARTESIAN_POINT('',(3.59,-31.9693559548757,6.60450209884082));
#1526=CARTESIAN_POINT('',(3.59,-30.2643515238849,11.8519661669078));
#1527=CARTESIAN_POINT('',(11.09,-31.9693559548757,6.60450209884082));
#1528=CARTESIAN_POINT('Origin',(20.09,-42.,36.9999999704957));
#1529=CARTESIAN_POINT('Origin',(11.09,-41.,30.4348580670932));
#1530=CARTESIAN_POINT('',(3.59000000000001,-41.4550713952308,29.5444031130148));
#1531=CARTESIAN_POINT('',(11.09,-41.4550713952308,29.5444031130148));
#1532=CARTESIAN_POINT('Origin',(3.59000000000001,-41.,30.4348580670932));
#1533=CARTESIAN_POINT('Origin',(3.59000000000001,-45.5000000000277,30.8769262268881));
#1534=CARTESIAN_POINT('Origin',(3.59,-50.1583118290191,12.5144521162659));
#1535=CARTESIAN_POINT('',(3.59,-36.2700253789802,1.66000000000002));
#1536=CARTESIAN_POINT('Origin',(3.59,-16.8303212378981,35.722892937512));
#1537=CARTESIAN_POINT('',(3.59,-30.6651606189629,36.1600000759959));
#1538=CARTESIAN_POINT('',(3.59,-29.6,8.66000000000001));
#1539=CARTESIAN_POINT('Origin',(3.59,-28.,8.66000000000001));
#1540=CARTESIAN_POINT('Origin',(11.09,-41.,30.4348580670932));
#1541=CARTESIAN_POINT('',(11.09,-41.4550713952308,29.5444031130148));
#1542=CARTESIAN_POINT('Origin',(1.59,-30.6651606189629,36.1600000759959));
#1543=CARTESIAN_POINT('Origin',(20.59,-23.2477409284305,36.1600000759959));
#1544=CARTESIAN_POINT('Origin',(11.09,-50.1583118290191,12.5144521162659));
#1545=CARTESIAN_POINT('Origin',(11.09,-50.1583118290191,12.5144521162659));
#1546=CARTESIAN_POINT('Origin',(11.09,-16.8303212378981,35.722892937512));
#1547=CARTESIAN_POINT('Origin',(17.59,-28.8526056884479,1.66000000000001));
#1548=CARTESIAN_POINT('',(17.59,-28.8526056884479,0.660000000000012));
#1549=CARTESIAN_POINT('Origin',(11.09,-27.0400507579328,0.660000000000012));
#1550=CARTESIAN_POINT('',(4.59,-36.2700253789802,0.660000000000016));
#1551=CARTESIAN_POINT('Origin',(4.59,-36.2700253789802,1.66000000000002));
#1552=CARTESIAN_POINT('Origin',(11.09,-28.,8.66000000000001));
#1553=CARTESIAN_POINT('',(11.09,-29.6,8.66000000000001));
#1554=CARTESIAN_POINT('Origin',(11.09,-28.,8.66000000000001));
#1555=CARTESIAN_POINT('',(11.09,-29.6,8.66000000000001));
#1556=UNCERTAINTY_MEASURE_WITH_UNIT(LENGTH_MEASURE(0.01),#1560,
'DISTANCE_ACCURACY_VALUE',
'Maximum model space distance between geometric entities at asserted c
onnectivities');
#1557=UNCERTAINTY_MEASURE_WITH_UNIT(LENGTH_MEASURE(0.01),#1560,
'DISTANCE_ACCURACY_VALUE',
'Maximum model space distance between geometric entities at asserted c
onnectivities');
#1558=(
GEOMETRIC_REPRESENTATION_CONTEXT(3)
GLOBAL_UNCERTAINTY_ASSIGNED_CONTEXT((#1556))
GLOBAL_UNIT_ASSIGNED_CONTEXT((#1560,#1562,#1563))
REPRESENTATION_CONTEXT('','3D')
);
#1559=(
GEOMETRIC_REPRESENTATION_CONTEXT(3)
GLOBAL_UNCERTAINTY_ASSIGNED_CONTEXT((#1557))
GLOBAL_UNIT_ASSIGNED_CONTEXT((#1560,#1562,#1563))
REPRESENTATION_CONTEXT('','3D')
);
#1560=(
LENGTH_UNIT()
NAMED_UNIT(*)
SI_UNIT(.MILLI.,.METRE.)
);
#1561=(
LENGTH_UNIT()
NAMED_UNIT(*)
SI_UNIT($,.METRE.)
);
#1562=(
NAMED_UNIT(*)
PLANE_ANGLE_UNIT()
SI_UNIT($,.RADIAN.)
);
#1563=(
NAMED_UNIT(*)
SI_UNIT($,.STERADIAN.)
SOLID_ANGLE_UNIT()
);
#1564=SHAPE_DEFINITION_REPRESENTATION(#1565,#1566);
#1565=PRODUCT_DEFINITION_SHAPE('',$,#1568);
#1566=SHAPE_REPRESENTATION('',(#920),#1558);
#1567=PRODUCT_DEFINITION_CONTEXT('part definition',#1572,'design');
#1568=PRODUCT_DEFINITION('DDXX.2 Rear Rails','DDXX.2 Rear Rails v4',#1569,
#1567);
#1569=PRODUCT_DEFINITION_FORMATION('',$,#1574);
#1570=PRODUCT_RELATED_PRODUCT_CATEGORY('DDXX.2 Rear Rails v4',
'DDXX.2 Rear Rails v4',(#1574));
#1571=APPLICATION_PROTOCOL_DEFINITION('international standard',
'automotive_design',2009,#1572);
#1572=APPLICATION_CONTEXT(
'Core Data for Automotive Mechanical Design Process');
#1573=PRODUCT_CONTEXT('part definition',#1572,'mechanical');
#1574=PRODUCT('DDXX.2 Rear Rails','DDXX.2 Rear Rails v4',$,(#1573));
#1575=PRESENTATION_STYLE_ASSIGNMENT((#1577));
#1576=PRESENTATION_STYLE_ASSIGNMENT((#1578));
#1577=SURFACE_STYLE_USAGE(.BOTH.,#1579);
#1578=SURFACE_STYLE_USAGE(.BOTH.,#1580);
#1579=SURFACE_SIDE_STYLE('',(#1581));
#1580=SURFACE_SIDE_STYLE('',(#1582));
#1581=SURFACE_STYLE_FILL_AREA(#1583);
#1582=SURFACE_STYLE_FILL_AREA(#1584);
#1583=FILL_AREA_STYLE('Stainless Steel - Satin',(#1585));
#1584=FILL_AREA_STYLE('Opaque(191,191,191)',(#1586));
#1585=FILL_AREA_STYLE_COLOUR('Stainless Steel - Satin',#1587);
#1586=FILL_AREA_STYLE_COLOUR('Opaque(191,191,191)',#1588);
#1587=COLOUR_RGB('Stainless Steel - Satin',0.796078431372549,0.796078431372549,
0.796078431372549);
#1588=COLOUR_RGB('Opaque(191,191,191)',0.749019607843137,0.749019607843137,
0.749019607843137);
ENDSEC;
END-ISO-10303-21;
